<svg id="icon" xmlns="http://www.w3.org/2000/svg" viewBox="0 0 50 49.96"><defs><style>.cls-1{fill:#c8c9c9;}</style></defs><path class="cls-1" d="M13.65,21.89a1.27,1.27,0,0,1-.33-.24l-5-5c-.91-.91-.61-3.86,1.94-6.41A7.46,7.46,0,0,1,15.2,7.82a2.08,2.08,0,0,1,1.46.47l5,5a1.81,1.81,0,0,1,.18.27l6.81,6.82A13.49,13.49,0,0,0,30,14.77a9.71,9.71,0,0,0-2.78-7l-5-5A9.76,9.76,0,0,0,15.2,0,15.13,15.13,0,0,0,4.72,4.7c-5.45,5.44-6.3,13.12-1.94,17.47l5,5a9.76,9.76,0,0,0,7,2.76,13.45,13.45,0,0,0,5.61-1.31Zm33.57,5.9-5-5c-3.17-3.16-8.09-3.57-12.63-1.47l6,6a4.86,4.86,0,0,1,.54.66,1.32,1.32,0,0,1,.52.3l5,5c.91.91.61,3.87-1.94,6.41a7.46,7.46,0,0,1-5,2.41,2.08,2.08,0,0,1-1.46-.47l-5-5a1.4,1.4,0,0,1-.3-.52,5.75,5.75,0,0,1-.66-.54l-6-6c-2.1,4.54-1.7,9.46,1.47,12.63l5,5a9.76,9.76,0,0,0,7,2.76,15.13,15.13,0,0,0,10.48-4.7A15.12,15.12,0,0,0,50,34.79,9.71,9.71,0,0,0,47.22,27.79Zm-33.41-14a4.33,4.33,0,0,0,0,6.12L28.44,34.53a4.32,4.32,0,0,0,6.11-6.11L19.93,13.79A4.34,4.34,0,0,0,13.81,13.79Z"/></svg>