<svg id="Layer_1" data-name="Layer 1" xmlns="http://www.w3.org/2000/svg" viewBox="0 0 25 26.02"><defs><style>.cls-1{fill:#232526;}</style></defs><title>search_black</title><g id="search"><path id="search-2" data-name="search" class="cls-1" d="M24.68,22.65l-5.16-5.17a1.09,1.09,0,0,0-1.53,0l-3.11-3.14a8.78,8.78,0,0,0,2.34-5.73,8.61,8.61,0,1,0-8.61,8.6,9,9,0,0,0,4.75-1.44L16.46,19a1.07,1.07,0,0,0,0,1.53l5.16,5.16a1.09,1.09,0,0,0,1.53,0l1.53-1.53A1.06,1.06,0,0,0,24.68,22.65ZM8.53,14.19a5.76,5.76,0,0,1,0-11.51,5.83,5.83,0,0,1,5.85,5.73A5.88,5.88,0,0,1,8.53,14.19Z"/></g></svg>