<svg id="icon" xmlns="http://www.w3.org/2000/svg" viewBox="0 0 48 50"><defs><style>.cls-1{fill:#fff;}</style></defs><g id="search"><path id="search-2" data-name="search" class="cls-1" d="M47.39,43.52l-9.92-9.93a2.07,2.07,0,0,0-2.93,0l-6-6a16.9,16.9,0,0,0,4.49-11A16.53,16.53,0,1,0,16.53,33.08a17.21,17.21,0,0,0,9.11-2.78l6,6.23a2.06,2.06,0,0,0,0,2.94l9.92,9.92a2.07,2.07,0,0,0,2.93,0l2.94-2.93A2.08,2.08,0,0,0,47.39,43.52Zm-31-16.25a11.06,11.06,0,0,1,0-22.11,11.18,11.18,0,0,1,11.22,11A11.28,11.28,0,0,1,16.38,27.27Z"/></g></svg>