<svg id="icon" xmlns="http://www.w3.org/2000/svg" viewBox="0 0 50 50"><defs><style>.cls-1{fill:#fff;}</style></defs><path class="cls-1" d="M40.71,0H9.29A9.29,9.29,0,0,0,0,9.29V40.71A9.29,9.29,0,0,0,9.29,50H40.71A9.29,9.29,0,0,0,50,40.71V9.29A9.29,9.29,0,0,0,40.71,0ZM39.6,17.93c0,.3,0,.59,0,.89,0,9-6.87,19.46-19.45,19.46A19.38,19.38,0,0,1,9.68,35.2a12.63,12.63,0,0,0,1.63.1,13.69,13.69,0,0,0,8.5-2.93,6.83,6.83,0,0,1-6.39-4.75,6.11,6.11,0,0,0,1.28.13,7.12,7.12,0,0,0,1.81-.24A6.85,6.85,0,0,1,11,20.8v-.09a6.9,6.9,0,0,0,3.09.86A6.87,6.87,0,0,1,12,12.44a19.41,19.41,0,0,0,14.1,7.14A6.64,6.64,0,0,1,25.92,18a6.84,6.84,0,0,1,11.83-4.68,13.63,13.63,0,0,0,4.34-1.66,6.84,6.84,0,0,1-3,3.78A13.62,13.62,0,0,0,43,14.39,13.87,13.87,0,0,1,39.6,17.93Z"/></svg>