<svg id="Layer_1" data-name="Layer 1" xmlns="http://www.w3.org/2000/svg" viewBox="0 0 151 151"><defs><style>.cls-1,.cls-3{fill:#fff;}.cls-1{stroke:#ffa00f;stroke-miterlimit:10;}.cls-2{fill:#ffa00f;}</style></defs><circle class="cls-1" cx="75.5" cy="75.5" r="75"/><circle class="cls-2" cx="75.5" cy="75.5" r="66.18"/><rect class="cls-3" x="40.22" y="82.77" width="5.88" height="5.88" transform="translate(-42.82 128.32) rotate(-89.64)"/><rect class="cls-3" x="47.4" y="82.8" width="5.88" height="5.88" transform="translate(-35.72 135.54) rotate(-89.64)"/><rect class="cls-3" x="54.56" y="82.86" width="5.88" height="5.88" transform="translate(-28.65 142.76) rotate(-89.64)"/><rect class="cls-3" x="61.74" y="82.89" width="5.88" height="5.88" transform="translate(-21.55 149.97) rotate(-89.64)"/><rect class="cls-3" x="68.59" y="83.22" width="5.88" height="5.88" transform="translate(-15.34 156.83) rotate(-89.43)"/><rect class="cls-3" x="76.11" y="82.98" width="5.88" height="5.88" transform="translate(-7.35 164.44) rotate(-89.65)"/><rect class="cls-3" x="83.29" y="83.02" width="5.88" height="5.88" transform="matrix(0.01, -1, 1, 0.01, -0.26, 171.66)"/><rect class="cls-3" x="90.44" y="83.08" width="5.88" height="5.88" transform="matrix(0.01, -1, 1, 0.01, 6.78, 178.86)"/><rect class="cls-3" x="97.62" y="83.13" width="5.88" height="5.88" transform="translate(13.87 186.09) rotate(-89.64)"/><rect class="cls-3" x="104.79" y="83.17" width="5.88" height="5.88" transform="matrix(0.01, -1, 1, 0.01, 20.95, 193.3)"/><rect class="cls-3" x="47.43" y="75.68" width="5.88" height="5.88" transform="translate(-28.57 128.5) rotate(-89.64)"/><rect class="cls-3" x="54.61" y="75.74" width="5.88" height="5.88" transform="translate(-21.49 135.73) rotate(-89.64)"/><rect class="cls-3" x="68.97" y="75.83" width="5.88" height="5.88" transform="translate(-7.31 150.18) rotate(-89.64)"/><rect class="cls-3" x="76.14" y="75.86" width="5.88" height="5.88" transform="matrix(0.01, -1, 1, 0.01, -0.2, 157.4)"/><rect class="cls-3" x="83.32" y="75.89" width="5.88" height="5.88" transform="translate(6.9 164.61) rotate(-89.65)"/><rect class="cls-3" x="90.49" y="75.95" width="5.88" height="5.88" transform="matrix(0.01, -1, 1, 0.01, 13.98, 171.83)"/><rect class="cls-3" x="104.85" y="76.05" width="5.88" height="5.88" transform="translate(28.12 186.28) rotate(-89.64)"/><rect class="cls-3" x="54.65" y="68.85" width="5.88" height="5.88" transform="translate(-14.55 128.93) rotate(-89.64)"/><rect class="cls-3" x="76.19" y="68.98" width="5.88" height="5.88" transform="matrix(0.01, -1, 1, 0.01, 6.73, 150.61)"/><rect class="cls-3" x="83.35" y="69.03" width="5.88" height="5.88" transform="matrix(0.01, -1, 1, 0.01, 13.78, 157.8)"/><rect class="cls-3" x="54.71" y="61.96" width="5.88" height="5.88" transform="translate(-7.6 122.15) rotate(-89.65)"/><rect class="cls-3" x="76.22" y="62.09" width="5.88" height="5.88" transform="translate(13.64 143.79) rotate(-89.64)"/><rect class="cls-3" x="83.39" y="62.15" width="5.88" height="5.88" transform="translate(20.71 151.01) rotate(-89.64)"/><rect class="cls-3" x="104.89" y="69.14" width="5.88" height="5.88" transform="matrix(0.01, -1, 1, 0.01, 35.09, 179.47)"/></svg>