<svg id="Layer_1" data-name="Layer 1" xmlns="http://www.w3.org/2000/svg" viewBox="0 0 151 151"><defs><style>.cls-1,.cls-3{fill:#fff;}.cls-1{stroke:#9d162e;stroke-miterlimit:10;}.cls-2{fill:#9d162e;}</style></defs><circle class="cls-1" cx="75.5" cy="75.5" r="75"/><circle class="cls-2" cx="75.49" cy="75.49" r="66.18"/><path class="cls-3" d="M86,50,77.75,69.6H74.3L84.66,46.26h2.65L97.64,69.6H94.2Z"/><path class="cls-3" d="M107.35,92.56l8.2-19.65H119L108.64,96.26H106L95.65,72.91H99.1Z"/><path class="cls-3" d="M73.31,72.91h-.08c-3.14,7.51-6,11.33-8.73,11.35-1.38,0-4.37-1.57-8.9-12-4-9.23-8-13.72-12.25-13.72H43c-4.27.19-7.91,4.73-10.82,13.51l-.1.3a1.8,1.8,0,1,0,3.38,1.22l.13-.38c3.33-10.08,6.61-11,7.62-11,1.5,0,4.67,1.5,9,11.53,4.25,9.83,8,14.21,12.22,14.21h0c4.12,0,7.83-4.9,12-15H73.31Z"/></svg>