<svg id="Layer_1" data-name="Layer 1" xmlns="http://www.w3.org/2000/svg" viewBox="0 0 151 151"><defs><style>.cls-1,.cls-3{fill:#fff;}.cls-1{stroke:#003c73;stroke-miterlimit:10;}.cls-2{fill:#003c73;}</style></defs><circle class="cls-1" cx="75.5" cy="75.5" r="75"/><circle class="cls-2" cx="75.49" cy="75.49" r="66.18"/><path class="cls-3" d="M48.09,87.15a1,1,0,0,1-1-1V69a1,1,0,1,1,2.06,0V86.12a1,1,0,0,1-1,1Zm-5.83,1.37V71.39a1,1,0,0,0-2,0V88.52a1,1,0,0,0,2,0Zm20.56,6.85V78.24a1,1,0,0,0-2,0V95.37a1,1,0,0,0,2,0ZM56,89.21V54.94a1,1,0,0,0-2.06,0V89.21a1,1,0,1,0,2.06,0ZM69.67,93V75.84a1,1,0,0,0-2,0V93a1,1,0,0,0,2,0Zm27.42-4.46V71.39a1,1,0,1,0-2.06,0V88.52a1,1,0,0,0,2.06,0ZM90.23,85.8V68.65a1,1,0,0,0-2,0V85.78a1,1,0,0,0,2,0Zm13.71,3.43V61.79a1,1,0,1,0-2.06,0V89.21a1,1,0,1,0,2.06,0Zm6.85,3.42V65.22a1,1,0,1,0-2.05,0V92.63a1,1,0,0,0,2.05,0ZM76.53,96.06V61.79a1,1,0,1,0-2.06,0V96.06a1,1,0,0,0,2.06,0Zm6.85-6.85V54.94a1,1,0,0,0-2,0V89.21a1,1,0,0,0,2,0Z"/></svg>