<svg data-name="Layer 1" xmlns="http://www.w3.org/2000/svg" viewBox="0 0 1359.13 539.49"><path d="M0 25.58v513.91h1359.13L1358.87 18C597.63-36.1 743.8 115 0 25.58z" opacity=".8"/><path d="M404.74 56.51c-111.56 0-240.88-9.27-404.74-29v-8C177.84 40.92 315.92 50.06 433.53 48.3c104.7-1.57 180.28-11.57 260.3-22.15 72.69-9.61 147.86-19.56 250.54-23.91C1060.67-2.7 1196 .51 1358.8 12v8.1c-162.48-11.47-298.1-14.79-414.09-9.87-102.33 4.34-177.32 14.26-249.84 23.85-80.25 10.61-156.06 20.64-261.22 22.22q-14.25.21-28.91.21z" fill="#fff"/></svg>