<svg data-name="Layer 1" xmlns="http://www.w3.org/2000/svg" viewBox="0 0 222.81 220"><path d="M201.46 89.94c-12.8-28.44-29.37-53.23-46.66-69.82-18-17.29-35-23.74-47.66-18.17C94.93 7.31 88.48 23 88.81 46.19c-7.83-2-15.24-1.68-21.82 1.2C51.39 54.24 43.87 73.52 45 97.9a21.27 21.27 0 00-7.5 1.73c-10 4.38-15.21 16-15.38 30.89-4.15-1.36-8.13-1.43-11.67.12-12.63 5.55-14 28.78-3.16 52.9 9.3 20.67 24.14 34.3 36.14 34.3a14.25 14.25 0 005.75-1.17c4.33-1.9 7.39-5.89 9.06-11.46 7.27 5.4 14.48 8.19 21.06 8.19a21.18 21.18 0 008.62-1.77 22.29 22.29 0 0010.39-9.7c10.42 7.64 20.72 11.6 30.08 11.6a30.16 30.16 0 0012.26-2.53 31.48 31.48 0 0014.27-13c.62.61 1.23 1.23 1.84 1.82 13.8 13.24 27 20.12 38.06 20.12a23.65 23.65 0 009.6-2c25.58-11.14 24.32-67.41-2.96-128zM96.57 184a45 45 0 01-1.1 7.23c-12.24-11-23.23-26.6-31.34-44.62a143.81 143.81 0 01-11.87-41.25c12.53 3.91 27 18.86 36.07 39 6.17 13.72 9.09 27.8 8.24 39.64zm-50 26.72C36.79 215 21.2 198.46 13.3 180.91s-9.91-40.08-.16-44.36a8.26 8.26 0 013.35-.68 13.79 13.79 0 015.92 1.57 99.83 99.83 0 008.72 32.06c5.57 12.37 13.1 23.15 21.52 31-.9 5.24-3.02 8.9-6.11 10.25zm-16.82-68.06c6.35 5.81 12.53 14.63 16.63 23.73A73.93 73.93 0 0153 191.62a95 95 0 01-15.92-24.75 96.78 96.78 0 01-7.33-24.21zm55.52 63.06c-6.48 2.84-15 .62-23.86-6.25-.63-.49-1.25-1-1.87-1.56 0-.64.12-1.24.14-1.9.3-9.66-2.3-21.11-7.31-32.25-6.21-13.78-14.87-24.41-23.52-30-.55-13.81 3.3-24.71 11.33-28.23a14.36 14.36 0 015.33-1.17 148.91 148.91 0 0012.63 44.88c8.92 19.82 21.24 36.88 35 48.57a16.34 16.34 0 01-7.87 7.91zm52.73-.62c-10.19 4.48-23.32 1.18-37-9.26a47.72 47.72 0 002.11-11.35c.93-12.91-2.19-28.08-8.78-42.73-10.66-23.67-27.46-40-42.68-43.29-1.25-22 4.88-39.39 18-45.16a23.74 23.74 0 019.6-2A32.9 32.9 0 0189.08 53c1.51 23 8.9 50.18 21 77.07 11.18 24.83 25.23 46.88 40.13 63.12-3.01 5.61-7.13 9.68-12.21 11.91zm17.85-33.62a63 63 0 01-2.85 15.05c-13.67-15.49-26.55-36-36.94-59.1-11.24-25-18.3-50.12-20.21-71.67a67.44 67.44 0 0111 7c14.35 11 27.36 28.45 36.63 49s13.68 41.81 12.36 59.72zm45.92 40.65c-9.95 4.37-24.69-1.79-40.43-16.89a130.15 130.15 0 01-3.33-3.32 65.64 65.64 0 004.38-20c1.4-18.95-3.18-41.26-12.87-62.8s-23.4-39.83-38.59-51.51a70.35 70.35 0 00-15.51-9.21C94.68 27 99.91 12.21 109.8 7.87a17 17 0 016.9-1.38c9.31 0 21.11 6.35 33.53 18.27 16.71 16 32.77 40.11 45.25 67.81 24.92 55.36 27.79 110.11 6.28 119.56z" fill="#fff"/></svg>