<svg id="Layer_1" data-name="Layer 1" xmlns="http://www.w3.org/2000/svg" viewBox="0 0 258.61 98.29"><defs><style>.cls-1{fill:#fff}</style></defs><path class="cls-1" d="M0 76.66h21.6v21.6H0zM26.34 76.66h21.6v21.6h-21.6zM52.67 76.67h21.6v21.6h-21.6zM79 76.67h21.6v21.6H79zM105.34 76.67h21.6v21.6h-21.6zM131.67 76.68h21.6v21.6h-21.6zM158 76.68h21.6v21.6H158zM184.34 76.68h21.6v21.6h-21.6zM210.67 76.69h21.6v21.6h-21.6zM237 76.69h21.6v21.6H237zM26.34 50.53h21.6v21.6h-21.6zM52.67 50.53h21.6v21.6h-21.6zM105.34 50.54h21.6v21.6h-21.6zM131.67 50.54h21.6v21.6h-21.6zM158.01 50.54h21.6v21.6h-21.6zM184.34 50.55h21.6v21.6h-21.6zM237.01 50.56h21.6v21.6h-21.6zM52.68 25.27h21.6v21.6h-21.6zM131.68 25.28h21.6v21.6h-21.6zM158.01 25.28h21.6v21.6h-21.6zM52.68 0h21.6v21.6h-21.6zM131.68.01h21.6v21.6h-21.6zM158.01.02h21.6v21.6h-21.6zM237.01 25.29h21.6v21.6h-21.6z"/></svg>