<svg data-name="Layer 1" xmlns="http://www.w3.org/2000/svg" viewBox="0 0 296.6 201.42"><path d="M33.12 159.66a4.31 4.31 0 01-4.32-4.32v-92a4.32 4.32 0 118.63 0v92a4.31 4.31 0 01-4.31 4.32zm-24.48 5.76v-92a4.32 4.32 0 00-8.64 0v92a4.32 4.32 0 108.64 0zM95 194.22v-92a4.32 4.32 0 10-8.64 0v92a4.32 4.32 0 008.64 0zM66.23 168.3V4.32a4.32 4.32 0 00-8.64 0v164a4.32 4.32 0 008.64 0zm57.59 15.84v-92a4.32 4.32 0 10-8.64 0v92a4.32 4.32 0 108.64 0zM239 165.42v-92a4.32 4.32 0 10-8.64 0v92a4.32 4.32 0 008.64 0zm-28.8-11.52v-92a4.32 4.32 0 00-8.64 0v92a4.32 4.32 0 008.64 0zm57.59 14.4V33.12a4.32 4.32 0 10-8.63 0V168.3a4.32 4.32 0 108.63 0zm28.8 14.4V47.51a4.32 4.32 0 00-8.64 0V182.7a4.32 4.32 0 008.64 0zm-144 14.4v-164a4.32 4.32 0 10-8.64 0v164a4.32 4.32 0 108.64 0zm28.8-28.8V4.32a4.32 4.32 0 10-8.64 0v164a4.32 4.32 0 008.64 0z" fill="#fff"/></svg>