<svg xmlns="http://www.w3.org/2000/svg" viewBox="0 0 50 49.96"><path d="M13.65 21.89a1.27 1.27 0 01-.33-.24l-5-5c-.91-.91-.61-3.86 1.94-6.41a7.46 7.46 0 014.94-2.42 2.08 2.08 0 011.46.47l5 5a1.81 1.81 0 01.18.27l6.81 6.82A13.49 13.49 0 0030 14.77a9.71 9.71 0 00-2.78-7l-5-5A9.76 9.76 0 0015.2 0 15.13 15.13 0 004.72 4.7c-5.45 5.44-6.3 13.12-1.94 17.47l5 5a9.76 9.76 0 007 2.76 13.45 13.45 0 005.61-1.31zm33.57 5.9l-5-5c-3.17-3.16-8.09-3.57-12.63-1.47l6 6a4.86 4.86 0 01.54.66 1.32 1.32 0 01.52.3l5 5c.91.91.61 3.87-1.94 6.41a7.46 7.46 0 01-5 2.41 2.08 2.08 0 01-1.46-.47l-5-5a1.4 1.4 0 01-.3-.52 5.75 5.75 0 01-.66-.54l-6-6c-2.1 4.54-1.7 9.46 1.47 12.63l5 5a9.76 9.76 0 007 2.76 15.13 15.13 0 0010.48-4.7A15.12 15.12 0 0050 34.79a9.71 9.71 0 00-2.78-7zm-33.41-14a4.33 4.33 0 000 6.12l14.63 14.62a4.32 4.32 0 006.11-6.11L19.93 13.79a4.34 4.34 0 00-6.12 0z" fill="#232526"/></svg>