<svg xmlns="http://www.w3.org/2000/svg" viewBox="0 0 50 50"><path d="M40.71 0H9.29A9.29 9.29 0 000 9.29v31.42A9.29 9.29 0 009.29 50h31.42A9.29 9.29 0 0050 40.71V9.29A9.29 9.29 0 0040.71 0zM39.6 17.93v.89c0 9-6.87 19.46-19.45 19.46A19.38 19.38 0 019.68 35.2a12.63 12.63 0 001.63.1 13.69 13.69 0 008.5-2.93 6.83 6.83 0 01-6.39-4.75 6.11 6.11 0 001.28.13 7.12 7.12 0 001.81-.24A6.85 6.85 0 0111 20.8v-.09a6.9 6.9 0 003.09.86A6.87 6.87 0 0112 12.44a19.41 19.41 0 0014.1 7.14 6.64 6.64 0 01-.18-1.58 6.84 6.84 0 0111.83-4.68 13.63 13.63 0 004.34-1.66 6.84 6.84 0 01-3 3.78A13.62 13.62 0 0043 14.39a13.87 13.87 0 01-3.4 3.54z" fill="#fff"/></svg>