<svg id="Layer_1" data-name="Layer 1" xmlns="http://www.w3.org/2000/svg" viewBox="0 0 1359.13 539.49"><defs><style>.cls-1{opacity:0.8;}.cls-2{fill:#fff;}</style></defs><g class="cls-1"><path d="M0,25.58V539.49H1359.13L1358.87,18C597.63-36.1,743.8,115,0,25.58Z"/></g><path class="cls-2" d="M404.74,56.51c-111.56,0-240.88-9.27-404.74-29v-8C177.84,40.92,315.92,50.06,433.53,48.3c104.7-1.57,180.28-11.57,260.3-22.15C766.52,16.54,841.69,6.59,944.37,2.24,1060.67-2.7,1196,.51,1358.8,12v8.1C1196.32,8.63,1060.7,5.31,944.71,10.23,842.38,14.57,767.39,24.49,694.87,34.08,614.62,44.69,538.81,54.72,433.65,56.3Q419.4,56.51,404.74,56.51Z"/></svg>