<svg id="Layer_1" data-name="Layer 1" xmlns="http://www.w3.org/2000/svg" viewBox="0 0 222.81 220"><defs><style>.cls-1{fill:#fff;}</style></defs><path class="cls-1" d="M201.46,89.94c-12.8-28.44-29.37-53.23-46.66-69.82-18-17.29-35-23.74-47.66-18.17C94.93,7.31,88.48,23,88.81,46.19c-7.83-2-15.24-1.68-21.82,1.2C51.39,54.24,43.87,73.52,45,97.9a21.27,21.27,0,0,0-7.5,1.73c-10,4.38-15.21,16-15.38,30.89-4.15-1.36-8.13-1.43-11.67.12-12.63,5.55-14,28.78-3.16,52.9,9.3,20.67,24.14,34.3,36.14,34.3a14.25,14.25,0,0,0,5.75-1.17c4.33-1.9,7.39-5.89,9.06-11.46,7.27,5.4,14.48,8.19,21.06,8.19a21.18,21.18,0,0,0,8.62-1.77,22.29,22.29,0,0,0,10.39-9.7c10.42,7.64,20.72,11.6,30.08,11.6A30.16,30.16,0,0,0,140.65,211a31.48,31.48,0,0,0,14.27-13c.62.61,1.23,1.23,1.84,1.82,13.8,13.24,27,20.12,38.06,20.12a23.65,23.65,0,0,0,9.6-2C230,206.8,228.74,150.53,201.46,89.94ZM96.57,184a45,45,0,0,1-1.1,7.23c-12.24-11-23.23-26.6-31.34-44.62a143.81,143.81,0,0,1-11.87-41.25c12.53,3.91,27,18.86,36.07,39C94.5,158.08,97.42,172.16,96.57,184Zm-50,26.72C36.79,215,21.2,198.46,13.3,180.91s-9.91-40.08-.16-44.36a8.26,8.26,0,0,1,3.35-.68,13.79,13.79,0,0,1,5.92,1.57,99.83,99.83,0,0,0,8.72,32.06c5.57,12.37,13.1,23.15,21.52,31C51.75,205.74,49.63,209.4,46.54,210.75ZM29.75,142.66c6.35,5.81,12.53,14.63,16.63,23.73A73.93,73.93,0,0,1,53,191.62a95,95,0,0,1-15.92-24.75A96.78,96.78,0,0,1,29.75,142.66Zm55.52,63.06c-6.48,2.84-15,.62-23.86-6.25-.63-.49-1.25-1-1.87-1.56,0-.64.12-1.24.14-1.9.3-9.66-2.3-21.11-7.31-32.25-6.21-13.78-14.87-24.41-23.52-30-.55-13.81,3.3-24.71,11.33-28.23a14.36,14.36,0,0,1,5.33-1.17,148.91,148.91,0,0,0,12.63,44.88c8.92,19.82,21.24,36.88,35,48.57A16.34,16.34,0,0,1,85.27,205.72ZM138,205.1c-10.19,4.48-23.32,1.18-37-9.26a47.72,47.72,0,0,0,2.11-11.35c.93-12.91-2.19-28.08-8.78-42.73-10.66-23.67-27.46-40-42.68-43.29-1.25-22,4.88-39.39,18-45.16a23.74,23.74,0,0,1,9.6-2A32.9,32.9,0,0,1,89.08,53c1.51,23,8.9,50.18,21,77.07,11.18,24.83,25.23,46.88,40.13,63.12C147.2,198.8,143.08,202.87,138,205.1Zm17.85-33.62A63,63,0,0,1,153,186.53c-13.67-15.49-26.55-36-36.94-59.1-11.24-25-18.3-50.12-20.21-71.67a67.44,67.44,0,0,1,11,7c14.35,11,27.36,28.45,36.63,49S157.16,153.57,155.84,171.48Zm45.92,40.65c-9.95,4.37-24.69-1.79-40.43-16.89-1.12-1.07-2.22-2.18-3.33-3.32a65.64,65.64,0,0,0,4.38-20c1.4-18.95-3.18-41.26-12.87-62.8s-23.4-39.83-38.59-51.51a70.35,70.35,0,0,0-15.51-9.21C94.68,27,99.91,12.21,109.8,7.87a17,17,0,0,1,6.9-1.38c9.31,0,21.11,6.35,33.53,18.27,16.71,16,32.77,40.11,45.25,67.81C220.4,147.93,223.27,202.68,201.76,212.13Z"/></svg>