<svg id="Layer_1" data-name="Layer 1" xmlns="http://www.w3.org/2000/svg" viewBox="0 0 258.61 98.29"><defs><style>.cls-1{fill:#fff;}</style></defs><rect class="cls-1" y="76.66" width="21.6" height="21.6"/><rect class="cls-1" x="26.34" y="76.66" width="21.6" height="21.6"/><rect class="cls-1" x="52.67" y="76.67" width="21.6" height="21.6"/><rect class="cls-1" x="79" y="76.67" width="21.6" height="21.6"/><rect class="cls-1" x="105.34" y="76.67" width="21.6" height="21.6"/><rect class="cls-1" x="131.67" y="76.68" width="21.6" height="21.6"/><rect class="cls-1" x="158" y="76.68" width="21.6" height="21.6"/><rect class="cls-1" x="184.34" y="76.68" width="21.6" height="21.6"/><rect class="cls-1" x="210.67" y="76.69" width="21.6" height="21.6"/><rect class="cls-1" x="237" y="76.69" width="21.6" height="21.6"/><rect class="cls-1" x="26.34" y="50.53" width="21.6" height="21.6"/><rect class="cls-1" x="52.67" y="50.53" width="21.6" height="21.6"/><rect class="cls-1" x="105.34" y="50.54" width="21.6" height="21.6"/><rect class="cls-1" x="131.67" y="50.54" width="21.6" height="21.6"/><rect class="cls-1" x="158.01" y="50.54" width="21.6" height="21.6"/><rect class="cls-1" x="184.34" y="50.55" width="21.6" height="21.6"/><rect class="cls-1" x="237.01" y="50.56" width="21.6" height="21.6"/><rect class="cls-1" x="52.68" y="25.27" width="21.6" height="21.6"/><rect class="cls-1" x="131.68" y="25.28" width="21.6" height="21.6"/><rect class="cls-1" x="158.01" y="25.28" width="21.6" height="21.6"/><rect class="cls-1" x="52.68" width="21.6" height="21.6"/><rect class="cls-1" x="131.68" y="0.01" width="21.6" height="21.6"/><rect class="cls-1" x="158.01" y="0.02" width="21.6" height="21.6"/><rect class="cls-1" x="237.01" y="25.29" width="21.6" height="21.6"/></svg>