<svg id="Layer_1" data-name="Layer 1" xmlns="http://www.w3.org/2000/svg" viewBox="0 0 296.6 201.42"><defs><style>.cls-1{fill:#fff;}</style></defs><path class="cls-1" d="M33.12,159.66a4.31,4.31,0,0,1-4.32-4.32v-92a4.32,4.32,0,1,1,8.63,0v92A4.31,4.31,0,0,1,33.12,159.66ZM8.64,165.42v-92a4.32,4.32,0,0,0-8.64,0v92a4.32,4.32,0,1,0,8.64,0ZM95,194.22v-92a4.32,4.32,0,1,0-8.64,0v92a4.32,4.32,0,0,0,8.64,0ZM66.23,168.3V4.32a4.32,4.32,0,0,0-8.64,0v164a4.32,4.32,0,0,0,8.64,0Zm57.59,15.84v-92a4.32,4.32,0,1,0-8.64,0v92a4.32,4.32,0,1,0,8.64,0ZM239,165.42v-92a4.32,4.32,0,1,0-8.64,0v92a4.32,4.32,0,0,0,8.64,0Zm-28.8-11.52v-92a4.32,4.32,0,0,0-8.64,0v92a4.32,4.32,0,0,0,8.64,0Zm57.59,14.4V33.12a4.32,4.32,0,1,0-8.63,0V168.3a4.32,4.32,0,1,0,8.63,0Zm28.8,14.4V47.51a4.32,4.32,0,0,0-8.64,0V182.7a4.32,4.32,0,0,0,8.64,0Zm-144,14.4v-164a4.32,4.32,0,1,0-8.64,0v164a4.32,4.32,0,1,0,8.64,0Zm28.8-28.8V4.32a4.32,4.32,0,1,0-8.64,0v164a4.32,4.32,0,0,0,8.64,0Z"/></svg>