<svg xmlns="http://www.w3.org/2000/svg" viewBox="0 0 97.71 100"><path d="M43.29 0H0v1.86c3.86 2.28 5.57 5 5.57 15.85v64.58c0 10.85-1.71 13.57-5.57 15.85V100h40.57q1.6 0 3.15-.06c.39-4.1.82-10 1.1-16l.18-4.15c0-.23-.14-.4-.4-.12-3.51 3.7-3.7 3.13-5.15 2.7a57.59 57.59 0 01-7.27-2.77c-.65-.45-.46-.69.28-1C36.15 77 44 73.52 45.12 73.06a.24.24 0 00.13-.19l.09-2.36a.22.22 0 00-.29-.21c-1.92.72-11.7 4.76-13.14 5.29a3.45 3.45 0 01-3.73-.36 35 35 0 01-4.67-5.29c-.19-.33-.4-.66.22-.79s19.63-4 21.66-4.37a.2.2 0 00.17-.2l.1-2.31a.21.21 0 00-.25-.22c-2.17.33-17 2.94-18.6 3.21A2.32 2.32 0 0124 64.1c-.61-.77-2.67-5.25-2.9-5.68-.42-.77-.45-1.11.29-1.15 6.19-.4 22.3-1.35 24.3-1.48a.21.21 0 00.2-.2l.11-2.16a.22.22 0 00-.22-.23c-2.08.07-18.72.58-19.82.54a2 2 0 01-2.23-1.45 42.34 42.34 0 01-1.31-6.66c-.05-.42-.1-.75.62-.62 5.66 1.05 20.89 2.74 22.94 3a.22.22 0 00.24-.21l.07-2a.21.21 0 00-.18-.22c-1.74-.27-15.67-2.37-17.21-2.65s-2-.61-2.34-1.82a44.14 44.14 0 01-.56-5.34c0-.45 0-.72.58-.54 9.4 2.76 18.08 5 19.66 5.34a.21.21 0 00.27-.2l.07-1.92a.21.21 0 00-.16-.21c-1.5-.41-12.85-3.45-13.8-3.77s-2-.86-2.19-2.12a31.33 31.33 0 01-.19-4.59c0-.61.11-.77.62-.52 4.27 2.1 13.88 5.7 15.63 6.35a.22.22 0 00.29-.19l.07-1.86a.23.23 0 00-.13-.21c-1.17-.47-9.32-3.81-10.67-4.4a2.21 2.21 0 01-1.69-2.22 18.54 18.54 0 01.06-3.53c.1-.68 0-.85 1.09-.23 2.07 1.23 9.62 5.16 11.21 6a.21.21 0 00.31-.18l.08-1.84a.21.21 0 00-.12-.19c-.81-.44-5.64-3-6.77-3.64-1.47-.81-1.88-1.43-1.92-2.12a20.7 20.7 0 01.15-3.32c.13-1 .34-1.08 1-.58 2.72 2.17 6.45 4.61 7.54 5.32a.22.22 0 00.33-.17l.06-1.64a.22.22 0 00-.08-.18c-.63-.5-4.66-3.43-4.66-3.43a1.64 1.64 0 01-.53-1 16.73 16.73 0 01.43-3c.14-.41.23-.63.67-.19a51.55 51.55 0 004 3.66c.23.19.31.22.31 0 0-1.88-.85-5.6 1-6.62a.18.18 0 01.2 0c1.85 1 1 4.74 1 6.62 0 .19.08.16.31 0a51.55 51.55 0 004-3.66c.44-.44.53-.22.67.19a15.87 15.87 0 01.43 3 1.65 1.65 0 01-.52 1S50.6 17.9 50 18.4a.25.25 0 00-.08.18l.06 1.64a.22.22 0 00.33.17c1.1-.71 4.82-3.15 7.54-5.32.63-.5.84-.37 1 .58a20.7 20.7 0 01.08 3.35c0 .69-.45 1.31-1.92 2.12-1.13.62-6 3.2-6.77 3.64a.2.2 0 00-.11.19l.07 1.84a.21.21 0 00.31.18c1.59-.83 9.14-4.76 11.21-6 1-.62 1-.45 1.09.23a18.54 18.54 0 01.06 3.53c-.12 1.2-.38 1.65-1.69 2.22s-9.5 3.93-10.67 4.4a.23.23 0 00-.13.21l.07 1.86a.22.22 0 00.29.19c1.75-.65 11.36-4.25 15.63-6.35.51-.25.59-.09.62.52a31.33 31.33 0 01-.19 4.59c-.2 1.26-1.11 1.76-2.19 2.12s-12.3 3.36-13.8 3.77a.21.21 0 00-.16.21l.08 1.92a.2.2 0 00.26.2c1.58-.39 10.26-2.58 19.67-5.34.61-.18.58.09.57.54a44.14 44.14 0 01-.56 5.35c-.38 1.21-.68 1.52-2.33 1.82s-15.48 2.38-17.22 2.65a.21.21 0 00-.18.22l.07 2a.22.22 0 00.24.21c2-.26 17.29-1.95 23-3 .71-.13.66.2.61.62a42.34 42.34 0 01-1.31 6.66 2 2 0 01-2.22 1.45c-1.11 0-17.75-.47-19.83-.54a.22.22 0 00-.22.23l.08 2.16a.21.21 0 00.2.2c2 .13 18.11 1.08 24.3 1.48.75 0 .71.38.29 1.15-.23.43-2.29 4.91-2.9 5.68a2.32 2.32 0 01-2.77 1.16C68.79 65 54 62.38 51.83 62.05a.22.22 0 00-.25.22l.1 2.31a.2.2 0 00.17.2c2 .38 21.06 4.24 21.66 4.37s.41.46.22.79a35 35 0 01-4.67 5.29 3.45 3.45 0 01-3.73.36c-1.44-.53-11.22-4.59-13.14-5.29a.22.22 0 00-.29.21l.1 2.36a.21.21 0 00.13.19c1.1.46 9 4 12.67 5.53.75.32.93.56.28 1a57.59 57.59 0 01-7.27 2.77c-1.45.43-1.64 1-5.15-2.7-.26-.28-.37-.11-.4.12l.16 4.22c.26 5.52.65 11 1 15.08 29-4.56 44.27-24.87 44.27-51.46C97.71 20.29 79.14 0 43.29 0" fill="#fff"/></svg>