<svg xmlns="http://www.w3.org/2000/svg" viewBox="0 0 115.78 100"><defs><style>.cls-1{fill:#232526}</style></defs><g id="mark"><path class="cls-1" transform="rotate(90.36 13.152 32.866)" d="M9.76 29.47h6.8v6.8h-6.8z"/><path class="cls-1" transform="rotate(90.36 23.316 32.928)" d="M19.92 29.53h6.8v6.8h-6.8z"/><path class="cls-1" transform="rotate(90.36 33.47 32.991)" d="M30.07 29.6h6.8v6.8h-6.8z"/><path class="cls-1" transform="rotate(90.36 43.633 33.054)" d="M40.23 29.66h6.8v6.8h-6.8z"/><path class="cls-1" transform="rotate(90.36 53.786 33.117)" d="M50.39 29.72h6.8v6.8h-6.8z"/><path class="cls-1" transform="rotate(90.36 63.95 33.18)" d="M60.55 29.79h6.8v6.8h-6.8z"/><path class="cls-1" transform="rotate(90.36 74.103 33.242)" d="M70.71 29.85h6.8v6.8h-6.8z"/><path class="cls-1" transform="rotate(90.36 84.266 33.305)" d="M80.87 29.91h6.8v6.8h-6.8z"/><path class="cls-1" transform="rotate(90.36 94.42 33.368)" d="M91.03 29.97h6.8v6.8h-6.8z"/><path class="cls-1" transform="rotate(90.36 104.583 33.43)" d="M101.19 30.04h6.8v6.8h-6.8z"/><path class="cls-1" transform="rotate(90.36 23.374 22.85)" d="M19.98 19.45h6.8v6.8h-6.8z"/><path class="cls-1" transform="rotate(90.36 33.532 22.908)" d="M30.14 19.51h6.8v6.8h-6.8z"/><path class="cls-1" transform="rotate(90.36 53.849 23.033)" d="M50.45 19.64h6.8v6.8h-6.8z"/><path class="cls-1" transform="rotate(90.36 64.012 23.096)" d="M60.61 19.7h6.8v6.8h-6.8z"/><path class="cls-1" transform="rotate(90.36 74.166 23.159)" d="M70.77 19.77h6.8v6.8h-6.8z"/><path class="cls-1" transform="rotate(90.36 84.33 23.222)" d="M80.93 19.83h6.8v6.8h-6.8z"/><path class="cls-1" transform="rotate(90.36 104.646 23.347)" d="M101.25 19.96h6.8v6.8h-6.8z"/><path class="cls-1" transform="rotate(90.36 33.596 13.163)" d="M30.2 9.77H37v6.8h-6.8z"/><path class="cls-1" transform="rotate(90.36 64.066 13.351)" d="M60.67 9.96h6.8v6.8h-6.8z"/><path class="cls-1" transform="rotate(90.36 74.23 13.414)" d="M70.83 10.02h6.8v6.8h-6.8z"/><path class="cls-1" transform="rotate(90.36 33.655 3.413)" d="M30.26.02h6.8v6.8h-6.8z"/><path class="cls-1" transform="rotate(90.36 64.13 3.607)" d="M60.73.21h6.8v6.8h-6.8z"/><path class="cls-1" transform="rotate(90.36 74.289 3.664)" d="M70.89.27h6.8v6.8h-6.8z"/><path class="cls-1" transform="rotate(90.36 104.7 13.602)" d="M101.31 10.21h6.8v6.8h-6.8z"/></g><path class="cls-1" d="M29 97v2.7h-7.1a1.61 1.61 0 01-1.58-1.23L20 95.66a11.75 11.75 0 01-9.18 4.34 9.38 9.38 0 01-7.91-3.73C1 93.71 0 90.11 0 85.56a16.16 16.16 0 013.3-10.49 11.07 11.07 0 019.05-4.28 10 10 0 017.29 2.88V63.19l-3.44-.62a1.2 1.2 0 01-1.06-1.26v-2.7H25v36.48c1.81.35 2.68.53 3 .63A1.14 1.14 0 0129 97zm-9.36-5.5V78.3a7.4 7.4 0 00-6.13-3.1 6.87 6.87 0 00-5.87 2.63c-1.36 1.79-2 4.31-2 7.73 0 5.17 1.28 8.25 3.89 9.4a7.27 7.27 0 002.91.53h.12l.05.05c2.66-.04 5.04-1.4 7.03-4.04zM61.85 97v2.7h-7.09a1.63 1.63 0 01-1.58-1.23l-.37-2.78a11.73 11.73 0 01-9.13 4.31 9.36 9.36 0 01-7.9-3.73c-1.94-2.56-2.92-6.16-2.92-10.71a16.16 16.16 0 013.3-10.49 11.07 11.07 0 019.06-4.28 10 10 0 017.29 2.88V63.19l-3.45-.62A1.19 1.19 0 0148 61.31v-2.7h9.9v36.48c1.84.35 2.68.53 3 .63a1.13 1.13 0 01.95 1.28zm-9.34-5.5V78.3a7.42 7.42 0 00-6.14-3.1 6.9 6.9 0 00-5.87 2.63c-1.36 1.79-2 4.31-2 7.73 0 5.17 1.27 8.25 3.89 9.4a7.19 7.19 0 002.9.53h.12v.05c2.73-.04 5.1-1.4 7.1-4.04zM97 95.77c-.33-.11-1.29-.31-2.94-.62V81.72a11.88 11.88 0 00-2.48-7.86 8.91 8.91 0 00-7.13-3 12 12 0 00-8.6 3.77v-16h-10v2.59a1.28 1.28 0 001.07 1.31c.33.11 1.45.32 3.43.63v32l-2.85.56a1.29 1.29 0 00-1.1 1.31v2.59h13.4v-2.54a1.29 1.29 0 00-1.09-1.31c-.26-.07-1.11-.25-2.44-.5l-.42-.07V79.09c2.26-2.51 4.61-3.73 7.18-3.73 3.71 0 5.59 2.14 5.59 6.36v18H98v-2.64a1.24 1.24 0 00-1-1.31zm9.53-30.26a4 4 0 001.17.83 3.06 3.06 0 001.44.3 3.1 3.1 0 001.45-.3 4.31 4.31 0 001.17-.83 4.19 4.19 0 00.82-1.17 3.16 3.16 0 00.36-1.44 3.48 3.48 0 00-.36-1.5 4.74 4.74 0 00-.82-1.22 4.08 4.08 0 00-1.17-.82 3.13 3.13 0 00-1.45-.31 3.09 3.09 0 00-1.44.31 3.82 3.82 0 00-1.17.82 4.28 4.28 0 00-.82 1.22 3.23 3.23 0 00-.31 1.5 3.06 3.06 0 00.31 1.44 4 4 0 00.81 1.17zm8.21 30.2l-2.9-.56V71.34h-9.4v2.59a1.34 1.34 0 001 1.32l3 .56v19.34l-3 .56a1.34 1.34 0 00-1 1.32v2.64h13.35V97a1.34 1.34 0 00-1.06-1.29z" id="typemark"/></svg>