<svg xmlns="http://www.w3.org/2000/svg" viewBox="0 0 564.48 100"><path d="M0 99.36V82.94h16.42v16.4zm41 0V82.91H24.55v16.43zm24.55 0V82.94H49.09v16.42zm24.54 0V82.87H73.64V99.3zm24.55 0V82.85H98.19v16.43zm24.55 0V82.94h-16.46v16.42zm24.54 0V82.81h-16.45v16.43zm24.55 0V82.79h-16.45v16.43zm24.54 0V82.77H196.4v16.41zm24.55 0V82.75h-16.42v16.44zM41 75V58.54H24.58V75zm24.55 0V58.58H49.13V75zm49.09 0V58.49H98.17v16.43zm24.55 0V58.58h-16.48V75zm24.54 0V58.45h-16.47v16.43zm24.55 0V58.43h-16.47v16.43zm49.09 0V58.39H220.9v16.43zM65.49 51.39V35H49.06v16.41zm73.64 0V34.92H122.7v16.43zm24.54 0V34.9h-16.43v16.42zm-98.2-23.55V11.42L49 11.44v16.42zm73.64-.05V11.37h-16.43V27.8zm24.55 0V11.37h-16.44v16.42zm73.65 23.49V34.84h-16.43v16.43zm117.46 41.41v6.51h-17.12a3.93 3.93 0 01-3.83-3l-.88-6.7c-6.27 7-13.5 10.48-22.07 10.48-8.16 0-14.41-3-19.1-9s-7-14.89-7-25.88c0-10.31 2.68-18.84 8-25.35 5.48-6.85 12.84-10.33 21.87-10.33a24.32 24.32 0 0117.62 6.94v-25.3l-8.32-1.49a2.9 2.9 0 01-2.55-3.06V0h23.9v88.15c4.38.82 6.49 1.26 7.22 1.51a2.74 2.74 0 012.26 3.03zM332.2 79.47V47.58a17.92 17.92 0 00-14.83-7.5c-6.27 0-10.9 2.08-14.18 6.36s-4.89 10.42-4.89 18.67c0 12.5 3.07 19.93 9.4 22.71a17.54 17.54 0 007 1.27h.3l.13.13c6.51-.09 12.25-3.37 17.07-9.75zm102 13.22v6.51h-17.14a3.91 3.91 0 01-3.83-3l-.89-6.7c-6.26 7-13.49 10.48-22.06 10.48-8.17 0-14.42-3-19.1-9s-7-14.89-7-25.88c0-10.31 2.68-18.84 8-25.35C377.6 32.91 385 29.43 394 29.43a24.28 24.28 0 0117.61 6.94V11.06l-8.32-1.49a2.9 2.9 0 01-2.55-3.06V0h23.9v88.15c4.44.83 6.49 1.26 7.23 1.51a2.74 2.74 0 012.31 3.03zm-22.6-13.22V47.58a17.9 17.9 0 00-14.83-7.5c-6.26 0-10.9 2.08-14.17 6.36s-4.9 10.42-4.9 18.67c0 12.5 3.08 19.93 9.4 22.71a17.61 17.61 0 007 1.27h.29l.12.13c6.54-.09 12.28-3.37 17.09-9.75zm107.48 10.32c-.79-.26-3.11-.76-7.09-1.51V55.83c0-7.83-2.07-14.4-6-19s-9.85-7.13-17.22-7.13c-7.66 0-14.48 3-20.79 9.1V.27h-24.17v6.24a3.1 3.1 0 002.59 3.17c.8.27 3.51.77 8.28 1.53v77.21l-6.87 1.35a3.13 3.13 0 00-2.67 3.23v6.2h32.38V93a3.13 3.13 0 00-2.64-3.19c-.62-.15-2.68-.58-5.88-1.2l-1-.17V49.47c5.47-6.06 11.14-9 17.35-9 9 0 13.5 5.17 13.5 15.36V99.2h22.71V93a3 3 0 00-2.48-3.21zm23-73.11a10.11 10.11 0 002.83 2 8.68 8.68 0 007 0 10.32 10.32 0 002.83-2 10.11 10.11 0 002-2.83 7.73 7.73 0 00.87-3.49 8.24 8.24 0 00-.87-3.62 10.65 10.65 0 00-2-3 10.11 10.11 0 00-2.83-2 8.58 8.58 0 00-7 0 10.11 10.11 0 00-2.83 2 10.89 10.89 0 00-2 3 8 8 0 00-.73 3.62 7.58 7.58 0 00.73 3.49 10.13 10.13 0 002.03 2.83zm19.83 72.95l-7-1.35V30.76h-22.68V37a3.25 3.25 0 002.54 3.19l7.14 1.35v46.74l-7.16 1.36a3.23 3.23 0 00-2.52 3.18v6.38h32.25v-6.38a3.24 3.24 0 00-2.54-3.19z" fill="#232526"/></svg>