<svg id="Layer_1" data-name="Layer 1" xmlns="http://www.w3.org/2000/svg" viewBox="0 0 100 74.85"><defs><style>.cls-1{fill:#fff}</style></defs><path class="cls-1" d="M54.45 15.57v-2.92h2.91v2.92zm7.28 0v-2.91h-2.92v2.92zm4.36 0v-2.92h-2.92v2.92zm4.37 0v-2.92h-2.92v2.92zm4.36 0v-2.92H71.9v2.92zm4.37 0V12.8h-2.91v2.92zm4.36 0v-2.92h-2.92v2.92zm4.36 0v-2.92h-2.92v2.92zm4.37 0v-2.91h-2.92v2.92zm4.36 0v-2.92h-2.92v2.92zm-34.88-4.29V8.36h-2.9v2.92zm4.36 0V8.36H63.2v2.92zm8.73 0V8.37L72 8.43v2.92zm4.36 0V8.36h-2.92v2.92zm4.37 0V8.5h-2.91v2.92zm4.36 0V8.36L85 8.51v2.92zm8.73.05V8.41h-2.92v2.92zM66.15 7.12V4.2h-2.9v2.92zm13.09.09V4.29h-2.92v2.92zm4.36 0V4.29h-2.9V7.2zM66.17 2.94V.02L63.27 0v2.92zM79.26 3V.08h-2.92V3zm4.37 0V.08h-2.92V3zm13.06 4.31V4.39h-2.9V7.3zm-34 34.35v1.16h-3a.7.7 0 01-.68-.54l-.16-1.19A5 5 0 0154.91 43a4 4 0 01-3.39-1.61 7.49 7.49 0 01-1.26-4.6 6.93 6.93 0 011.42-4.5 4.77 4.77 0 013.89-1.84 4.34 4.34 0 013.13 1.23v-4.53l-1.48-.27a.51.51 0 01-.45-.54v-1.16H61v15.67c.78.15 1.15.22 1.28.27a.49.49 0 01.44.54zm-4-2.35v-5.67a3.16 3.16 0 00-2.63-1.34 3 3 0 00-2.52 1.13 5.34 5.34 0 00-.87 3.32c0 2.23.54 3.55 1.67 4a3.1 3.1 0 001.26.25 3.83 3.83 0 003.1-1.69zm18.13 2.35v1.16h-3a.69.69 0 01-.68-.54L73 41.09A5 5 0 0169 43a4 4 0 01-3.4-1.61 7.49 7.49 0 01-1.25-4.6 6.93 6.93 0 011.42-4.5 4.74 4.74 0 013.89-1.84 4.36 4.36 0 013.13 1.23v-4.53l-1.48-.27a.51.51 0 01-.45-.54v-1.16h4.25v15.67a12.7 12.7 0 011.28.27.48.48 0 01.44.54zm-4-2.35v-5.67a3.18 3.18 0 00-2.64-1.34 3 3 0 00-2.52 1.13 5.41 5.41 0 00-.87 3.32c0 2.23.55 3.55 1.67 4a3.17 3.17 0 001.25.23h.05a3.86 3.86 0 003.06-1.67zm19.11 1.83c-.14 0-.56-.13-1.26-.27V35.1a5.08 5.08 0 00-1.07-3.37 3.8 3.8 0 00-3.06-1.27 5.18 5.18 0 00-3.7 1.62v-6.85h-4.29v1.11a.55.55 0 00.46.56 13.11 13.11 0 001.47.27V40.9l-1.22.24a.55.55 0 00-.48.56v1.12h5.76V41.7a.55.55 0 00-.47-.56c-.11 0-.48-.11-1-.21h-.18V34a4.16 4.16 0 013.09-1.6c1.59 0 2.4.92 2.4 2.73v7.72h4V41.7a.54.54 0 00-.45-.56zm4.09-13a1.88 1.88 0 00.5.36 1.38 1.38 0 00.62.13 1.32 1.32 0 00.62-.13 1.79 1.79 0 00.51-.36 1.93 1.93 0 00.35-.5 1.38 1.38 0 00.15-.62 1.43 1.43 0 00-.15-.64 1.81 1.81 0 00-.35-.53 1.77 1.77 0 00-.51-.35 1.32 1.32 0 00-.62-.13 1.38 1.38 0 00-.62.13 1.86 1.86 0 00-.5.35 1.81 1.81 0 00-.35.53 1.35 1.35 0 00-.13.64 1.32 1.32 0 00.13.62 1.93 1.93 0 00.33.5zm3.53 13l-1.25-.24V30.65h-4v1.11a.56.56 0 00.45.56l1.27.25v8.3l-1.28.24a.58.58 0 00-.44.57v1.14h5.7v-1.14a.58.58 0 00-.45-.57z"/><path class="cls-1" d="M92.58 64.67v-.18h-2.74v.18c.39.24.57.51.57 1.61v6.55c0 1.1-.18 1.38-.57 1.61v.19h2.74v-.19c-.39-.23-.56-.51-.56-1.61V70h5.81v2.82c0 1.1-.18 1.38-.57 1.61v.19H100v-.19c-.39-.23-.57-.51-.57-1.61v-6.54c0-1.1.18-1.37.57-1.61v-.18h-2.74v.18c.39.24.57.51.57 1.61v2.61H92v-2.61c0-1.1.17-1.37.56-1.61m-7.53 9.77c-.44-.25-.64-.54-.64-1.68v-7.17h1.23c1.58 0 1.89.23 2.31.75l.18-.06-.3-1.92a20.1 20.1 0 01-2.36.13h-3.71a20.24 20.24 0 01-2.36-.13l-.3 1.92.19.06c.42-.52.72-.75 2.3-.75h1.23v7.17c0 1.14-.2 1.43-.64 1.68v.19h2.89zM75 64.67c.42.25.64.54.64 1.69v4.33a2.55 2.55 0 01-2.75 2.88 2.52 2.52 0 01-2.81-2.78v-4.51c0-1.1.17-1.37.56-1.61v-.18h-2.75v.18c.39.24.57.51.57 1.61v4.61c0 2.49 1.55 4 4.2 4s4.2-1.48 4.2-4.16v-4.37c0-1.15.22-1.44.64-1.69v-.18H75zm-14.1-.42a5.26 5.26 0 00-5.37 5.38 5.12 5.12 0 005.38 5.22 5.25 5.25 0 005.36-5.38 5.11 5.11 0 00-5.37-5.22m.1 9.48c-2.14 0-3.8-1.87-3.8-4.42s1.41-3.94 3.53-3.94 3.79 1.87 3.79 4.42-1.4 3.94-3.52 3.94m-17.11.71c-.45-.19-.64-.54-.49-1.65l.66-5 3.31 6.75H48l3.34-6.77.66 5.08c.13 1.08 0 1.4-.44 1.59v.19h2.74v-.19c-.37-.2-.53-.51-.68-1.54l-1.16-8.53h-.74l-3.78 7.81-3.78-7.81h-.74l-1.2 8.48c-.14 1.05-.36 1.37-.78 1.59v.19h2.49zm-6.24 0c-.44-.25-.64-.54-.64-1.68v-7.17h1.23c1.58 0 1.88.23 2.3.75l.19-.06-.3-1.92a20.24 20.24 0 01-2.36.13h-3.69a20.1 20.1 0 01-2.38-.13l-.3 1.92.18.06c.42-.52.73-.75 2.31-.75h1.23v7.17c0 1.14-.2 1.43-.64 1.68v.19h2.89zm-12.65 0c-.32-.16-.57-.51-.57-1.61v-7.29h1.32c1.61 0 2.42.63 2.42 2s-.77 2-2.23 2H25v.15l.45.91h.44c.47 0 .62.16 1.33 1.12l1.78 2.4a1 1 0 00.87.51h1.78v-.19c-.37-.15-.66-.36-1.36-1.26l-1.25-1.59c-.66-.85-1-1.27-1.46-1.44a2.75 2.75 0 002.26-2.72c0-1.87-1.25-2.94-3.94-2.94h-3.63v.18c.32.16.56.51.56 1.61v6.55c0 1.1-.24 1.45-.56 1.61v.19H25zm-5.35-1.38l-3.93-8.69h-.59l-3.93 8.69c-.39.86-.59 1.18-1 1.38v.19h2.6v-.19c-.52-.2-.69-.52-.23-1.58l.54-1.23h4.17l.54 1.23c.46 1.06.3 1.38-.16 1.58v.19h3v-.19c-.38-.2-.57-.52-1-1.38m-6.1-2.47l1.62-3.71 1.63 3.71zm-9.17-6.1H0v.18c.39.24.57.51.57 1.61v6.55c0 1.1-.18 1.38-.57 1.61v.19h4.11c3.83 0 5.8-2.26 5.8-5.35 0-2.78-1.91-4.79-5.52-4.79m-.39 9H2.16v-7.9h2c2.64 0 4.09 1.33 4.09 4.08 0 2.39-1.32 3.86-4.22 3.86" id="Dartmouth_Wordmark" data-name="Dartmouth Wordmark"/></svg>