<svg xmlns="http://www.w3.org/2000/svg" viewBox="0 0 210.22 100"><defs><style>.cls-1{fill:#232526}</style></defs><g id="mark"><path class="cls-1" transform="rotate(90.36 4.362 36.592)" d="M.58 32.81h7.57v7.57H.58z"/><path class="cls-1" transform="rotate(90.36 15.671 36.66)" d="M11.89 32.88h7.57v7.57h-7.57z"/><path class="cls-1" transform="rotate(90.36 26.981 36.73)" d="M23.2 32.95h7.57v7.57H23.2z"/><path class="cls-1" transform="rotate(90.36 38.291 36.8)" d="M34.51 33.02h7.57v7.57h-7.57z"/><path class="cls-1" transform="rotate(90.36 49.6 36.868)" d="M45.82 33.09h7.57v7.57h-7.57z"/><path class="cls-1" transform="rotate(90.36 60.91 36.937)" d="M57.13 33.16h7.57v7.57h-7.57z"/><path class="cls-1" transform="rotate(90.36 72.225 37.011)" d="M68.44 33.23h7.57v7.57h-7.57z"/><path class="cls-1" transform="rotate(90.36 83.535 37.08)" d="M79.75 33.3h7.57v7.57h-7.57z"/><path class="cls-1" transform="rotate(90.36 94.845 37.15)" d="M91.06 33.37h7.57v7.57h-7.57z"/><path class="cls-1" transform="rotate(90.36 106.155 37.219)" d="M102.37 33.44h7.57v7.57h-7.57z"/><path class="cls-1" transform="rotate(90.36 15.74 25.44)" d="M11.96 21.66h7.57v7.57h-7.57z"/><path class="cls-1" transform="rotate(90.36 27.05 25.51)" d="M23.27 21.73h7.57v7.57h-7.57z"/><path class="cls-1" transform="rotate(90.36 49.67 25.648)" d="M45.89 21.87h7.57v7.57h-7.57z"/><path class="cls-1" transform="rotate(90.36 60.98 25.717)" d="M57.2 21.94h7.57v7.57H57.2z"/><path class="cls-1" transform="rotate(90.36 72.29 25.786)" d="M68.51 22.01h7.57v7.57h-7.57z"/><path class="cls-1" transform="rotate(90.36 83.6 25.856)" d="M79.82 22.08h7.57v7.57h-7.57z"/><path class="cls-1" transform="rotate(90.36 106.22 25.994)" d="M102.44 22.22h7.57v7.57h-7.57z"/><path class="cls-1" transform="rotate(90.36 27.116 14.654)" d="M23.34 10.87h7.57v7.57h-7.57z"/><path class="cls-1" transform="rotate(90.36 61.05 14.866)" d="M57.27 11.09h7.57v7.57h-7.57z"/><path class="cls-1" transform="rotate(90.36 72.36 14.935)" d="M68.58 11.16h7.57v7.57h-7.57z"/><path class="cls-1" transform="rotate(90.36 27.187 3.802)" d="M23.4.02h7.57v7.57H23.4z"/><path class="cls-1" transform="rotate(90.36 61.111 4.015)" d="M57.33.23h7.57V7.8h-7.57z"/><path class="cls-1" transform="rotate(90.36 72.421 4.084)" d="M68.64.3h7.57v7.57h-7.57z"/><path class="cls-1" transform="rotate(90.36 106.29 15.143)" d="M102.51 11.37h7.57v7.57h-7.57z"/></g><g id="typemark"><path class="cls-1" d="M16.56 63.29c0-5.17-3.43-8.65-8.53-8.65H0v1.08a.51.51 0 00.44.52l1.29.28v13.56l-1.28.25a.53.53 0 00-.45.53v1.08h8c5.13 0 8.56-3.48 8.56-8.65zM8 56.65c3.75 0 6 2.48 6 6.64s-2.24 6.64-6 6.64H4.24V56.65zM29.67 70.79a.54.54 0 00-.42-.53h-.09v.05c-.17-.05-.5-.12-.8-.18h-.25v-6a6 6 0 00-.27-1.9A3.83 3.83 0 0027 60.7a4.09 4.09 0 00-1.34-.93 4.6 4.6 0 00-1.85-.34 6.38 6.38 0 00-2.62.49A7.16 7.16 0 0019 61.37l.41.71a1 1 0 00.26.32.76.76 0 00.43.11.92.92 0 00.6-.21 3.33 3.33 0 01.39-.24l.3-.19a4.76 4.76 0 01.9-.42 3.45 3.45 0 011.29-.21 2.16 2.16 0 011.72.76 3.19 3.19 0 01.6 2.1v.9a15.72 15.72 0 00-3.44.31 8.43 8.43 0 00-2.32.87 3.82 3.82 0 00-1.32 1.22 2.72 2.72 0 00-.39 1.43 3.2 3.2 0 001 2.5 3.23 3.23 0 001.11.59 3.79 3.79 0 001.31.22 5.75 5.75 0 001.32-.14 7.07 7.07 0 001.06-.37 3.9 3.9 0 001-.58l.35-.29.51-.42.22 1c.05.2.11.37.29.43a1.6 1.6 0 00.52.1h2.57zm-3.82-4.31v2.39a8.18 8.18 0 01-.69.64 4.47 4.47 0 01-.77.52 4.54 4.54 0 01-1.86.42 2.92 2.92 0 01-.77-.11 1.88 1.88 0 01-.6-.3 1.27 1.27 0 01-.41-.55 1.92 1.92 0 01-.16-.79 1.51 1.51 0 01.27-.87 2.21 2.21 0 01.93-.69 7.64 7.64 0 011.66-.5 14 14 0 012.4-.16zM37.11 70.33l-.87-.16-.44-.09v-5.91c.66-1.65 1.69-2.48 3-2.48a3.29 3.29 0 011 .11 2.17 2.17 0 00.6.13.42.42 0 00.38-.38l.28-1.65h-.05a3.25 3.25 0 00-1.69-.44A4.1 4.1 0 0035.66 62l-.12-1.69a1 1 0 00-.22-.49.63.63 0 00-.5-.14h-3v1.08a.49.49 0 00.41.52c.14 0 .57.14 1.31.28v8.53l-1.3.25a.5.5 0 00-.42.53v1.08h5.73v-1.09a.51.51 0 00-.44-.53zM43 61.59h1.4v7.35a3.17 3.17 0 00.79 2.36 3.07 3.07 0 002.26.83 4.64 4.64 0 001.63-.29 4.26 4.26 0 001.36-.84h.05l-.66-1.06a.41.41 0 00-.35-.22.83.83 0 00-.27.1l-.16.1-.13.09a1.56 1.56 0 01-.42.19 2.13 2.13 0 01-.57.09 1.3 1.3 0 01-.94-.34 1.52 1.52 0 01-.33-1.1v-7.24h3.47v-1.7h-3.47v-4.17h-1.15a.56.56 0 00-.38.11.41.41 0 00-.18.34l-.47 3.7-2 .27v.9a.5.5 0 00.15.42.59.59 0 00.37.11zM61.39 72h4v-1.1a.47.47 0 00-.42-.5l-1.09-.23h-.21v-6.02a2.86 2.86 0 01.77-2.1 2.38 2.38 0 011.77-.7 2.25 2.25 0 011.76.72 3 3 0 01.61 2.11V72h4v-1.14a.47.47 0 00-.41-.5c-.13 0-.52-.12-1.34-.28v-5.93a5 5 0 00-1.07-3.45 3.31 3.31 0 00-1.32-.9 5.33 5.33 0 00-1.9-.32 4.3 4.3 0 00-2.14.63 3.73 3.73 0 00-1.54 1.77 4 4 0 00-1.06-1.69 3 3 0 00-2.06-.71 4.41 4.41 0 00-3.38 1.79l-.15-1.12a.62.62 0 00-.64-.48h-3v1.08a.47.47 0 00.39.52 12.36 12.36 0 001.34.28v8.53l-1.33.25a.48.48 0 00-.4.53v1.08h5.73v-1.08a.5.5 0 00-.43-.53 5.62 5.62 0 01-.7-.14l-.59-.11v-7.2a3.32 3.32 0 012.63-1.53c1.5 0 2.23.92 2.23 2.8zM84.57 61.18a5.28 5.28 0 00-1.87-1.26 6.9 6.9 0 00-4.85 0A5.28 5.28 0 0076 61.18a6 6 0 00-1.19 2 8.93 8.93 0 000 5.22 5.82 5.82 0 001.19 2 5.31 5.31 0 001.87 1.27 7.05 7.05 0 004.85 0 5.15 5.15 0 003-3.26 8.32 8.32 0 000-5.22 5.26 5.26 0 00-1.15-2.01zm-4.3.12a3 3 0 012.63 1.17 6.83 6.83 0 010 6.67 3 3 0 01-2.63 1.17 3.79 3.79 0 01-1.55-.31 2.71 2.71 0 01-1.07-.84 3.82 3.82 0 01-.65-1.43 7.73 7.73 0 01-.24-1.9 8 8 0 01.24-1.95 3.82 3.82 0 01.66-1.41 2.89 2.89 0 011.07-.89 3.94 3.94 0 011.54-.28zM101 70.36c-.14 0-.58-.14-1.32-.28V59.67h-4v1.1a.49.49 0 00.42.53c.69.13 1.12.22 1.31.27v7.11a4.34 4.34 0 01-3.14 1.63h-.07a2.33 2.33 0 01-1.87-.71 3.2 3.2 0 01-.6-2.11v-7.82h-4v1.08a.51.51 0 00.43.52 10.61 10.61 0 001.3.28v5.93a5.11 5.11 0 001.07 3.38 3.85 3.85 0 003.07 1.3 5.33 5.33 0 004-1.85l.15 1.15a.64.64 0 00.64.5h3.07v-1.1a.47.47 0 00-.46-.5zM103.09 61.59h1.38v7.35a3.17 3.17 0 00.79 2.36 3.1 3.1 0 002.26.83 4.6 4.6 0 001.63-.29 4.16 4.16 0 001.36-.83l-.66-1.06a.41.41 0 00-.34-.22.86.86 0 00-.28.1l-.15.1-.08.07a1.66 1.66 0 01-.41.19 2.28 2.28 0 01-.58.09 1.29 1.29 0 01-.93-.34 1.48 1.48 0 01-.34-1.1v-7.23h3.47v-1.7h-3.47v-4.17h-1.15a.56.56 0 00-.38.11.4.4 0 00-.17.34l-.48 3.7-2 .27v.9a.5.5 0 00.15.42.56.56 0 00.38.11zM112.79 55.76c.15.05.65.14 1.53.28v14l-1.28.25a.52.52 0 00-.44.53v1.08h5.75v-1.04a.5.5 0 00-.44-.52c-.11 0-.48-.11-1.06-.22h-.22V63a4.25 4.25 0 013.18-1.65c1.65 0 2.49 1 2.49 2.82v7.79h4v-1.1a.49.49 0 00-.41-.52c-.15 0-.58-.14-1.32-.28v-5.91a5.16 5.16 0 00-1.07-3.4 3.86 3.86 0 00-3.08-1.27 5.23 5.23 0 00-3.8 1.71v-7h-4.27v1.08a.5.5 0 00.44.49zM150.94 63.29c0-5.17-3.43-8.65-8.53-8.65h-8v1.08a.51.51 0 00.44.52l1.29.28v13.56l-1.28.25a.53.53 0 00-.45.53v1.08h8c5.1 0 8.53-3.48 8.53-8.65zm-8.53-6.64c3.75 0 6 2.48 6 6.64s-2.24 6.64-6 6.64h-3.79V56.65zM159 70.84a.54.54 0 00-.42-.53l-1.3-.25V59.67h-4v1.08a.54.54 0 00.42.53l1.33.25v8.53l-1.33.25a.54.54 0 00-.42.53v1.1H159zM155 57a1.93 1.93 0 00.5.35 1.28 1.28 0 00.61.13 1.31 1.31 0 00.61-.13 1.86 1.86 0 00.49-.35 1.54 1.54 0 00.35-.5 1.34 1.34 0 00.15-.61 1.42 1.42 0 00-.15-.63 1.76 1.76 0 00-.35-.52 1.86 1.86 0 00-.49-.35 1.31 1.31 0 00-.61-.13 1.28 1.28 0 00-.61.13 1.93 1.93 0 00-.5.35 2.25 2.25 0 00-.35.52 1.48 1.48 0 00-.12.63 1.38 1.38 0 00.12.61 1.93 1.93 0 00.35.5zM171.93 61.06v-.86h-3.36a4.71 4.71 0 00-1.25-.53 5.69 5.69 0 00-1.3-.17h-.18a5.85 5.85 0 00-1.87.27 4.73 4.73 0 00-1.51.81 3.75 3.75 0 00-1 1.24 3.64 3.64 0 00-.35 1.64 3.66 3.66 0 001.89 3.23h-.07a3.77 3.77 0 00-.51.34 3.58 3.58 0 00-.51.54 1.69 1.69 0 00-.3.6v.09a1.63 1.63 0 00-.08.45 1.88 1.88 0 00.33 1.12 2 2 0 00.69.6 3.59 3.59 0 00-1.45 1 2.26 2.26 0 00-.6 1.58 2.4 2.4 0 00.35 1.23 3.14 3.14 0 001 1.06 6 6 0 001.68.72 8.6 8.6 0 002.36.27 7.51 7.51 0 002.42-.34 5.62 5.62 0 001.8-.92 4.42 4.42 0 001.17-1.32 3.2 3.2 0 00.39-1.56 2.28 2.28 0 00-.35-1.39 2.67 2.67 0 00-1-.86 5.27 5.27 0 00-1.34-.44 10.37 10.37 0 00-1.12-.13h-.37c-.5 0-1-.09-1.49-.09a10 10 0 01-1.31-.1 2.28 2.28 0 01-.91-.3.62.62 0 01-.3-.58.75.75 0 01.18-.49 1.89 1.89 0 01.53-.49 5.87 5.87 0 001.59.21 5.6 5.6 0 001.85-.27 4.92 4.92 0 001.46-.82 3.86 3.86 0 00.95-1.25 3.64 3.64 0 00.34-1.64 3.71 3.71 0 00-.34-1.67l1.27-.17c.52-.13.62-.4.62-.61zm-6 4.89h-.07a3.15 3.15 0 01-1.08-.16 2.45 2.45 0 01-.82-.49 2.13 2.13 0 01-.48-.74 2.53 2.53 0 01-.19-1 2.28 2.28 0 01.65-1.72 3.27 3.27 0 013.83 0 2.26 2.26 0 01.67 1.72 3 3 0 01-.16 1 1.8 1.8 0 01-.48.76 2.3 2.3 0 01-.82.49 3.26 3.26 0 01-1.04.19zm0 8.72a7.5 7.5 0 01-1.52-.14 3.83 3.83 0 01-1.05-.4 1.67 1.67 0 01-.62-.58 1.26 1.26 0 01-.21-.72 1.56 1.56 0 01.41-1.08 3.7 3.7 0 011.09-.77h.31c.29 0 .58.08.89.1h1.27c.43 0 .82.08 1.2.12a5 5 0 011 .22 1.44 1.44 0 01.67.41.94.94 0 01.22.59v.08a1.42 1.42 0 01-.26.82 2.17 2.17 0 01-.69.65 3.37 3.37 0 01-1.13.44 6.81 6.81 0 01-1.51.26zM179.74 70.84a.54.54 0 00-.42-.53l-1.3-.25V59.67h-4v1.08a.54.54 0 00.42.53l1.33.25v8.53l-1.33.25a.54.54 0 00-.42.53v1.1h5.73zM175.78 57a2.11 2.11 0 00.5.35 1.5 1.5 0 001.22 0 2.11 2.11 0 00.5-.35 1.69 1.69 0 00.34-.5 1.35 1.35 0 00.16-.61 1.44 1.44 0 00-.16-.63 2 2 0 00-.34-.52 2.11 2.11 0 00-.5-.35 1.5 1.5 0 00-1.22 0 2.11 2.11 0 00-.5.35 2.25 2.25 0 00-.35.52 1.48 1.48 0 00-.12.63 1.38 1.38 0 00.12.61 1.93 1.93 0 00.35.5zM189.3 71l-.66-1.06a.41.41 0 00-.35-.22.83.83 0 00-.27.1l-.16.1-.13.09a1.56 1.56 0 01-.42.19 2.14 2.14 0 01-.58.09 1.29 1.29 0 01-.93-.34 1.52 1.52 0 01-.33-1.1v-7.24H189v-1.7h-3.47v-4.17h-1.16a.54.54 0 00-.37.11.41.41 0 00-.18.34l-.47 3.7-2 .27v.9a.5.5 0 00.15.42.59.59 0 00.38.11h1.39v7.35a3.17 3.17 0 00.79 2.36 3.07 3.07 0 002.26.83 4.64 4.64 0 001.63-.29 4.26 4.26 0 001.35-.84zM202 70.26h-.09v.05l-.8-.18h-.25v-6a6 6 0 00-.27-1.9 3.83 3.83 0 00-.83-1.46 4.09 4.09 0 00-1.34-.93 4.6 4.6 0 00-1.85-.34 6.38 6.38 0 00-2.62.49 7.16 7.16 0 00-2.18 1.45l.41.71a1 1 0 00.26.32.74.74 0 00.43.11.89.89 0 00.59-.21l.39-.24.3-.19a5.43 5.43 0 01.9-.42 3.52 3.52 0 011.29-.21A2.17 2.17 0 01198 62a3.19 3.19 0 01.6 2.1v.9a15.72 15.72 0 00-3.44.31 8.31 8.31 0 00-2.32.87 3.82 3.82 0 00-1.32 1.22 2.72 2.72 0 00-.39 1.43 2.91 2.91 0 002.1 3.09 3.89 3.89 0 001.32.22 5.6 5.6 0 001.31-.12 6.8 6.8 0 001.07-.37 4.09 4.09 0 001-.58l.35-.29.51-.42.22 1c.05.2.1.37.28.43a1.72 1.72 0 00.53.1h2.56v-1.1a.54.54 0 00-.38-.53zm-3.4-3.78v2.39a8.18 8.18 0 01-.69.64 4.22 4.22 0 01-.78.52 3.56 3.56 0 01-.87.3 3.78 3.78 0 01-1 .12 3 3 0 01-.77-.11 2.11 2.11 0 01-.6-.3 1.25 1.25 0 01-.4-.55 1.92 1.92 0 01-.17-.79 1.52 1.52 0 01.28-.87 2.21 2.21 0 01.93-.69 7.64 7.64 0 011.66-.5 14 14 0 012.38-.16zM209.79 70.31c-.16 0-.62-.15-1.29-.28V54.14h-4v1.1a.49.49 0 00.43.5c.16 0 .62.15 1.29.28v14l-1.28.25a.51.51 0 00-.44.53v1.1h5.75v-1.1a.51.51 0 00-.46-.49zM11.6 79.68a.45.45 0 00.34.5c.19 0 .65.14 1.38.28v5.78h-9.1v-5.78c.75-.13 1.23-.23 1.41-.28s.29-.22.29-.5V78.6H0v1.08a.46.46 0 00.34.5c.19 0 .65.14 1.39.28V94l-1.31.25a.5.5 0 00-.42.55v1.1h5.92v-1.1c0-.19-.2-.45-1.72-.78v-5.93h9.1V94l-1.3.27a.53.53 0 00-.45.53v1.1h5.95v-1.1a.46.46 0 00-.35-.5c-.18 0-.65-.14-1.38-.28V80.46l1.33-.25a.5.5 0 00.42-.53V78.6H11.6zM22 81.35a1.24 1.24 0 00.6.13 1.28 1.28 0 00.61-.13 1.71 1.71 0 00.5-.35 1.77 1.77 0 00.35-.5 1.33 1.33 0 00.15-.6 1.43 1.43 0 00-.15-.64 2.15 2.15 0 00-.35-.52 1.93 1.93 0 00-.5-.35 1.28 1.28 0 00-.61-.12 1.24 1.24 0 00-.6.12 1.77 1.77 0 00-.5.35 1.9 1.9 0 00-.35.52 1.38 1.38 0 00-.13.64 1.24 1.24 0 00.13.6 1.76 1.76 0 00.85.85zM25 94.27L23.7 94V83.63h-4v1.08a.54.54 0 00.42.53l1.33.25V94l-1.34.25a.54.54 0 00-.41.53v1.1h5.73V94.8a.55.55 0 00-.43-.53zM35.18 89.93a3.65 3.65 0 00-1-.64L33 88.86c-.22-.08-.48-.16-.77-.24s-.46-.13-.72-.22a2.81 2.81 0 01-1.36-.82 1.15 1.15 0 01-.27-.86 1.32 1.32 0 01.62-1 2.56 2.56 0 011.61-.51 8.14 8.14 0 011.8.25l.16 1.54a.44.44 0 00.48.4h1v-3.29h-.05a10.4 10.4 0 00-3.18-.65 5 5 0 00-3.43 1.07A3.2 3.2 0 0027.72 87a2.8 2.8 0 001 2.31 4.42 4.42 0 001.09.68c.43.19 1.17.43 2.24.77a4.54 4.54 0 011 .38 2.36 2.36 0 01.7.56 1.41 1.41 0 01.27 1 1.53 1.53 0 01-.6 1.16 2.72 2.72 0 01-1.82.58 5.56 5.56 0 01-2.4-.45l-.14-1.5a.42.42 0 00-.43-.35h-.94v3.26h.05a12.59 12.59 0 004 .65A4.88 4.88 0 0035 94.93a3.63 3.63 0 001.19-2.84 2.59 2.59 0 00-1.01-2.16zM44.69 93.65a.83.83 0 00-.27.1l-.16.1-.13.1a2.12 2.12 0 01-.42.18 1.86 1.86 0 01-.58.09 1.33 1.33 0 01-.93-.33 1.56 1.56 0 01-.34-1.1v-7.21h3.48v-1.71h-3.48V79.7h-1.15a.66.66 0 00-.38.11.44.44 0 00-.17.34l-.47 3.71-2 .26V85a.48.48 0 00.15.42.59.59 0 00.38.11h1.39v7.36a3.16 3.16 0 00.79 2.35 3.06 3.06 0 002.25.83 4.6 4.6 0 001.63-.29 4.13 4.13 0 001.37-.78L45 93.87a.42.42 0 00-.31-.22zM57.61 85.14a5.28 5.28 0 00-1.87-1.26 6.9 6.9 0 00-4.85 0A5.28 5.28 0 0049 85.14a6 6 0 00-1.19 2 9 9 0 000 5.23 6 6 0 001.19 2 5.42 5.42 0 001.87 1.26 6.9 6.9 0 004.85 0 5.42 5.42 0 001.87-1.26 5.58 5.58 0 001.17-2 8.54 8.54 0 000-5.23 5.41 5.41 0 00-1.15-2zm-4.29.12a3 3 0 012.62 1.17 6.83 6.83 0 010 6.67 3 3 0 01-2.62 1.17 3.83 3.83 0 01-1.56-.33 2.63 2.63 0 01-1.07-.84 4.07 4.07 0 01-.69-1.41 7.73 7.73 0 01-.24-1.9 8.53 8.53 0 01.24-2 4.16 4.16 0 01.66-1.41 2.86 2.86 0 011.07-.88 3.81 3.81 0 011.59-.24zM68.75 83.39A4.08 4.08 0 0065.09 86L65 84.26a1 1 0 00-.21-.49.69.69 0 00-.51-.14h-3v1.08a.51.51 0 00.41.53c.15 0 .58.14 1.32.28V94l-1.31.26a.49.49 0 00-.42.52v1.12H67v-1.08a.49.49 0 00-.42-.52l-.86-.17-.44-.08v-5.92c.66-1.65 1.68-2.48 3-2.48a3.73 3.73 0 011 .11 2.1 2.1 0 00.6.13c.17 0 .32-.14.38-.38l.27-1.65a3.27 3.27 0 00-1.78-.47zM80 83.63v1.08a.48.48 0 00.4.53h.24l1 .2-2.58 6.25c-.08.2-.19.49-.31.85a5.28 5.28 0 00-.25-.85l-2.67-6.24c.66-.13 1.1-.23 1.25-.28a.47.47 0 00.42-.5v-1.1h-5.57v1.1a.47.47 0 00.41.5 8.28 8.28 0 001 .24l4.24 9.66-2.19 4.93h1.7a.88.88 0 00.83-.57l6-14 .44-.09h.12l.38-.09.27-.06a.47.47 0 00.42-.5v-1.1h-.94zM93.52 79.68a.46.46 0 00.35.5c.18 0 .65.14 1.38.28V94l-1.33.25a.48.48 0 00-.4.53v1.1h5.92V94.8a.45.45 0 00-.34-.5c-.18 0-.61-.13-1.4-.28V80.46l1.3-.25a.5.5 0 00.41-.53V78.6h-5.89zM114.94 94.27c-.14 0-.57-.13-1.31-.27v-5.91a5.16 5.16 0 00-1-3.38 3.73 3.73 0 00-3.07-1.29 5.43 5.43 0 00-4 1.85l-.17-1.16a.63.63 0 00-.65-.48h-3v1.08a.48.48 0 00.39.53c.13 0 .52.12 1.34.28V94l-1.34.26a.46.46 0 00-.39.52v1.12h5.73v-1.08a.49.49 0 00-.42-.52c-.51-.12-1.12-.25-1.33-.28v-7.1a4.36 4.36 0 013.23-1.66c1.64 0 2.47 1 2.47 2.85v7.79h4v-1.1a.53.53 0 00-.48-.53zM122.72 94.27l-1.3-.25V83.63h-4v1.08a.55.55 0 00.42.53l1.33.25V94l-1.33.25a.55.55 0 00-.42.53v1.1h5.73V94.8a.54.54 0 00-.43-.53zM120.9 78.39a1.61 1.61 0 00-1.22 0 1.63 1.63 0 00-.84.87 1.38 1.38 0 00-.13.64 1.24 1.24 0 00.13.6 1.57 1.57 0 00.34.5 1.86 1.86 0 00.5.35 1.5 1.5 0 001.22 0 1.86 1.86 0 00.5-.35 1.77 1.77 0 00.35-.5 1.33 1.33 0 00.15-.6 1.58 1.58 0 00-.15-.64 2.49 2.49 0 00-.35-.52 2.11 2.11 0 00-.5-.35zM131.74 93.65a.83.83 0 00-.27.1l-.16.1-.13.1a2.05 2.05 0 01-.41.18 1.91 1.91 0 01-.58.09 1.3 1.3 0 01-.93-.33 1.51 1.51 0 01-.34-1.1v-7.21h3.47v-1.71h-3.47V79.7h-1.15a.61.61 0 00-.38.11.42.42 0 00-.18.34l-.47 3.71-2 .26V85c0 .21 0 .35.15.42a.54.54 0 00.37.11h1.39v7.36a3.16 3.16 0 00.79 2.35 3.08 3.08 0 002.26.83 4.64 4.64 0 001.63-.29 4 4 0 001.37-.78h.05l-.66-1.06a.41.41 0 00-.35-.29zM138.2 78.39a1.61 1.61 0 00-1.22 0 1.63 1.63 0 00-.84.87 1.38 1.38 0 00-.13.64 1.24 1.24 0 00.13.6 1.57 1.57 0 00.34.5 1.86 1.86 0 00.5.35 1.5 1.5 0 001.22 0 1.86 1.86 0 00.5-.35 1.77 1.77 0 00.35-.5 1.33 1.33 0 00.15-.6 1.58 1.58 0 00-.15-.64 2.49 2.49 0 00-.35-.52 2.11 2.11 0 00-.5-.35zM140 94.27l-1.3-.25V83.63h-4v1.08a.55.55 0 00.42.53l1.33.25V94l-1.33.25a.55.55 0 00-.42.53v1.1h5.73V94.8a.54.54 0 00-.43-.53zM153.13 94.22H153c-.17 0-.5-.11-.8-.18L152 94v-6a5.9 5.9 0 00-.27-1.89 3.8 3.8 0 00-.83-1.47 3.93 3.93 0 00-1.34-.92 4.42 4.42 0 00-1.85-.35 6.33 6.33 0 00-2.61.49 7.22 7.22 0 00-2.18 1.45l.41.72a1 1 0 00.26.31.7.7 0 00.42.11.9.9 0 00.6-.21A4.44 4.44 0 01145 86l.3-.18a5.05 5.05 0 01.9-.43 3.45 3.45 0 011.29-.21 2.15 2.15 0 011.74.72 3.2 3.2 0 01.61 2.11v.86a15.82 15.82 0 00-3.45.31 8.43 8.43 0 00-2.32.87 3.84 3.84 0 00-1.32 1.23 2.78 2.78 0 00-.39 1.42 3.45 3.45 0 00.27 1.47 3.2 3.2 0 00.74 1 3.1 3.1 0 001.1.59 3.81 3.81 0 001.32.22 5.66 5.66 0 001.31-.12 7.8 7.8 0 001.06-.36 3.93 3.93 0 001-.59l.35-.29.52-.42.21 1c.05.2.11.38.29.44a1.61 1.61 0 00.52.09h2.57v-1.1a.54.54 0 00-.49-.41zm-3.39-3.78v2.39a8.05 8.05 0 01-.69.64 5 5 0 01-.78.52 4.24 4.24 0 01-.87.31 4.35 4.35 0 01-1 .11 2.56 2.56 0 01-.77-.11 1.78 1.78 0 01-.6-.3 1.27 1.27 0 01-.41-.55 1.9 1.9 0 01-.16-.78 1.56 1.56 0 01.27-.87 2.14 2.14 0 01.93-.7 7.53 7.53 0 011.66-.49 13.93 13.93 0 012.42-.17zM161.46 93.65a.86.86 0 00-.28.1l-.15.1-.14.1a1.83 1.83 0 01-.41.18 1.91 1.91 0 01-.58.09 1.33 1.33 0 01-.93-.33 1.51 1.51 0 01-.34-1.1v-7.21h3.47v-1.71h-3.47V79.7h-1.15a.61.61 0 00-.38.11.41.41 0 00-.17.34l-.48 3.71-2 .26V85a.48.48 0 00.15.42.56.56 0 00.38.11h1.39v7.36a3.16 3.16 0 00.78 2.35 3.1 3.1 0 002.26.83 4.6 4.6 0 001.63-.29 4 4 0 001.36-.83h.05l-.66-1.06a.41.41 0 00-.33-.24zM166.7 81.35a1.24 1.24 0 00.6.13 1.28 1.28 0 00.61-.13 1.71 1.71 0 00.5-.35 1.77 1.77 0 00.35-.5 1.33 1.33 0 00.15-.6 1.43 1.43 0 00-.15-.64 2.15 2.15 0 00-.35-.52 1.93 1.93 0 00-.5-.35 1.28 1.28 0 00-.61-.12 1.24 1.24 0 00-.6.12 1.77 1.77 0 00-.5.35 1.9 1.9 0 00-.35.52 1.38 1.38 0 00-.13.64 1.24 1.24 0 00.13.6 1.44 1.44 0 00.35.5 1.59 1.59 0 00.5.35zM169.74 94.27l-1.31-.27V83.63h-4v1.08a.54.54 0 00.42.53l1.33.25V94l-1.34.25a.54.54 0 00-.41.53v1.1h5.73V94.8a.55.55 0 00-.42-.53zM179.91 84.71a.5.5 0 00.41.53l.87.16.41.08-2.55 6.44a12 12 0 00-.4 1.42 8.38 8.38 0 00-.38-1.42l-2.53-6.43.78-.14a2.76 2.76 0 00.45-.09.49.49 0 00.42-.52v-1.11h-5.58v1.11a.49.49 0 00.43.52h.12l.4.07a4.32 4.32 0 01.6.13l4.25 10.44h2l4.25-10.44.61-.13c.27 0 .46-.1.52-.1a.47.47 0 00.42-.5v-1.1h-5.53zM195.8 84.85a4.31 4.31 0 00-1.61-1 5.43 5.43 0 00-2-.37 5.84 5.84 0 00-2.38.46 5.19 5.19 0 00-1.81 1.25 5.89 5.89 0 00-1.14 1.94 6.72 6.72 0 00-.42 2.37 8.41 8.41 0 00.44 2.81 5.76 5.76 0 001.21 2.06 5.38 5.38 0 001.87 1.29 6.34 6.34 0 002.36.43 8.45 8.45 0 002.63-.45 5.81 5.81 0 001.19-.61 3.64 3.64 0 001-.83l-.63-.83a.52.52 0 00-.47-.25 1 1 0 00-.51.21l-.72.38a7.59 7.59 0 01-1 .4 4.72 4.72 0 01-1.37.16 4 4 0 01-1.51-.28 3.06 3.06 0 01-1.17-.84 3.91 3.91 0 01-.8-1.37 6.1 6.1 0 01-.28-1.91h8a.64.64 0 00.49-.2 1.41 1.41 0 00.11-.71 6.82 6.82 0 00-.39-2.33 5.21 5.21 0 00-1.09-1.78zm-3.6.32a3.34 3.34 0 011.29.23 2.89 2.89 0 011 .68 3.14 3.14 0 01.56 1 4.14 4.14 0 01.21 1.25h-6.43a4.11 4.11 0 011.03-2.33 3 3 0 012.18-.86z"/></g></svg>