<svg xmlns="http://www.w3.org/2000/svg" viewBox="0 0 738.57 100"><defs><style>.cls-1{fill:#232526}</style></defs><g id="mark"><path class="cls-1" transform="rotate(90.36 8.3 81.22)" d="M.05 72.97h16.5v16.5H.05z"/><path class="cls-1" transform="rotate(90.36 32.963 81.371)" d="M24.71 73.13h16.5v16.5h-16.5z"/><path class="cls-1" transform="rotate(90.36 57.616 81.523)" d="M49.37 73.28h16.5v16.5h-16.5z"/><path class="cls-1" transform="rotate(90.36 82.28 81.675)" d="M74.03 73.43h16.5v16.5h-16.5z"/><path class="cls-1" transform="rotate(90.36 106.943 81.827)" d="M98.69 73.59h16.5v16.5h-16.5z"/><path class="cls-1" transform="rotate(90.36 131.596 81.979)" d="M123.35 73.74h16.5v16.5h-16.5z"/><path class="cls-1" transform="rotate(90.36 156.26 82.13)" d="M148.01 73.89h16.5v16.5h-16.5z"/><path class="cls-1" transform="rotate(90.36 180.918 82.287)" d="M172.67 74.04h16.5v16.5h-16.5z"/><path class="cls-1" transform="rotate(90.36 205.576 82.434)" d="M197.33 74.2h16.5v16.5h-16.5z"/><path class="cls-1" transform="rotate(90.36 230.24 82.586)" d="M221.99 74.35h16.5v16.5h-16.5z"/><path class="cls-1" transform="rotate(90.36 33.116 56.897)" d="M24.86 48.65h16.5v16.5h-16.5z"/><path class="cls-1" transform="rotate(90.36 57.769 57.05)" d="M49.52 48.8h16.5v16.5h-16.5z"/><path class="cls-1" transform="rotate(90.36 107.09 57.348)" d="M98.84 49.11h16.5v16.5h-16.5z"/><path class="cls-1" transform="rotate(90.36 131.749 57.505)" d="M123.5 49.26H140v16.5h-16.5z"/><path class="cls-1" transform="rotate(90.36 156.412 57.657)" d="M148.16 49.42h16.5v16.5h-16.5z"/><path class="cls-1" transform="rotate(90.36 181.065 57.808)" d="M172.83 49.57h16.5v16.5h-16.5z"/><path class="cls-1" transform="rotate(90.36 230.392 58.112)" d="M222.15 49.87h16.5v16.5h-16.5z"/><path class="cls-1" transform="rotate(90.36 57.919 33.388)" d="M49.67 25.14h16.5v16.5h-16.5z"/><path class="cls-1" transform="rotate(90.36 131.894 33.848)" d="M123.65 25.6h16.5v16.5h-16.5z"/><path class="cls-1" transform="rotate(90.36 156.557 34)" d="M148.31 25.76h16.5v16.5h-16.5z"/><path class="cls-1" transform="rotate(90.36 58.064 9.732)" d="M49.82 1.49h16.5v16.5h-16.5z"/><path class="cls-1" transform="rotate(90.36 132.044 10.187)" d="M123.8 1.94h16.5v16.5h-16.5z"/><path class="cls-1" transform="rotate(90.36 156.697 10.339)" d="M148.46 2.1h16.5v16.5h-16.5z"/><path class="cls-1" transform="rotate(90.36 230.532 34.45)" d="M222.29 26.22h16.5v16.5h-16.5z"/></g><g id="typemark"><path class="cls-1" d="M316.32 20c0-11.28-7.47-18.86-18.6-18.86h-17.45v2.31a1.12 1.12 0 001 1.15l2.8.6v29.57l-2.8.55a1.12 1.12 0 00-1 1.15v2.35h17.45c11.13 0 18.6-7.58 18.6-18.82zm-18.6-14.51c8.18 0 13.06 5.41 13.06 14.47s-4.88 14.47-13.06 14.47h-8.25V5.49zM344.9 36.31a1.16 1.16 0 00-.91-1.15h-.19v.09l-1.75-.38-.55-.11V21.63a13 13 0 00-.58-4.12 8.46 8.46 0 00-1.81-3.2 9 9 0 00-2.92-2 9.88 9.88 0 00-4-.74 14.09 14.09 0 00-5.71 1 16 16 0 00-4.74 3.17l-.09.09.89 1.56a2.07 2.07 0 00.57.68 1.54 1.54 0 00.93.24 2 2 0 001.3-.45 9 9 0 01.85-.53l.65-.4a12 12 0 012-.93 7.5 7.5 0 012.82-.46 4.72 4.72 0 013.79 1.57 6.94 6.94 0 011.32 4.6v1.87a34.63 34.63 0 00-7.5.69 18 18 0 00-5.06 1.9 8.19 8.19 0 00-2.88 2.66 6 6 0 00-.86 3.11 7.45 7.45 0 00.59 3.21 7.27 7.27 0 001.61 2.24 7 7 0 002.4 1.29 8.58 8.58 0 002.88.48 11.46 11.46 0 002.86-.27 15.52 15.52 0 002.32-.79 8.73 8.73 0 002.13-1.28l.76-.62 1.12-.93.47 2.25c.11.44.24.82.63 1a3.62 3.62 0 001.15.22h5.59zm-8.31-9.4v5.21c-.5.49-1 1-1.51 1.4a9.9 9.9 0 01-1.69 1.13 8.67 8.67 0 01-1.9.67 9.16 9.16 0 01-2.16.26 5.82 5.82 0 01-1.68-.26 4 4 0 01-1.31-.65 2.76 2.76 0 01-.89-1.19 4.3 4.3 0 01-.35-1.71 3.29 3.29 0 01.6-1.9 4.61 4.61 0 012-1.51 15.75 15.75 0 013.62-1.09 31.7 31.7 0 015.27-.36zM361.13 35.32l-1.89-.32-1-.19V21.87c1.44-3.59 3.67-5.41 6.63-5.41a7 7 0 012.09.26 5 5 0 001.3.26c.39 0 .71-.3.84-.81l.59-3.61-.09-.05a7.07 7.07 0 00-3.69-1c-3.35 0-6 1.87-8 5.57l-.28-3.67a2 2 0 00-.46-1.07 1.42 1.42 0 00-1.11-.31h-6.58v2.35a1.08 1.08 0 00.89 1.15c.31.1 1.25.3 2.87.6v18.6l-2.85.55a1.07 1.07 0 00-.91 1.15v2.35H362v-2.31a1.08 1.08 0 00-.87-1.15zM374 16.25h3v16a6.9 6.9 0 001.72 5.13 6.66 6.66 0 004.91 1.82 10.22 10.22 0 003.56-.64 9.28 9.28 0 003-1.8l.11-.09-1.44-2.32a.88.88 0 00-.75-.48 1.58 1.58 0 00-.6.22 2.46 2.46 0 00-.34.22 1.74 1.74 0 01-.3.2 3.6 3.6 0 01-.9.41 4.68 4.68 0 01-1.26.2 2.81 2.81 0 01-2-.74 3.29 3.29 0 01-.74-2.39V16.3h7.58v-3.71h-7.58V3.5h-2.51a1.23 1.23 0 00-.82.24.9.9 0 00-.38.74l-1 8.08-4.35.57v2a1.06 1.06 0 00.32.91 1.28 1.28 0 00.77.21zM414.07 38.87h8.73v-2.4a1 1 0 00-.92-1.1c-1.08-.2-1.87-.38-2.39-.5l-.45-.1V21.84a6.24 6.24 0 011.67-4.59 5.25 5.25 0 013.86-1.52 4.93 4.93 0 013.85 1.57 6.62 6.62 0 011.32 4.59v17h8.73v-2.42a1 1 0 00-.89-1.09c-.29-.1-1.14-.28-2.92-.61V21.84c0-3.28-.77-5.74-2.34-7.52a7.47 7.47 0 00-2.89-2 11.54 11.54 0 00-4.13-.69 9.35 9.35 0 00-4.68 1.37 8.1 8.1 0 00-3.34 3.86 8.85 8.85 0 00-2.28-3.65 6.54 6.54 0 00-4.49-1.56c-2.7 0-5.17 1.31-7.36 3.9l-.33-2.43a1.37 1.37 0 00-1.4-1h-6.64v2.35a1 1 0 00.84 1.15c.29.09 1.14.27 2.92.6v18.6l-2.9.55a1 1 0 00-.86 1.15v2.35h12.49v-2.4a1.07 1.07 0 00-.94-1.15 14.17 14.17 0 01-1.54-.32l-1.28-.23v-15.7c1.75-2.25 3.63-3.34 5.74-3.34 3.27 0 4.86 2 4.86 6.11zM464.6 15.36a11.39 11.39 0 00-4.08-2.76 15.15 15.15 0 00-10.56 0 11.39 11.39 0 00-4.08 2.76 12.44 12.44 0 00-2.59 4.33 16 16 0 00-.85 5.7 16 16 0 00.85 5.7 12.58 12.58 0 002.59 4.34 11.5 11.5 0 004.12 2.75 15.15 15.15 0 0010.56 0 11.5 11.5 0 004.08-2.75 11.74 11.74 0 002.55-4.34 17.65 17.65 0 00.89-5.7 17.59 17.59 0 00-.89-5.69 11.74 11.74 0 00-2.59-4.34zm-9.36.27c2.6 0 4.53.85 5.72 2.54a12.48 12.48 0 011.91 7.27 12.49 12.49 0 01-1.87 7.28c-1.19 1.69-3.12 2.54-5.72 2.54a8.36 8.36 0 01-3.38-.71 5.8 5.8 0 01-2.34-1.84 8.36 8.36 0 01-1.44-3.07 16.83 16.83 0 01-.52-4.14 17.73 17.73 0 01.52-4.25 8.49 8.49 0 011.44-3.08 6.17 6.17 0 012.34-1.93 8.27 8.27 0 013.34-.61zM500.43 35.38c-.31-.11-1.25-.31-2.87-.61v-22.7h-8.73v2.4a1.08 1.08 0 00.92 1.15c1.49.28 2.45.48 2.84.59V31.7a9.39 9.39 0 01-6.83 3.56h-.16a5 5 0 01-4.06-1.56 6.92 6.92 0 01-1.32-4.6v-17h-8.78v2.35a1.12 1.12 0 00.94 1.15c.34.11 1.34.32 2.82.6v12.9a11.13 11.13 0 002.33 7.37 8.42 8.42 0 006.71 2.82 11.51 11.51 0 008.66-4l.33 2.51a1.42 1.42 0 001.4 1.1h6.69v-2.4a1 1 0 00-.89-1.12zM505 16.25h3v16a6.9 6.9 0 001.72 5.13 6.66 6.66 0 004.91 1.82 10.22 10.22 0 003.56-.64 9.43 9.43 0 003-1.8l.1-.09-1.44-2.32a.88.88 0 00-.76-.48 1.61 1.61 0 00-.59.22 2.46 2.46 0 00-.34.22 1.74 1.74 0 01-.3.2 3.6 3.6 0 01-.9.41 4.68 4.68 0 01-1.26.2 2.82 2.82 0 01-2-.74 3.29 3.29 0 01-.74-2.39V16.3h7.58v-3.71h-7.58V3.5h-2.51a1.23 1.23 0 00-.82.24.9.9 0 00-.38.74l-1 8.08-4.35.57v2a1.06 1.06 0 00.32.91 1.28 1.28 0 00.78.21zM526.14 3.55a32.77 32.77 0 003.34.61v30.61l-2.8.55a1.12 1.12 0 00-1 1.15v2.35h12.54v-2.35a1.12 1.12 0 00-1-1.15c-.24-.06-1-.23-2.31-.47l-.49-.08V19.29c2.19-2.43 4.46-3.61 7-3.61 3.6 0 5.43 2.07 5.43 6.16v17h8.73v-2.37a1.08 1.08 0 00-.9-1.15c-.31-.1-1.25-.3-2.87-.6V21.84a11.25 11.25 0 00-2.33-7.42 8.39 8.39 0 00-6.71-2.77 11.42 11.42 0 00-8.3 3.74V.05h-9.3v2.36a1.11 1.11 0 00.97 1.14zM609.31 20c0-11.28-7.47-18.86-18.6-18.86h-17.45v2.31a1.12 1.12 0 001 1.15l2.8.6v29.57l-2.79.55a1.12 1.12 0 00-1 1.15v2.35h17.45c11.12 0 18.59-7.58 18.59-18.82zm-18.6-14.51c8.18 0 13.06 5.41 13.06 14.47s-4.88 14.47-13.06 14.47h-8.25V5.49zM626.87 36.42a1.16 1.16 0 00-.91-1.15l-2.85-.55V12.07h-8.73v2.35a1.16 1.16 0 00.91 1.15l2.9.55v18.6l-2.9.55a1.16 1.16 0 00-.91 1.15v2.4h12.49zM618.24 6.33a3.77 3.77 0 001.09.76 2.71 2.71 0 001.32.28 2.78 2.78 0 001.35-.28 3.85 3.85 0 001.84-1.84 3 3 0 00.33-1.33 3.08 3.08 0 00-.33-1.38 4.05 4.05 0 00-.76-1.14A4.07 4.07 0 00622 .64a2.9 2.9 0 00-1.33-.27 2.83 2.83 0 00-1.32.27 4 4 0 00-1.09.76 4.28 4.28 0 00-.76 1.14 3 3 0 00-.28 1.38 2.9 2.9 0 00.28 1.33 3.85 3.85 0 00.74 1.08zM655.08 15.1v-1.88h-7.32a10 10 0 00-2.76-1.15 12.25 12.25 0 00-2.85-.36l.11-.11h-.39a12.53 12.53 0 00-4.07.58 10.29 10.29 0 00-3.29 1.75 8.24 8.24 0 00-2.13 2.72 7.87 7.87 0 00-.75 3.57 8.19 8.19 0 001.12 4.31 8.37 8.37 0 002.91 2.85l-.14.08a6.39 6.39 0 00-1.12.74 8 8 0 00-1.12 1.17 3.82 3.82 0 00-.65 1.31v.21a3.47 3.47 0 00-.16 1 4.12 4.12 0 00.71 2.44 4.28 4.28 0 001.5 1.3 8.24 8.24 0 00-3.17 2.11 5 5 0 00-1.29 3.45 5.35 5.35 0 00.75 2.69 6.93 6.93 0 002.19 2.3 13.21 13.21 0 003.65 1.59 19.09 19.09 0 005.17.58 16.51 16.51 0 005.27-.74 12.62 12.62 0 003.92-2 9.91 9.91 0 002.54-2.87 7 7 0 00.86-3.42 5 5 0 00-.76-3 5.79 5.79 0 00-2.1-1.88 11.56 11.56 0 00-2.91-1 22.45 22.45 0 00-2.45-.3l-.81-.07c-1.08-.1-2.2-.21-3.25-.21a21.45 21.45 0 01-2.85-.21 4.94 4.94 0 01-2-.66 1.34 1.34 0 01-.65-1.27 1.59 1.59 0 01.38-1 4.5 4.5 0 011.15-1.08 12.67 12.67 0 003.48.46 11.94 11.94 0 004-.58 10.58 10.58 0 003.2-1.86 8 8 0 002.09-2.66 7.9 7.9 0 00.75-3.57 7.93 7.93 0 00-.75-3.64l2.77-.39c1.01-.26 1.22-.85 1.22-1.3zM642 25.75v-.1h-.16a6.64 6.64 0 01-2.35-.36 5 5 0 01-1.77-1.06 4.35 4.35 0 01-1.06-1.62 5.32 5.32 0 01-.41-2.08 4.94 4.94 0 011.42-3.75 7.09 7.09 0 018.35 0 5 5 0 011.46 3.75 6.62 6.62 0 01-.36 2.1 3.81 3.81 0 01-1 1.65 5.12 5.12 0 01-1.77 1.07 7.26 7.26 0 01-2.35.4zm.05 19a15.92 15.92 0 01-3.31-.31 7.65 7.65 0 01-2.3-.87 3.62 3.62 0 01-1.36-1.25 2.89 2.89 0 01-.44-1.59 3.39 3.39 0 01.89-2.35 7.91 7.91 0 012.37-1.66l.68.09a19.41 19.41 0 001.95.21l1.39.06h1.38c.93.05 1.78.16 2.6.26a10.74 10.74 0 012.11.46 3.18 3.18 0 011.44.9 2 2 0 01.48 1.3v.16a3.16 3.16 0 01-.55 1.79 4.66 4.66 0 01-1.52 1.42 7.76 7.76 0 01-2.46 1 15.44 15.44 0 01-3.33.4zM672.11 36.42a1.16 1.16 0 00-.91-1.15l-2.85-.55V12.07h-8.73v2.35a1.17 1.17 0 00.92 1.15l2.9.55v18.6l-2.91.55a1.17 1.17 0 00-.91 1.15v2.4h12.49zM663.48 6.33a3.91 3.91 0 001.09.76 3.28 3.28 0 002.65 0 3.91 3.91 0 001.09-.76 3.85 3.85 0 00.76-1.08 3 3 0 00.33-1.33 3.22 3.22 0 00-.33-1.38 4.28 4.28 0 00-.76-1.14 4.13 4.13 0 00-1.09-.76 3.39 3.39 0 00-2.65 0 4.13 4.13 0 00-1.09.76 4.28 4.28 0 00-.76 1.14 3.17 3.17 0 00-.28 1.38 2.9 2.9 0 00.28 1.33 3.85 3.85 0 00.76 1.08zM693 36.8l.1-.09-1.43-2.32a.9.9 0 00-.76-.48 1.58 1.58 0 00-.6.22 2.46 2.46 0 00-.34.22 2.11 2.11 0 01-.29.2 3.82 3.82 0 01-.91.41 4.68 4.68 0 01-1.26.2 2.82 2.82 0 01-2-.74 3.29 3.29 0 01-.81-2.42V16.3h7.58v-3.71h-7.58V3.5h-2.51a1.27 1.27 0 00-.82.24.9.9 0 00-.38.74l-1 8.08-4.35.57v2a1.09 1.09 0 00.32.91 1.28 1.28 0 00.83.24h3v16a6.9 6.9 0 001.72 5.13 6.67 6.67 0 004.92 1.82 10.2 10.2 0 003.57-.63 9.43 9.43 0 003-1.8zM720.58 35.16h-.2v.09l-1.75-.38-.54-.11V21.63a13 13 0 00-.58-4.12 8.6 8.6 0 00-1.81-3.2 9.17 9.17 0 00-2.93-2 9.88 9.88 0 00-4-.74 14 14 0 00-5.7 1 15.87 15.87 0 00-4.75 3.17l-.09.09.89 1.56a2.35 2.35 0 00.57.68 1.56 1.56 0 00.93.24 2 2 0 001.3-.45c.25-.18.54-.35.85-.53l.66-.4a11.26 11.26 0 012-.93 7.48 7.48 0 012.81-.46 4.72 4.72 0 013.8 1.57 7 7 0 011.32 4.6v1.87a34.73 34.73 0 00-7.51.69 18 18 0 00-5.06 1.9 8.07 8.07 0 00-2.87 2.66A6 6 0 00697 32a7.45 7.45 0 00.59 3.21 6 6 0 004 3.53 8.52 8.52 0 002.87.48 11.41 11.41 0 002.86-.27 14.79 14.79 0 002.32-.79 8.55 8.55 0 002.13-1.28l.77-.62 1.12-.93.47 2.25c.11.44.23.82.63 1a3.55 3.55 0 001.14.22h5.59v-2.49a1.16 1.16 0 00-.91-1.15zm-7.41-8.25v5.21a19.33 19.33 0 01-1.5 1.4 9.63 9.63 0 01-1.7 1.13 8.49 8.49 0 01-1.9.67 9.1 9.1 0 01-2.16.26 5.8 5.8 0 01-1.67-.26 3.92 3.92 0 01-1.31-.65 2.76 2.76 0 01-.89-1.19 4.3 4.3 0 01-.36-1.71 3.3 3.3 0 01.61-1.9 4.5 4.5 0 012-1.51 15.43 15.43 0 013.62-1.09 31.48 31.48 0 015.26-.36zM737.62 35.27c-.34-.11-1.34-.33-2.81-.61V0H726v2.41a1.06 1.06 0 001 1.09c.34.11 1.34.33 2.82.6v30.62l-2.8.55a1.12 1.12 0 00-1 1.15v2.4h12.54v-2.4a1.12 1.12 0 00-.94-1.15zM305.5 55.7a1 1 0 00.75 1.09c.41.1 1.42.31 3 .61V70h-19.83V57.4c1.63-.29 2.69-.5 3.07-.61s.64-.48.64-1.09v-2.36h-12.91v2.36a1 1 0 00.74 1.09c.41.1 1.43.31 3 .61V87l-2.85.55a1.09 1.09 0 00-.91 1.15v2.41h12.91v-2.45c0-.42-.44-1-3.77-1.7V74h19.85v13l-2.8.55a1.12 1.12 0 00-1 1.15v2.41h13v-2.45a1 1 0 00-.75-1.09c-.4-.11-1.42-.31-3-.61V57.4l2.9-.56a1.07 1.07 0 00.91-1.14v-2.36h-13zM328.11 59.34a2.83 2.83 0 001.32.28 2.87 2.87 0 001.33-.28 3.71 3.71 0 001.08-.76 3.93 3.93 0 00.77-1.09 2.93 2.93 0 00.33-1.32 3.15 3.15 0 00-.33-1.38 4.3 4.3 0 00-.77-1.14 3.71 3.71 0 00-1.08-.76 2.87 2.87 0 00-1.33-.28 2.83 2.83 0 00-1.32.28 3.91 3.91 0 00-1.09.76 4.28 4.28 0 00-.76 1.14 3 3 0 00-.28 1.38 2.83 2.83 0 00.28 1.32 3.78 3.78 0 001.85 1.85zM334.74 87.51l-2.85-.51V64.31h-8.73v2.36a1.18 1.18 0 00.92 1.15l2.9.55V87l-2.91.55a1.17 1.17 0 00-.91 1.15v2.41h12.49v-2.45a1.16 1.16 0 00-.91-1.15zM356.91 78a8.08 8.08 0 00-2.24-1.39l-2.51-.94c-.48-.18-1-.34-1.68-.52-.48-.14-1-.29-1.56-.47a6.33 6.33 0 01-3-1.79 2.62 2.62 0 01-.58-1.87 2.89 2.89 0 011.35-2.28 5.56 5.56 0 013.51-1.12 17.91 17.91 0 013.93.55l.3 3.35a.94.94 0 001.05.86h2.19v-7.03h-.11a22.37 22.37 0 00-6.94-1.42c-3.25 0-5.69.76-7.47 2.33a6.91 6.91 0 00-2.57 5.45 6.13 6.13 0 002.26 5 10.09 10.09 0 002.38 1.48c.94.42 2.54.94 4.89 1.68a10.45 10.45 0 012.16.83 5.32 5.32 0 011.52 1.21 3.1 3.1 0 01.59 2.09 3.35 3.35 0 01-1.31 2.54 5.93 5.93 0 01-4 1.27 12 12 0 01-5.23-1l-.31-3.28a.89.89 0 00-.94-.74h-2V90h.11a27.6 27.6 0 008.62 1.42 10.55 10.55 0 007.11-2.49 7.87 7.87 0 002.61-6.18 5.62 5.62 0 00-2.13-4.75zM377.66 86.15a1.65 1.65 0 00-.6.23 2.46 2.46 0 00-.34.22c-.09.06-.18.13-.3.2a3.55 3.55 0 01-.9.4 4.32 4.32 0 01-1.26.2 2.86 2.86 0 01-2-.73 3.31 3.31 0 01-.74-2.4V68.55h7.58v-3.71h-7.58v-9.09H369a1.23 1.23 0 00-.82.24.88.88 0 00-.38.73l-1 8.08-4.35.58v2a1.07 1.07 0 00.32.91 1.28 1.28 0 00.83.24h3v16a6.87 6.87 0 001.72 5.13 6.66 6.66 0 004.91 1.82 10.2 10.2 0 003.56-.63 9.28 9.28 0 003-1.81l.1-.09-1.44-2.31a.89.89 0 00-.79-.49zM405.83 67.6a11.68 11.68 0 00-4.08-2.75 15.18 15.18 0 00-10.57 0 11.5 11.5 0 00-4.08 2.75 12.58 12.58 0 00-2.59 4.34 16 16 0 00-.85 5.7 16 16 0 00.85 5.7 12.44 12.44 0 002.59 4.33 11.39 11.39 0 004.08 2.76 15.18 15.18 0 0010.57 0 11.57 11.57 0 004.08-2.76 11.87 11.87 0 002.54-4.34 18.47 18.47 0 000-11.39 11.87 11.87 0 00-2.54-4.34zm-9.37.27c2.61 0 4.53.86 5.72 2.55a12.38 12.38 0 011.91 7.27 12.38 12.38 0 01-1.91 7.31c-1.19 1.69-3.11 2.55-5.72 2.55a8.21 8.21 0 01-3.38-.72 5.84 5.84 0 01-2.34-1.83 8.57 8.57 0 01-1.44-3.08 17.19 17.19 0 01-.51-4.14 18.16 18.16 0 01.51-4.24 8.57 8.57 0 011.44-3.08 6.2 6.2 0 012.34-1.94 8.47 8.47 0 013.38-.65zM430.11 63.79c-3.35 0-6 1.88-8 5.58l-.28-3.68a2 2 0 00-.46-1.07 1.4 1.4 0 00-1.1-.31h-6.57v2.36a1.08 1.08 0 00.9 1.14c.31.11 1.25.3 2.86.61V87l-2.85.55a1.1 1.1 0 00-.91 1.15v2.36h12.49v-2.35a1.09 1.09 0 00-.91-1.15l-1.88-.35-1-.19v-12.9c1.45-3.59 3.68-5.41 6.63-5.41a7.41 7.41 0 012.1.25 5 5 0 001.3.27c.39 0 .71-.31.84-.81l.59-3.61-.09-.06a7.17 7.17 0 00-3.66-.96zM454.71 64.31v2.36a1 1 0 00.86 1.15l.53.1c.52.09 1.23.22 2.16.43L452.64 82c-.18.43-.42 1.07-.67 1.86a12.76 12.76 0 00-.55-1.87l-5.83-13.61c1.44-.27 2.41-.48 2.73-.59a1 1 0 00.91-1.09v-2.44h-12.17v2.41a1 1 0 00.89 1.09 18.29 18.29 0 002.29.51l9.23 21.07L444.6 100h3.69a2 2 0 001.82-1.25l13.08-30.42c.15 0 .43-.08.95-.19l.27-.06.83-.19a4.78 4.78 0 01.58-.13 1 1 0 00.92-1.09v-2.41h-2zM484.13 55.7a1 1 0 00.75 1.09c.41.1 1.42.31 3 .61V87l-2.9.55a1 1 0 00-.86 1.15v2.41H497v-2.45a1 1 0 00-.75-1.09c-.39-.1-1.34-.29-3.06-.61V57.4l2.9-.56a1.07 1.07 0 00.91-1.14v-2.36h-12.87zM530.84 87.52c-.32-.11-1.26-.31-2.87-.61V74a11.25 11.25 0 00-2.29-7.36 8.16 8.16 0 00-6.7-2.83 11.84 11.84 0 00-8.67 4l-.37-2.53a1.4 1.4 0 00-1.41-1h-6.64v2.36a1 1 0 00.84 1.14c.29.1 1.14.27 2.92.61V87l-2.9.55a1 1 0 00-.86 1.15v2.36h12.49v-2.35a1.07 1.07 0 00-.9-1.14c-1.12-.25-2.44-.54-2.91-.61V71.48c2.16-2.39 4.53-3.61 7.05-3.61 3.57 0 5.38 2.09 5.38 6.22v17h8.78v-2.43a1.1 1.1 0 00-.94-1.14zM547.8 87.51L545 87V64.31h-8.73v2.36a1.17 1.17 0 00.91 1.15l2.9.55V87l-2.9.55a1.16 1.16 0 00-.91 1.15v2.41h12.49v-2.45a1.16 1.16 0 00-.96-1.15zM543.82 52.89a2.9 2.9 0 00-1.33-.28 2.83 2.83 0 00-1.32.28 3.77 3.77 0 00-1.09.76 4.05 4.05 0 00-.76 1.14 3 3 0 00-.28 1.38 2.83 2.83 0 00.28 1.32 3.91 3.91 0 00.76 1.09 3.77 3.77 0 001.09.76 2.83 2.83 0 001.32.28 2.9 2.9 0 001.33-.28 3.85 3.85 0 001.08-.76 3.91 3.91 0 00.76-1.09 2.93 2.93 0 00.33-1.32 3 3 0 00-.33-1.38 4.05 4.05 0 00-.76-1.14 3.85 3.85 0 00-1.08-.76zM567.46 86.15a1.69 1.69 0 00-.59.23 2 2 0 00-.34.22c-.09.06-.18.13-.3.2a3.71 3.71 0 01-.9.4 4.32 4.32 0 01-1.26.2 2.83 2.83 0 01-2-.73 3.31 3.31 0 01-.74-2.4V68.55h7.58v-3.71h-7.61v-9.09h-2.51a1.28 1.28 0 00-.79.25.87.87 0 00-.37.73l-1 8.08-4.35.58v2a1.07 1.07 0 00.32.91 1.28 1.28 0 00.83.24h3v16a6.91 6.91 0 001.72 5.13 6.68 6.68 0 004.85 1.81 10.2 10.2 0 003.56-.63 9.14 9.14 0 003-1.81l.1-.09-1.43-2.31a.92.92 0 00-.77-.49zM581.54 52.89a2.9 2.9 0 00-1.33-.28 2.83 2.83 0 00-1.32.28 3.77 3.77 0 00-1.09.76 4.28 4.28 0 00-.76 1.14 3 3 0 00-.28 1.38 2.83 2.83 0 00.28 1.32 3.91 3.91 0 00.76 1.09 3.77 3.77 0 001.09.76 2.83 2.83 0 001.32.28 2.9 2.9 0 001.33-.28 3.85 3.85 0 001.08-.76 3.91 3.91 0 00.76-1.09 2.93 2.93 0 00.33-1.32 3 3 0 00-.33-1.38 4.05 4.05 0 00-.76-1.14 3.85 3.85 0 00-1.08-.76zM585.52 87.51l-2.85-.51V64.31h-8.73v2.36a1.17 1.17 0 00.91 1.15l2.9.55V87l-2.9.55a1.16 1.16 0 00-.91 1.15v2.41h12.49v-2.45a1.16 1.16 0 00-.91-1.15zM614.1 87.41h-.19v.09c-.39-.1-1.1-.25-1.75-.38l-.55-.12V73.88a13.07 13.07 0 00-.58-4.13 8.42 8.42 0 00-1.81-3.19 8.66 8.66 0 00-2.93-2 9.63 9.63 0 00-4-.75 14.09 14.09 0 00-5.71 1.06A15.81 15.81 0 00591.8 68l-.09.08.9 1.56a2.11 2.11 0 00.57.69 1.52 1.52 0 00.93.24 2 2 0 001.29-.45 8.32 8.32 0 01.85-.54c.21-.12.43-.25.66-.4a11.64 11.64 0 012-.92 7.48 7.48 0 012.81-.46 4.75 4.75 0 013.8 1.56A7 7 0 01606.8 74v1.88a35.35 35.35 0 00-7.5.68 17.79 17.79 0 00-5.06 1.9 8.22 8.22 0 00-2.88 2.67 6 6 0 00-.86 3.11 7.38 7.38 0 00.59 3.2 7.18 7.18 0 001.6 2.25A7 7 0 00595.1 91a8.32 8.32 0 002.87.48 12 12 0 002.86-.26 15.33 15.33 0 002.33-.8 8.9 8.9 0 002.13-1.27l.76-.63 1.12-.92.47 2.25c.11.44.23.81.63 1a3.62 3.62 0 001.15.21H615v-2.4a1.17 1.17 0 00-.9-1.25zm-7.4-8.25v5.2a19.47 19.47 0 01-1.51 1.41 9.63 9.63 0 01-1.7 1.13 8.49 8.49 0 01-1.9.67 9.05 9.05 0 01-2.15.25 5.8 5.8 0 01-1.68-.25 3.85 3.85 0 01-1.31-.66 2.73 2.73 0 01-.89-1.18 4.36 4.36 0 01-.35-1.72 3.31 3.31 0 01.6-1.9 4.64 4.64 0 012-1.51 16 16 0 013.62-1.08 30.56 30.56 0 015.27-.36zM632.25 86.15a1.65 1.65 0 00-.6.23 2.46 2.46 0 00-.34.22c-.09.06-.18.13-.3.2a3.55 3.55 0 01-.9.4 4.32 4.32 0 01-1.26.2 2.86 2.86 0 01-2-.73 3.31 3.31 0 01-.74-2.4V68.55h7.58v-3.71h-7.58v-9.09h-2.51a1.23 1.23 0 00-.82.24.88.88 0 00-.38.73l-1 8.08-4.35.58v2a1.07 1.07 0 00.32.91 1.28 1.28 0 00.83.24h3v16a6.87 6.87 0 001.72 5.13 6.67 6.67 0 004.92 1.82 10.19 10.19 0 003.55-.63 9.28 9.28 0 003-1.81l.1-.09-1.49-2.31a.89.89 0 00-.75-.49zM643.67 59.34a2.83 2.83 0 001.32.28 2.87 2.87 0 001.33-.28 3.91 3.91 0 001.09-.76 4.13 4.13 0 00.76-1.09 2.93 2.93 0 00.33-1.32 3.15 3.15 0 00-.33-1.38 4.53 4.53 0 00-.76-1.14 3.91 3.91 0 00-1.09-.76 2.87 2.87 0 00-1.33-.28 2.83 2.83 0 00-1.32.28 3.91 3.91 0 00-1.09.76 4.28 4.28 0 00-.76 1.14 3 3 0 00-.28 1.38 2.83 2.83 0 00.28 1.32 3.78 3.78 0 001.85 1.85zM650.3 87.51l-2.85-.51V64.31h-8.73v2.36a1.18 1.18 0 00.92 1.15l2.9.55V87l-2.91.55a1.17 1.17 0 00-.91 1.15v2.41h12.49v-2.45a1.16 1.16 0 00-.91-1.15zM672.47 66.67a1.09 1.09 0 00.91 1.15l1.89.35.91.18-5.58 14a31.67 31.67 0 00-.88 3.08 18.59 18.59 0 00-.81-3.08l-5.52-14c.7-.13 1.27-.22 1.7-.29s.84-.14 1-.19a1.09 1.09 0 00.91-1.15v-2.41h-12.19v2.41a1.09 1.09 0 001 1.15h.25c.2 0 .48.1.87.16a8.49 8.49 0 011.32.28l9.26 22.76h4.44l9.26-22.75 1.33-.28a9.28 9.28 0 011.14-.22 1 1 0 00.91-1.1v-2.41h-12.12zM707.12 67a9.23 9.23 0 00-3.5-2.29 12.14 12.14 0 00-4.4-.79 12.73 12.73 0 00-5.18 1 11.46 11.46 0 00-4 2.81 12.87 12.87 0 00-2.49 4.23 14.89 14.89 0 00-.9 5.18 18.1 18.1 0 001 6.11 12.34 12.34 0 002.65 4.5 11.39 11.39 0 004.08 2.8 13.57 13.57 0 005.13 1 17.3 17.3 0 002.9-.26 17.9 17.9 0 002.84-.74 11.3 11.3 0 002.59-1.32 7.76 7.76 0 002.16-1.88l.08-.1-1.37-1.81a1.11 1.11 0 00-1-.54 2.19 2.19 0 00-1.13.44c-.41.26-.94.52-1.56.83a15.42 15.42 0 01-2.17.88 10.57 10.57 0 01-3 .35 8.51 8.51 0 01-3.28-.61A6.55 6.55 0 01694 85a8.31 8.31 0 01-1.74-3 13.52 13.52 0 01-.62-4.18H709a1.35 1.35 0 001.07-.43 2.93 2.93 0 00.24-1.56 15.07 15.07 0 00-.84-5.07 10.75 10.75 0 00-2.35-3.76zm-7.84.68a7 7 0 012.81.51 6.12 6.12 0 012.08 1.48 6.79 6.79 0 011.23 2.29 8.76 8.76 0 01.46 2.72h-14a9.3 9.3 0 012.34-5.17 6.68 6.68 0 014.77-1.87h-.05z"/></g></svg>