<svg id="Layer_1" data-name="Layer 1" xmlns="http://www.w3.org/2000/svg" viewBox="0 0 640 552.78"><defs><style>.cls-1{fill:#232526}</style></defs><path class="cls-1" d="M53.82 200.36l.23-37.57 37.56.23-.23 37.57zm93.72.57l.23-37.56-37.56-.23-.21 37.56zm56.15.35l.24-37.56-37.57-.23-.23 37.56zm56.16.35l.23-37.56-37.56-.23-.24 37.56zM316 202l.24-37.56-37.57-.24-.23 37.57zm56.16.35l.23-37.57-37.56-.23-.23 37.57zm56.16.35l.23-37.57-37.55-.25-.24 37.57zm56.15.35l.24-37.57-37.57-.23-.23 37.56zm56.16.34l.23-37.56-37.56-.23-.24 37.56zm56.15.35l.24-37.56-37.57-.23-.23 37.56zm-448.9-58.54l.24-37.56-37.57-.23-.23 37.59zm56.16.35l.23-37.57-37.56-.23-.24 37.57zm112.31.7l.23-37.57-37.58-.23-.21 37.55zm56.16.34l.23-37.56-37.57-.23-.23 37.56zm56.15.35l.24-37.56-37.57-.23-.23 37.56zm56.16.35l.23-37.56-37.56-.23-.24 37.56zm112.31.7l.23-37.57-37.56-.23-.23 37.56zM204.37 91.67l.24-37.56-37.61-.23-.23 37.56zm168.47 1l.23-37.57-37.56-.23-.23 37.57zm56.16.35l.23-37.57-37.56-.23-.24 37.56zM204.71 37.8l.23-37.57L167.38 0l-.24 37.56zm168.46 1l.24-37.56L335.84 1l-.23 37.57zm56.16.35l.23-37.57L392 1.39 391.77 39zm168.13 54.96l.24-37.56-37.57-.23-.23 37.56zM160.23 536.05V551h-39.17c-4.18 0-7.29-2.43-8.76-6.83l-2-15.33c-14.32 16.13-30.87 24-50.48 24-18.68 0-33-6.75-43.69-20.62C5.41 518 0 498.1 0 473c0-23.59 6.14-43.11 18.24-58 12.55-15.68 29.38-23.63 50.05-23.63 16 0 29.53 5.34 40.29 15.88v-57.9l-19-3.41c-3.78-.76-5.84-3.24-5.84-7V324h54.68v201.66c10 1.89 14.86 2.9 16.53 3.45 3.43.69 5.28 3.04 5.28 6.94zm-51.65-30.24v-73c-8.7-11.39-20.12-17.17-33.92-17.17-14.34 0-24.95 4.76-32.43 14.56S31 454.07 31 473c0 28.59 7 45.58 21.52 51.95a40.17 40.17 0 0016.05 2.9h.65l.3.3c14.91-.24 28.05-7.74 39.06-22.34zm233.31 30.24V551h-39.17c-4.18 0-7.29-2.43-8.75-6.83l-2-15.33c-14.32 16.13-30.86 24-50.47 24-18.69 0-33-6.75-43.7-20.62C187.07 518 181.66 498.1 181.66 473c0-23.59 6.14-43.11 18.25-58 12.54-15.68 29.38-23.63 50-23.63 16 0 29.52 5.34 40.3 15.88v-57.9l-19-3.41c-3.77-.76-5.84-3.24-5.84-7V324h54.68v201.66c10.16 1.91 14.84 2.89 16.53 3.45 3.42.69 5.31 3.04 5.31 6.94zm-51.64-30.24v-73c-8.71-11.39-20.13-17.17-33.93-17.17-14.33 0-24.94 4.76-32.43 14.56s-11.2 23.83-11.2 42.73c0 28.59 7 45.58 21.51 51.95a40.21 40.21 0 0016.05 2.9h.65l.3.3c14.9-.17 28.03-7.67 39.05-22.27zm245.89 23.61c-1.82-.61-7.13-1.74-16.23-3.46v-74.23c0-17.92-4.74-33-13.72-43.47-9.28-10.83-22.53-16.32-39.4-16.32-17.53 0-33.12 6.82-47.58 20.83v-88.16h-55.28v14.29a7.1 7.1 0 005.92 7.25c1.83.61 8 1.75 18.95 3.49v176.64l-15.73 3.09a7.17 7.17 0 00-6.11 7.29V551h74.09v-14.3a7.16 7.16 0 00-6-7.28c-1.43-.35-6.14-1.34-13.47-2.75l-2.34-.39v-89.11c12.52-13.85 25.51-20.58 39.69-20.58 20.5 0 30.9 11.83 30.9 35.14V551h51.95v-14.3c-.03-3.94-2.14-6.59-5.64-7.28zm52.67-167.27a23.31 23.31 0 006.47 4.54 19.77 19.77 0 0016 0 22.78 22.78 0 0011-11 17.77 17.77 0 002-8 18.89 18.89 0 00-2-8.28 24.45 24.45 0 00-4.53-6.77 23 23 0 00-6.48-4.54 19.77 19.77 0 00-16 0 23 23 0 00-6.47 4.54 24.7 24.7 0 00-4.54 6.77 18.23 18.23 0 00-1.68 8.28 17.09 17.09 0 001.68 8 23.16 23.16 0 004.55 6.46zm45.38 166.91l-16-3.09v-131.6h-51.98v14.3A7.4 7.4 0 00572 416l16.32 3.1V526L572 529.07a7.39 7.39 0 00-5.77 7.29V551H640v-14.6a7.4 7.4 0 00-5.81-7.34z"/><path class="cls-1" d="M53.82 200.36l.23-37.57 37.56.23-.23 37.57zm93.72.57l.23-37.56-37.56-.23-.21 37.56zm56.15.35l.24-37.56-37.57-.23-.23 37.56zm56.16.35l.23-37.56-37.56-.23-.24 37.56zM316 202l.24-37.56-37.57-.24-.23 37.57zm56.16.35l.23-37.57-37.56-.23-.23 37.57zm56.16.35l.23-37.57-37.55-.25-.24 37.57zm56.15.35l.24-37.57-37.57-.23-.23 37.56zm56.16.34l.23-37.56-37.56-.23-.24 37.56zm56.15.35l.24-37.56-37.57-.23-.23 37.56zm-448.9-58.54l.24-37.56-37.57-.23-.23 37.59zm56.16.35l.23-37.57-37.56-.23-.24 37.57zm112.31.7l.23-37.57-37.58-.23-.21 37.55zm56.16.34l.23-37.56-37.57-.23-.23 37.56zm56.15.35l.24-37.56-37.57-.23-.23 37.56zm56.16.35l.23-37.56-37.56-.23-.24 37.56zm112.31.7l.23-37.57-37.56-.23-.23 37.56zM204.37 91.67l.24-37.56-37.61-.23-.23 37.56zm168.47 1l.23-37.57-37.56-.23-.23 37.57zm56.16.35l.23-37.57-37.56-.23-.24 37.56zM204.71 37.8l.23-37.57L167.38 0l-.24 37.56zm168.46 1l.24-37.56L335.84 1l-.23 37.57zm56.16.35l.23-37.57L392 1.39 391.77 39zm168.13 54.96l.24-37.56-37.57-.23-.23 37.56zM160.23 536.05V551h-39.17c-4.18 0-7.29-2.43-8.76-6.83l-2-15.33c-14.32 16.13-30.87 24-50.48 24-18.68 0-33-6.75-43.69-20.62C5.41 518 0 498.1 0 473c0-23.59 6.14-43.11 18.24-58 12.55-15.68 29.38-23.63 50.05-23.63 16 0 29.53 5.34 40.29 15.88v-57.9l-19-3.41c-3.78-.76-5.84-3.24-5.84-7V324h54.68v201.66c10 1.89 14.86 2.9 16.53 3.45 3.43.69 5.28 3.04 5.28 6.94zm-51.65-30.24v-73c-8.7-11.39-20.12-17.17-33.92-17.17-14.34 0-24.95 4.76-32.43 14.56S31 454.07 31 473c0 28.59 7 45.58 21.52 51.95a40.17 40.17 0 0016.05 2.9h.65l.3.3c14.91-.24 28.05-7.74 39.06-22.34zm233.31 30.24V551h-39.17c-4.18 0-7.29-2.43-8.75-6.83l-2-15.33c-14.32 16.13-30.86 24-50.47 24-18.69 0-33-6.75-43.7-20.62C187.07 518 181.66 498.1 181.66 473c0-23.59 6.14-43.11 18.25-58 12.54-15.68 29.38-23.63 50-23.63 16 0 29.52 5.34 40.3 15.88v-57.9l-19-3.41c-3.77-.76-5.84-3.24-5.84-7V324h54.68v201.66c10.16 1.91 14.84 2.89 16.53 3.45 3.42.69 5.31 3.04 5.31 6.94zm-51.64-30.24v-73c-8.71-11.39-20.13-17.17-33.93-17.17-14.33 0-24.94 4.76-32.43 14.56s-11.2 23.83-11.2 42.73c0 28.59 7 45.58 21.51 51.95a40.21 40.21 0 0016.05 2.9h.65l.3.3c14.9-.17 28.03-7.67 39.05-22.27zm245.89 23.61c-1.82-.61-7.13-1.74-16.23-3.46v-74.23c0-17.92-4.74-33-13.72-43.47-9.28-10.83-22.53-16.32-39.4-16.32-17.53 0-33.12 6.82-47.58 20.83v-88.16h-55.28v14.29a7.1 7.1 0 005.92 7.25c1.83.61 8 1.75 18.95 3.49v176.64l-15.73 3.09a7.17 7.17 0 00-6.11 7.29V551h74.09v-14.3a7.16 7.16 0 00-6-7.28c-1.43-.35-6.14-1.34-13.47-2.75l-2.34-.39v-89.11c12.52-13.85 25.51-20.58 39.69-20.58 20.5 0 30.9 11.83 30.9 35.14V551h51.95v-14.3c-.03-3.94-2.14-6.59-5.64-7.28zm52.67-167.27a23.31 23.31 0 006.47 4.54 19.77 19.77 0 0016 0 22.78 22.78 0 0011-11 17.77 17.77 0 002-8 18.89 18.89 0 00-2-8.28 24.45 24.45 0 00-4.53-6.77 23 23 0 00-6.48-4.54 19.77 19.77 0 00-16 0 23 23 0 00-6.47 4.54 24.7 24.7 0 00-4.54 6.77 18.23 18.23 0 00-1.68 8.28 17.09 17.09 0 001.68 8 23.16 23.16 0 004.55 6.46zm45.38 166.91l-16-3.09v-131.6h-51.98v14.3A7.4 7.4 0 00572 416l16.32 3.1V526L572 529.07a7.39 7.39 0 00-5.77 7.29V551H640v-14.6a7.4 7.4 0 00-5.81-7.34z"/></svg>