<?xml version="1.0" standalone="no"?>
<!DOCTYPE svg PUBLIC "-//W3C//DTD SVG 1.1//EN" "http://www.w3.org/Graphics/SVG/1.1/DTD/svg11.dtd" >
<svg xmlns="http://www.w3.org/2000/svg" xmlns:xlink="http://www.w3.org/1999/xlink" version="1.1">
<metadata>
Created by FontForge 20190801 at Wed Mar 21 00:38:36 2018
 By Jimmy Wärting
Copyright 2018 The Aleo Project Authors \(https://github.com/AlessioLaiso/aleo\)
</metadata>
<defs>
<font id="Aleo-LightItalic" horiz-adv-x="0" >
  <font-face 
    font-family="Aleo Light"
    font-weight="300"
    font-style="italic"
    font-stretch="normal"
    units-per-em="1000"
    panose-1="0 0 4 0 0 0 0 0 0 0"
    ascent="805"
    descent="-195"
    x-height="498"
    cap-height="708"
    bbox="-677 -261 1086 926"
    underline-thickness="34"
    underline-position="-66"
    slope="-7"
    stemh="30"
    stemv="38"
    unicode-range="U+000D-FB02"
  />
<missing-glyph horiz-adv-x="622" 
d="M586 708l-87 -708h-465l86 708h466zM483 18l82 672h-429l-83 -672h430zM211 567c8 7 16 13 25 19s19 11 30 16s22 8 34 11s25 5 39 5c18 0 35 -3 50 -8s27 -13 37 -23s18 -21 23 -35s6 -30 4 -47c-2 -18 -7 -34 -14 -47s-16 -25 -25 -35s-19 -18 -30 -26s-21 -14 -30 -21
s-17 -14 -24 -20s-11 -14 -13 -22l-12 -57h-32l4 61c1 10 4 19 10 27s14 16 23 23s19 14 30 21s21 14 30 23s18 19 25 30s11 24 13 40c1 12 1 23 -3 32s-9 18 -16 24s-15 11 -25 15s-21 5 -33 5c-15 0 -29 -1 -40 -5s-22 -8 -30 -13s-15 -9 -20 -13s-9 -6 -11 -6
c-5 0 -7 1 -9 5zM231 133c1 11 7 19 15 27s18 12 29 12s19 -4 25 -12s9 -16 8 -27s-7 -20 -15 -28s-17 -11 -28 -11s-20 3 -26 11s-9 17 -8 28z" />
    <glyph glyph-name="fi" unicode="fi" horiz-adv-x="632" 
d="M603 638c-3 -28 -27 -44 -49 -44c-25 0 -42 24 -39 43c1 6 3 19 14 29c-31 19 -68 24 -112 17c-85 -16 -129 -71 -140 -160l-5 -41h292l-55 -442l65 -2c13 -1 18 -7 17 -18l-2 -20h-132l55 446h-243l-55 -445c-15 -123 -85 -187 -210 -187v24c0 11 6 16 18 16
c82 0 136 61 145 148l54 444l-69 4c-10 1 -14 4 -13 12l2 20h85l5 43c16 123 100 199 224 199c61 0 107 -18 138 -54c9 -13 11 -22 10 -32z" />
    <glyph glyph-name="fl" unicode="fl" horiz-adv-x="685" 
d="M641 32c5 1 9 -2 9 -6l-1 -24c-13 -7 -34 -11 -50 -11c-71 0 -111 45 -104 120l70 567c-48 1 -72 6 -109 6c-102 0 -167 -67 -180 -170l-4 -33h144l-5 -36h-142l-55 -444c-16 -124 -85 -187 -210 -187v24c0 11 6 16 18 16c83 0 134 60 145 148l54 443l-69 4
c-10 1 -14 5 -13 13l2 19h85l4 33c18 127 104 206 223 206c26 0 79 -4 102 -7c13 -1 18 -1 61 -1l-73 -600c-6 -54 15 -84 69 -84c11 0 26 3 29 4z" />
    <glyph glyph-name=".notdef" horiz-adv-x="622" 
d="M586 708l-87 -708h-465l86 708h466zM483 18l82 672h-429l-83 -672h430zM211 567c8 7 16 13 25 19s19 11 30 16s22 8 34 11s25 5 39 5c18 0 35 -3 50 -8s27 -13 37 -23s18 -21 23 -35s6 -30 4 -47c-2 -18 -7 -34 -14 -47s-16 -25 -25 -35s-19 -18 -30 -26s-21 -14 -30 -21
s-17 -14 -24 -20s-11 -14 -13 -22l-12 -57h-32l4 61c1 10 4 19 10 27s14 16 23 23s19 14 30 21s21 14 30 23s18 19 25 30s11 24 13 40c1 12 1 23 -3 32s-9 18 -16 24s-15 11 -25 15s-21 5 -33 5c-15 0 -29 -1 -40 -5s-22 -8 -30 -13s-15 -9 -20 -13s-9 -6 -11 -6
c-5 0 -7 1 -9 5zM231 133c1 11 7 19 15 27s18 12 29 12s19 -4 25 -12s9 -16 8 -27s-7 -20 -15 -28s-17 -11 -28 -11s-20 3 -26 11s-9 17 -8 28z" />
    <glyph glyph-name="NULL" horiz-adv-x="188" 
 />
    <glyph glyph-name="nonmarkingreturn" unicode="&#xd;" horiz-adv-x="188" 
 />
    <glyph glyph-name="space" unicode=" " horiz-adv-x="218" 
 />
    <glyph glyph-name="exclam" unicode="!" horiz-adv-x="216" 
d="M144 422c-5 -42 -19 -136 -28 -178h-33c2 42 10 136 15 178l35 286h47zM67 -8c-26 0 -43 22 -41 47c2 24 26 46 52 46s43 -22 40 -46c-2 -25 -26 -47 -51 -47z" />
    <glyph glyph-name="quotedbl" unicode="&#x22;" horiz-adv-x="323" 
d="M112 562l-13 -77c-2 -9 -9 -18 -19 -18c-13 0 -14 11 -14 18l5 77l18 146h41zM257 562l-13 -77c-2 -9 -9 -18 -19 -18c-13 0 -14 11 -14 18l5 77l18 146h41z" />
    <glyph glyph-name="numbersign" unicode="#" horiz-adv-x="577" 
d="M284 0h-21c-10 0 -16 6 -14 16l69 206h-149l-68 -202c-6 -13 -10 -20 -25 -20h-21l74 222h-92c-12 0 -14 8 -13 14l5 20h109l65 195h-126l5 19c3 11 11 16 24 16h106l69 202c5 15 16 20 25 20h21l-75 -222h149l75 222h21c10 0 15 -6 14 -16l-70 -206h113l-5 -18
c-3 -11 -12 -17 -25 -17h-92l-65 -195h113c10 0 14 -3 13 -12l-5 -22h-130zM327 256l65 195h-149l-65 -195h149z" />
    <glyph glyph-name="dollar" unicode="$" horiz-adv-x="525" 
d="M197 -8c-75 4 -139 34 -184 92l16 20c9 11 18 9 25 2c46 -46 90 -72 150 -74l55 318c-111 35 -171 78 -158 182c14 110 112 178 220 182l15 84c2 8 9 16 17 16h18l-18 -101c60 -4 111 -27 149 -72l-13 -17c-10 -11 -20 -9 -29 0c-28 28 -70 45 -114 49l-49 -286
c118 -39 183 -72 172 -181c-17 -125 -109 -206 -240 -214l-19 -105c-2 -9 -6 -15 -16 -15h-18zM146 536c-11 -76 42 -112 120 -138l48 276c-89 -4 -159 -60 -168 -138zM423 199c11 84 -54 117 -134 142l-53 -309c100 7 174 69 187 167z" />
    <glyph glyph-name="percent" unicode="%" horiz-adv-x="730" 
d="M348 538c-15 -106 -78 -177 -170 -177c-100 0 -139 82 -127 177c15 107 77 178 170 178c95 0 141 -79 127 -178zM637 698c3 5 12 10 19 10h34l-594 -699c-5 -6 -11 -9 -18 -9h-34zM310 538c10 89 -19 145 -93 145c-79 0 -119 -70 -128 -145c-9 -82 15 -145 93 -145
c75 0 118 60 128 145zM685 168c-15 -106 -77 -176 -170 -176c-99 0 -140 81 -127 176c14 105 75 178 170 178c96 0 141 -77 127 -178zM647 168c10 89 -19 146 -92 146c-81 0 -121 -70 -129 -146c-10 -81 16 -144 93 -144c75 0 118 61 128 144z" />
    <glyph glyph-name="ampersand" unicode="&#x26;" horiz-adv-x="662" 
d="M371 716c83 0 156 -62 148 -142l-22 -5c-13 -2 -19 4 -20 11c-6 56 -49 98 -110 98c-81 0 -140 -54 -149 -125c-7 -61 19 -107 66 -159l196 -220c32 42 59 99 72 150c2 8 7 14 14 14h28c-11 -68 -44 -136 -89 -192l131 -146h-45c-12 0 -19 3 -26 11l-90 101
c-65 -72 -171 -120 -266 -120c-115 0 -194 83 -180 189c14 100 101 179 195 213c-40 54 -59 97 -51 158c13 98 97 164 198 164zM78 184c-11 -93 57 -153 143 -153c89 0 167 40 230 107l-207 231c-89 -35 -157 -106 -166 -185z" />
    <glyph glyph-name="quotesingle" unicode="'" horiz-adv-x="178" 
d="M112 562l-13 -77c-2 -9 -9 -18 -19 -18c-13 0 -14 11 -14 18l5 77l18 146h41z" />
    <glyph glyph-name="parenleft" unicode="(" horiz-adv-x="282" 
d="M83 203c3 -106 28 -206 76 -301c4 -9 1 -17 -7 -22l-22 -13c-57 105 -89 220 -89 335c0 221 65 386 199 561l19 -13c10 -5 4 -18 1 -21c-119 -159 -182 -341 -177 -526z" />
    <glyph glyph-name="parenright" unicode=")" horiz-adv-x="288" 
d="M199 427c-3 106 -28 206 -76 301c-4 9 -1 17 7 22l22 13c57 -105 89 -220 89 -335c0 -221 -65 -386 -199 -561l-19 13c-10 5 -4 18 -1 21c119 159 182 341 177 526z" />
    <glyph glyph-name="asterisk" unicode="*" horiz-adv-x="372" 
d="M172 555c3 16 5 21 10 30c-10 -13 -15 -14 -26 -20l-101 -55l-9 22l100 55c8 5 25 9 30 10c-12 2 -24 8 -27 10l-89 55l16 23l88 -55c9 -5 18 -17 22 -23c-3 10 -5 23 -4 32l13 107h26l-13 -106c-2 -14 -4 -19 -10 -32c8 10 16 17 26 22l101 54l10 -22l-100 -54
c-16 -9 -19 -9 -31 -11c12 -2 20 -4 28 -9l88 -56l-15 -22l-89 55c-8 5 -18 17 -21 21c3 -18 5 -21 3 -30l-13 -108h-26z" />
    <glyph glyph-name="plus" unicode="+" horiz-adv-x="551" 
d="M298 354h216l-4 -37h-216l-28 -227h-39l28 227h-215l4 37h215l28 225h39z" />
    <glyph glyph-name="comma" unicode="," horiz-adv-x="226" 
d="M70 42c2 23 25 43 49 43c30 0 43 -23 39 -54c-8 -57 -48 -119 -95 -157l-7 7c-6 7 -4 11 3 18c23 18 54 66 63 101c-3 -1 -9 -2 -15 -2c-25 0 -41 19 -37 44z" />
    <glyph glyph-name="hyphen" unicode="-" horiz-adv-x="363" 
d="M301 317l-5 -41h-232l5 41h232z" />
    <glyph glyph-name="period" unicode="." horiz-adv-x="220" 
d="M99 -8c-26 0 -43 22 -41 47c2 24 26 46 52 46s43 -22 40 -46c-2 -25 -26 -47 -51 -47z" />
    <glyph glyph-name="slash" unicode="/" horiz-adv-x="493" 
d="M70 -22c-6 -14 -22 -20 -31 -20h-19l403 751c7 12 16 19 29 19h20z" />
    <glyph glyph-name="zero" unicode="0" horiz-adv-x="606" 
d="M556 354c-26 -203 -127 -362 -298 -362c-179 0 -233 171 -209 362c25 196 122 362 298 362c172 0 235 -164 209 -362zM506 354c22 178 -20 322 -164 322c-151 0 -223 -161 -244 -322c-21 -164 16 -321 165 -321c144 0 222 146 243 321z" />
    <glyph glyph-name="one" unicode="1" horiz-adv-x="414" 
d="M22 0l2 16c1 9 7 14 18 15l147 7l71 573l5 36l-173 -139c-8 -6 -19 -5 -24 2l-12 20l226 180h37l-82 -672l137 -7c11 -1 16 -6 15 -15l-2 -16h-365z" />
    <glyph glyph-name="two" unicode="2" horiz-adv-x="563" 
d="M495 134l-17 -134h-456l2 17c2 9 8 17 12 21l272 244c96 87 158 151 169 241c11 98 -47 152 -138 152c-85 0 -158 -52 -184 -138c-6 -15 -16 -19 -28 -17l-23 4c31 118 121 191 242 191s195 -71 180 -190c-12 -102 -83 -169 -185 -262l-249 -226c19 5 53 8 69 8h272
l13 65c3 16 11 24 25 24h24z" />
    <glyph glyph-name="three" unicode="3" horiz-adv-x="548" 
d="M330 716c117 0 191 -74 177 -179c-11 -88 -78 -148 -161 -168c101 -20 149 -82 137 -175c-16 -119 -127 -202 -253 -202c-131 0 -192 60 -208 181l19 8c10 4 26 3 29 -10c20 -94 70 -139 165 -139c100 0 190 73 200 161c15 113 -69 153 -186 153l4 34
c108 3 192 51 206 149c11 90 -43 146 -136 146c-86 0 -157 -54 -185 -137c-4 -13 -13 -20 -26 -18l-24 4c32 122 125 192 242 192z" />
    <glyph glyph-name="four" unicode="4" horiz-adv-x="579" 
d="M553 241l-3 -26c-1 -8 -6 -12 -15 -12h-116l-25 -203h-43l25 203h-333c-8 0 -15 3 -16 12l-1 23l413 470h42l-57 -467h129zM433 649l-355 -408h303l45 371z" />
    <glyph glyph-name="five" unicode="5" horiz-adv-x="538" 
d="M507 687c-3 -19 -17 -23 -31 -23h-256l-71 -236c36 9 92 16 123 16c140 0 215 -83 198 -212c-20 -142 -130 -240 -274 -240c-67 0 -133 25 -176 63l17 19c10 12 19 9 33 0c39 -24 89 -40 133 -40c120 0 206 82 219 196c13 112 -49 174 -164 174c-37 0 -92 -9 -131 -20
l-29 10l94 314h318z" />
    <glyph glyph-name="six" unicode="6" horiz-adv-x="527" 
d="M304 423c126 0 200 -86 184 -210c-15 -130 -124 -221 -261 -221s-209 90 -193 233c7 66 60 146 116 211l225 260c7 8 16 12 27 12h42l-245 -276c-35 -41 -51 -59 -61 -74c47 42 103 65 166 65zM79 214c-12 -107 44 -182 153 -182c113 0 196 75 208 178
c12 106 -47 176 -153 176c-103 0 -194 -72 -208 -172z" />
    <glyph glyph-name="seven" unicode="7" horiz-adv-x="557" 
d="M531 708l-3 -22c-1 -7 -4 -17 -9 -25l-403 -643c-9 -14 -20 -18 -31 -18h-32l405 640l18 24h-372l-11 -67c-3 -16 -11 -24 -25 -24h-24l17 134z" />
    <glyph glyph-name="eight" unicode="8" horiz-adv-x="551" 
d="M236 -8c-129 0 -222 72 -206 195c11 97 79 162 177 183c-82 25 -116 85 -109 165c14 109 110 181 227 181c114 0 195 -69 182 -181c-8 -82 -67 -142 -149 -165c95 -21 143 -87 132 -183c-17 -128 -127 -195 -254 -195zM285 387c97 0 166 61 175 147
c10 96 -50 144 -139 144c-96 0 -166 -58 -176 -144c-9 -94 44 -147 140 -147zM241 30c104 0 188 58 200 158c14 102 -53 160 -161 160c-106 0 -188 -57 -201 -160c-13 -97 56 -158 162 -158z" />
    <glyph glyph-name="nine" unicode="9" horiz-adv-x="517" 
d="M220 301c-122 0 -192 88 -176 202c17 123 127 213 252 213c127 0 202 -94 186 -222c-8 -73 -52 -135 -112 -210l-219 -272c-6 -8 -15 -12 -26 -12h-43l245 292c13 15 55 68 60 76c-46 -44 -103 -67 -167 -67zM437 502c12 104 -50 174 -147 174c-106 0 -186 -74 -198 -170
c-12 -105 47 -168 146 -168c102 0 190 74 199 164z" />
    <glyph glyph-name="colon" unicode=":" horiz-adv-x="235" 
d="M135 391c-26 0 -43 22 -41 47c2 24 26 46 52 46s43 -22 40 -46c-2 -25 -26 -47 -51 -47zM86 -8c-26 0 -43 22 -41 47c2 24 26 46 52 46s43 -22 40 -46c-2 -25 -26 -47 -51 -47z" />
    <glyph glyph-name="semicolon" unicode=";" horiz-adv-x="243" 
d="M145 391c-26 0 -43 22 -41 47c2 24 26 46 52 46s43 -22 40 -46c-2 -25 -26 -47 -51 -47zM58 42c2 23 25 43 49 43c30 0 43 -23 39 -54c-8 -57 -48 -119 -95 -157l-7 7c-6 7 -4 11 3 18c23 18 54 66 63 101c-3 -1 -9 -2 -15 -2c-25 0 -41 19 -37 44z" />
    <glyph glyph-name="less" unicode="&#x3c;" horiz-adv-x="482" 
d="M443 538l-4 -32c-2 -10 -10 -15 -15 -18l-294 -140c-12 -6 -25 -10 -38 -13c14 -3 26 -7 35 -12l259 -141c8 -5 11 -8 11 -17l-4 -33l-351 194l3 20z" />
    <glyph glyph-name="equal" unicode="=" horiz-adv-x="552" 
d="M497 434l-4 -36h-414l5 36h413zM478 278l-4 -37h-414l5 37h413z" />
    <glyph glyph-name="greater" unicode="&#x3e;" horiz-adv-x="472" 
d="M34 132l4 32c2 10 10 15 15 18l294 140c12 6 25 10 38 13c-14 3 -26 7 -35 12l-259 141c-8 5 -11 8 -11 17l4 33l351 -194l-3 -20z" />
    <glyph glyph-name="question" unicode="?" horiz-adv-x="392" 
d="M35 646c46 41 113 70 173 70c94 0 164 -62 152 -152c-7 -65 -47 -116 -99 -150c-56 -41 -88 -56 -95 -89l-16 -82h-32l8 88c5 36 37 59 92 96c54 36 89 77 97 135c8 70 -44 114 -116 114c-51 0 -97 -19 -130 -47c-9 -8 -17 -10 -24 1zM103 -8c-26 0 -43 22 -41 47
c2 24 26 46 52 46s43 -22 40 -46c-2 -25 -26 -47 -51 -47z" />
    <glyph glyph-name="at" unicode="@" horiz-adv-x="806" 
d="M548 94c-59 0 -85 31 -79 90c-38 -54 -88 -88 -150 -88c-71 0 -102 51 -94 126c14 129 138 240 273 240c29 0 67 -7 90 -18l-67 -174c-36 -89 -32 -144 37 -144c97 0 156 108 170 213c23 186 -88 293 -269 293c-195 0 -359 -161 -382 -358c-27 -219 101 -360 312 -360
c91 0 185 25 254 67c8 4 16 1 18 -5l6 -18c-84 -53 -186 -77 -282 -77c-236 0 -374 159 -344 393c28 221 211 392 422 392c197 0 326 -131 301 -327c-14 -124 -100 -245 -216 -245zM332 129c73 0 124 64 151 139l59 154c-25 6 -30 8 -54 8c-112 0 -211 -102 -224 -207
c-8 -50 15 -94 68 -94z" />
    <glyph glyph-name="A" unicode="A" horiz-adv-x="754" 
d="M738 38c14 -1 19 -7 18 -18l-3 -20h-220l3 20c1 11 8 17 22 18l59 2l-2 6l-52 186h-338l-97 -186l-3 -6l61 -2c14 -1 19 -7 18 -18l-3 -20h-220l3 20c1 11 8 17 22 18l64 2h2l3 6l352 662h51l189 -662l2 -6h5zM246 270h306l-97 345c-2 10 -7 29 -9 41
c-4 -12 -14 -32 -19 -42z" />
    <glyph glyph-name="B" unicode="B" horiz-adv-x="639" 
d="M593 193c-18 -133 -123 -193 -262 -193h-314l2 20c1 11 9 17 22 18l65 2l77 629l-64 2c-13 1 -19 7 -18 18l3 19h288c141 0 226 -51 213 -181c-9 -82 -81 -144 -165 -165c108 -16 165 -73 153 -169zM198 376h154c103 0 192 54 202 146c13 107 -58 146 -167 146h-153z
M542 194c14 99 -66 145 -170 145h-178l-37 -298h178c118 0 194 49 207 153z" />
    <glyph glyph-name="C" unicode="C" horiz-adv-x="655" 
d="M591 94c-73 -69 -164 -102 -266 -102c-207 0 -314 160 -288 362c28 212 181 361 391 361c66 0 140 -16 220 -50l-20 -160h-24c-14 0 -20 8 -19 24l8 109c-49 23 -106 33 -170 33c-182 0 -311 -133 -333 -317c-22 -187 70 -318 244 -318c93 0 155 24 221 78c5 4 14 7 19 1
z" />
    <glyph glyph-name="D" unicode="D" horiz-adv-x="763" 
d="M727 354c-28 -217 -175 -354 -381 -354h-330l3 20c1 11 9 17 22 18l65 2l77 628l-64 2c-13 1 -19 7 -18 18l2 19h330c213 0 321 -147 294 -353zM674 354c23 188 -67 312 -246 312h-194l-77 -625h194c181 0 300 124 323 313z" />
    <glyph glyph-name="E" unicode="E" horiz-adv-x="622" 
d="M612 707l-6 -42l-12 -104h-25c-14 0 -19 8 -18 24l6 80h-323l-35 -286h281l-5 -41h-281l-37 -295h323l14 79c3 16 10 25 24 25h25l-18 -147h-509l3 20c1 11 9 17 22 18l65 2l77 628l-64 2c-13 1 -19 7 -18 18l2 19h509z" />
    <glyph glyph-name="F" unicode="F" horiz-adv-x="629" 
d="M618 707l-18 -146h-24c-14 0 -20 8 -19 24l6 80h-329l-37 -297h265l-6 -43h-264l-35 -285l64 -2c13 -1 19 -7 18 -18l-3 -20h-220l3 20c1 11 9 17 22 18l65 2l77 628l-64 2c-13 1 -19 7 -18 18l2 19h515z" />
    <glyph glyph-name="G" unicode="G" horiz-adv-x="696" 
d="M645 321l-31 -251c-89 -56 -172 -78 -278 -78c-209 0 -326 152 -299 362c28 217 178 361 400 361c73 0 179 -20 242 -50l-19 -160h-24c-14 0 -20 8 -19 24l8 108c-46 23 -111 34 -195 34c-188 0 -317 -126 -340 -317c-23 -192 73 -320 255 -320c89 0 145 15 225 57
l23 191h-136c-9 0 -12 4 -11 12l3 27h196z" />
    <glyph glyph-name="H" unicode="H" horiz-adv-x="827" 
d="M729 669l-77 -629l64 -2c13 -1 18 -7 17 -18l-2 -20h-220l2 20c1 11 9 17 22 18l65 2l37 299h-443l-37 -299l64 -2c13 -1 19 -7 18 -18l-3 -20h-220l3 20c1 11 9 17 22 18l65 2l77 629l-64 2c-13 1 -19 7 -18 18l2 19h220l-2 -19c-1 -11 -9 -17 -22 -18l-65 -2l-35 -291
h443l35 291l-64 2c-13 1 -19 7 -18 18l3 19h220l-3 -19c-1 -11 -9 -17 -22 -18z" />
    <glyph glyph-name="I" unicode="I" horiz-adv-x="332" 
d="M234 668l-77 -628l64 -2c13 -1 19 -7 18 -18l-3 -20h-220l3 20c1 11 9 17 22 18l65 2l77 628l-64 2c-13 1 -19 7 -18 18l2 20h220l-2 -20c-1 -11 -9 -17 -22 -18z" />
    <glyph glyph-name="J" unicode="J" horiz-adv-x="503" 
d="M494 708l-3 -20c-1 -11 -9 -17 -22 -18l-64 -2l-53 -432c-19 -149 -104 -244 -242 -244c-26 0 -64 6 -91 15l6 28c3 10 11 12 23 9c10 -2 47 -9 63 -9c118 0 174 84 189 200l53 433l-71 2c-13 1 -19 7 -18 18l3 20h227z" />
    <glyph glyph-name="K" unicode="K" horiz-adv-x="718" 
d="M724 708l-3 -20c-1 -11 -8 -17 -22 -18l-53 -2l-304 -278c-14 -13 -28 -22 -36 -25c14 -4 25 -16 32 -25l251 -300l64 -2c14 -1 19 -7 18 -18l-3 -20h-220l3 20c1 11 8 17 22 18l57 2l-240 280c-16 20 -32 21 -51 21h-45l-37 -301l64 -2c14 -1 19 -7 18 -18l-3 -20h-220
l3 20c1 11 8 17 22 18l64 2h1l77 628h-1l-64 2c-14 1 -19 7 -18 18l3 20h220l-3 -20c-1 -11 -8 -17 -22 -18l-64 -2l-35 -287h42c24 0 36 3 52 19l295 268h-5l-64 2c-14 1 -19 7 -18 18l3 20h220z" />
    <glyph glyph-name="L" unicode="L" horiz-adv-x="556" 
d="M512 132l-16 -132h-480l3 20c1 11 9 17 22 18l65 2l77 629l-64 2c-13 1 -19 7 -18 18l2 19h220l-3 -19c-1 -11 -9 -17 -22 -18l-64 -2l-77 -625h293l13 64c3 16 11 24 25 24h24z" />
    <glyph glyph-name="M" unicode="M" horiz-adv-x="980" 
d="M882 669l-77 -629l64 -2c13 -1 18 -7 17 -18l-2 -20h-216l3 20c1 11 9 17 22 18l67 2l69 563c1 9 3 18 5 28l-340 -495c-6 -9 -12 -13 -21 -13h-8c-8 0 -15 4 -19 13l-225 495c0 -10 -1 -19 -2 -28l-69 -563l66 -2c13 -1 19 -7 18 -18l-2 -20h-216l3 20c1 11 9 17 22 18
l65 2l77 629l-64 2c-13 1 -19 7 -18 18l2 19h120c10 0 14 -1 18 -9l225 -493c4 -9 7 -19 9 -30c6 11 12 23 18 31l338 492c8 9 13 9 20 9h120l-3 -19c-1 -11 -9 -17 -22 -18z" />
    <glyph glyph-name="N" unicode="N" horiz-adv-x="827" 
d="M818 708l-3 -19c-1 -11 -9 -17 -22 -18l-64 -2l-82 -669h-25c-8 0 -13 3 -17 10l-385 614c0 -10 -1 -20 -2 -29l-68 -555l66 -2c13 -1 19 -7 18 -18l-2 -20h-216l3 20c1 11 9 17 22 18l65 2l77 628l-64 2c-13 1 -19 7 -18 18l2 20h110c8 0 14 -3 18 -10l383 -613
c0 10 1 20 2 29l68 555l-67 2c-13 1 -18 7 -17 18l2 19h216z" />
    <glyph glyph-name="O" unicode="O" horiz-adv-x="747" 
d="M712 354c-26 -213 -177 -362 -382 -362c-208 0 -319 157 -293 362c28 214 181 362 382 362c206 0 320 -153 293 -362zM659 354c23 190 -68 318 -246 318c-177 0 -300 -132 -323 -318c-23 -191 68 -317 245 -317c186 0 303 136 324 317z" />
    <glyph glyph-name="P" unicode="P" horiz-adv-x="604" 
d="M585 497c-18 -134 -135 -212 -277 -212h-121l-30 -245l64 -2c13 -1 18 -7 17 -18l-2 -20h-220l3 20c1 11 9 17 22 18l65 2l77 628l-64 2c-13 1 -19 7 -18 18l2 19h257c158 0 242 -67 225 -210zM534 498c15 115 -56 169 -179 169h-121l-42 -341h121c118 0 209 67 221 172z
" />
    <glyph glyph-name="Q" unicode="Q" horiz-adv-x="747" 
d="M711 354c-15 -130 -83 -250 -193 -313l160 -197h-43c-12 0 -26 4 -31 12l-131 163c-36 -15 -103 -27 -144 -27c-204 0 -319 151 -292 362c27 212 179 362 381 362c207 0 320 -153 293 -362zM658 354c23 190 -67 318 -245 318c-179 0 -301 -132 -324 -318
c-22 -185 66 -317 246 -317c185 0 302 137 323 317z" />
    <glyph glyph-name="R" unicode="R" horiz-adv-x="644" 
d="M591 38c13 -1 19 -7 18 -18l-3 -20h-70c-11 0 -18 4 -24 13l-191 287c-13 18 -21 20 -46 20h-84l-34 -280l64 -2c13 -1 18 -7 17 -18l-2 -20h-220l3 20c1 11 9 17 22 18l65 2l77 629l-64 2c-13 1 -19 7 -18 18l2 19h256c147 0 236 -51 221 -186
c-13 -113 -108 -183 -225 -196c7 -5 14 -12 19 -20l180 -267zM310 358c118 0 208 57 220 160c13 110 -63 150 -176 150h-120l-38 -310h114z" />
    <glyph glyph-name="S" unicode="S" horiz-adv-x="518" 
d="M460 207c-18 -135 -124 -215 -253 -215c-66 0 -127 13 -185 39l19 158h24c14 0 20 -8 19 -24l-8 -103c36 -18 82 -27 138 -27c104 0 185 63 198 164c12 91 -50 114 -160 151c-113 38 -168 82 -155 183c14 110 111 182 227 182c59 0 118 -14 178 -41l-18 -145h-24
c-14 0 -20 9 -19 25l7 94c-38 17 -81 25 -129 25c-92 0 -165 -57 -174 -137c-10 -85 51 -116 159 -150c105 -34 170 -78 156 -179z" />
    <glyph glyph-name="T" unicode="T" horiz-adv-x="620" 
d="M609 707l-18 -146h-24c-14 0 -20 8 -19 24l6 79h-206l-77 -624l64 -2c13 -1 19 -7 18 -18l-2 -20h-220l3 20c1 11 9 17 22 18l64 2l77 624h-207l-14 -79c-3 -16 -10 -24 -24 -24h-24l18 146h563z" />
    <glyph glyph-name="U" unicode="U" horiz-adv-x="754" 
d="M305 -8c-165 0 -254 121 -233 278l48 399l-64 2c-13 1 -18 7 -17 18l2 19h233l-3 -19c-1 -11 -9 -17 -22 -18l-77 -2l-49 -399c-16 -134 55 -234 188 -234s230 99 246 234l48 399l-76 2c-13 1 -19 7 -18 18l3 19h232l-3 -19c-1 -11 -9 -17 -22 -18l-65 -2l-48 -399
c-21 -163 -141 -278 -303 -278z" />
    <glyph glyph-name="V" unicode="V" horiz-adv-x="755" 
d="M746 708l-2 -19c-1 -11 -9 -17 -22 -18l-39 -2l-358 -669h-46l-193 669l-39 2c-13 1 -18 7 -17 18l2 19h190l-3 -19c-1 -11 -9 -17 -22 -18l-58 -2l162 -562c4 -15 7 -32 9 -49c6 18 13 34 21 49l298 562l-58 2c-13 1 -18 7 -17 18l2 19h190z" />
    <glyph glyph-name="W" unicode="W" horiz-adv-x="1095" 
d="M1086 708l-2 -19c-1 -11 -9 -17 -22 -18l-35 -2l-293 -669h-46l-133 615c-2 8 -3 16 -4 25c-3 -9 -6 -17 -10 -25l-285 -615h-46l-128 669l-35 2c-13 1 -18 7 -17 18l2 19h190l-3 -19c-1 -11 -9 -17 -22 -18l-59 -2l103 -556c2 -14 4 -31 4 -46c5 15 11 31 17 45l271 583
c4 7 12 13 21 13h14c9 0 15 -4 17 -13l128 -582l6 -45c0 1 15 45 15 45l239 556l-61 2c-13 1 -19 7 -18 18l2 19h190z" />
    <glyph glyph-name="X" unicode="X" horiz-adv-x="750" 
d="M646 38c13 -1 19 -7 18 -18l-2 -20h-192l2 20c1 11 9 17 22 18l57 2l-168 298c-2 -5 -5 -9 -9 -14l-235 -284h1l61 -2c13 -1 19 -7 18 -18l-3 -20h-198l2 20c1 11 9 17 22 18l41 2l267 323l-178 306l-40 2c-13 1 -19 7 -18 18l3 19h194l-3 -19c-1 -11 -9 -17 -22 -18
l-55 -2l160 -282c2 5 8 14 9 16l220 266l-62 2c-13 1 -18 7 -17 18l2 19h198l-2 -19c-1 -11 -9 -17 -22 -18l-41 -2l-253 -303l187 -326z" />
    <glyph glyph-name="Y" unicode="Y" horiz-adv-x="680" 
d="M670 708l-2 -19c-1 -11 -9 -17 -22 -18l-37 -2l-283 -377l-31 -252l64 -2c13 -1 19 -7 18 -18l-3 -20h-220l3 20c1 11 9 17 22 18l64 2l31 252l-190 377l-37 2c-13 1 -18 7 -17 18l2 19h185l-3 -19c-2 -11 -9 -17 -22 -18l-52 -2l149 -299c5 -10 13 -35 16 -44
c5 9 19 34 26 44l222 299l-52 2c-13 1 -19 7 -18 18l3 19h184z" />
    <glyph glyph-name="Z" unicode="Z" horiz-adv-x="638" 
d="M627 691c-1 -7 -5 -14 -10 -21l-526 -628h400l17 85c3 16 10 25 24 25h25l-19 -152h-520l2 19c1 6 3 11 8 17l528 630h-391l-17 -85c-3 -16 -10 -24 -24 -24h-25l19 151h511z" />
    <glyph glyph-name="bracketleft" unicode="[" horiz-adv-x="308" 
d="M134 758h159l-2 -18c-2 -9 -7 -14 -17 -14h-103l-102 -826h103c9 0 15 -4 14 -14l-2 -18h-159z" />
    <glyph glyph-name="backslash" unicode="\" horiz-adv-x="327" 
d="M57 728c13 0 22 -7 25 -19l219 -751h-20c-12 0 -22 7 -26 20l-219 750h21z" />
    <glyph glyph-name="bracketright" unicode="]" horiz-adv-x="316" 
d="M176 -132h-159l2 18c2 9 7 14 17 14h103l102 826h-103c-9 0 -15 4 -14 14l2 18h159z" />
    <glyph glyph-name="asciicircum" unicode="^" horiz-adv-x="443" 
d="M276 708l133 -308h-34c-8 0 -13 6 -15 12l-94 218l-10 33l-17 -33l-147 -218c-4 -5 -10 -12 -18 -12h-36l208 308h30z" />
    <glyph glyph-name="underscore" unicode="_" horiz-adv-x="563" 
d="M472 -136h-394l5 34h394z" />
    <glyph glyph-name="grave" unicode="`" horiz-adv-x="251" 
d="M152 716c17 0 23 -7 28 -16l64 -120h-27c-8 0 -14 3 -18 9l-93 127h46z" />
    <glyph glyph-name="a" unicode="a" horiz-adv-x="502" 
d="M429 38c13 -1 19 -7 18 -18l-3 -20h-89c-13 0 -17 10 -17 16l17 156c-42 -91 -114 -178 -203 -178c-91 0 -126 77 -126 173c0 175 140 337 303 337c40 0 76 -6 108 -23l-54 -442zM363 256l25 203c-20 7 -41 10 -64 10c-136 0 -251 -149 -251 -294c0 -79 23 -142 94 -142
c93 0 160 124 196 223z" />
    <glyph glyph-name="b" unicode="b" horiz-adv-x="522" 
d="M483 252c-16 -142 -109 -258 -249 -258c-45 0 -110 9 -196 28l82 666l-52 2c-13 1 -19 7 -18 18l3 20h120l-39 -317c52 58 114 95 186 95c136 0 181 -104 163 -254zM434 252c16 132 -19 216 -132 216c-71 0 -127 -42 -173 -97l-39 -319c68 -14 114 -21 140 -21
c120 0 188 93 204 221z" />
    <glyph glyph-name="c" unicode="c" horiz-adv-x="448" 
d="M363 373l4 78c-30 11 -58 17 -83 17c-124 0 -191 -98 -206 -219c-15 -129 33 -218 146 -218c50 0 100 19 131 46c12 10 20 10 25 3l11 -16c-43 -48 -118 -71 -179 -71c-137 0 -200 109 -182 256c21 151 107 256 256 256c65 0 112 -21 136 -31l-16 -125h-24
c-14 0 -20 8 -19 24z" />
    <glyph glyph-name="d" unicode="d" horiz-adv-x="533" 
d="M483 0h-93c-8 0 -13 4 -13 13l4 79c-53 -61 -113 -98 -188 -98c-137 0 -181 103 -163 254c16 144 109 258 249 258c62 0 110 -22 142 -73l32 255l-52 2c-13 1 -19 7 -18 18l2 20h120l-84 -689l46 -1c13 -1 19 -7 18 -18zM416 391c-31 54 -71 78 -133 78
c-124 0 -188 -100 -204 -221c-15 -127 14 -216 132 -216c71 0 127 42 173 97z" />
    <glyph glyph-name="e" unicode="e" horiz-adv-x="438" 
d="M410 402c0 -134 -200 -155 -336 -171l-2 -41c0 -95 42 -159 135 -159c70 0 97 22 156 74c7 7 16 7 23 0l11 -13c-54 -64 -118 -98 -198 -98c-118 0 -173 83 -173 195c0 163 102 315 251 315c75 0 133 -41 133 -102zM275 469c-106 0 -175 -100 -195 -205
c119 14 288 35 288 137c0 44 -40 68 -93 68z" />
    <glyph glyph-name="f" unicode="f" horiz-adv-x="474" 
d="M465 706l-4 -20c-2 -9 -10 -12 -27 -9c-7 1 -15 2 -25 2c-84 0 -119 -56 -129 -136l-8 -61h162l-5 -36h-160l-55 -445c-16 -122 -86 -187 -210 -187v24c0 11 6 16 18 16c83 0 134 60 145 148l54 443l-69 5c-10 1 -14 4 -13 12l2 20h85l7 63c11 99 72 171 174 171
c22 0 38 -2 58 -10z" />
    <glyph glyph-name="g" unicode="g" horiz-adv-x="509" 
d="M365 481h130l-2 -16c0 -6 -6 -12 -14 -14l-81 -6c13 -22 19 -54 19 -76c0 -60 -25 -97 -68 -158c-12 -18 -23 -46 -23 -65c0 -27 18 -52 40 -77c24 -27 40 -57 40 -91c0 -100 -113 -162 -221 -162c-94 0 -179 37 -179 118c0 104 122 150 237 150c14 0 62 -4 68 -5
c-12 16 -20 35 -20 53c0 31 13 55 29 80c-32 -21 -56 -29 -93 -29c-83 0 -133 55 -133 139c0 102 77 184 183 184c33 0 61 -7 88 -25zM238 214c83 0 136 73 136 154c0 66 -36 104 -102 104c-79 0 -134 -69 -134 -150c0 -70 37 -108 100 -108zM336 48c-17 3 -74 7 -89 7
c-94 0 -196 -36 -196 -115c0 -67 68 -90 138 -90c87 0 174 53 174 125c0 31 -11 52 -27 73z" />
    <glyph glyph-name="h" unicode="h" horiz-adv-x="549" 
d="M486 38c13 -1 18 -7 17 -18l-2 -20h-120l39 318c12 92 -21 149 -112 149c-72 0 -128 -40 -177 -94l-46 -373h-47l84 688l-52 2c-13 1 -19 7 -18 18l3 19h119l-38 -315c53 57 116 93 189 93c114 0 158 -79 143 -187l-35 -278z" />
    <glyph glyph-name="i" unicode="i" horiz-adv-x="221" 
d="M164 628c-24 0 -41 20 -39 44c2 23 26 44 50 44s41 -21 38 -44c-1 -24 -25 -44 -49 -44zM168 38c13 -1 18 -7 17 -18l-2 -20h-120l57 458l-53 2c-13 1 -18 7 -17 18l2 20h120l-56 -458z" />
    <glyph glyph-name="j" unicode="j" horiz-adv-x="310" 
d="M243 628c-24 0 -41 20 -39 44c2 23 26 44 50 44s39 -21 38 -44c-1 -24 -25 -44 -49 -44zM254 498l-69 -561c-9 -75 -58 -121 -134 -121c-17 0 -34 3 -47 10l5 24c2 10 14 5 19 4s12 -2 20 -2c56 0 84 35 90 85l64 522l-52 2c-13 1 -19 7 -18 18l2 19h120z" />
    <glyph glyph-name="k" unicode="k" horiz-adv-x="492" 
d="M478 498l-3 -20c-1 -11 -9 -17 -22 -18l-36 -2l-199 -169s-16 -15 -21 -17c5 -1 12 -9 12 -9l179 -224l38 -1c13 -1 18 -7 17 -18l-2 -20h-64c-11 0 -19 7 -22 11l-181 224c-12 14 -17 16 -36 16h-22l-31 -251h-47l84 688l-52 2c-13 1 -19 7 -18 18l3 19h119l-54 -443h23
c13 0 22 6 28 11l193 164l-25 1c-13 1 -19 7 -18 18l3 20h154z" />
    <glyph glyph-name="l" unicode="l" horiz-adv-x="207" 
d="M142 38c13 -1 19 -7 18 -18l-3 -20h-119l84 688l-52 2c-13 1 -19 7 -18 18l3 20h119l-84 -688z" />
    <glyph glyph-name="m" unicode="m" horiz-adv-x="820" 
d="M753 38c13 -1 19 -7 18 -18l-2 -20h-120l39 318c11 92 -22 149 -103 149c-85 0 -142 -69 -150 -149l-39 -318h-48l39 318c11 88 -14 150 -95 150c-58 0 -113 -44 -148 -92l-46 -376h-47l56 459l-52 2c-13 1 -19 7 -18 18l3 19h98c9 0 13 -4 13 -12l-4 -73
c40 51 96 92 162 92c77 0 111 -49 117 -120c35 78 96 120 173 120c110 0 150 -80 136 -187l-34 -278z" />
    <glyph glyph-name="n" unicode="n" horiz-adv-x="565" 
d="M499 38c13 -1 18 -7 17 -18l-2 -20h-120l39 319c11 91 -20 149 -111 149c-71 0 -130 -40 -178 -94l-46 -374h-47l56 459l-52 2c-13 1 -19 7 -18 18l3 19h98c9 0 13 -4 13 -12l-4 -75c51 57 116 95 191 95c114 0 156 -79 143 -187l-34 -279z" />
    <glyph glyph-name="o" unicode="o" horiz-adv-x="522" 
d="M288 506c144 0 214 -106 195 -257c-20 -155 -113 -255 -258 -255c-146 0 -214 105 -195 255c20 156 114 257 258 257zM230 31c125 0 188 94 204 218c16 129 -29 219 -151 219c-125 0 -189 -96 -204 -219c-16 -132 32 -218 151 -218z" />
    <glyph glyph-name="p" unicode="p" horiz-adv-x="585" 
d="M545 252c-16 -142 -110 -258 -248 -258c-64 0 -110 20 -143 73l-25 -203l52 -2c13 -1 18 -7 17 -18l-2 -20h-192l2 20c1 11 9 17 22 18l53 2l73 595l-52 2c-13 1 -19 7 -18 18l3 19h98c10 0 13 -2 13 -12l-5 -78c51 59 116 98 189 98c136 0 181 -104 163 -254zM496 252
c15 127 -15 215 -132 215c-69 0 -127 -38 -173 -97l-32 -261c27 -53 72 -78 133 -78c119 0 188 93 204 221z" />
    <glyph glyph-name="q" unicode="q" horiz-adv-x="513" 
d="M453 -139c13 -1 18 -7 17 -18l-2 -19h-192l2 19c1 11 9 17 22 18l53 2l27 225c-55 -61 -115 -94 -186 -94c-136 0 -181 102 -163 253c16 142 109 258 249 258c45 0 110 -9 196 -28l-76 -614zM425 447c-68 14 -114 21 -140 21c-120 0 -189 -93 -205 -221
c-15 -127 15 -215 132 -215c72 0 126 40 173 96z" />
    <glyph glyph-name="r" unicode="r" horiz-adv-x="411" 
d="M396 487l-10 -33c-5 -11 -14 -8 -20 -6c-23 8 -29 11 -60 11c-79 0 -131 -54 -168 -136l-40 -323h-47l56 459l-52 2c-13 1 -19 7 -18 18l3 19h97c15 0 14 -6 14 -15l-8 -106c43 82 98 129 178 129c27 0 51 -6 75 -19z" />
    <glyph glyph-name="s" unicode="s" horiz-adv-x="416" 
d="M365 146c-13 -95 -95 -154 -194 -154c-50 0 -97 10 -143 28l14 121h25c14 0 19 -8 18 -24l-3 -74c26 -11 58 -16 96 -16c71 0 131 39 141 111c8 61 -51 83 -126 105c-81 24 -134 56 -123 128c9 80 92 134 181 134c36 0 79 -8 129 -26l-15 -119h-24c-14 0 -19 8 -18 24
l2 72c-26 9 -51 13 -77 13c-63 0 -123 -36 -132 -95c-8 -58 49 -76 126 -100c84 -25 131 -61 123 -128z" />
    <glyph glyph-name="t" unicode="t" horiz-adv-x="332" 
d="M160 -8c-71 0 -102 41 -93 114l42 340h-71c-7 0 -11 3 -11 12l2 18l86 6l33 178c2 6 7 12 14 12h23l-23 -190h156l-4 -36h-157l-41 -337c-6 -46 15 -78 59 -78c26 0 60 18 72 28c7 6 15 7 19 -1l9 -20c-29 -29 -79 -46 -115 -46z" />
    <glyph glyph-name="u" unicode="u" horiz-adv-x="564" 
d="M494 38c13 -1 18 -7 17 -18l-2 -20h-98c-9 0 -14 4 -13 13l4 74c-54 -58 -118 -95 -192 -95c-115 0 -157 81 -143 188l35 278l-53 2c-13 1 -18 7 -17 18l2 19h72l48 1l-39 -318c-12 -93 23 -150 111 -150c70 0 131 41 178 94l42 334l-53 2c-13 1 -18 7 -17 18l2 19h72
l48 1l-56 -458z" />
    <glyph glyph-name="v" unicode="v" horiz-adv-x="581" 
d="M566 498l-2 -19c-1 -11 -9 -17 -22 -18l-35 -1l-250 -460h-42l-137 460l-33 1c-13 1 -18 7 -17 18l2 19h174l-2 -19c-1 -11 -9 -17 -22 -18l-52 -2l108 -366c5 -16 7 -35 7 -43c2 8 10 29 18 43l198 366l-52 2c-13 1 -18 7 -17 18l2 19h174z" />
    <glyph glyph-name="w" unicode="w" horiz-adv-x="842" 
d="M827 498l-2 -19c-1 -11 -9 -17 -22 -18l-35 -1l-210 -460h-35c-5 0 -9 4 -10 11l-87 404l-5 31l-11 -31l-187 -404c-3 -7 -8 -11 -14 -11h-33l-97 460l-33 1c-13 1 -19 7 -18 18l3 19h174l-3 -19c-1 -11 -9 -17 -22 -18l-52 -2l72 -366c2 -14 4 -27 4 -43
c5 16 13 32 18 43l182 396c3 7 9 11 16 11h19c7 0 12 -4 13 -11l83 -396c3 -15 6 -29 7 -43c5 14 10 28 16 43l162 366l-52 2c-13 1 -18 7 -17 18l2 19h174z" />
    <glyph glyph-name="x" unicode="x" horiz-adv-x="556" 
d="M470 38c13 -1 18 -7 17 -18l-2 -20h-148l2 20c1 11 9 17 22 18l28 1l-110 193c-2 -7 -5 -11 -9 -16l-148 -177l30 -1c13 -1 19 -7 18 -18l-3 -20h-147l2 20c1 11 9 17 22 18l27 1l180 216l-121 205l-30 1c-13 1 -19 7 -18 18l3 19h148l-3 -19c-1 -11 -9 -17 -22 -18
l-24 -1l104 -184c2 6 6 12 11 18l136 166l-26 1c-13 1 -19 7 -18 18l3 19h148l-3 -19c-2 -12 -9 -17 -22 -18l-31 -1l-171 -203l127 -218z" />
    <glyph glyph-name="y" unicode="y" horiz-adv-x="579" 
d="M565 498l-3 -19c-1 -11 -9 -17 -22 -18l-34 -1l-345 -620c-5 -9 -15 -16 -24 -16h-34l112 194l-140 442l-30 1c-13 1 -19 7 -18 18l3 19h174l-3 -19c-1 -11 -9 -17 -22 -18l-52 -2l112 -361l5 -32l15 32l198 361l-51 2c-13 1 -19 7 -18 18l3 19h174z" />
    <glyph glyph-name="z" unicode="z" horiz-adv-x="477" 
d="M417 125l-15 -125h-382l3 19c1 6 4 11 10 18l364 424h-252l-14 -68c-3 -16 -11 -24 -25 -24h-24l16 129h360l-3 -20c-1 -7 -4 -13 -9 -19l-363 -422h272l14 64c3 16 10 24 24 24h24z" />
    <glyph glyph-name="braceleft" unicode="{" horiz-adv-x="318" 
d="M30 298l4 30c69 0 94 52 89 129c-1 22 -5 64 -7 105c-7 118 55 196 160 196h27l-3 -20c-1 -7 -7 -12 -13 -12h-17c-80 0 -118 -71 -112 -163c3 -49 3 -70 7 -106c8 -72 -28 -132 -88 -144c70 -16 71 -75 52 -144c-12 -43 -23 -71 -33 -106c-26 -93 -7 -163 73 -163h16
c6 0 11 -4 11 -11l-2 -21h-28c-108 0 -143 83 -111 197c5 18 36 113 33 104c23 78 10 129 -58 129z" />
    <glyph glyph-name="bar" unicode="|" horiz-adv-x="205" 
d="M121 758v-934h-37v934h37z" />
    <glyph glyph-name="braceright" unicode="}" horiz-adv-x="326" 
d="M290 328l-4 -30c-69 0 -94 -52 -89 -129c1 -22 5 -64 7 -105c7 -118 -55 -196 -160 -196h-27l3 20c1 7 7 12 13 12h17c80 0 118 71 112 163c-3 49 -3 70 -7 106c-8 72 28 132 88 144c-70 16 -71 75 -52 144c12 43 23 71 33 106c26 93 7 163 -73 163h-16
c-6 0 -11 4 -11 11l2 21h28c108 0 143 -83 111 -197c-5 -18 -36 -113 -33 -104c-23 -78 -10 -129 58 -129z" />
    <glyph glyph-name="asciitilde" unicode="~" horiz-adv-x="571" 
d="M384 284c55 0 86 41 93 90h39c-7 -71 -61 -130 -134 -130c-63 0 -143 63 -194 63s-86 -38 -93 -90h-39c8 72 61 129 134 129c74 0 131 -62 194 -62z" />
    <glyph glyph-name="uni00A0" unicode="&#xa0;" horiz-adv-x="218" 
 />
    <glyph glyph-name="exclamdown" unicode="&#xa1;" horiz-adv-x="224" 
d="M131 413c-26 0 -43 22 -41 47c2 24 26 46 52 46s43 -22 40 -46c-2 -25 -26 -47 -51 -47zM71 99l29 178h32l-15 -178l-33 -275h-47z" />
    <glyph glyph-name="cent" unicode="&#xa2;" horiz-adv-x="458" 
d="M398 64c-47 -53 -117 -70 -187 -70l-18 -105c-2 -9 -8 -15 -17 -15h-18l10 58l11 65c-117 22 -156 134 -142 252c19 141 104 246 230 255v1l18 103c2 10 7 16 17 16h18l-21 -119c27 -3 90 -18 130 -31l-15 -125h-24c-14 0 -20 8 -19 24l3 78c-30 11 -57 17 -81 17l-1 -1
l-56 -328l-19 -107c57 0 100 8 145 45c11 9 20 10 25 3zM186 37l75 429c-102 -13 -162 -106 -175 -217c-11 -97 12 -190 100 -212z" />
    <glyph glyph-name="sterling" unicode="&#xa3;" horiz-adv-x="600" 
d="M53 332c3 14 13 17 20 17h82l18 147c17 131 103 219 233 219c84 0 142 -39 167 -118l-20 -11c-9 -4 -19 -3 -25 6c-29 59 -62 82 -127 82c-105 0 -167 -75 -179 -178l-18 -146h239l-2 -20c0 -8 -7 -14 -17 -14h-224l-19 -152c-8 -60 -36 -98 -83 -126c8 2 26 4 45 4h393
l-2 -20c-3 -13 -12 -22 -25 -22h-485l4 32c55 17 96 65 103 121l20 163h-100z" />
    <glyph glyph-name="currency" unicode="&#xa4;" horiz-adv-x="538" 
d="M96 336c6 43 22 75 52 107l-68 77l28 25l67 -77c33 25 73 39 114 39c39 0 73 -13 103 -38l87 77l21 -25l-86 -77c22 -33 32 -70 26 -109c-6 -41 -28 -82 -52 -108l68 -77l-29 -25l-67 77c-31 -23 -74 -38 -113 -38s-75 13 -104 38l-87 -77l-21 25l86 76
c-21 32 -30 72 -25 110zM132 335c-9 -76 48 -135 119 -135c73 0 145 63 153 136c8 79 -47 136 -120 136c-76 0 -145 -70 -152 -137z" />
    <glyph glyph-name="yen" unicode="&#xa5;" horiz-adv-x="569" 
d="M219 308l-162 400h40c9 0 15 -5 18 -13l132 -333c4 -13 8 -27 9 -36c4 9 10 23 17 36l213 333c3 6 13 13 21 13h40l-261 -400h174l-4 -29h-183l-7 -59h183l-3 -29h-184l-23 -191h-47l23 191h-183l4 29h183l7 59h-183l3 29h173z" />
    <glyph glyph-name="brokenbar" unicode="&#xa6;" horiz-adv-x="210" 
d="M178 758l-48 -388h-38l48 388h38zM111 212l-48 -388h-37l47 388h38z" />
    <glyph glyph-name="section" unicode="&#xa7;" horiz-adv-x="471" 
d="M427 646c-9 -11 -18 -7 -25 -1c-48 28 -60 34 -105 34c-64 0 -125 -35 -135 -97c-7 -59 53 -82 131 -119c76 -37 137 -76 126 -152c-6 -58 -46 -100 -97 -121c36 -29 53 -58 47 -102c-14 -96 -92 -154 -193 -154c-60 0 -109 19 -151 61l14 17c10 11 21 8 30 0
c35 -29 66 -43 115 -43c74 0 134 41 142 111c8 69 -57 94 -135 129c-86 38 -143 71 -134 148c7 61 53 99 111 118c-35 25 -54 61 -49 105c9 82 95 136 181 136c55 0 103 -16 139 -54zM100 363c-7 -52 41 -82 107 -112c33 -15 75 -35 91 -45c44 19 73 48 78 95
c8 62 -37 88 -97 117c-38 18 -76 36 -85 41c-50 -21 -89 -46 -94 -96z" />
    <glyph glyph-name="dieresis" unicode="&#xa8;" horiz-adv-x="377" 
d="M132 635c-23 0 -38 18 -36 41c2 22 23 40 46 40c22 0 37 -18 35 -40c-2 -23 -23 -41 -45 -41zM340 635c-23 0 -38 18 -36 41c2 22 23 40 46 40c22 0 37 -18 35 -40c-2 -23 -23 -41 -45 -41z" />
    <glyph glyph-name="copyright" unicode="&#xa9;" horiz-adv-x="807" 
d="M44 354c24 198 207 361 405 361c199 0 340 -162 316 -361c-25 -203 -209 -361 -405 -361c-199 0 -341 163 -316 361zM73 354c-23 -181 105 -334 290 -334s350 148 374 334c24 182 -107 334 -292 334c-184 0 -348 -149 -372 -334zM523 207c10 8 16 5 19 2l14 -15
c-54 -49 -108 -65 -175 -65c-131 0 -207 93 -191 225c16 135 124 226 254 226c62 0 110 -19 147 -56l-14 -16c-8 -9 -17 -5 -23 0c-32 26 -67 36 -112 36c-112 0 -192 -74 -208 -190c-15 -114 47 -188 153 -188c53 0 94 11 136 41z" />
    <glyph glyph-name="ordfeminine" unicode="&#xaa;" horiz-adv-x="343" 
d="M256 419c-10 0 -12 4 -12 10l-1 34c-35 -31 -73 -48 -118 -48c-53 0 -81 32 -74 75c6 73 128 91 205 92l3 25c6 50 -12 78 -61 78c-30 0 -62 -14 -81 -29c-9 -7 -18 -9 -23 1l-5 11c36 32 70 47 116 47c70 0 98 -45 90 -107l-23 -188zM138 441c40 0 78 22 106 47l9 69
c-76 -3 -163 -14 -168 -65c-4 -35 22 -51 53 -51z" />
    <glyph glyph-name="guillemotleft" unicode="&#xab;" horiz-adv-x="376" 
d="M44 263l144 189l14 -8c10 -6 6 -18 1 -24l-109 -146c-5 -7 -10 -11 -13 -14c3 -3 6 -7 9 -14l74 -148c4 -9 2 -19 -8 -24l-16 -7l-97 189zM171 263l144 189l14 -7c9 -6 9 -14 2 -24l-110 -147c-5 -7 -10 -11 -13 -14c3 -3 7 -7 10 -14l73 -147c4 -8 2 -20 -7 -25l-16 -7
l-98 189z" />
    <glyph glyph-name="logicalnot" unicode="&#xac;" horiz-adv-x="540" 
d="M476 354l-22 -184h-41l18 147h-373l4 37h414z" />
    <glyph glyph-name="uni00AD" unicode="&#xad;" horiz-adv-x="363" 
d="M301 317l-5 -41h-232l5 41h232z" />
    <glyph glyph-name="registered" unicode="&#xae;" horiz-adv-x="807" 
d="M44 354c23 197 207 361 405 361c199 0 340 -162 316 -361c-25 -203 -210 -361 -405 -361c-199 0 -341 163 -316 361zM73 354c-23 -181 105 -334 290 -334s350 148 374 334c24 182 -107 334 -292 334s-348 -149 -372 -334zM286 133h-42l54 443h123c93 0 152 -31 141 -117
c-9 -73 -67 -113 -138 -122c7 -3 14 -12 18 -20l120 -184h-40c-9 0 -12 3 -15 8l-113 175c-6 10 -15 12 -29 12h-55zM388 360c71 0 123 28 132 94c9 70 -34 88 -103 88h-81l-22 -182h74z" />
    <glyph glyph-name="macron" unicode="&#xaf;" horiz-adv-x="318" 
d="M343 643l-4 -32h-271l3 32h272z" />
    <glyph glyph-name="degree" unicode="&#xb0;" horiz-adv-x="398" 
d="M54 567c12 87 89 149 169 149c83 0 144 -67 132 -149c-12 -86 -89 -149 -169 -149c-85 0 -143 72 -132 149zM90 567c-8 -67 40 -115 101 -115c67 0 119 54 128 115c8 65 -34 115 -100 115c-70 0 -121 -54 -129 -115z" />
    <glyph glyph-name="plusminus" unicode="&#xb1;" horiz-adv-x="574" 
d="M325 374h215l-4 -37h-216l-24 -201h-39l24 201h-215l5 37h215l25 202h39zM504 76l-4 -36h-470l4 36h470z" />
    <glyph glyph-name="uni00B2" unicode="&#xb2;" horiz-adv-x="338" 
d="M286 528l-10 -78h-236l1 10c0 9 6 15 9 17l132 119c44 40 78 76 82 116c4 48 -23 69 -63 69c-39 0 -64 -21 -85 -62c-5 -10 -11 -10 -18 -10l-19 4c18 65 68 99 127 99c62 0 102 -37 94 -98c-7 -50 -28 -73 -92 -131l-117 -105c10 3 28 5 40 5h117l6 24c4 14 9 21 21 21
h11z" />
    <glyph glyph-name="uni00B3" unicode="&#xb3;" horiz-adv-x="328" 
d="M198 812c56 0 100 -35 92 -92c-6 -47 -38 -75 -76 -86c49 -12 71 -41 65 -83c-8 -62 -66 -105 -131 -105c-66 0 -96 26 -108 92l13 5c14 6 21 -1 23 -9c9 -38 31 -58 74 -58c47 0 87 34 92 73c5 54 -31 71 -88 71l3 24c53 2 91 21 98 70c4 44 -18 67 -62 67
s-70 -25 -85 -62c-4 -10 -11 -12 -24 -9l-12 2c19 66 67 100 126 100z" />
    <glyph glyph-name="acute" unicode="&#xb4;" horiz-adv-x="273" 
d="M147 600c-6 -4 -12 -6 -20 -6h-35l126 103c14 11 20 11 32 11h56z" />
    <glyph glyph-name="uni00B5" unicode="&#xb5;" horiz-adv-x="557" 
d="M126 180c-12 -92 22 -150 111 -150c70 0 130 41 177 94l46 374h48l-61 -498h-26c-9 0 -14 4 -13 13l4 74c-53 -57 -110 -90 -182 -90c-64 0 -106 26 -124 75c0 -32 -1 -30 -6 -84l-20 -164h-24c-16 0 -20 12 -19 21l80 653h48z" />
    <glyph glyph-name="paragraph" unicode="&#xb6;" horiz-adv-x="668" 
d="M641 666h-113l-93 -761h-43l94 761h-164l-94 -761h-43l55 445c-126 0 -211 69 -199 182c13 113 119 176 243 176h362z" />
    <glyph glyph-name="periodcentered" unicode="&#xb7;" horiz-adv-x="226" 
d="M108 245c-28 0 -47 24 -45 52c2 27 29 51 58 51c28 0 47 -24 44 -51c-2 -28 -29 -52 -57 -52z" />
    <glyph glyph-name="cedilla" unicode="&#xb8;" horiz-adv-x="285" 
d="M84 -7l10 22h32l-11 -23l-17 -37c57 -10 87 -27 83 -68c-4 -42 -49 -64 -100 -64c-27 0 -49 6 -70 21l7 14c5 10 12 5 15 3c13 -9 34 -15 50 -15c31 0 56 12 60 41c5 39 -44 42 -84 49z" />
    <glyph glyph-name="uni00B9" unicode="&#xb9;" horiz-adv-x="270" 
d="M127 474l33 270l4 19l-79 -63c-6 -4 -12 -4 -17 2l-9 15l117 92h29l-41 -335h73l-3 -24h-189l3 24h79z" />
    <glyph glyph-name="ordmasculine" unicode="&#xba;" horiz-adv-x="388" 
d="M219 714c93 0 135 -63 124 -150c-12 -96 -74 -150 -161 -150c-94 0 -136 62 -125 150c13 93 70 150 162 150zM186 442c73 0 110 51 119 122c10 73 -18 122 -89 122c-75 0 -112 -50 -121 -122c-10 -75 19 -122 91 -122z" />
    <glyph glyph-name="guillemotright" unicode="&#xbb;" horiz-adv-x="376" 
d="M205 256l-144 -189l-14 7c-9 6 -9 14 -2 24l110 147c5 7 10 11 13 14c-3 3 -7 7 -10 14l-73 147c-4 8 -2 20 7 25l16 7l98 -189zM332 256l-144 -189l-14 8c-10 6 -6 18 -1 24l109 146c5 7 10 11 13 14c-3 3 -6 7 -9 14l-74 148c-4 9 -2 19 8 24l16 7l97 -189z" />
    <glyph glyph-name="onequarter" unicode="&#xbc;" horiz-adv-x="642" 
d="M115 375l33 270l4 19l-79 -63c-6 -4 -12 -4 -17 2l-9 15l117 92h29l-41 -335h73l-3 -24h-189l3 24h79zM109 16c-8 -11 -16 -16 -30 -16h-20l485 690c7 11 18 18 30 18h21zM615 124l-3 -18c-1 -5 -3 -8 -9 -8h-55l-12 -98h-31l12 98h-163c-8 0 -11 3 -11 8l-1 16l205 236
h33l-28 -234h63zM541 291c1 8 2 16 4 26l-168 -193h143z" />
    <glyph glyph-name="onehalf" unicode="&#xbd;" horiz-adv-x="649" 
d="M117 377l33 270l4 19l-79 -63c-6 -4 -12 -4 -17 2l-9 15l117 92h29l-41 -335h73l-3 -24h-189l3 24h79zM88 16c-4 -6 -8 -11 -13 -13s-10 -3 -16 -3h-20l485 690c4 6 8 10 13 13s9 5 16 5h21zM593 79l-10 -78h-236l1 10c0 9 6 15 9 17l132 119c44 40 78 76 82 116
c4 48 -23 69 -63 69c-39 0 -64 -21 -85 -62c-5 -10 -11 -10 -18 -10l-19 4c18 65 68 99 127 99c62 0 102 -37 94 -98c-7 -50 -28 -73 -92 -131l-117 -105c10 3 28 5 40 5h117l6 24c4 14 9 21 21 21h11z" />
    <glyph glyph-name="threequarters" unicode="&#xbe;" horiz-adv-x="676" 
d="M190 713c56 0 100 -35 92 -92c-6 -47 -38 -75 -76 -86c49 -12 71 -41 65 -83c-8 -62 -66 -105 -131 -105c-66 0 -96 26 -108 92l13 5c14 6 21 -1 23 -9c9 -38 31 -58 74 -58c47 0 87 34 92 73c5 54 -31 71 -88 71l3 24c53 2 91 21 98 70c4 44 -18 67 -62 67
s-70 -25 -85 -62c-4 -10 -11 -12 -24 -9l-12 2c19 66 67 100 126 100zM146 15c-7 -10 -17 -15 -29 -15h-20l484 690c8 11 16 17 30 17h21zM648 124l-3 -18c-1 -5 -3 -8 -9 -8h-55l-12 -98h-31l12 98h-163c-8 0 -11 3 -11 8l-1 16l205 236h33l-28 -234h63zM574 291
c1 8 2 16 4 26l-168 -193h143z" />
    <glyph glyph-name="questiondown" unicode="&#xbf;" horiz-adv-x="398" 
d="M276 412c-25 0 -42 22 -40 47c1 24 26 46 52 46c25 0 43 -22 40 -46c-2 -25 -26 -47 -52 -47zM359 -112c-48 -43 -110 -70 -172 -70c-93 0 -164 58 -153 150c9 82 61 123 141 172c28 17 48 30 52 56l16 81h32l-8 -87c-6 -40 -45 -63 -91 -91c-53 -32 -88 -67 -96 -127
c-8 -74 46 -114 115 -114c47 0 93 15 129 47c9 8 18 10 25 -1z" />
    <glyph glyph-name="Agrave" unicode="&#xc0;" horiz-adv-x="754" 
d="M428 804c-8 0 -13 1 -18 6l-133 108h56c15 0 20 -1 30 -11l101 -103h-36zM738 38c14 -1 19 -7 18 -18l-3 -20h-220l3 20c1 11 8 17 22 18l59 2l-2 6l-52 186h-338l-97 -186l-3 -6l61 -2c14 -1 19 -7 18 -18l-3 -20h-220l3 20c1 11 8 17 22 18l64 2h2l3 6l352 662h51
l189 -662l2 -6h5zM246 270h306l-97 345c-2 10 -7 29 -9 41c-4 -12 -14 -32 -19 -42z" />
    <glyph glyph-name="Aacute" unicode="&#xc1;" horiz-adv-x="754" 
d="M524 810c-6 -4 -12 -6 -20 -6h-35l126 103c14 11 20 11 32 11h56zM738 38c14 -1 19 -7 18 -18l-3 -20h-220l3 20c1 11 8 17 22 18l59 2l-2 6l-52 186h-338l-97 -186l-3 -6l61 -2c14 -1 19 -7 18 -18l-3 -20h-220l3 20c1 11 8 17 22 18l64 2h2l3 6l352 662h51l189 -662
l2 -6h5zM246 270h306l-97 345c-2 10 -7 29 -9 41c-4 -12 -14 -32 -19 -42z" />
    <glyph glyph-name="Acircumflex" unicode="&#xc2;" horiz-adv-x="754" 
d="M360 824c-7 -5 -14 -5 -17 -5h-37l130 99h45l105 -99h-37c-5 0 -13 2 -16 5l-70 62l-8 8l-9 -8zM738 38c14 -1 19 -7 18 -18l-3 -20h-220l3 20c1 11 8 17 22 18l59 2l-2 6l-52 186h-338l-97 -186l-3 -6l61 -2c14 -1 19 -7 18 -18l-3 -20h-220l3 20c1 11 8 17 22 18l64 2
h2l3 6l352 662h51l189 -662l2 -6h5zM246 270h306l-97 345c-2 10 -7 29 -9 41c-4 -12 -14 -32 -19 -42z" />
    <glyph glyph-name="Atilde" unicode="&#xc3;" horiz-adv-x="754" 
d="M390 893c-30 0 -46 -25 -49 -49h-28c4 46 34 82 80 82c42 0 77 -50 108 -50c30 0 46 24 50 49h27c-4 -43 -35 -82 -80 -82c-41 0 -75 50 -108 50zM738 38c14 -1 19 -7 18 -18l-3 -20h-220l3 20c1 11 8 17 22 18l59 2l-2 6l-52 186h-338l-97 -186l-3 -6l61 -2
c14 -1 19 -7 18 -18l-3 -20h-220l3 20c1 11 8 17 22 18l64 2h2l3 6l352 662h51l189 -662l2 -6h5zM246 270h306l-97 345c-2 10 -7 29 -9 41c-4 -12 -14 -32 -19 -42z" />
    <glyph glyph-name="Adieresis" unicode="&#xc4;" horiz-adv-x="754" 
d="M337 845c-23 0 -38 18 -36 41c2 22 23 40 46 40c22 0 37 -18 35 -40c-2 -23 -23 -41 -45 -41zM545 845c-23 0 -38 18 -36 41c2 22 23 40 46 40c22 0 37 -18 35 -40c-2 -23 -23 -41 -45 -41zM738 38c14 -1 19 -7 18 -18l-3 -20h-220l3 20c1 11 8 17 22 18l59 2l-2 6
l-52 186h-338l-97 -186l-3 -6l61 -2c14 -1 19 -7 18 -18l-3 -20h-220l3 20c1 11 8 17 22 18l64 2h2l3 6l352 662h51l189 -662l2 -6h5zM246 270h306l-97 345c-2 10 -7 29 -9 41c-4 -12 -14 -32 -19 -42z" />
    <glyph glyph-name="Aring" unicode="&#xc5;" horiz-adv-x="754" 
d="M436 767c-46 0 -78 32 -74 79c4 44 48 79 93 79c47 0 78 -32 74 -79s-51 -79 -93 -79zM388 846c-4 -34 16 -57 51 -57c37 0 60 27 64 57c4 32 -15 57 -50 57c-37 0 -61 -26 -65 -57zM738 38c14 -1 19 -7 18 -18l-3 -20h-220l3 20c1 11 8 17 22 18l59 2l-2 6l-52 186h-338
l-97 -186l-3 -6l61 -2c14 -1 19 -7 18 -18l-3 -20h-220l3 20c1 11 8 17 22 18l64 2h2l3 6l352 662h51l189 -662l2 -6h5zM246 270h306l-97 345c-2 10 -7 29 -9 41c-4 -12 -14 -32 -19 -42z" />
    <glyph glyph-name="AE" unicode="&#xc6;" horiz-adv-x="1012" 
d="M440 707h562l-18 -146h-25c-14 0 -19 8 -18 24l6 80h-358l1 -286h280l-5 -41h-275l1 -295h279l14 79c3 16 10 25 24 25h25l-18 -147h-445l3 20c1 11 8 17 22 18l49 2l-1 179h-298l-120 -179l64 -2c14 -1 19 -7 18 -18l-3 -20h-220l3 20c1 11 8 17 22 18l62 2l4 6l420 623
l-40 1c-13 1 -19 7 -18 18zM270 257h272l-2 411c-4 -11 -18 -36 -25 -47z" />
    <glyph glyph-name="Ccedilla" unicode="&#xc7;" horiz-adv-x="655" 
d="M428 715c66 0 140 -16 220 -50l-20 -160h-24c-14 0 -20 8 -19 24l8 109c-49 23 -106 33 -170 33c-182 0 -311 -133 -333 -317c-22 -187 70 -318 244 -318c93 0 155 24 221 78c5 4 14 7 19 1l17 -21c-68 -64 -151 -97 -244 -101v-1l-17 -37c57 -10 87 -27 83 -68
c-4 -42 -49 -64 -100 -64c-27 0 -49 6 -70 21l7 14c5 10 12 5 15 3c13 -9 34 -15 50 -15c31 0 56 12 60 41c5 39 -44 42 -84 49l25 56c-201 5 -305 163 -279 362c28 212 181 361 391 361z" />
    <glyph glyph-name="Egrave" unicode="&#xc8;" horiz-adv-x="622" 
d="M269 918c15 0 20 -1 30 -11l101 -103h-36c-8 0 -13 1 -18 6l-133 108h56zM612 707l-6 -42l-12 -104h-25c-14 0 -19 8 -18 24l6 80h-323l-35 -286h281l-5 -41h-281l-37 -295h323l14 79c3 16 10 25 24 25h25l-18 -147h-509l3 20c1 11 9 17 22 18l65 2l77 628l-64 2
c-13 1 -19 7 -18 18l2 19h509z" />
    <glyph glyph-name="Eacute" unicode="&#xc9;" horiz-adv-x="622" 
d="M460 810c-6 -4 -12 -6 -20 -6h-35l126 103c14 11 20 11 32 11h56zM612 707l-6 -42l-12 -104h-25c-14 0 -19 8 -18 24l6 80h-323l-35 -286h281l-5 -41h-281l-37 -295h323l14 79c3 16 10 25 24 25h25l-18 -147h-509l3 20c1 11 9 17 22 18l65 2l77 628l-64 2
c-13 1 -19 7 -18 18l2 19h509z" />
    <glyph glyph-name="Ecircumflex" unicode="&#xca;" horiz-adv-x="622" 
d="M485 819c-5 0 -13 2 -16 5l-70 62l-8 8l-9 -8l-86 -62c-7 -5 -14 -5 -17 -5h-37l130 99h45l105 -99h-37zM612 707l-6 -42l-12 -104h-25c-14 0 -19 8 -18 24l6 80h-323l-35 -286h281l-5 -41h-281l-37 -295h323l14 79c3 16 10 25 24 25h25l-18 -147h-509l3 20
c1 11 9 17 22 18l65 2l77 628l-64 2c-13 1 -19 7 -18 18l2 19h509z" />
    <glyph glyph-name="Edieresis" unicode="&#xcb;" horiz-adv-x="622" 
d="M273 845c-23 0 -38 18 -36 41c2 22 23 40 46 40c22 0 37 -18 35 -40c-2 -23 -23 -41 -45 -41zM481 845c-23 0 -38 18 -36 41c2 22 23 40 46 40c22 0 37 -18 35 -40c-2 -23 -23 -41 -45 -41zM612 707l-6 -42l-12 -104h-25c-14 0 -19 8 -18 24l6 80h-323l-35 -286h281
l-5 -41h-281l-37 -295h323l14 79c3 16 10 25 24 25h25l-18 -147h-509l3 20c1 11 9 17 22 18l65 2l77 628l-64 2c-13 1 -19 7 -18 18l2 19h509z" />
    <glyph glyph-name="Igrave" unicode="&#xcc;" horiz-adv-x="332" 
d="M101 918c15 0 20 -1 30 -11l101 -103h-36c-8 0 -13 1 -18 6l-133 108h56zM234 668l-77 -628l64 -2c13 -1 19 -7 18 -18l-3 -20h-220l3 20c1 11 9 17 22 18l65 2l77 628l-64 2c-13 1 -19 7 -18 18l2 20h220l-2 -20c-1 -11 -9 -17 -22 -18z" />
    <glyph glyph-name="Iacute" unicode="&#xcd;" horiz-adv-x="332" 
d="M292 810c-6 -4 -12 -6 -20 -6h-35l126 103c14 11 20 11 32 11h56zM234 668l-77 -628l64 -2c13 -1 19 -7 18 -18l-3 -20h-220l3 20c1 11 9 17 22 18l65 2l77 628l-64 2c-13 1 -19 7 -18 18l2 20h220l-2 -20c-1 -11 -9 -17 -22 -18z" />
    <glyph glyph-name="Icircumflex" unicode="&#xce;" horiz-adv-x="332" 
d="M317 819c-5 0 -13 2 -16 5l-70 62l-8 8l-9 -8l-86 -62c-7 -5 -14 -5 -17 -5h-37l130 99h45l105 -99h-37zM234 668l-77 -628l64 -2c13 -1 19 -7 18 -18l-3 -20h-220l3 20c1 11 9 17 22 18l65 2l77 628l-64 2c-13 1 -19 7 -18 18l2 20h220l-2 -20c-1 -11 -9 -17 -22 -18z
" />
    <glyph glyph-name="Idieresis" unicode="&#xcf;" horiz-adv-x="332" 
d="M105 845c-23 0 -38 18 -36 41c2 22 23 40 46 40c22 0 37 -18 35 -40c-2 -23 -23 -41 -45 -41zM313 845c-23 0 -38 18 -36 41c2 22 23 40 46 40c22 0 37 -18 35 -40c-2 -23 -23 -41 -45 -41zM234 668l-77 -628l64 -2c13 -1 19 -7 18 -18l-3 -20h-220l3 20c1 11 9 17 22 18
l65 2l77 628l-64 2c-13 1 -19 7 -18 18l2 20h220l-2 -20c-1 -11 -9 -17 -22 -18z" />
    <glyph glyph-name="Eth" unicode="&#xd0;" horiz-adv-x="763" 
d="M433 707c213 0 321 -147 294 -353c-28 -217 -175 -354 -381 -354h-330l3 20c1 11 9 17 22 18l65 2l37 302h-108l4 32h108l36 294l-64 2c-13 1 -19 7 -18 18l2 19h330zM674 354c23 188 -67 312 -246 312h-194l-36 -292h203l-4 -32h-203l-37 -301h194
c181 0 300 124 323 313z" />
    <glyph glyph-name="Ntilde" unicode="&#xd1;" horiz-adv-x="827" 
d="M507 876c30 0 46 24 50 49h27c-4 -43 -35 -82 -80 -82c-41 0 -75 50 -108 50c-30 0 -46 -25 -49 -49h-28c4 46 34 82 80 82c42 0 77 -50 108 -50zM818 708l-3 -19c-1 -11 -9 -17 -22 -18l-64 -2l-82 -669h-25c-8 0 -13 3 -17 10l-385 614c0 -10 -1 -20 -2 -29l-68 -555
l66 -2c13 -1 19 -7 18 -18l-2 -20h-216l3 20c1 11 9 17 22 18l65 2l77 628l-64 2c-13 1 -19 7 -18 18l2 20h110c8 0 14 -3 18 -10l383 -613c0 10 1 20 2 29l68 555l-67 2c-13 1 -18 7 -17 18l2 19h216z" />
    <glyph glyph-name="Ograve" unicode="&#xd2;" horiz-adv-x="747" 
d="M306 918c15 0 20 -1 30 -11l101 -103h-36c-8 0 -13 1 -18 6l-133 108h56zM712 354c-26 -213 -177 -362 -382 -362c-208 0 -319 157 -293 362c28 214 181 362 382 362c206 0 320 -153 293 -362zM659 354c23 190 -68 318 -246 318c-177 0 -300 -132 -323 -318
c-23 -191 68 -317 245 -317c186 0 303 136 324 317z" />
    <glyph glyph-name="Oacute" unicode="&#xd3;" horiz-adv-x="747" 
d="M497 810c-6 -4 -12 -6 -20 -6h-35l126 103c14 11 20 11 32 11h56zM712 354c-26 -213 -177 -362 -382 -362c-208 0 -319 157 -293 362c28 214 181 362 382 362c206 0 320 -153 293 -362zM659 354c23 190 -68 318 -246 318c-177 0 -300 -132 -323 -318
c-23 -191 68 -317 245 -317c186 0 303 136 324 317z" />
    <glyph glyph-name="Ocircumflex" unicode="&#xd4;" horiz-adv-x="747" 
d="M522 819c-5 0 -13 2 -16 5l-70 62l-8 8l-9 -8l-86 -62c-7 -5 -14 -5 -17 -5h-37l130 99h45l105 -99h-37zM712 354c-26 -213 -177 -362 -382 -362c-208 0 -319 157 -293 362c28 214 181 362 382 362c206 0 320 -153 293 -362zM659 354c23 190 -68 318 -246 318
c-177 0 -300 -132 -323 -318c-23 -191 68 -317 245 -317c186 0 303 136 324 317z" />
    <glyph glyph-name="Otilde" unicode="&#xd5;" horiz-adv-x="747" 
d="M474 876c30 0 46 24 50 49h27c-4 -43 -35 -82 -80 -82c-41 0 -75 50 -108 50c-30 0 -46 -25 -49 -49h-28c4 46 34 82 80 82c42 0 77 -50 108 -50zM712 354c-26 -213 -177 -362 -382 -362c-208 0 -319 157 -293 362c28 214 181 362 382 362c206 0 320 -153 293 -362z
M659 354c23 190 -68 318 -246 318c-177 0 -300 -132 -323 -318c-23 -191 68 -317 245 -317c186 0 303 136 324 317z" />
    <glyph glyph-name="Odieresis" unicode="&#xd6;" horiz-adv-x="747" 
d="M310 845c-23 0 -38 18 -36 41c2 22 23 40 46 40c22 0 37 -18 35 -40c-2 -23 -23 -41 -45 -41zM518 845c-23 0 -38 18 -36 41c2 22 23 40 46 40c22 0 37 -18 35 -40c-2 -23 -23 -41 -45 -41zM712 354c-26 -213 -177 -362 -382 -362c-208 0 -319 157 -293 362
c28 214 181 362 382 362c206 0 320 -153 293 -362zM659 354c23 190 -68 318 -246 318c-177 0 -300 -132 -323 -318c-23 -191 68 -317 245 -317c186 0 303 136 324 317z" />
    <glyph glyph-name="multiply" unicode="&#xd7;" horiz-adv-x="486" 
d="M270 335l164 -186l-29 -26l-164 186l-210 -187l-23 26l210 187l-161 184l29 27l162 -184l205 183l23 -27z" />
    <glyph glyph-name="Oslash" unicode="&#xd8;" horiz-adv-x="763" 
d="M745 740l-96 -111c60 -65 87 -162 72 -275c-26 -213 -177 -362 -382 -362c-78 0 -142 22 -191 60l-76 -88c-9 -11 -18 -16 -32 -16h-22l108 124c-66 66 -95 166 -80 282c28 214 181 362 382 362c81 0 148 -24 198 -65l64 74c10 10 15 15 27 15h28zM99 354
c-13 -104 9 -188 59 -244l436 503c-42 38 -100 59 -172 59c-177 0 -300 -132 -323 -318zM668 354c12 99 -7 181 -53 237l-435 -502c41 -34 96 -52 164 -52c186 0 303 136 324 317z" />
    <glyph glyph-name="Ugrave" unicode="&#xd9;" horiz-adv-x="754" 
d="M301 918c15 0 20 -1 30 -11l101 -103h-36c-8 0 -13 1 -18 6l-133 108h56zM305 -8c-165 0 -254 121 -233 278l48 399l-64 2c-13 1 -18 7 -17 18l2 19h233l-3 -19c-1 -11 -9 -17 -22 -18l-77 -2l-49 -399c-16 -134 55 -234 188 -234s230 99 246 234l48 399l-76 2
c-13 1 -19 7 -18 18l3 19h232l-3 -19c-1 -11 -9 -17 -22 -18l-65 -2l-48 -399c-21 -163 -141 -278 -303 -278z" />
    <glyph glyph-name="Uacute" unicode="&#xda;" horiz-adv-x="754" 
d="M492 810c-6 -4 -12 -6 -20 -6h-35l126 103c14 11 20 11 32 11h56zM305 -8c-165 0 -254 121 -233 278l48 399l-64 2c-13 1 -18 7 -17 18l2 19h233l-3 -19c-1 -11 -9 -17 -22 -18l-77 -2l-49 -399c-16 -134 55 -234 188 -234s230 99 246 234l48 399l-76 2
c-13 1 -19 7 -18 18l3 19h232l-3 -19c-1 -11 -9 -17 -22 -18l-65 -2l-48 -399c-21 -163 -141 -278 -303 -278z" />
    <glyph glyph-name="Ucircumflex" unicode="&#xdb;" horiz-adv-x="754" 
d="M517 819c-5 0 -13 2 -16 5l-70 62l-8 8l-9 -8l-86 -62c-7 -5 -14 -5 -17 -5h-37l130 99h45l105 -99h-37zM305 -8c-165 0 -254 121 -233 278l48 399l-64 2c-13 1 -18 7 -17 18l2 19h233l-3 -19c-1 -11 -9 -17 -22 -18l-77 -2l-49 -399c-16 -134 55 -234 188 -234
s230 99 246 234l48 399l-76 2c-13 1 -19 7 -18 18l3 19h232l-3 -19c-1 -11 -9 -17 -22 -18l-65 -2l-48 -399c-21 -163 -141 -278 -303 -278z" />
    <glyph glyph-name="Udieresis" unicode="&#xdc;" horiz-adv-x="754" 
d="M305 845c-23 0 -38 18 -36 41c2 22 23 40 46 40c22 0 37 -18 35 -40c-2 -23 -23 -41 -45 -41zM513 845c-23 0 -38 18 -36 41c2 22 23 40 46 40c22 0 37 -18 35 -40c-2 -23 -23 -41 -45 -41zM305 -8c-165 0 -254 121 -233 278l48 399l-64 2c-13 1 -18 7 -17 18l2 19h233
l-3 -19c-1 -11 -9 -17 -22 -18l-77 -2l-49 -399c-16 -134 55 -234 188 -234s230 99 246 234l48 399l-76 2c-13 1 -19 7 -18 18l3 19h232l-3 -19c-1 -11 -9 -17 -22 -18l-65 -2l-48 -399c-21 -163 -141 -278 -303 -278z" />
    <glyph glyph-name="Yacute" unicode="&#xdd;" horiz-adv-x="680" 
d="M418 810c-6 -4 -12 -6 -20 -6h-35l126 103c14 11 20 11 32 11h56zM670 708l-2 -19c-1 -11 -9 -17 -22 -18l-37 -2l-283 -377l-31 -252l64 -2c13 -1 19 -7 18 -18l-3 -20h-220l3 20c1 11 9 17 22 18l64 2l31 252l-190 377l-37 2c-13 1 -18 7 -17 18l2 19h185l-3 -19
c-2 -11 -9 -17 -22 -18l-52 -2l149 -299c5 -10 13 -35 16 -44c5 9 19 34 26 44l222 299l-52 2c-13 1 -19 7 -18 18l3 19h184z" />
    <glyph glyph-name="Thorn" unicode="&#xde;" horiz-adv-x="538" 
d="M81 0h-51l87 708h51l-18 -142h132c153 0 242 -66 225 -210c-17 -134 -134 -213 -277 -213h-131zM235 184c118 0 209 67 221 172c15 117 -57 168 -179 168h-132l-41 -340h131z" />
    <glyph glyph-name="germandbls" unicode="&#xdf;" horiz-adv-x="523" 
d="M338 716c96 0 170 -58 160 -140c-7 -55 -49 -99 -95 -127c-46 -27 -85 -54 -91 -89c-3 -37 21 -53 53 -68c83 -41 123 -58 114 -145c-12 -96 -90 -155 -190 -155c-59 0 -104 19 -146 61l14 17c10 11 21 8 30 0c36 -30 61 -43 110 -43c71 0 128 44 137 113
c8 55 -27 87 -85 109c-61 23 -94 53 -87 103c6 47 46 72 95 106c53 35 90 66 96 118c6 65 -49 104 -120 104c-114 0 -182 -74 -195 -180l-61 -500h-47l61 500c15 128 113 216 247 216z" />
    <glyph glyph-name="agrave" unicode="&#xe0;" horiz-adv-x="497" 
d="M239 716c8 0 13 -2 17 -4s7 -6 10 -12l64 -119h-27c-4 0 -7 0 -10 1s-5 4 -7 7l-93 127h46zM427 38c13 -1 19 -7 18 -18l-3 -20h-89c-6 0 -11 2 -13 5c-3 3 -4 7 -4 11l17 156c-13 -27 -27 -51 -42 -73s-31 -40 -48 -56s-35 -27 -54 -36s-39 -13 -59 -13
c-21 0 -39 4 -55 12s-30 20 -40 35c-11 15 -18 33 -23 54s-8 45 -8 72c0 29 3 57 10 85s18 55 32 80c13 25 29 48 48 69s39 39 62 54s46 27 72 36s52 13 79 13c20 0 39 -2 56 -5c17 -4 35 -9 52 -18l-54 -442c8 0 16 -1 23 -1h23zM321 165c15 27 28 58 40 91l25 203
c-20 7 -41 10 -64 10c-22 0 -44 -4 -65 -12s-40 -18 -59 -31c-18 -13 -36 -29 -51 -47s-29 -39 -40 -61s-21 -45 -27 -69s-9 -49 -9 -74c0 -45 8 -80 23 -105s39 -37 71 -37c19 0 38 5 56 16s36 25 53 45c17 19 32 44 47 71z" />
    <glyph glyph-name="aacute" unicode="&#xe1;" horiz-adv-x="497" 
d="M285 589c-3 -3 -6 -6 -9 -7s-6 -1 -10 -1h-29l93 119c4 6 9 10 13 12s11 4 19 4h47zM427 38c13 -1 19 -7 18 -18l-3 -20h-89c-6 0 -11 2 -13 5c-3 3 -4 7 -4 11l17 156c-13 -27 -27 -51 -42 -73s-31 -40 -48 -56s-35 -27 -54 -36s-39 -13 -59 -13c-21 0 -39 4 -55 12
s-30 20 -40 35c-11 15 -18 33 -23 54s-8 45 -8 72c0 29 3 57 10 85s18 55 32 80c13 25 29 48 48 69s39 39 62 54s46 27 72 36s52 13 79 13c20 0 39 -2 56 -5c17 -4 35 -9 52 -18l-54 -442c8 0 16 -1 23 -1h23zM321 165c15 27 28 58 40 91l25 203c-20 7 -41 10 -64 10
c-22 0 -44 -4 -65 -12s-40 -18 -59 -31c-18 -13 -36 -29 -51 -47s-29 -39 -40 -61s-21 -45 -27 -69s-9 -49 -9 -74c0 -45 8 -80 23 -105s39 -37 71 -37c19 0 38 5 56 16s36 25 53 45c17 19 32 44 47 71z" />
    <glyph glyph-name="acircumflex" unicode="&#xe2;" horiz-adv-x="497" 
d="M378 585c-5 0 -10 2 -13 6l-68 81c-2 1 -4 4 -5 6l-3 -4l-2 -2l-89 -81c-2 -2 -5 -4 -7 -5s-4 -1 -7 -1h-34l124 123h43l93 -123h-32zM427 38c13 -1 19 -7 18 -18l-3 -20h-89c-6 0 -11 2 -13 5c-3 3 -4 7 -4 11l17 156c-13 -27 -27 -51 -42 -73s-31 -40 -48 -56
s-35 -27 -54 -36s-39 -13 -59 -13c-21 0 -39 4 -55 12s-30 20 -40 35c-11 15 -18 33 -23 54s-8 45 -8 72c0 29 3 57 10 85s18 55 32 80c13 25 29 48 48 69s39 39 62 54s46 27 72 36s52 13 79 13c20 0 39 -2 56 -5c17 -4 35 -9 52 -18l-54 -442c8 0 16 -1 23 -1h23zM321 165
c15 27 28 58 40 91l25 203c-20 7 -41 10 -64 10c-22 0 -44 -4 -65 -12s-40 -18 -59 -31c-18 -13 -36 -29 -51 -47s-29 -39 -40 -61s-21 -45 -27 -69s-9 -49 -9 -74c0 -45 8 -80 23 -105s39 -37 71 -37c19 0 38 5 56 16s36 25 53 45c17 19 32 44 47 71z" />
    <glyph glyph-name="atilde" unicode="&#xe3;" horiz-adv-x="499" 
d="M346 640c14 0 26 5 34 14s14 21 16 37h29c-1 -12 -5 -24 -9 -34s-10 -19 -17 -27s-15 -14 -25 -18s-20 -6 -31 -6s-21 2 -30 8s-18 12 -26 18l-24 18c-8 6 -16 8 -25 8c-14 0 -26 -4 -34 -14s-13 -22 -16 -37h-31c1 12 4 24 9 34c5 11 11 19 18 27s15 14 25 18s21 7 32 7
s21 -3 30 -9s18 -12 26 -18l24 -18c8 -6 16 -8 25 -8zM428 38c13 -1 18 -7 17 -18l-2 -20h-89c-6 0 -11 2 -13 5c-3 3 -4 7 -4 11l16 156c-13 -27 -26 -51 -41 -73s-32 -40 -49 -56s-35 -27 -54 -36s-39 -13 -59 -13c-21 0 -39 4 -55 12s-29 20 -39 35c-11 15 -19 33 -24 54
s-8 45 -8 72c0 29 4 57 11 85s17 55 31 80c13 25 29 48 48 69s39 39 62 54s46 27 72 36s53 13 80 13c20 0 39 -2 56 -5c17 -4 34 -9 51 -18l-53 -442c8 0 15 -1 22 -1h24zM322 165c15 27 27 58 39 91l25 203c-20 7 -41 10 -64 10c-22 0 -44 -4 -65 -12s-40 -18 -59 -31
c-18 -13 -36 -29 -51 -47s-29 -39 -40 -61s-20 -45 -26 -69s-9 -49 -9 -74c0 -45 7 -80 22 -105s39 -37 71 -37c19 0 39 5 57 16s35 25 52 45c17 19 33 44 48 71z" />
    <glyph glyph-name="adieresis" unicode="&#xe4;" horiz-adv-x="498" 
d="M244 642c-1 -5 -2 -10 -5 -15s-7 -9 -11 -13s-9 -7 -14 -9s-11 -3 -16 -3s-10 1 -15 3s-9 5 -12 9s-5 8 -7 13s-3 10 -2 15c1 6 3 11 6 16s6 9 10 13s9 7 14 9s11 4 16 4s10 -2 15 -4s9 -5 12 -9s6 -8 8 -13s2 -10 1 -16zM416 642c-1 -5 -3 -10 -6 -15s-6 -9 -10 -13
s-9 -7 -14 -9s-12 -3 -17 -3c-6 0 -10 1 -15 3s-9 5 -12 9s-5 8 -7 13s-3 10 -2 15c1 6 3 11 6 16s6 9 10 13s9 7 14 9s10 4 16 4c5 0 11 -2 16 -4s9 -5 12 -9s5 -8 7 -13s3 -10 2 -16zM428 38c13 -1 18 -7 17 -18l-2 -20h-89c-6 0 -11 2 -13 5c-3 3 -4 7 -4 11l16 156
c-13 -27 -26 -51 -41 -73s-32 -40 -49 -56s-35 -27 -54 -36s-39 -13 -59 -13c-21 0 -39 4 -55 12s-29 20 -39 35c-11 15 -19 33 -24 54s-8 45 -8 72c0 29 4 57 11 85s17 55 31 80c13 25 29 48 48 69s39 39 62 54s46 27 72 36s53 13 80 13c20 0 39 -2 56 -5
c17 -4 34 -9 51 -18l-53 -442c8 0 15 -1 22 -1h24zM322 165c15 27 27 58 39 91l25 203c-20 7 -41 10 -64 10c-22 0 -44 -4 -65 -12s-40 -18 -59 -31c-18 -13 -36 -29 -51 -47s-29 -39 -40 -61s-20 -45 -26 -69s-9 -49 -9 -74c0 -45 7 -80 22 -105s39 -37 71 -37
c19 0 39 5 57 16s35 25 52 45c17 19 33 44 48 71z" />
    <glyph glyph-name="aring" unicode="&#xe5;" horiz-adv-x="496" 
d="M201 651c1 12 5 23 11 33s12 19 21 26s19 13 30 17s22 6 34 6s22 -2 32 -6s19 -10 26 -17s12 -16 15 -26s4 -21 3 -33s-5 -23 -11 -33s-12 -18 -21 -25s-19 -13 -30 -17s-22 -6 -34 -6s-23 2 -33 6s-18 10 -25 17s-12 15 -15 25s-4 21 -3 33zM230 651
c-2 -17 2 -30 11 -41s22 -16 39 -16s31 5 43 16s19 24 21 41s-2 30 -11 41s-22 16 -39 16s-31 -5 -43 -16s-19 -24 -21 -41zM427 38c13 -1 18 -7 17 -18l-2 -20h-89c-6 0 -11 2 -13 5c-3 3 -4 7 -4 11l16 156c-13 -27 -26 -51 -41 -73s-32 -40 -49 -56s-35 -27 -54 -36
s-39 -13 -59 -13c-21 0 -39 4 -55 12s-29 20 -39 35c-11 15 -19 33 -24 54s-8 45 -8 72c0 29 4 57 11 85s17 55 31 80c13 25 29 48 48 69s39 39 62 54s46 27 72 36s53 13 80 13c20 0 39 -2 56 -5c17 -4 34 -9 51 -18l-53 -442c8 0 15 -1 22 -1h24zM321 165
c15 27 27 58 39 91l25 203c-20 7 -41 10 -64 10c-22 0 -44 -4 -65 -12s-40 -18 -59 -31c-18 -13 -36 -29 -51 -47s-29 -39 -40 -61s-20 -45 -26 -69s-9 -49 -9 -74c0 -45 7 -80 22 -105s39 -37 71 -37c19 0 39 5 57 16s35 25 52 45c17 19 33 44 48 71z" />
    <glyph glyph-name="ae" unicode="&#xe6;" horiz-adv-x="717" 
d="M551 512c71 0 127 -41 127 -110c0 -110 -151 -144 -309 -144c-9 -126 27 -219 128 -219c71 0 92 22 156 73c10 8 17 6 23 0l11 -12c-62 -65 -116 -99 -198 -99c-84 0 -133 56 -151 136c-29 -83 -110 -138 -192 -138c-78 0 -126 38 -126 115c0 138 169 173 310 174
c17 112 8 186 -83 186c-49 0 -93 -23 -128 -53c-14 -12 -26 -8 -31 0l-8 13c54 52 109 79 172 79c75 0 112 -39 120 -114c38 71 100 113 179 113zM546 477c-100 0 -160 -90 -174 -190c138 6 264 28 264 113c0 51 -36 77 -90 77zM326 257c-124 -5 -261 -25 -261 -137
c0 -56 32 -87 89 -87c89 0 156 72 166 166z" />
    <glyph glyph-name="ccedilla" unicode="&#xe7;" horiz-adv-x="447" 
d="M391 64c-9 -10 -19 -19 -32 -28s-28 -17 -43 -23s-31 -10 -49 -14c-14 -3 -29 -4 -44 -5l-16 -40c29 -5 51 -12 65 -22s19 -25 17 -45c-1 -10 -5 -19 -10 -27s-12 -15 -21 -20s-19 -10 -31 -13s-25 -5 -38 -5c-14 0 -26 2 -39 6s-23 9 -31 15l7 14c2 4 6 6 9 6
c2 0 3 0 6 -2s7 -4 11 -6s10 -4 16 -6s14 -3 24 -3c17 0 31 4 41 11s16 17 18 30c1 8 0 16 -4 21c-4 6 -9 9 -17 13s-16 7 -27 9s-22 3 -35 5l25 59c-24 2 -45 8 -65 17c-25 11 -46 28 -62 50s-27 48 -34 80s-7 68 -2 108c5 38 13 73 27 104s32 58 54 81s48 40 77 53
s62 18 98 18c12 0 28 -2 51 -7s43 -11 60 -16l25 -8l-16 -125h-24c-14 0 -20 8 -19 24c0 1 1 5 1 12s1 16 1 28s1 25 2 38c-30 11 -58 17 -83 17c-29 0 -55 -5 -78 -15s-44 -25 -61 -44c-18 -19 -33 -42 -44 -69s-19 -57 -23 -91c-4 -35 -4 -66 1 -93s13 -50 26 -68
c13 -19 30 -32 50 -42s43 -15 69 -15c24 0 44 3 61 9s31 11 42 18s21 13 28 19s12 8 16 8s7 -2 9 -5z" />
    <glyph glyph-name="egrave" unicode="&#xe8;" horiz-adv-x="434" 
d="M223 716c8 0 13 -2 17 -4s7 -6 10 -12l64 -120h-27c-4 0 -7 1 -10 2s-5 4 -7 7l-93 127h46zM408 402c0 -14 -1 -27 -5 -39s-11 -24 -20 -35s-22 -21 -38 -31s-36 -19 -61 -27s-55 -16 -90 -22c-35 -7 -75 -12 -122 -17c-1 -7 -1 -14 -1 -21s-1 -13 -1 -20
c0 -50 12 -89 34 -117s56 -42 101 -42c18 0 34 2 48 6s27 9 38 15s22 12 30 19l22 19c7 6 13 11 18 15s9 5 13 5s7 -2 10 -5l11 -13c-16 -17 -32 -32 -47 -44s-31 -23 -47 -31s-32 -14 -49 -18s-36 -5 -55 -5c-28 0 -52 4 -74 13s-39 22 -54 39s-25 38 -33 62s-12 51 -12 81
c0 25 3 50 8 75s12 50 22 73s22 46 36 66s31 38 50 53s39 26 62 35s47 13 73 13c24 0 45 -3 62 -10s31 -15 41 -25c11 -10 18 -21 23 -33s7 -24 7 -34zM273 469c-27 0 -50 -6 -72 -17c-21 -11 -40 -26 -57 -45s-31 -40 -42 -65s-19 -51 -24 -78c42 5 78 10 109 16
s57 13 78 20s39 14 52 22s24 16 31 25c7 8 12 17 14 26s4 18 4 28c0 7 -2 15 -5 23s-8 15 -15 22s-17 13 -29 17c-12 5 -27 6 -44 6z" />
    <glyph glyph-name="eacute" unicode="&#xe9;" horiz-adv-x="434" 
d="M269 589c-3 -3 -6 -6 -9 -7s-7 -2 -11 -2h-28l93 120c4 6 9 10 13 12s10 4 18 4h47zM408 402c0 -14 -1 -27 -5 -39s-11 -24 -20 -35s-22 -21 -38 -31s-36 -19 -61 -27s-55 -16 -90 -22c-35 -7 -75 -12 -122 -17c-1 -7 -1 -14 -1 -21s-1 -13 -1 -20c0 -50 12 -89 34 -117
s56 -42 101 -42c18 0 34 2 48 6s27 9 38 15s22 12 30 19l22 19c7 6 13 11 18 15s9 5 13 5s7 -2 10 -5l11 -13c-16 -17 -32 -32 -47 -44s-31 -23 -47 -31s-32 -14 -49 -18s-36 -5 -55 -5c-28 0 -52 4 -74 13s-39 22 -54 39s-25 38 -33 62s-12 51 -12 81c0 25 3 50 8 75
s12 50 22 73s22 46 36 66s31 38 50 53s39 26 62 35s47 13 73 13c24 0 45 -3 62 -10s31 -15 41 -25c11 -10 18 -21 23 -33s7 -24 7 -34zM273 469c-27 0 -50 -6 -72 -17c-21 -11 -40 -26 -57 -45s-31 -40 -42 -65s-19 -51 -24 -78c42 5 78 10 109 16s57 13 78 20s39 14 52 22
s24 16 31 25c7 8 12 17 14 26s4 18 4 28c0 7 -2 15 -5 23s-8 15 -15 22s-17 13 -29 17c-12 5 -27 6 -44 6z" />
    <glyph glyph-name="ecircumflex" unicode="&#xea;" horiz-adv-x="434" 
d="M361 584c-5 0 -10 2 -13 6l-68 82c-2 1 -4 4 -5 6c-1 -1 -1 -3 -2 -4l-3 -2l-89 -82c-2 -2 -4 -3 -6 -4s-5 -2 -8 -2h-33l124 124h42l94 -124h-33zM408 402c0 -14 -1 -27 -5 -39s-11 -24 -20 -35s-22 -21 -38 -31s-36 -19 -61 -27s-55 -16 -90 -22
c-35 -7 -75 -12 -122 -17c-1 -7 -1 -14 -1 -21s-1 -13 -1 -20c0 -50 12 -89 34 -117s56 -42 101 -42c18 0 34 2 48 6s27 9 38 15s22 12 30 19l22 19c7 6 13 11 18 15s9 5 13 5s7 -2 10 -5l11 -13c-16 -17 -32 -32 -47 -44s-31 -23 -47 -31s-32 -14 -49 -18s-36 -5 -55 -5
c-28 0 -52 4 -74 13s-39 22 -54 39s-25 38 -33 62s-12 51 -12 81c0 25 3 50 8 75s12 50 22 73s22 46 36 66s31 38 50 53s39 26 62 35s47 13 73 13c24 0 45 -3 62 -10s31 -15 41 -25c11 -10 18 -21 23 -33s7 -24 7 -34zM273 469c-27 0 -50 -6 -72 -17
c-21 -11 -40 -26 -57 -45s-31 -40 -42 -65s-19 -51 -24 -78c42 5 78 10 109 16s57 13 78 20s39 14 52 22s24 16 31 25c7 8 12 17 14 26s4 18 4 28c0 7 -2 15 -5 23s-8 15 -15 22s-17 13 -29 17c-12 5 -27 6 -44 6z" />
    <glyph glyph-name="edieresis" unicode="&#xeb;" horiz-adv-x="437" 
d="M228 642c-1 -5 -3 -10 -6 -15s-6 -9 -10 -13s-10 -7 -15 -9s-11 -3 -16 -3s-10 1 -15 3s-9 5 -12 9s-5 8 -7 13s-2 10 -1 15c1 6 2 11 5 16s6 9 10 13s10 7 15 9s10 4 15 4s11 -2 16 -4s9 -5 12 -9s5 -8 7 -13s3 -10 2 -16zM399 642c-1 -5 -2 -10 -5 -15s-7 -9 -11 -13
s-9 -7 -14 -9s-11 -3 -16 -3c-6 0 -11 1 -16 3s-9 5 -12 9s-5 8 -7 13s-2 10 -1 15c1 6 2 11 5 16s6 9 10 13s10 7 15 9s10 4 16 4c5 0 10 -2 15 -4s9 -5 12 -9s6 -8 8 -13s2 -10 1 -16zM409 402c0 -14 -2 -27 -6 -39s-10 -24 -19 -35s-22 -21 -38 -31s-37 -19 -62 -27
s-54 -16 -89 -22c-35 -7 -75 -12 -122 -17c-1 -7 -2 -14 -2 -21v-20c0 -50 11 -89 33 -117s57 -42 102 -42c18 0 34 2 48 6s27 9 38 15s21 12 29 19s16 13 23 19s12 11 17 15s9 5 13 5s8 -2 11 -5l11 -13c-16 -17 -33 -32 -48 -44s-31 -23 -47 -31s-32 -14 -49 -18
s-35 -5 -54 -5c-28 0 -52 4 -74 13s-40 22 -55 39s-25 38 -33 62s-12 51 -12 81c0 25 3 50 8 75s12 50 22 73s23 46 37 66s30 38 49 53s39 26 62 35s48 13 74 13c24 0 45 -3 62 -10s31 -15 41 -25c11 -10 17 -21 22 -33s8 -24 8 -34zM274 469c-27 0 -51 -6 -73 -17
c-21 -11 -40 -26 -57 -45s-30 -40 -41 -65s-20 -51 -25 -78c42 5 79 10 110 16s57 13 78 20s38 14 51 22s24 16 31 25c7 8 13 17 15 26s4 18 4 28c0 7 -2 15 -5 23s-9 15 -16 22s-17 13 -29 17c-12 5 -26 6 -43 6z" />
    <glyph glyph-name="igrave" unicode="&#xec;" horiz-adv-x="216" 
d="M108 716c8 0 14 -2 18 -4s7 -6 10 -12l64 -120h-27c-4 0 -7 1 -10 2s-6 4 -8 7l-93 127h46zM156 38c13 -1 19 -7 18 -18l-2 -20h-120l10 80l46 378c-9 0 -17 1 -24 1h-15c-3 0 -6 1 -8 1h-5c-13 1 -19 7 -18 18l3 20h119l-56 -458c9 0 17 -1 24 -1s12 -1 15 -1h13z" />
    <glyph glyph-name="iacute" unicode="&#xed;" horiz-adv-x="279" 
d="M150 589c-3 -3 -6 -6 -9 -7s-6 -2 -10 -2h-29l93 120c4 6 9 10 13 12s11 4 19 4h47zM153 38c13 -1 19 -7 18 -18l-2 -20h-120l10 80l46 378c-9 0 -17 1 -24 1h-15c-3 0 -6 1 -8 1h-5c-13 1 -19 7 -18 18l3 20h119l-56 -458c9 0 17 -1 24 -1s12 -1 15 -1h13z" />
    <glyph glyph-name="icircumflex" unicode="&#xee;" horiz-adv-x="291" 
d="M254 584c-5 0 -9 2 -12 6l-68 82c-2 1 -4 4 -5 6l-3 -4c-1 -1 -2 -1 -3 -2l-88 -82c-2 -2 -5 -3 -7 -4s-5 -2 -8 -2h-33l124 124h43l93 -124h-33zM160 38c13 -1 19 -7 18 -18l-3 -20h-119l10 80l46 378c-9 0 -17 1 -24 1h-15c-3 0 -6 1 -8 1h-5c-13 1 -19 7 -18 18l3 20
h119l-56 -458c9 0 17 -1 24 -1s12 -1 15 -1h13z" />
    <glyph glyph-name="idieresis" unicode="&#xef;" horiz-adv-x="310" 
d="M132 642c-1 -5 -3 -10 -6 -15s-6 -9 -10 -13s-9 -7 -14 -9s-12 -3 -17 -3s-9 1 -14 3s-9 5 -12 9s-6 8 -8 13s-2 10 -1 15c1 6 2 11 5 16s7 9 11 13s9 7 14 9s10 4 15 4s11 -2 16 -4s9 -5 12 -9s5 -8 7 -13s3 -10 2 -16zM303 642c-1 -5 -2 -10 -5 -15s-7 -9 -11 -13
s-9 -7 -14 -9s-11 -3 -16 -3c-6 0 -10 1 -15 3s-9 5 -12 9s-6 8 -8 13s-2 10 -1 15c1 6 2 11 5 16s7 9 11 13s9 7 14 9s10 3 16 3c5 0 10 -1 15 -3s9 -5 12 -9s6 -8 8 -13s2 -10 1 -16zM168 38c13 -1 19 -7 18 -18l-2 -20h-120l10 80l46 378c-9 0 -17 1 -24 1h-15
c-3 0 -6 1 -8 1h-5c-13 1 -19 7 -18 18l3 20h120l-57 -458c9 0 18 -1 25 -1s12 -1 15 -1h12z" />
    <glyph glyph-name="eth" unicode="&#xf0;" horiz-adv-x="520" 
d="M245 535c-3 9 -2 12 5 19l69 55c-36 21 -84 38 -127 47c-10 3 -15 9 -12 18l10 22c60 -10 117 -30 164 -61l85 68l7 -15c3 -9 -2 -16 -6 -19l-64 -50c96 -81 121 -196 105 -319c-23 -180 -109 -306 -267 -306c-131 0 -205 99 -190 234c17 133 113 232 246 232
c83 0 146 -45 174 -116c3 104 -24 192 -102 250l-91 -73zM220 32c127 0 192 108 214 250c-15 85 -76 141 -161 141c-115 0 -189 -86 -201 -195c-14 -114 45 -196 148 -196z" />
    <glyph glyph-name="ntilde" unicode="&#xf1;" horiz-adv-x="562" 
d="M379 640c14 0 26 5 34 14s14 21 16 37h30c-1 -12 -5 -24 -9 -34s-11 -19 -18 -27s-15 -14 -25 -18s-20 -7 -31 -7s-21 3 -30 9s-18 12 -26 18l-24 18c-8 6 -16 8 -25 8c-14 0 -26 -4 -34 -14s-13 -22 -16 -37h-31c1 12 4 24 9 34c5 11 11 19 18 27s16 14 26 18s20 6 31 6
s22 -2 31 -8s17 -12 25 -18l24 -18c8 -6 16 -8 25 -8zM497 38c13 -1 19 -7 18 -18l-2 -20h-120l39 318c6 47 -1 83 -19 110c-18 26 -49 39 -93 39c-33 0 -64 -8 -94 -25s-57 -40 -83 -69l-35 -279l-11 -94h-48l5 40l52 418c-9 0 -18 1 -25 1h-15c-3 0 -5 1 -7 1h-6
c-13 1 -18 7 -17 18l2 19h98c9 0 14 -4 14 -12l-5 -75c26 29 56 51 88 69s67 26 104 26c27 0 51 -4 71 -13s35 -21 47 -37s19 -36 23 -59s5 -49 1 -78l-34 -278c9 0 17 -1 24 -1s13 -1 16 -1h12z" />
    <glyph glyph-name="ograve" unicode="&#xf2;" horiz-adv-x="519" 
d="M255 716c8 0 14 -2 18 -4s7 -6 10 -12l64 -119h-27c-4 0 -7 0 -10 1s-6 4 -8 7l-93 127h46zM286 506c36 0 67 -7 94 -19s47 -29 64 -51s29 -49 35 -81s7 -67 2 -106s-14 -74 -28 -105s-32 -59 -54 -81s-48 -39 -78 -51s-62 -18 -98 -18s-66 6 -93 18s-48 29 -65 51
s-29 50 -35 81s-7 66 -2 105s14 74 28 106s32 59 54 81s48 39 78 51s62 19 98 19zM228 31c30 0 56 5 79 15s44 25 61 44s31 42 42 69s18 57 22 90s4 63 0 90s-13 50 -25 69s-29 35 -50 45s-46 15 -76 15s-56 -5 -79 -15s-44 -26 -61 -45s-31 -42 -42 -69s-18 -57 -22 -90
s-4 -63 0 -90s13 -50 25 -69s29 -34 50 -44s46 -15 76 -15z" />
    <glyph glyph-name="oacute" unicode="&#xf3;" horiz-adv-x="519" 
d="M301 589c-3 -3 -6 -6 -9 -7s-6 -1 -10 -1h-29l93 119c4 6 9 10 13 12s11 4 19 4h47zM286 506c36 0 67 -7 94 -19s47 -29 64 -51s29 -49 35 -81s7 -67 2 -106s-14 -74 -28 -105s-32 -59 -54 -81s-48 -39 -78 -51s-62 -18 -98 -18s-66 6 -93 18s-48 29 -65 51
s-29 50 -35 81s-7 66 -2 105s14 74 28 106s32 59 54 81s48 39 78 51s62 19 98 19zM228 31c30 0 56 5 79 15s44 25 61 44s31 42 42 69s18 57 22 90s4 63 0 90s-13 50 -25 69s-29 35 -50 45s-46 15 -76 15s-56 -5 -79 -15s-44 -26 -61 -45s-31 -42 -42 -69s-18 -57 -22 -90
s-4 -63 0 -90s13 -50 25 -69s29 -34 50 -44s46 -15 76 -15z" />
    <glyph glyph-name="ocircumflex" unicode="&#xf4;" horiz-adv-x="519" 
d="M394 584c-5 0 -10 2 -13 6l-68 82c-2 1 -4 4 -5 6l-3 -4l-2 -2l-89 -82c-2 -2 -4 -3 -6 -4s-5 -1 -8 -1h-34l124 123h43l93 -123zM286 506c36 0 67 -7 94 -19s47 -29 64 -51s29 -49 35 -81s7 -67 2 -106s-14 -74 -28 -105s-32 -59 -54 -81s-48 -39 -78 -51
s-62 -18 -98 -18s-66 6 -93 18s-48 29 -65 51s-29 50 -35 81s-7 66 -2 105s14 74 28 106s32 59 54 81s48 39 78 51s62 19 98 19zM228 31c30 0 56 5 79 15s44 25 61 44s31 42 42 69s18 57 22 90s4 63 0 90s-13 50 -25 69s-29 35 -50 45s-46 15 -76 15s-56 -5 -79 -15
s-44 -26 -61 -45s-31 -42 -42 -69s-18 -57 -22 -90s-4 -63 0 -90s13 -50 25 -69s29 -34 50 -44s46 -15 76 -15z" />
    <glyph glyph-name="otilde" unicode="&#xf5;" horiz-adv-x="520" 
d="M361 640c14 0 26 5 34 14s14 21 16 37h30c-1 -12 -5 -24 -9 -34s-10 -19 -17 -27s-15 -14 -25 -18s-21 -6 -32 -6s-21 2 -30 8s-18 12 -26 18l-24 18c-8 6 -16 8 -25 8c-14 0 -25 -4 -33 -14s-14 -22 -17 -37h-30c1 12 4 24 9 34c5 11 11 19 18 27s15 14 25 18s20 7 31 7
s22 -3 31 -9s18 -12 26 -18l23 -18c8 -6 16 -8 25 -8zM287 506c36 0 66 -7 93 -19s48 -29 65 -51s28 -49 34 -81s8 -67 3 -106s-15 -74 -29 -105s-32 -59 -54 -81s-47 -39 -77 -51s-62 -18 -98 -18s-67 6 -94 18s-48 29 -65 51s-29 50 -35 81s-7 66 -2 105s14 74 28 106
s33 59 55 81s48 39 78 51s62 19 98 19zM228 31c30 0 57 5 80 15s44 25 61 44s31 42 42 69s18 57 22 90s4 63 0 90s-13 50 -25 69s-29 35 -50 45s-46 15 -76 15s-57 -5 -80 -15s-44 -26 -61 -45s-31 -42 -42 -69s-18 -57 -22 -90s-4 -63 0 -90s13 -50 25 -69s29 -34 50 -44
s46 -15 76 -15z" />
    <glyph glyph-name="odieresis" unicode="&#xf6;" horiz-adv-x="520" 
d="M259 642c-1 -5 -2 -10 -5 -15s-7 -9 -11 -13s-9 -7 -14 -9s-11 -3 -16 -3s-10 1 -15 3s-9 5 -12 9s-5 8 -7 13s-3 10 -2 15c1 6 3 11 6 16s6 9 10 13s9 7 14 9s11 4 16 4s10 -2 15 -4s9 -5 12 -9s6 -8 8 -13s2 -10 1 -16zM431 642c-1 -5 -3 -10 -6 -15s-6 -9 -10 -13
s-9 -7 -14 -9s-12 -3 -17 -3c-6 0 -10 1 -15 3s-9 5 -12 9s-5 8 -7 13s-3 10 -2 15c1 6 3 11 6 16s6 9 10 13s9 7 14 9s10 4 16 4c5 0 11 -2 16 -4s9 -5 12 -9s5 -8 7 -13s3 -10 2 -16zM287 506c36 0 66 -7 93 -19s48 -29 65 -51s28 -49 34 -81s8 -67 3 -106
s-15 -74 -29 -105s-32 -59 -54 -81s-47 -39 -77 -51s-62 -18 -98 -18s-67 6 -94 18s-48 29 -65 51s-29 50 -35 81s-7 66 -2 105s14 74 28 106s33 59 55 81s48 39 78 51s62 19 98 19zM228 31c30 0 57 5 80 15s44 25 61 44s31 42 42 69s18 57 22 90s4 63 0 90s-13 50 -25 69
s-29 35 -50 45s-46 15 -76 15s-57 -5 -80 -15s-44 -26 -61 -45s-31 -42 -42 -69s-18 -57 -22 -90s-4 -63 0 -90s13 -50 25 -69s29 -34 50 -44s46 -15 76 -15z" />
    <glyph glyph-name="divide" unicode="&#xf7;" horiz-adv-x="526" 
d="M280 466c-25 0 -43 22 -41 47s27 47 53 47s43 -22 40 -47c-1 -25 -26 -47 -52 -47zM501 354l-4 -37h-469l4 37h469zM237 110c-25 0 -43 22 -41 47s27 47 53 47s43 -22 40 -47c-1 -25 -26 -47 -52 -47z" />
    <glyph glyph-name="oslash" unicode="&#xf8;" horiz-adv-x="522" 
d="M544 531l-91 -106c28 -44 39 -105 30 -176c-20 -155 -113 -255 -258 -255c-48 0 -88 11 -118 32l-42 -48c-10 -12 -24 -16 -33 -16h-20l72 82c-47 45 -65 118 -54 205c20 156 114 257 258 257c64 0 113 -21 147 -57l58 67c9 11 12 15 26 15h25zM79 249
c-9 -73 2 -133 34 -171l292 337c-25 33 -65 53 -122 53c-125 0 -189 -96 -204 -219zM434 249c7 55 3 102 -14 139l-286 -330c25 -17 56 -27 96 -27c125 0 188 94 204 218z" />
    <glyph glyph-name="ugrave" unicode="&#xf9;" horiz-adv-x="560" 
d="M273 716c8 0 14 -2 18 -4s7 -6 10 -12l64 -119h-27c-4 0 -7 0 -10 1s-6 4 -8 7l-93 127h46zM492 38c13 -1 18 -7 17 -18l-2 -20h-98c-9 0 -14 4 -13 13l4 74c-27 -29 -56 -52 -88 -69s-67 -26 -104 -26c-28 0 -51 4 -71 13s-35 22 -47 38s-20 36 -24 59s-5 49 -1 78
l35 278c-9 0 -18 1 -25 1h-15c-3 0 -5 1 -7 1h-6c-13 1 -18 7 -17 18l2 19h72l48 1l-39 -318c-6 -47 0 -83 18 -110c18 -26 49 -40 93 -40c32 0 64 9 94 25c30 17 58 40 84 69l42 334c-9 0 -18 1 -25 1h-15c-3 0 -5 1 -7 1h-6c-13 1 -18 7 -17 18l2 19h72l48 1l-56 -458
c9 0 17 -1 24 -1s12 -1 15 -1h13z" />
    <glyph glyph-name="uacute" unicode="&#xfa;" horiz-adv-x="560" 
d="M319 589c-3 -3 -6 -6 -9 -7s-6 -1 -10 -1h-29l93 119c4 6 9 10 13 12s11 4 19 4h47zM492 38c13 -1 18 -7 17 -18l-2 -20h-98c-9 0 -14 4 -13 13l4 74c-27 -29 -56 -52 -88 -69s-67 -26 -104 -26c-28 0 -51 4 -71 13s-35 22 -47 38s-20 36 -24 59s-5 49 -1 78l35 278
c-9 0 -18 1 -25 1h-15c-3 0 -5 1 -7 1h-6c-13 1 -18 7 -17 18l2 19h72l48 1l-39 -318c-6 -47 0 -83 18 -110c18 -26 49 -40 93 -40c32 0 64 9 94 25c30 17 58 40 84 69l42 334c-9 0 -18 1 -25 1h-15c-3 0 -5 1 -7 1h-6c-13 1 -18 7 -17 18l2 19h72l48 1l-56 -458
c9 0 17 -1 24 -1s12 -1 15 -1h13z" />
    <glyph glyph-name="ucircumflex" unicode="&#xfb;" horiz-adv-x="560" 
d="M412 585c-5 0 -10 2 -13 6l-68 81c-2 1 -4 4 -5 6l-3 -4c-1 -1 -2 -1 -3 -2l-88 -81c-2 -2 -5 -4 -7 -5s-4 -1 -7 -1h-34l124 123h43l93 -123h-32zM492 38c13 -1 18 -7 17 -18l-2 -20h-98c-9 0 -14 4 -13 13l4 74c-27 -29 -56 -52 -88 -69s-67 -26 -104 -26
c-28 0 -51 4 -71 13s-35 22 -47 38s-20 36 -24 59s-5 49 -1 78l35 278c-9 0 -18 1 -25 1h-15c-3 0 -5 1 -7 1h-6c-13 1 -18 7 -17 18l2 19h72l48 1l-39 -318c-6 -47 0 -83 18 -110c18 -26 49 -40 93 -40c32 0 64 9 94 25c30 17 58 40 84 69l42 334c-9 0 -18 1 -25 1h-15
c-3 0 -5 1 -7 1h-6c-13 1 -18 7 -17 18l2 19h72l48 1l-56 -458c9 0 17 -1 24 -1s12 -1 15 -1h13z" />
    <glyph glyph-name="udieresis" unicode="&#xfc;" horiz-adv-x="560" 
d="M277 642c-1 -5 -3 -10 -6 -15s-6 -9 -10 -13s-10 -7 -15 -9s-11 -3 -16 -3s-10 1 -15 3s-9 5 -12 9s-5 8 -7 13s-2 10 -1 15c1 6 2 11 5 16s6 9 10 13s10 7 15 9s10 4 15 4s11 -2 16 -4s9 -5 12 -9s5 -8 7 -13s3 -10 2 -16zM448 642c-1 -5 -2 -10 -5 -15s-7 -9 -11 -13
s-9 -7 -14 -9s-11 -3 -16 -3c-6 0 -11 1 -16 3s-9 5 -12 9s-5 8 -7 13s-2 10 -1 15c1 6 2 11 5 16s6 9 10 13s10 7 15 9s10 4 16 4c5 0 10 -2 15 -4s9 -5 12 -9s6 -8 8 -13s2 -10 1 -16zM492 38c13 -1 18 -7 17 -18l-2 -20h-98c-9 0 -14 4 -13 13l4 74
c-27 -29 -56 -52 -88 -69s-67 -26 -104 -26c-28 0 -51 4 -71 13s-35 22 -47 38s-20 36 -24 59s-5 49 -1 78l35 278c-9 0 -18 1 -25 1h-15c-3 0 -5 1 -7 1h-6c-13 1 -18 7 -17 18l2 19h72l48 1l-39 -318c-6 -47 0 -83 18 -110c18 -26 49 -40 93 -40c32 0 64 9 94 25
c30 17 58 40 84 69l42 334c-9 0 -18 1 -25 1h-15c-3 0 -5 1 -7 1h-6c-13 1 -18 7 -17 18l2 19h72l48 1l-56 -458c9 0 17 -1 24 -1s12 -1 15 -1h13z" />
    <glyph glyph-name="yacute" unicode="&#xfd;" horiz-adv-x="577" 
d="M322 589c-3 -3 -6 -6 -9 -7s-6 -1 -10 -1h-29l93 119c4 6 9 10 13 12s11 4 19 4h47zM563 497l-2 -19c-1 -11 -9 -17 -22 -18h-5c-2 0 -5 -1 -11 -1h-19l-345 -619c-3 -5 -5 -8 -9 -11s-8 -5 -14 -5h-34l111 194l-139 441c-20 1 -31 1 -31 1c-13 1 -18 7 -17 18l2 19h174
l-2 -19c-1 -11 -9 -17 -22 -18h-6c-2 0 -8 -1 -16 -1s-19 -1 -30 -1l111 -360c1 -5 3 -10 4 -15s1 -10 2 -15c2 5 4 10 7 15c2 5 5 10 8 15l198 360c-9 0 -17 1 -24 1h-15c-3 0 -5 1 -7 1h-6c-13 1 -18 7 -17 18l2 19h174z" />
    <glyph glyph-name="thorn" unicode="&#xfe;" horiz-adv-x="521" 
d="M124 728h48l-39 -318c53 59 113 96 186 96c136 0 181 -104 163 -254c-16 -143 -109 -258 -248 -258c-64 0 -111 22 -143 76l-30 -246h-47zM301 468c-70 0 -130 -43 -173 -98l-32 -261c28 -55 70 -78 133 -78c122 0 188 94 204 221c16 132 -19 216 -132 216z" />
    <glyph glyph-name="ydieresis" unicode="&#xff;" horiz-adv-x="578" 
d="M280 642c-1 -5 -2 -10 -5 -15s-7 -9 -11 -13s-9 -7 -14 -9s-11 -3 -16 -3s-10 1 -15 3s-9 5 -12 9s-6 8 -8 13s-2 10 -1 15c1 6 2 11 5 16s7 9 11 13s9 7 14 9s11 4 16 4s10 -2 15 -4s9 -5 12 -9s6 -8 8 -13s2 -10 1 -16zM452 642c-1 -5 -3 -10 -6 -15s-6 -9 -10 -13
s-10 -7 -15 -9s-11 -3 -16 -3c-6 0 -10 1 -15 3s-9 5 -12 9s-6 8 -8 13s-2 10 -1 15c1 6 2 11 5 16s7 9 11 13s9 7 14 9s10 4 16 4c5 0 11 -2 16 -4s9 -5 12 -9s5 -8 7 -13s3 -10 2 -16zM564 497l-3 -19c-1 -11 -9 -17 -22 -18h-5c-2 0 -5 -1 -11 -1h-18l-345 -619
c-3 -5 -6 -8 -10 -11s-8 -5 -14 -5h-34l112 194l-140 441c-20 1 -30 1 -30 1c-13 1 -19 7 -18 18l3 19h174l-3 -19c-1 -11 -9 -17 -22 -18h-6c-2 0 -8 -1 -16 -1s-19 -1 -30 -1l112 -360l6 -30c2 5 4 10 7 15c2 5 4 10 7 15l198 360c-9 0 -17 1 -24 1h-15c-3 0 -5 1 -7 1h-5
c-13 1 -19 7 -18 18l3 19h174z" />
    <glyph glyph-name="Aogonek" unicode="&#x104;" horiz-adv-x="754" 
d="M738 38c14 -1 19 -7 18 -18l-3 -20h-68c-39 -22 -73 -51 -77 -88c-4 -36 20 -50 51 -50c18 0 37 4 50 13c4 3 10 3 13 -2l7 -15c-22 -17 -54 -27 -83 -27c-48 0 -82 25 -76 71c4 42 42 73 82 98h-119l3 20c1 11 8 17 22 18l59 2l-2 6l-52 186h-338l-97 -186l-3 -6l61 -2
c14 -1 19 -7 18 -18l-3 -20h-220l3 20c1 11 8 17 22 18l64 2h2l3 6l352 662h51l189 -662l2 -6h5zM246 270h306l-97 345c-2 10 -7 29 -9 41c-4 -12 -14 -32 -19 -42z" />
    <glyph glyph-name="aogonek" unicode="&#x105;" horiz-adv-x="502" 
d="M429 38c13 -1 19 -7 18 -18l-3 -20h-70c-7 -4 -15 -9 -23 -15s-16 -13 -23 -21s-14 -17 -19 -27s-7 -21 -7 -32c0 -14 5 -25 13 -33s19 -12 33 -12c9 0 16 1 22 3s12 4 16 6s7 4 9 6s4 3 6 3c3 0 5 -1 6 -4l5 -17c-9 -8 -20 -14 -34 -19c-13 -5 -28 -7 -42 -7
c-22 0 -39 6 -51 17c-13 11 -19 26 -19 45c0 12 3 23 7 34c5 11 10 20 18 29s16 18 25 26s19 14 29 20l-3 3s-1 1 -1 2l-1 1c-1 2 -2 5 -2 8h1c0 1 -1 1 -1 2l17 154c-13 -27 -27 -51 -42 -73s-31 -40 -48 -56s-36 -27 -55 -36s-39 -13 -59 -13c-21 0 -39 4 -55 12
s-29 20 -39 35s-19 33 -24 54s-8 45 -8 72c0 29 4 57 11 85s18 55 32 80c13 25 29 48 48 69s39 39 62 54s46 27 72 36s52 13 79 13c20 0 39 -2 56 -5c17 -4 35 -9 52 -18v-1l-44 -363l-10 -78c8 0 16 -1 23 -1h23zM388 459c-20 7 -41 10 -64 10c-22 0 -44 -4 -65 -12
s-40 -18 -59 -31c-18 -13 -36 -29 -51 -47s-30 -39 -41 -61s-20 -45 -26 -69c-5 -18 -7 -37 -8 -56c0 -6 -1 -12 -1 -18c0 -45 8 -80 23 -105s39 -37 71 -37c19 0 38 5 56 16s36 25 53 45c17 19 32 44 47 71s28 58 40 91z" />
    <glyph glyph-name="Cacute" unicode="&#x106;" horiz-adv-x="655" 
d="M505 810c-6 -4 -12 -6 -20 -6h-35l126 103c14 11 20 11 32 11h56zM591 94c-73 -69 -164 -102 -266 -102c-207 0 -314 160 -288 362c28 212 181 361 391 361c66 0 140 -16 220 -50l-20 -160h-24c-14 0 -20 8 -19 24l8 109c-49 23 -106 33 -170 33
c-182 0 -311 -133 -333 -317c-22 -187 70 -318 244 -318c93 0 155 24 221 78c5 4 14 7 19 1z" />
    <glyph glyph-name="cacute" unicode="&#x107;" horiz-adv-x="447" 
d="M300 589c-3 -3 -6 -6 -9 -7s-6 -1 -10 -1h-29l93 119c4 6 10 10 14 12s10 4 18 4h47zM389 64c-9 -10 -19 -19 -32 -28s-27 -17 -42 -23s-32 -10 -50 -14s-35 -6 -54 -6c-32 0 -60 6 -85 18c-25 11 -45 28 -61 50s-27 48 -34 80s-8 68 -3 108c5 38 14 73 28 104
s32 58 54 81s48 40 77 53s62 18 98 18c12 0 28 -2 51 -7s42 -11 59 -16l25 -8l-15 -125h-24c-14 0 -20 8 -19 24v12c0 7 1 16 1 28s1 25 2 38c-30 11 -57 17 -82 17c-29 0 -56 -5 -79 -15s-44 -25 -61 -44c-18 -19 -32 -42 -43 -69s-19 -57 -23 -91c-4 -35 -4 -66 1 -93
s13 -50 26 -68c13 -19 29 -32 49 -42s43 -15 69 -15c24 0 45 3 62 9s31 11 42 18s20 13 27 19s12 8 16 8s7 -2 9 -5z" />
    <glyph glyph-name="Eogonek" unicode="&#x118;" horiz-adv-x="622" 
d="M103 707h509l-6 -42l-12 -104h-25c-14 0 -19 8 -18 24l6 80h-323l-35 -286h281l-5 -41h-281l-37 -295h323l14 79c3 16 10 25 24 25h25l-18 -147h-61c-39 -22 -73 -51 -77 -88c-4 -36 20 -50 51 -50c18 0 37 4 50 13c4 3 10 3 13 -2l7 -15c-22 -17 -54 -27 -83 -27
c-48 0 -82 25 -76 71c4 42 42 73 82 98h-415l3 20c1 11 9 17 22 18l65 2l77 628l-64 2c-13 1 -19 7 -18 18z" />
    <glyph glyph-name="eogonek" unicode="&#x119;" horiz-adv-x="434" 
d="M72 231c-1 -7 -1 -14 -1 -21s-1 -13 -1 -20c0 -50 12 -89 34 -117s57 -42 102 -42c18 0 33 2 47 6s27 9 38 15s22 12 30 19l22 19c7 6 13 11 18 15s9 5 13 5s7 -2 10 -5l11 -13c-16 -16 -30 -30 -45 -42s-30 -22 -45 -30s-30 -15 -46 -19c-3 -1 -6 -1 -9 -2
c-7 -4 -14 -8 -22 -14s-16 -13 -23 -21s-14 -17 -19 -27s-7 -21 -7 -32c0 -14 5 -25 13 -33s19 -12 33 -12c9 0 16 1 22 3s12 4 16 6s7 4 9 6s4 2 6 2c3 0 5 0 6 -3l5 -17c-9 -8 -20 -14 -34 -19c-13 -5 -28 -7 -42 -7c-22 0 -39 6 -51 17s-19 26 -19 45c0 10 1 21 5 30
c4 10 9 18 15 27s13 16 21 24c8 7 15 14 24 20h-11c-28 0 -53 4 -74 13s-39 22 -54 39s-26 38 -34 62s-11 51 -11 81c0 25 3 50 8 75s12 50 22 73s22 46 36 66s31 38 50 53s39 26 62 35s48 13 74 13c24 0 44 -3 61 -10s30 -15 41 -25c10 -10 18 -21 23 -33s7 -24 7 -34
c0 -14 -2 -27 -6 -39s-10 -24 -19 -35s-22 -21 -38 -31s-37 -19 -62 -27s-54 -15 -89 -22s-75 -12 -122 -17zM102 342c-11 -25 -20 -51 -25 -78c42 5 79 10 110 16s57 13 78 20s39 14 52 22s23 17 30 25c7 9 13 17 15 26s4 18 4 28c0 7 -2 15 -5 23s-9 15 -16 22
s-16 13 -28 17c-12 5 -27 6 -44 6c-27 0 -51 -6 -72 -17s-40 -26 -57 -45c-16 -19 -31 -40 -42 -65z" />
    <glyph glyph-name="dotlessi" unicode="&#x131;" horiz-adv-x="203" 
d="M154 38c13 -1 18 -7 17 -18l-2 -20h-120l57 458l-53 2c-13 1 -18 7 -17 18l2 20h120l-56 -458z" />
    <glyph glyph-name="Lslash" unicode="&#x141;" horiz-adv-x="558" 
d="M495 132h20l-16 -132h-479l2 20c1 11 9 17 22 18l64 2l32 254l-104 -51l4 33c1 6 5 12 11 15l94 46l41 331l-64 2c-13 1 -19 7 -18 18l2 20h220l-3 -20c-1 -11 -9 -17 -22 -18l-64 -2l-38 -307l222 109l-4 -32c-1 -7 -3 -11 -12 -15l-212 -106l-33 -273h293l13 64
c4 21 14 24 29 24z" />
    <glyph glyph-name="lslash" unicode="&#x142;" horiz-adv-x="312" 
d="M300 476l-3 -25c-2 -9 -6 -13 -12 -16l-94 -42l-43 -353l52 -2c13 -1 19 -7 18 -18l-3 -20h-191l2 20c1 11 9 17 22 18l53 2l41 335l-103 -45l3 26c1 7 5 12 11 15l93 42l34 275l-52 2c-13 1 -19 7 -18 18l3 20h120l-37 -297z" />
    <glyph glyph-name="Nacute" unicode="&#x143;" horiz-adv-x="827" 
d="M530 810c-6 -4 -12 -6 -20 -6h-35l126 103c14 11 20 11 32 11h56zM818 708l-3 -19c-1 -11 -9 -17 -22 -18l-64 -2l-82 -669h-25c-8 0 -13 3 -17 10l-385 614c0 -10 -1 -20 -2 -29l-68 -555l66 -2c13 -1 19 -7 18 -18l-2 -20h-216l3 20c1 11 9 17 22 18l65 2l77 628l-64 2
c-13 1 -19 7 -18 18l2 20h110c8 0 14 -3 18 -10l383 -613c0 10 1 20 2 29l68 555l-67 2c-13 1 -18 7 -17 18l2 19h216z" />
    <glyph glyph-name="nacute" unicode="&#x144;" horiz-adv-x="602" 
d="M362 589c-3 -3 -7 -6 -10 -7s-6 -2 -10 -2h-28l93 119c4 6 9 11 13 13s10 3 18 3h47zM538 38c13 -1 19 -7 18 -18l-3 -20h-119l39 318c6 47 -1 83 -19 110c-18 26 -49 39 -93 39c-33 0 -64 -8 -94 -25s-57 -40 -83 -69l-41 -333c9 0 17 -1 24 -1s12 -1 15 -1h13
c13 -1 18 -7 17 -18l-2 -20h-192l2 20c1 11 9 17 22 18h23c8 0 18 2 30 2l51 418c-9 0 -17 1 -24 1h-15c-3 0 -5 1 -7 1h-6c-13 1 -18 7 -17 18l2 19h98c9 0 14 -4 14 -12l-5 -75c26 29 56 51 88 69c32 17 67 26 104 26c27 0 50 -4 70 -13s36 -21 48 -37s19 -36 23 -59
s5 -49 1 -78l-34 -278c9 0 17 -1 24 -1s12 -1 15 -1h13z" />
    <glyph glyph-name="OE" unicode="&#x152;" horiz-adv-x="1081" 
d="M1071 707l-18 -146h-24c-16 0 -20 9 -19 24l6 80h-323l-35 -286h282l-5 -41h-282l-36 -295h323l13 79c3 15 9 25 25 25h24l-18 -147h-418l20 167c-66 -112 -162 -173 -289 -173c-198 0 -283 163 -259 360c27 207 157 361 348 361c119 0 209 -62 246 -174l21 166h418z
M604 354c22 182 -53 318 -218 318c-168 0 -274 -142 -296 -318c-21 -175 47 -317 218 -317s275 140 296 317z" />
    <glyph glyph-name="oe" unicode="&#x153;" horiz-adv-x="775" 
d="M612 505c73 0 131 -38 131 -108c0 -111 -153 -144 -322 -163c0 -137 39 -202 129 -202c72 0 91 21 156 73c12 10 17 6 23 0l11 -13c-62 -66 -120 -98 -198 -98c-88 0 -137 62 -153 147c-39 -90 -114 -147 -209 -147c-103 0 -153 78 -153 175c0 187 89 336 249 336
c81 0 127 -46 144 -127c39 79 106 127 192 127zM606 470c-111 0 -168 -98 -182 -206c149 18 280 48 280 132c0 50 -45 74 -98 74zM192 30c111 0 176 105 191 223c16 123 -13 216 -111 216c-134 0 -198 -137 -198 -297c0 -82 39 -142 118 -142z" />
    <glyph glyph-name="Sacute" unicode="&#x15a;" horiz-adv-x="518" 
d="M396 810c-6 -4 -12 -6 -20 -6h-35l126 103c14 11 20 11 32 11h56zM460 207c-18 -135 -124 -215 -253 -215c-66 0 -127 13 -185 39l19 158h24c14 0 20 -8 19 -24l-8 -103c36 -18 82 -27 138 -27c104 0 185 63 198 164c12 91 -50 114 -160 151c-113 38 -168 82 -155 183
c14 110 111 182 227 182c59 0 118 -14 178 -41l-18 -145h-24c-14 0 -20 9 -19 25l7 94c-38 17 -81 25 -129 25c-92 0 -165 -57 -174 -137c-10 -85 51 -116 159 -150c105 -34 170 -78 156 -179z" />
    <glyph glyph-name="sacute" unicode="&#x15b;" horiz-adv-x="424" 
d="M285 589c-3 -3 -7 -6 -10 -7s-6 -1 -10 -1h-29l94 119c4 6 9 10 13 12s10 4 18 4h47zM357 197c6 -14 8 -31 6 -51c-3 -22 -9 -42 -19 -61s-23 -34 -40 -48s-36 -25 -59 -33s-47 -12 -75 -12c-50 0 -98 10 -144 28l15 121h24c14 0 20 -8 19 -24c0 -1 -1 -6 -1 -12v-26
c0 -11 -1 -23 -2 -36c26 -11 57 -16 95 -16c21 0 40 3 57 9s30 14 42 24s22 21 29 35s12 28 14 43c2 17 0 30 -7 41s-16 20 -28 28s-26 15 -42 20s-32 11 -49 16s-33 11 -49 17s-29 14 -41 24s-22 21 -28 35s-8 31 -5 52c2 18 8 35 18 51s22 31 38 43s34 22 55 29
s45 11 70 11c36 0 79 -8 129 -26l-15 -119h-24c-14 0 -20 8 -19 24v12c0 6 1 14 1 25s1 23 2 35c-26 9 -52 13 -78 13c-18 0 -35 -3 -50 -8s-28 -11 -40 -20s-22 -20 -29 -31s-11 -23 -13 -36c-2 -16 0 -29 7 -39s17 -19 29 -26s26 -14 42 -19s32 -11 48 -16
c17 -5 33 -12 49 -18s29 -14 41 -24s21 -21 27 -35z" />
    <glyph glyph-name="Scaron" unicode="&#x160;" horiz-adv-x="518" 
d="M225 870c7 0 12 -2 15 -4l71 -62l7 -7l10 7l85 62c5 3 12 4 18 4h36l-129 -99h-45l-106 99h38zM460 207c-18 -135 -124 -215 -253 -215c-66 0 -127 13 -185 39l19 158h24c14 0 20 -8 19 -24l-8 -103c36 -18 82 -27 138 -27c104 0 185 63 198 164c12 91 -50 114 -160 151
c-113 38 -168 82 -155 183c14 110 111 182 227 182c59 0 118 -14 178 -41l-18 -145h-24c-14 0 -20 9 -19 25l7 94c-38 17 -81 25 -129 25c-92 0 -165 -57 -174 -137c-10 -85 51 -116 159 -150c105 -34 170 -78 156 -179z" />
    <glyph glyph-name="scaron" unicode="&#x161;" horiz-adv-x="426" 
d="M185 708c5 0 10 -2 13 -6l68 -81l5 -7l6 7l88 81c2 2 4 3 7 4s5 2 7 2h33l-124 -123h-43l-93 123h33zM357 197c6 -14 8 -31 6 -51c-3 -22 -10 -42 -20 -61s-23 -34 -40 -48s-35 -25 -58 -33s-48 -12 -76 -12c-50 0 -97 10 -143 28l14 121h25c14 0 19 -8 18 -24v-12
c0 -6 -1 -15 -1 -26s-1 -23 -2 -36c26 -11 58 -16 96 -16c21 0 39 3 56 9s31 14 43 24s22 21 29 35s11 28 13 43c2 17 0 30 -7 41s-16 20 -28 28s-26 15 -42 20s-32 11 -49 16s-33 11 -49 17s-29 14 -41 24s-21 21 -27 35s-9 31 -6 52c2 18 8 35 18 51s22 31 38 43
s34 22 55 29s45 11 70 11c36 0 79 -8 129 -26l-15 -119h-24c-14 0 -19 8 -18 24v12c0 6 1 14 1 25s0 23 1 35c-26 9 -51 13 -77 13c-18 0 -35 -3 -50 -8s-29 -11 -41 -20s-21 -20 -28 -31s-11 -23 -13 -36c-2 -16 0 -29 7 -39s16 -19 28 -26s26 -14 42 -19l49 -16
c17 -5 32 -12 48 -18s30 -14 42 -24s21 -21 27 -35z" />
    <glyph glyph-name="Ydieresis" unicode="&#x178;" horiz-adv-x="680" 
d="M231 845c-23 0 -38 18 -36 41c2 22 23 40 46 40c22 0 37 -18 35 -40c-2 -23 -23 -41 -45 -41zM439 845c-23 0 -38 18 -36 41c2 22 23 40 46 40c22 0 37 -18 35 -40c-2 -23 -23 -41 -45 -41zM670 708l-2 -19c-1 -11 -9 -17 -22 -18l-37 -2l-283 -377l-31 -252l64 -2
c13 -1 19 -7 18 -18l-3 -20h-220l3 20c1 11 9 17 22 18l64 2l31 252l-190 377l-37 2c-13 1 -18 7 -17 18l2 19h185l-3 -19c-2 -11 -9 -17 -22 -18l-52 -2l149 -299c5 -10 13 -35 16 -44c5 9 19 34 26 44l222 299l-52 2c-13 1 -19 7 -18 18l3 19h184z" />
    <glyph glyph-name="Zacute" unicode="&#x179;" horiz-adv-x="638" 
d="M439 810c-6 -4 -12 -6 -20 -6h-35l126 103c14 11 20 11 32 11h56zM627 691c-1 -7 -5 -14 -10 -21l-526 -628h400l17 85c3 16 10 25 24 25h25l-19 -152h-520l2 19c1 6 3 11 8 17l528 630h-391l-17 -85c-3 -16 -10 -24 -24 -24h-25l19 151h511z" />
    <glyph glyph-name="zacute" unicode="&#x17a;" horiz-adv-x="474" 
d="M295 589c-3 -3 -6 -6 -9 -7s-6 -1 -10 -1h-29l93 119c4 6 9 10 13 12s11 4 19 4h47zM416 125l-16 -125h-381l2 19c1 6 4 11 10 18l364 423h-252l-6 -33c-2 -10 -4 -18 -5 -24s-3 -10 -3 -11c-3 -16 -10 -24 -24 -24h-24l15 125l1 4h359l-2 -20c-1 -7 -5 -13 -10 -19
l-363 -421h273l6 31c2 10 4 17 5 23l2 10c3 16 11 24 25 24h24z" />
    <glyph glyph-name="Zdotaccent" unicode="&#x17b;" horiz-adv-x="638" 
d="M356 795c-24 0 -41 20 -39 44c2 23 26 44 50 44s41 -21 38 -44c-1 -24 -25 -44 -49 -44zM627 691c-1 -7 -5 -14 -10 -21l-526 -628h400l17 85c3 16 10 25 24 25h25l-19 -152h-520l2 19c1 6 3 11 8 17l528 630h-391l-17 -85c-3 -16 -10 -24 -24 -24h-25l19 151h511z" />
    <glyph glyph-name="zdotaccent" unicode="&#x17c;" horiz-adv-x="475" 
d="M346 675c-1 -6 -2 -12 -5 -17s-8 -9 -12 -13s-9 -8 -15 -10s-11 -3 -17 -3s-12 1 -17 3s-9 6 -13 10s-6 8 -8 13s-2 11 -1 17s2 11 5 17s8 11 12 15s9 7 15 9s11 4 17 4s12 -2 17 -4s9 -5 13 -9s6 -9 8 -15s2 -11 1 -17zM416 125l-15 -125h-381l2 19c1 6 4 11 10 18
l364 423h-252l-6 -33c-2 -10 -5 -18 -6 -24l-2 -11c-3 -16 -11 -24 -25 -24h-24l15 125l1 4h360l-3 -20c-1 -7 -4 -13 -9 -19l-363 -421h272l6 31c2 10 4 17 5 23s3 9 3 10c3 16 10 24 24 24h24z" />
    <glyph glyph-name="Zcaron" unicode="&#x17d;" horiz-adv-x="638" 
d="M268 870c7 0 12 -2 15 -4l71 -62l7 -7l10 7l85 62c5 3 12 4 18 4h36l-129 -99h-45l-106 99h38zM627 691c-1 -7 -5 -14 -10 -21l-526 -628h400l17 85c3 16 10 25 24 25h25l-19 -152h-520l2 19c1 6 3 11 8 17l528 630h-391l-17 -85c-3 -16 -10 -24 -24 -24h-25l19 151h511z
" />
    <glyph glyph-name="zcaron" unicode="&#x17e;" horiz-adv-x="475" 
d="M209 708c5 0 10 -2 13 -6l68 -81l4 -7l7 7l88 81c2 2 3 3 6 4s6 2 8 2h32l-123 -123h-43l-94 123h34zM416 125l-16 -125h-381l2 19c1 6 4 11 10 18l364 423h-252l-6 -33c-2 -10 -4 -18 -5 -24s-3 -10 -3 -11c-3 -16 -10 -24 -24 -24h-24l15 125l1 4h359l-2 -20
c-1 -7 -5 -13 -10 -19l-363 -421h273l6 31c2 10 4 17 5 23l2 10c3 16 11 24 25 24h24z" />
    <glyph glyph-name="florin" unicode="&#x192;" horiz-adv-x="560" 
d="M237 7c-30 -124 -107 -187 -233 -187l3 24c1 11 8 16 20 16c85 0 139 58 163 148l95 389l-95 5c-9 1 -13 4 -12 12l3 20h113l24 95c31 123 105 187 234 187l-4 -25c-2 -10 -7 -15 -19 -15c-88 0 -141 -59 -165 -148l-24 -94h179l-4 -36h-181z" />
    <glyph glyph-name="circumflex" unicode="&#x2c6;" horiz-adv-x="365" 
d="M321 584c-5 0 -9 2 -12 6l-68 82c-2 1 -4 4 -5 6l-3 -4c-1 -1 -2 -1 -3 -2l-88 -82c-2 -2 -5 -3 -7 -4s-5 -2 -8 -2h-33l124 124h43l93 -124h-33z" />
    <glyph glyph-name="caron" unicode="&#x2c7;" horiz-adv-x="369" 
d="M97 708c5 0 10 -2 13 -6l73 -88l6 6l88 82c2 2 4 3 7 4s5 2 7 2h33l-124 -124h-43l-93 124h33z" />
    <glyph glyph-name="uni02C9" unicode="&#x2c9;" horiz-adv-x="398" 
d="M344 658l-4 -32h-272l3 32h273z" />
    <glyph glyph-name="breve" unicode="&#x2d8;" horiz-adv-x="365" 
d="M224 584c-81 0 -113 49 -105 124h35c-8 -55 18 -92 74 -92c62 0 87 38 96 92h35c-9 -78 -57 -124 -135 -124z" />
    <glyph glyph-name="dotaccent" unicode="&#x2d9;" horiz-adv-x="215" 
d="M154 632c-24 0 -41 20 -39 44c2 23 26 44 50 44s39 -21 38 -44c-1 -24 -25 -44 -49 -44z" />
    <glyph glyph-name="ring" unicode="&#x2da;" horiz-adv-x="294" 
d="M110 651c1 12 4 23 10 33s13 19 22 26s19 13 30 17s22 6 34 6s22 -2 32 -6s19 -10 26 -17s12 -16 15 -26s4 -21 3 -33s-5 -23 -11 -33s-13 -19 -22 -26s-18 -12 -29 -16s-22 -6 -34 -6s-23 2 -33 6s-18 9 -25 16s-13 16 -16 26s-3 21 -2 33zM139 651c-2 -17 2 -30 11 -41
s22 -16 39 -16s31 5 43 16s19 24 21 41s-2 30 -11 41s-22 16 -39 16s-31 -5 -43 -16s-19 -24 -21 -41z" />
    <glyph glyph-name="ogonek" unicode="&#x2db;" horiz-adv-x="276" 
d="M206 -127l7 -15c-22 -17 -54 -27 -83 -27c-48 0 -82 25 -76 71c4 45 49 78 92 104l23 -6c-39 -22 -73 -51 -77 -88c-4 -36 20 -50 51 -50c18 0 37 4 50 13c4 3 10 3 13 -2z" />
    <glyph glyph-name="tilde" unicode="&#x2dc;" horiz-adv-x="288" 
d="M248 640c14 0 26 5 34 14s14 21 16 37h29c-1 -12 -5 -24 -9 -34s-10 -19 -17 -27s-15 -14 -25 -18s-20 -6 -31 -6s-21 2 -30 8s-18 12 -26 18l-25 18c-8 6 -15 8 -24 8c-14 0 -26 -4 -34 -14s-14 -22 -17 -37h-30c1 12 4 24 9 34c5 11 11 19 18 27s15 14 25 18s20 6 31 6
s22 -2 31 -8s18 -12 26 -18l24 -18c8 -6 16 -8 25 -8z" />
    <glyph glyph-name="hungarumlaut" unicode="&#x2dd;" horiz-adv-x="392" 
d="M141 589c-7 -7 -16 -9 -20 -9h-21l91 120c7 10 18 16 31 16h33zM260 589c-6 -6 -11 -9 -20 -9h-23l106 120c9 11 17 16 31 16h37z" />
    <glyph glyph-name="pi" unicode="&#x3c0;" horiz-adv-x="673" 
d="M639 480c-2 -11 -9 -18 -21 -18h-86l-57 -462h-47l56 462h-234l-43 -354c-10 -72 -50 -113 -121 -113c-20 0 -40 2 -52 11l5 20c3 7 10 8 21 6c5 -1 10 -2 18 -2c48 0 76 26 82 78l43 354h-101l2 16c3 11 11 20 23 20h514z" />
    <glyph glyph-name="endash" unicode="&#x2013;" horiz-adv-x="521" 
d="M461 307l-5 -35h-393l4 35h394z" />
    <glyph glyph-name="emdash" unicode="&#x2014;" horiz-adv-x="776" 
d="M716 307l-4 -35h-649l4 35h649z" />
    <glyph glyph-name="quoteleft" unicode="&#x2018;" horiz-adv-x="206" 
d="M76 529c-10 22 -15 51 -11 75c6 55 45 106 85 141l11 -7c5 -3 6 -10 1 -16c-28 -32 -53 -69 -57 -103c-2 -19 2 -40 11 -60c3 -8 0 -15 -8 -18z" />
    <glyph glyph-name="quoteright" unicode="&#x2019;" horiz-adv-x="203" 
d="M142 738c10 -22 15 -51 11 -75c-6 -55 -45 -106 -85 -141l-11 7c-5 3 -6 10 -1 16c28 32 53 69 57 103c2 19 -2 40 -11 60c-3 8 0 15 8 18z" />
    <glyph glyph-name="quotesinglbase" unicode="&#x201a;" horiz-adv-x="221" 
d="M138 88c10 -22 15 -51 11 -75c-6 -55 -45 -106 -85 -141l-11 7c-5 3 -6 10 -1 16c28 32 53 69 57 103c2 19 -2 40 -11 60c-3 8 0 15 8 18z" />
    <glyph glyph-name="quotedblleft" unicode="&#x201c;" horiz-adv-x="340" 
d="M76 529c-10 22 -15 51 -11 75c6 55 45 106 85 141l11 -7c5 -3 6 -10 1 -16c-28 -32 -53 -69 -57 -103c-2 -19 2 -40 11 -60c3 -8 0 -15 -8 -18zM210 529c-10 22 -15 51 -11 75c6 55 45 106 85 141l11 -7c5 -3 6 -10 1 -16c-28 -32 -53 -69 -57 -103c-2 -19 2 -40 11 -60
c3 -8 0 -15 -8 -18z" />
    <glyph glyph-name="quotedblright" unicode="&#x201d;" horiz-adv-x="338" 
d="M143 739c10 -22 15 -51 11 -75c-6 -55 -45 -106 -85 -141l-11 7c-5 3 -6 10 -1 16c28 32 53 69 57 103c2 19 -2 40 -11 60c-3 8 0 15 8 18zM277 739c10 -22 15 -51 11 -75c-6 -55 -45 -106 -85 -141l-11 7c-5 3 -6 10 -1 16c28 32 53 69 57 103c2 19 -2 40 -11 60
c-3 8 0 15 8 18z" />
    <glyph glyph-name="quotedblbase" unicode="&#x201e;" horiz-adv-x="355" 
d="M139 88c10 -22 15 -51 11 -75c-6 -55 -45 -106 -85 -141l-11 7c-5 3 -6 10 -1 16c28 32 53 69 57 103c2 19 -2 40 -11 60c-3 8 0 15 8 18zM273 88c10 -22 15 -51 11 -75c-6 -55 -45 -106 -85 -141l-11 7c-5 3 -6 10 -1 16c28 32 53 69 57 103c2 19 -2 40 -11 60
c-3 8 0 15 8 18z" />
    <glyph glyph-name="dagger" unicode="&#x2020;" horiz-adv-x="467" 
d="M28 462c2 13 10 22 26 22l166 -10l23 242c18 9 39 7 51 0l-36 -242l168 10c18 0 22 -12 20 -22l-2 -16h-190l-30 -248l-40 -372c-17 -9 -33 -10 -50 0l52 372l30 248h-190z" />
    <glyph glyph-name="daggerdbl" unicode="&#x2021;" horiz-adv-x="505" 
d="M211 95l43 351h-190l2 16c2 13 10 22 26 22l166 -10l23 242c15 8 35 8 50 0l-36 -242l168 10c18 1 22 -10 21 -22l-2 -16h-190l-43 -351h190l-2 -16c-3 -16 -16 -22 -26 -22l-166 10l-23 -241c-18 -9 -33 -10 -50 0l36 241l-169 -10c-16 0 -21 13 -20 22l2 16h190z" />
    <glyph glyph-name="bullet" unicode="&#x2022;" horiz-adv-x="406" 
d="M185 151c-81 0 -135 69 -129 149c6 77 83 146 166 146c80 0 135 -69 126 -146c-6 -80 -84 -149 -163 -149z" />
    <glyph glyph-name="ellipsis" unicode="&#x2026;" horiz-adv-x="710" 
d="M98 -8c-26 0 -43 21 -41 46c2 24 26 47 52 47s42 -23 40 -47c-2 -25 -27 -46 -51 -46zM343 -8c-26 0 -43 21 -41 46c2 24 26 47 52 47s42 -23 40 -47c-2 -25 -27 -46 -51 -46zM588 -8c-26 0 -43 21 -41 46c2 24 26 47 52 47s42 -23 40 -47c-2 -25 -27 -46 -51 -46z" />
    <glyph glyph-name="perthousand" unicode="&#x2030;" horiz-adv-x="1087" 
d="M348 538c-15 -106 -78 -177 -170 -177c-99 0 -140 82 -127 177c15 106 77 178 170 178c95 0 141 -79 127 -178zM637 698c3 5 12 10 19 10h34l-594 -699c-5 -6 -11 -9 -18 -9h-34zM310 538c10 89 -19 145 -93 145s-119 -63 -128 -145c-9 -80 15 -145 93 -145
c75 0 118 60 128 145zM685 168c-15 -106 -77 -176 -170 -176c-99 0 -140 81 -127 176c15 108 76 178 170 178c96 0 141 -77 127 -178zM1047 168c-15 -106 -77 -176 -170 -176c-99 0 -140 81 -127 176c15 108 76 178 170 178c96 0 141 -77 127 -178zM647 168
c10 89 -19 146 -92 146c-79 0 -120 -66 -129 -146c-10 -81 16 -144 93 -144c78 0 119 68 128 144zM1009 168c10 89 -19 146 -92 146c-79 0 -120 -66 -129 -146c-10 -81 16 -144 93 -144c78 0 119 68 128 144z" />
    <glyph glyph-name="guilsinglleft" unicode="&#x2039;" horiz-adv-x="248" 
d="M44 263l144 189l14 -8c10 -6 6 -18 1 -24l-109 -146c-5 -7 -10 -11 -13 -14c3 -3 6 -7 9 -14l74 -148c4 -9 2 -19 -8 -24l-16 -7l-97 189z" />
    <glyph glyph-name="guilsinglright" unicode="&#x203a;" horiz-adv-x="249" 
d="M203 256l-144 -189l-14 8c-10 6 -6 18 -1 24l109 146c5 7 10 11 13 14c-3 3 -6 7 -9 14l-74 148c-4 9 -2 19 8 24l16 7l97 -189z" />
    <glyph glyph-name="fraction" unicode="&#x2044;" horiz-adv-x="590" 
d="M81 16c-8 -12 -15 -16 -29 -16h-20l485 690c7 10 18 18 29 18h21z" />
    <glyph glyph-name="Euro" unicode="&#x20ac;" horiz-adv-x="638" 
d="M130 432c40 162 144 282 302 282c83 0 135 -27 182 -87l-18 -17c-7 -7 -16 -7 -21 -1c-34 40 -87 64 -146 64c-133 0 -215 -101 -250 -241h301l-2 -15c0 -8 -7 -14 -18 -14h-288c-5 -34 -11 -70 -11 -89h258l-2 -15c0 -8 -8 -14 -17 -14h-240c-4 -146 54 -251 187 -251
c82 0 106 22 174 76c8 6 14 9 21 2l16 -18c-62 -66 -127 -102 -218 -102c-161 0 -234 124 -230 292h-80l3 30h79c0 21 8 76 11 88h-79l4 30h82z" />
    <glyph glyph-name="trademark" unicode="&#x2122;" horiz-adv-x="702" 
d="M480 505l9 15l128 182c3 5 9 6 13 6h29l-36 -288h-31l28 222l5 22l-133 -190c-3 -5 -8 -8 -14 -8h-5c-6 0 -10 3 -12 8l-88 188v-20l-27 -222h-32l36 288h28c9 0 12 -6 12 -6l87 -182zM284 678h-100l-32 -258h-35l31 258h-100l4 29h235z" />
    <glyph glyph-name="uni2126" unicode="&#x2126;" horiz-adv-x="763" 
d="M427 182c142 30 228 110 244 240c19 161 -83 252 -240 252c-159 0 -283 -95 -302 -252c-15 -130 50 -210 185 -240l-22 -182h-251c-13 0 -17 12 -16 18l3 26h229l14 111c-134 29 -210 129 -194 269c24 183 179 292 359 292c187 0 310 -119 288 -291
c-16 -140 -126 -243 -259 -270l-14 -111h228l-3 -26c-2 -11 -10 -18 -21 -18h-251z" />
    <glyph glyph-name="partialdiff" unicode="&#x2202;" horiz-adv-x="574" 
d="M231 670c54 32 89 47 146 47c129 0 170 -118 152 -266c-30 -243 -142 -457 -339 -457c-114 0 -172 87 -157 196c21 157 137 276 285 276c76 0 131 -41 150 -116c35 185 36 328 -101 328c-31 0 -81 -15 -103 -28c-14 -8 -21 -5 -25 3zM201 32c121 0 205 116 248 258
c-5 80 -50 138 -130 138c-127 0 -221 -102 -237 -237c-10 -96 33 -159 119 -159z" />
    <glyph glyph-name="uni2206" unicode="&#x2206;" horiz-adv-x="687" 
d="M449 708l207 -708h-634l381 708h46zM592 42l-165 572l-8 40l-18 -40l-305 -572h496z" />
    <glyph glyph-name="product" unicode="&#x220f;" horiz-adv-x="672" 
d="M646 666h-106l-103 -842h-49l104 842h-297l-103 -842h-49l103 842h-105l5 42h605z" />
    <glyph glyph-name="summation" unicode="&#x2211;" horiz-adv-x="743" 
d="M720 707l-5 -41h-520l275 -394l-2 -13l-371 -394h520l-5 -41h-594l2 18c1 6 3 11 7 16l387 408l-286 408c-3 4 -5 10 -4 16l2 18z" />
    <glyph glyph-name="minus" unicode="&#x2212;" horiz-adv-x="549" 
d="M486 354l-4 -37h-415l4 37h415z" />
    <glyph glyph-name="radical" unicode="&#x221a;" horiz-adv-x="681" 
d="M38 345c-12 0 -19 9 -17 21l2 14h157c9 0 14 -4 17 -12l70 -270c3 -15 5 -31 5 -43c4 12 7 25 12 38l337 755c3 7 10 12 18 12h29l-384 -860h-40l-91 345h-115z" />
    <glyph glyph-name="infinity" unicode="&#x221e;" horiz-adv-x="723" 
d="M504 141c-68 0 -112 53 -147 120c-54 -72 -111 -120 -175 -120c-85 0 -137 69 -125 155c11 88 82 154 162 154c65 0 109 -48 147 -120c53 66 103 120 176 120c82 0 136 -67 125 -154c-11 -89 -82 -155 -163 -155zM188 180c59 0 97 47 151 115c-36 68 -66 115 -122 115
c-66 0 -113 -49 -120 -115c-9 -70 30 -115 91 -115zM507 180c66 0 114 54 120 115c7 66 -27 115 -91 115c-62 0 -105 -55 -152 -115c35 -66 65 -115 123 -115z" />
    <glyph glyph-name="integral" unicode="&#x222b;" horiz-adv-x="630" 
d="M364 543c29 117 114 192 219 170c9 -2 18 -5 26 -9l-5 -22c-4 -11 -19 -7 -29 -7c-95 0 -140 -40 -166 -138l-131 -531c-26 -112 -96 -186 -201 -186c-20 0 -48 3 -60 12l6 19c2 7 11 9 18 8c3 0 20 -2 31 -2c94 0 136 58 160 149z" />
    <glyph glyph-name="approxequal" unicode="&#x2248;" horiz-adv-x="501" 
d="M361 405c35 0 66 15 85 37l6 -29c-24 -30 -58 -45 -98 -45c-62 0 -140 58 -190 58c-34 0 -71 -19 -86 -38l-7 28c27 33 64 47 101 47c67 0 132 -58 189 -58zM342 247c34 0 67 17 85 37l6 -29c-23 -30 -65 -45 -98 -45c-67 0 -131 58 -190 58c-37 0 -69 -16 -86 -37l-7 28
c25 32 65 46 100 46c70 0 130 -58 190 -58z" />
    <glyph glyph-name="notequal" unicode="&#x2260;" horiz-adv-x="517" 
d="M304 434l75 134h35l-74 -134h139l-4 -36h-156l-67 -120h208l-4 -37h-224l-76 -135h-36l76 135h-154l5 37h170l66 120h-222l5 36h238z" />
    <glyph glyph-name="lessequal" unicode="&#x2264;" horiz-adv-x="505" 
d="M470 552l-4 -32c-2 -9 -7 -13 -17 -18l-292 -136c-12 -5 -26 -9 -40 -12c14 -2 28 -8 37 -12l258 -136c10 -6 13 -7 13 -18l-4 -32l-352 188l3 20zM411 76l-4 -36h-375l4 36h375z" />
    <glyph glyph-name="greaterequal" unicode="&#x2265;" horiz-adv-x="482" 
d="M445 344l-398 -188l4 32c2 9 7 13 17 18l292 136c11 5 26 10 39 12c-13 2 -28 7 -36 12l-259 136c-8 5 -13 9 -13 18l4 32l352 -188zM32 40l5 36h375l-4 -36h-376z" />
    <glyph glyph-name="lozenge" unicode="&#x25ca;" horiz-adv-x="493" 
d="M283 755h33l150 -416l-252 -416h-33l-150 416zM196 -4l6 -28l14 28l210 343l-125 343l-7 28c-1 -1 -13 -27 -14 -28l-208 -343z" />
    <glyph glyph-name="uni2669" unicode="&#x2669;" horiz-adv-x="169" 
d="M136 728l-110 -904h-2l110 904h2z" />
    <glyph glyph-name="undercommaaccent" horiz-adv-x="236" 
d="M143 -46c9 0 14 -6 10 -16l-42 -111c-4 -9 -10 -13 -21 -13h-16l42 140h27z" />
    <glyph glyph-name="grave.case" horiz-adv-x="361" 
d="M144 885c8 0 13 0 17 -2s8 -5 12 -9l102 -103h-36c-4 0 -7 0 -10 1s-5 2 -8 5l-133 108h56z" />
    <glyph glyph-name="dieresis.case" horiz-adv-x="467" 
d="M172 832c-1 -5 -3 -10 -6 -15s-6 -9 -10 -12c-4 -4 -9 -7 -14 -9s-11 -3 -16 -3s-10 1 -15 3s-9 6 -12 9c-3 4 -5 7 -7 12s-2 10 -1 15s2 11 5 16s6 9 10 13s9 7 14 9s11 4 16 4s10 -2 15 -4s9 -5 12 -9s5 -8 7 -13s3 -11 2 -16zM380 832c-1 -5 -2 -10 -5 -15
s-7 -9 -11 -12c-4 -4 -9 -7 -14 -9s-11 -3 -16 -3c-6 0 -10 1 -15 3s-9 6 -12 9c-3 4 -5 7 -7 12s-2 10 -1 15c1 11 6 21 15 29s19 12 30 12c5 0 10 -1 15 -3s9 -5 12 -9s5 -8 7 -13s3 -11 2 -16z" />
    <glyph glyph-name="macron.case" horiz-adv-x="292" 
d="M355 843l-4 -32h-271l3 32h272z" />
    <glyph glyph-name="acute.case" horiz-adv-x="388" 
d="M144 777c-4 -2 -7 -4 -10 -5s-6 -1 -10 -1h-36l127 103c5 4 10 7 14 9s10 2 18 2h56z" />
    <glyph glyph-name="circumflex.case" horiz-adv-x="455" 
d="M332 771c-3 0 -6 0 -9 1s-5 2 -7 4l-71 62c-2 2 -4 3 -5 4l-2 2l-3 -2c-1 -1 -3 -2 -6 -4l-86 -62c-3 -2 -6 -3 -9 -4s-5 -1 -8 -1h-38l130 99h45l105 -99h-36z" />
    <glyph glyph-name="caron.case" horiz-adv-x="454" 
d="M126 870c7 0 12 -2 15 -4l71 -62l7 -7l10 7l85 62c5 3 12 4 18 4h36l-129 -99h-45l-106 99h38z" />
    <glyph glyph-name="breve.case" horiz-adv-x="365" 
d="M224 584c-81 0 -113 49 -105 124h35c-8 -55 18 -92 74 -92c62 0 87 38 96 92h35c-9 -78 -57 -124 -135 -124z" />
    <glyph glyph-name="dotaccent.case" horiz-adv-x="215" 
d="M154 632c-24 0 -41 20 -39 44c2 23 26 44 50 44s39 -21 38 -44c-1 -24 -25 -44 -49 -44z" />
    <glyph glyph-name="ring.case" horiz-adv-x="332" 
d="M86 815c1 11 4 22 10 32s13 18 21 25s18 12 29 16s22 6 33 6s22 -2 32 -6s17 -9 24 -16s12 -15 15 -25s4 -21 3 -32c-1 -12 -5 -22 -11 -32s-13 -18 -21 -25s-17 -12 -28 -16s-23 -6 -34 -6s-21 2 -31 6s-18 9 -25 16s-12 15 -15 25s-3 20 -2 32zM112 815
c-2 -17 2 -30 11 -41s23 -16 40 -16s31 5 43 16s19 24 21 41s-2 30 -11 41s-22 16 -39 16s-32 -5 -44 -16s-19 -24 -21 -41z" />
    <glyph glyph-name="tilde.case" horiz-adv-x="443" 
d="M279 808c14 0 26 5 34 14s13 21 15 35h27c-1 -12 -4 -22 -8 -32s-9 -19 -16 -26c-7 -8 -15 -14 -24 -18s-20 -6 -31 -6s-22 3 -31 8s-18 11 -27 17s-17 12 -25 17s-16 8 -25 8c-14 0 -26 -5 -34 -14s-14 -21 -16 -35h-28c1 11 5 22 9 32s10 19 17 27s15 13 24 17
s20 6 31 6s22 -3 31 -8s17 -11 26 -17s17 -12 25 -17s17 -8 26 -8z" />
    <glyph glyph-name="caron.salt" horiz-adv-x="198" 
d="M64 578l44 150h30c9 0 14 -6 10 -16l-45 -121c-4 -9 -10 -13 -21 -13h-18z" />
    <glyph glyph-name="Abreve" unicode="&#x102;" horiz-adv-x="754" 
d="M444 794c-81 0 -113 49 -105 124h35c-8 -55 18 -92 74 -92c62 0 87 38 96 92h35c-9 -78 -57 -124 -135 -124zM738 38c14 -1 19 -7 18 -18l-3 -20h-220l3 20c1 11 8 17 22 18l59 2l-2 6l-52 186h-338l-97 -186l-3 -6l61 -2c14 -1 19 -7 18 -18l-3 -20h-220l3 20
c1 11 8 17 22 18l64 2h2l3 6l352 662h51l189 -662l2 -6h5zM246 270h306l-97 345c-2 10 -7 29 -9 41c-4 -12 -14 -32 -19 -42z" />
    <glyph glyph-name="Amacron" unicode="&#x100;" horiz-adv-x="754" 
d="M602 843l-4 -32h-271l3 32h272zM738 38c14 -1 19 -7 18 -18l-3 -20h-220l3 20c1 11 8 17 22 18l59 2l-2 6l-52 186h-338l-97 -186l-3 -6l61 -2c14 -1 19 -7 18 -18l-3 -20h-220l3 20c1 11 8 17 22 18l64 2h2l3 6l352 662h51l189 -662l2 -6h5zM246 270h306l-97 345
c-2 10 -7 29 -9 41c-4 -12 -14 -32 -19 -42z" />
    <glyph glyph-name="Ccaron" unicode="&#x10c;" horiz-adv-x="655" 
d="M334 870c7 0 12 -2 15 -4l71 -62l7 -7l10 7l85 62c5 3 12 4 18 4h36l-129 -99h-45l-106 99h38zM591 94c-73 -69 -164 -102 -266 -102c-207 0 -314 160 -288 362c28 212 181 361 391 361c66 0 140 -16 220 -50l-20 -160h-24c-14 0 -20 8 -19 24l8 109
c-49 23 -106 33 -170 33c-182 0 -311 -133 -333 -317c-22 -187 70 -318 244 -318c93 0 155 24 221 78c5 4 14 7 19 1z" />
    <glyph glyph-name="Dcaron" unicode="&#x10e;" horiz-adv-x="763" 
d="M313 870c7 0 12 -2 15 -4l71 -62l7 -7l10 7l85 62c5 3 12 4 18 4h36l-129 -99h-45l-106 99h38zM727 354c-28 -217 -175 -354 -381 -354h-330l3 20c1 11 9 17 22 18l65 2l77 628l-64 2c-13 1 -19 7 -18 18l2 19h330c213 0 321 -147 294 -353zM674 354
c23 188 -67 312 -246 312h-194l-77 -625h194c181 0 300 124 323 313z" />
    <glyph glyph-name="Dcroat" unicode="&#x110;" horiz-adv-x="763" 
d="M433 707c213 0 321 -147 294 -353c-28 -217 -175 -354 -381 -354h-330l3 20c1 11 9 17 22 18l65 2l37 302h-108l4 32h108l36 294l-64 2c-13 1 -19 7 -18 18l2 19h330zM674 354c23 188 -67 312 -246 312h-194l-36 -292h203l-4 -32h-203l-37 -301h194
c181 0 300 124 323 313z" />
    <glyph glyph-name="Ecaron" unicode="&#x11a;" horiz-adv-x="622" 
d="M289 870c7 0 12 -2 15 -4l71 -62l7 -7l10 7l85 62c5 3 12 4 18 4h36l-129 -99h-45l-106 99h38zM612 707l-6 -42l-12 -104h-25c-14 0 -19 8 -18 24l6 80h-323l-35 -286h281l-5 -41h-281l-37 -295h323l14 79c3 16 10 25 24 25h25l-18 -147h-509l3 20c1 11 9 17 22 18l65 2
l77 628l-64 2c-13 1 -19 7 -18 18l2 19h509z" />
    <glyph glyph-name="Edotaccent" unicode="&#x116;" horiz-adv-x="622" 
d="M377 795c-24 0 -41 20 -39 44c2 23 26 44 50 44s41 -21 38 -44c-1 -24 -25 -44 -49 -44zM612 707l-6 -42l-12 -104h-25c-14 0 -19 8 -18 24l6 80h-323l-35 -286h281l-5 -41h-281l-37 -295h323l14 79c3 16 10 25 24 25h25l-18 -147h-509l3 20c1 11 9 17 22 18l65 2l77 628
l-64 2c-13 1 -19 7 -18 18l2 19h509z" />
    <glyph glyph-name="Emacron" unicode="&#x112;" horiz-adv-x="622" 
d="M538 843l-4 -32h-271l3 32h272zM612 707l-6 -42l-12 -104h-25c-14 0 -19 8 -18 24l6 80h-323l-35 -286h281l-5 -41h-281l-37 -295h323l14 79c3 16 10 25 24 25h25l-18 -147h-509l3 20c1 11 9 17 22 18l65 2l77 628l-64 2c-13 1 -19 7 -18 18l2 19h509z" />
    <glyph glyph-name="uni0122" unicode="&#x122;" horiz-adv-x="696" 
d="M645 321l-31 -251c-89 -56 -172 -78 -278 -78c-209 0 -326 152 -299 362c28 217 178 361 400 361c73 0 179 -20 242 -50l-19 -160h-24c-14 0 -20 8 -19 24l8 108c-46 23 -111 34 -195 34c-188 0 -317 -126 -340 -317c-23 -192 73 -320 255 -320c89 0 145 15 225 57
l23 191h-136c-9 0 -12 4 -11 12l3 27h196zM293 -93c2 23 25 43 49 43c30 0 43 -23 39 -54c-8 -57 -48 -119 -95 -157l-7 7c-6 7 -4 11 3 18c23 18 54 66 63 101c-3 -1 -9 -2 -15 -2c-25 0 -41 19 -37 44z" />
    <glyph glyph-name="Imacron" unicode="&#x12a;" horiz-adv-x="332" 
d="M370 843l-4 -32h-271l3 32h272zM234 668l-77 -628l64 -2c13 -1 19 -7 18 -18l-3 -20h-220l3 20c1 11 9 17 22 18l65 2l77 628l-64 2c-13 1 -19 7 -18 18l2 20h220l-2 -20c-1 -11 -9 -17 -22 -18z" />
    <glyph glyph-name="Iogonek" unicode="&#x12e;" horiz-adv-x="332" 
d="M103 708h220l-2 -20c-1 -11 -9 -17 -22 -18l-65 -2l-77 -628l64 -2c13 -1 19 -7 18 -18l-3 -20h-90c-39 -22 -73 -51 -77 -88c-4 -36 20 -50 51 -50c18 0 37 4 50 13c4 3 10 3 13 -2l7 -15c-22 -17 -54 -27 -83 -27c-48 0 -82 25 -76 71c4 42 42 73 82 98h-97l3 20
c1 11 9 17 22 18l65 2l77 628l-64 2c-13 1 -19 7 -18 18z" />
    <glyph glyph-name="uni0136" unicode="&#x136;" horiz-adv-x="718" 
d="M724 708l-3 -20c-1 -11 -8 -17 -22 -18l-53 -2l-304 -278c-14 -13 -28 -22 -36 -25c14 -4 25 -16 32 -25l251 -300l64 -2c14 -1 19 -7 18 -18l-3 -20h-220l3 20c1 11 8 17 22 18l57 2l-240 280c-16 20 -32 21 -51 21h-45l-37 -301l64 -2c14 -1 19 -7 18 -18l-3 -20h-220
l3 20c1 11 8 17 22 18l64 2h1l77 628h-1l-64 2c-14 1 -19 7 -18 18l3 20h220l-3 -20c-1 -11 -8 -17 -22 -18l-64 -2l-35 -287h42c24 0 36 3 52 19l295 268h-5l-64 2c-14 1 -19 7 -18 18l3 20h220zM353 -50c30 0 43 -23 39 -54c-8 -57 -48 -119 -95 -157l-7 7
c-6 7 -4 11 3 18c23 18 54 66 63 101c-3 -1 -9 -2 -15 -2c-25 0 -41 19 -37 44c2 23 25 43 49 43z" />
    <glyph glyph-name="Lacute" unicode="&#x139;" horiz-adv-x="556" 
d="M294 810c-6 -4 -12 -6 -20 -6h-35l126 103c14 11 20 11 32 11h56zM512 132l-16 -132h-480l3 20c1 11 9 17 22 18l65 2l77 629l-64 2c-13 1 -19 7 -18 18l2 19h220l-3 -19c-1 -11 -9 -17 -22 -18l-64 -2l-77 -625h293l13 64c3 16 11 24 25 24h24z" />
    <glyph glyph-name="Lcaron" unicode="&#x13d;" horiz-adv-x="556" 
d="M426 738c10 -22 15 -51 11 -75c-6 -55 -45 -106 -85 -141l-11 7c-5 3 -6 10 -1 16c28 32 53 69 57 103c2 19 -2 40 -11 60c-3 8 0 15 8 18zM512 132l-16 -132h-480l3 20c1 11 9 17 22 18l65 2l77 629l-64 2c-13 1 -19 7 -18 18l2 19h220l-3 -19c-1 -11 -9 -17 -22 -18
l-64 -2l-77 -625h293l13 64c3 16 11 24 25 24h24z" />
    <glyph glyph-name="uni013B" unicode="&#x13b;" horiz-adv-x="556" 
d="M512 132l-16 -132h-480l3 20c1 11 9 17 22 18l65 2l77 629l-64 2c-13 1 -19 7 -18 18l2 19h220l-3 -19c-1 -11 -9 -17 -22 -18l-64 -2l-77 -625h293l13 64c3 16 11 24 25 24h24zM223 -93c2 23 25 43 49 43c30 0 43 -23 39 -54c-8 -57 -48 -119 -95 -157l-7 7
c-6 7 -4 11 3 18c23 18 54 66 63 101c-3 -1 -9 -2 -15 -2c-25 0 -41 19 -37 44z" />
    <glyph glyph-name="Ncaron" unicode="&#x147;" horiz-adv-x="827" 
d="M359 870c7 0 12 -2 15 -4l71 -62l7 -7l10 7l85 62c5 3 12 4 18 4h36l-129 -99h-45l-106 99h38zM818 708l-3 -19c-1 -11 -9 -17 -22 -18l-64 -2l-82 -669h-25c-8 0 -13 3 -17 10l-385 614c0 -10 -1 -20 -2 -29l-68 -555l66 -2c13 -1 19 -7 18 -18l-2 -20h-216l3 20
c1 11 9 17 22 18l65 2l77 628l-64 2c-13 1 -19 7 -18 18l2 20h110c8 0 14 -3 18 -10l383 -613c0 10 1 20 2 29l68 555l-67 2c-13 1 -18 7 -17 18l2 19h216z" />
    <glyph glyph-name="uni0145" unicode="&#x145;" horiz-adv-x="827" 
d="M818 708l-3 -19c-1 -11 -9 -17 -22 -18l-64 -2l-82 -669h-25c-8 0 -13 3 -17 10l-385 614c0 -10 -1 -20 -2 -29l-68 -555l66 -2c13 -1 19 -7 18 -18l-2 -20h-216l3 20c1 11 9 17 22 18l65 2l77 628l-64 2c-13 1 -19 7 -18 18l2 20h110c8 0 14 -3 18 -10l383 -613
c0 10 1 20 2 29l68 555l-67 2c-13 1 -18 7 -17 18l2 19h216zM359 -93c2 23 25 43 49 43c30 0 43 -23 39 -54c-8 -57 -48 -119 -95 -157l-7 7c-6 7 -4 11 3 18c23 18 54 66 63 101c-3 -1 -9 -2 -15 -2c-25 0 -41 19 -37 44z" />
    <glyph glyph-name="Eng" unicode="&#x14a;" horiz-adv-x="827" 
d="M602 708h216l-3 -19c-1 -11 -9 -17 -22 -18l-64 -2l-82 -669l-8 -63c-9 -75 -58 -121 -134 -121c-17 0 -34 3 -47 10l5 24c2 10 14 5 19 4s12 -2 20 -2c56 0 86 35 92 85l9 76l-383 611c0 -10 -1 -20 -2 -29l-68 -555l66 -2c13 -1 19 -7 18 -18l-2 -20h-216l3 20
c1 11 9 17 22 18l65 2l77 628l-64 2c-13 1 -19 7 -18 18l2 20h110c8 0 14 -3 18 -10l381 -611l72 582l-67 2c-13 1 -18 7 -17 18z" />
    <glyph glyph-name="Ohungarumlaut" unicode="&#x150;" horiz-adv-x="747" 
d="M336 780c-6 -6 -11 -9 -20 -9h-23l88 95c11 11 19 16 34 16h33zM472 780c-9 -6 -12 -9 -21 -9h-26l102 95c14 11 20 16 35 16h38zM712 354c-26 -213 -177 -362 -382 -362c-208 0 -319 157 -293 362c28 214 181 362 382 362c206 0 320 -153 293 -362zM659 354
c23 190 -68 318 -246 318c-177 0 -300 -132 -323 -318c-23 -191 68 -317 245 -317c186 0 303 136 324 317z" />
    <glyph glyph-name="Omacron" unicode="&#x14c;" horiz-adv-x="747" 
d="M575 843l-4 -32h-271l3 32h272zM712 354c-26 -213 -177 -362 -382 -362c-208 0 -319 157 -293 362c28 214 181 362 382 362c206 0 320 -153 293 -362zM659 354c23 190 -68 318 -246 318c-177 0 -300 -132 -323 -318c-23 -191 68 -317 245 -317c186 0 303 136 324 317z
" />
    <glyph glyph-name="Racute" unicode="&#x154;" horiz-adv-x="644" 
d="M437 810c-6 -4 -12 -6 -20 -6h-35l126 103c14 11 20 11 32 11h56zM591 38c13 -1 19 -7 18 -18l-3 -20h-70c-11 0 -18 4 -24 13l-191 287c-13 18 -21 20 -46 20h-84l-34 -280l64 -2c13 -1 18 -7 17 -18l-2 -20h-220l3 20c1 11 9 17 22 18l65 2l77 629l-64 2
c-13 1 -19 7 -18 18l2 19h256c147 0 236 -51 221 -186c-13 -113 -108 -183 -225 -196c7 -5 14 -12 19 -20l180 -267zM310 358c118 0 208 57 220 160c13 110 -63 150 -176 150h-120l-38 -310h114z" />
    <glyph glyph-name="Rcaron" unicode="&#x158;" horiz-adv-x="644" 
d="M266 870c7 0 12 -2 15 -4l71 -62l7 -7l10 7l85 62c5 3 12 4 18 4h36l-129 -99h-45l-106 99h38zM591 38c13 -1 19 -7 18 -18l-3 -20h-70c-11 0 -18 4 -24 13l-191 287c-13 18 -21 20 -46 20h-84l-34 -280l64 -2c13 -1 18 -7 17 -18l-2 -20h-220l3 20c1 11 9 17 22 18l65 2
l77 629l-64 2c-13 1 -19 7 -18 18l2 19h256c147 0 236 -51 221 -186c-13 -113 -108 -183 -225 -196c7 -5 14 -12 19 -20l180 -267zM310 358c118 0 208 57 220 160c13 110 -63 150 -176 150h-120l-38 -310h114z" />
    <glyph glyph-name="uni0156" unicode="&#x156;" horiz-adv-x="644" 
d="M591 38c13 -1 19 -7 18 -18l-3 -20h-70c-11 0 -18 4 -24 13l-191 287c-13 18 -21 20 -46 20h-84l-34 -280l64 -2c13 -1 18 -7 17 -18l-2 -20h-220l3 20c1 11 9 17 22 18l65 2l77 629l-64 2c-13 1 -19 7 -18 18l2 19h256c147 0 236 -51 221 -186
c-13 -113 -108 -183 -225 -196c7 -5 14 -12 19 -20l180 -267zM310 358c118 0 208 57 220 160c13 110 -63 150 -176 150h-120l-38 -310h114zM267 -93c2 23 25 43 49 43c30 0 43 -23 39 -54c-8 -57 -48 -119 -95 -157l-7 7c-6 7 -4 11 3 18c23 18 54 66 63 101
c-3 -1 -9 -2 -15 -2c-25 0 -41 19 -37 44z" />
    <glyph glyph-name="Scedilla" unicode="&#x15e;" horiz-adv-x="518" 
d="M460 529c-14 0 -20 9 -19 25l7 94c-38 17 -81 25 -129 25c-92 0 -165 -57 -174 -137c-10 -85 51 -116 159 -150c105 -34 170 -78 156 -179c-16 -124 -107 -201 -221 -213l-1 -2l-17 -37c57 -10 87 -27 83 -68c-4 -42 -49 -64 -100 -64c-27 0 -49 6 -70 21l7 14
c5 10 12 5 15 3c13 -9 34 -15 50 -15c31 0 56 12 60 41c5 39 -44 42 -84 49l25 56c-66 0 -127 13 -185 39l19 158h24c14 0 20 -8 19 -24l-8 -103c36 -18 82 -27 138 -27c104 0 185 63 198 164c12 91 -50 114 -160 151c-113 38 -168 82 -155 183c14 110 111 182 227 182
c59 0 118 -14 178 -41l-18 -145h-24z" />
    <glyph glyph-name="Tbar" unicode="&#x166;" horiz-adv-x="620" 
d="M46 707h563l-18 -146h-24c-14 0 -20 8 -19 24l6 79h-206l-36 -291h141l-4 -38h-142l-36 -295l64 -2c13 -1 19 -7 18 -18l-2 -20h-220l3 20c1 11 9 17 22 18l64 2l36 295h-99l6 38h98l36 291h-207l-14 -79c-3 -16 -10 -24 -24 -24h-24z" />
    <glyph glyph-name="Tcaron" unicode="&#x164;" horiz-adv-x="620" 
d="M239 870c7 0 12 -2 15 -4l71 -62l7 -7l10 7l85 62c5 3 12 4 18 4h36l-129 -99h-45l-106 99h38zM609 707l-18 -146h-24c-14 0 -20 8 -19 24l6 79h-206l-77 -624l64 -2c13 -1 19 -7 18 -18l-2 -20h-220l3 20c1 11 9 17 22 18l64 2l77 624h-207l-14 -79
c-3 -16 -10 -24 -24 -24h-24l18 146h563z" />
    <glyph glyph-name="uni0162" unicode="&#x162;" horiz-adv-x="620" 
d="M46 707h563l-18 -146h-24c-14 0 -20 8 -19 24l6 79h-206l-77 -624l64 -2c13 -1 19 -7 18 -18l-2 -20h-94l-4 -8l-17 -37c57 -10 87 -27 83 -68c-4 -42 -49 -64 -100 -64c-27 0 -49 6 -70 21l7 14c5 10 12 5 15 3c13 -9 34 -15 50 -15c31 0 56 12 60 41
c5 39 -44 42 -84 49l25 57l3 7h-94l3 20c1 11 9 17 22 18l64 2l77 624h-207l-14 -79c-3 -16 -10 -24 -24 -24h-24z" />
    <glyph glyph-name="Uhungarumlaut" unicode="&#x170;" horiz-adv-x="754" 
d="M331 780c-6 -6 -11 -9 -20 -9h-23l88 95c11 11 19 16 34 16h33zM467 780c-9 -6 -12 -9 -21 -9h-26l102 95c14 11 20 16 35 16h38zM305 -8c-165 0 -254 121 -233 278l48 399l-64 2c-13 1 -18 7 -17 18l2 19h233l-3 -19c-1 -11 -9 -17 -22 -18l-77 -2l-49 -399
c-16 -134 55 -234 188 -234s230 99 246 234l48 399l-76 2c-13 1 -19 7 -18 18l3 19h232l-3 -19c-1 -11 -9 -17 -22 -18l-65 -2l-48 -399c-21 -163 -141 -278 -303 -278z" />
    <glyph glyph-name="Umacron" unicode="&#x16a;" horiz-adv-x="754" 
d="M570 843l-4 -32h-271l3 32h272zM305 -8c-165 0 -254 121 -233 278l48 399l-64 2c-13 1 -18 7 -17 18l2 19h233l-3 -19c-1 -11 -9 -17 -22 -18l-77 -2l-49 -399c-16 -134 55 -234 188 -234s230 99 246 234l48 399l-76 2c-13 1 -19 7 -18 18l3 19h232l-3 -19
c-1 -11 -9 -17 -22 -18l-65 -2l-48 -399c-21 -163 -141 -278 -303 -278z" />
    <glyph glyph-name="Uogonek" unicode="&#x172;" horiz-adv-x="754" 
d="M514 708h232l-3 -19c-1 -11 -9 -17 -22 -18l-65 -2l-48 -399c-18 -143 -113 -249 -245 -273c-37 -21 -68 -50 -72 -85c-4 -36 20 -50 51 -50c18 0 37 4 50 13c4 3 10 3 13 -2l7 -15c-22 -17 -54 -27 -83 -27c-48 0 -82 25 -76 71c3 38 35 67 71 91c-6 -1 -13 -1 -19 -1
c-165 0 -254 121 -233 278l48 399l-64 2c-13 1 -18 7 -17 18l2 19h233l-3 -19c-1 -11 -9 -17 -22 -18l-77 -2l-49 -399c-16 -134 55 -234 188 -234s230 99 246 234l48 399l-76 2c-13 1 -19 7 -18 18z" />
    <glyph glyph-name="Uring" unicode="&#x16e;" horiz-adv-x="754" 
d="M330 846c4 44 48 79 93 79c47 0 78 -32 74 -79s-51 -79 -93 -79c-46 0 -78 32 -74 79zM356 846c-4 -34 16 -57 51 -57c37 0 60 27 64 57c4 32 -15 57 -50 57c-37 0 -61 -26 -65 -57zM305 -8c-165 0 -254 121 -233 278l48 399l-64 2c-13 1 -18 7 -17 18l2 19h233l-3 -19
c-1 -11 -9 -17 -22 -18l-77 -2l-49 -399c-16 -134 55 -234 188 -234s230 99 246 234l48 399l-76 2c-13 1 -19 7 -18 18l3 19h232l-3 -19c-1 -11 -9 -17 -22 -18l-65 -2l-48 -399c-21 -163 -141 -278 -303 -278z" />
    <glyph glyph-name="Wacute" unicode="&#x1e82;" horiz-adv-x="1095" 
d="M626 810c-6 -4 -12 -6 -20 -6h-35l126 103c14 11 20 11 32 11h56zM1086 708l-2 -19c-1 -11 -9 -17 -22 -18l-35 -2l-293 -669h-46l-133 615c-2 8 -3 16 -4 25c-3 -9 -6 -17 -10 -25l-285 -615h-46l-128 669l-35 2c-13 1 -18 7 -17 18l2 19h190l-3 -19
c-1 -11 -9 -17 -22 -18l-59 -2l103 -556c2 -14 4 -31 4 -46c5 15 11 31 17 45l271 583c4 7 12 13 21 13h14c9 0 15 -4 17 -13l128 -582l6 -45c0 1 15 45 15 45l239 556l-61 2c-13 1 -19 7 -18 18l2 19h190z" />
    <glyph glyph-name="Wcircumflex" unicode="&#x174;" horiz-adv-x="1095" 
d="M651 819c-5 0 -13 2 -16 5l-70 62l-8 8l-9 -8l-86 -62c-7 -5 -14 -5 -17 -5h-37l130 99h45l105 -99h-37zM1086 708l-2 -19c-1 -11 -9 -17 -22 -18l-35 -2l-293 -669h-46l-133 615c-2 8 -3 16 -4 25c-3 -9 -6 -17 -10 -25l-285 -615h-46l-128 669l-35 2
c-13 1 -18 7 -17 18l2 19h190l-3 -19c-1 -11 -9 -17 -22 -18l-59 -2l103 -556c2 -14 4 -31 4 -46c5 15 11 31 17 45l271 583c4 7 12 13 21 13h14c9 0 15 -4 17 -13l128 -582l6 -45c0 1 15 45 15 45l239 556l-61 2c-13 1 -19 7 -18 18l2 19h190z" />
    <glyph glyph-name="Wdieresis" unicode="&#x1e84;" horiz-adv-x="1095" 
d="M439 845c-23 0 -38 18 -36 41c2 22 23 40 46 40c22 0 37 -18 35 -40c-2 -23 -23 -41 -45 -41zM647 845c-23 0 -38 18 -36 41c2 22 23 40 46 40c22 0 37 -18 35 -40c-2 -23 -23 -41 -45 -41zM1086 708l-2 -19c-1 -11 -9 -17 -22 -18l-35 -2l-293 -669h-46l-133 615
c-2 8 -3 16 -4 25c-3 -9 -6 -17 -10 -25l-285 -615h-46l-128 669l-35 2c-13 1 -18 7 -17 18l2 19h190l-3 -19c-1 -11 -9 -17 -22 -18l-59 -2l103 -556c2 -14 4 -31 4 -46c5 15 11 31 17 45l271 583c4 7 12 13 21 13h14c9 0 15 -4 17 -13l128 -582l6 -45c0 1 15 45 15 45
l239 556l-61 2c-13 1 -19 7 -18 18l2 19h190z" />
    <glyph glyph-name="Wgrave" unicode="&#x1e80;" horiz-adv-x="1095" 
d="M435 918c15 0 20 -1 30 -11l101 -103h-36c-8 0 -13 1 -18 6l-133 108h56zM1086 708l-2 -19c-1 -11 -9 -17 -22 -18l-35 -2l-293 -669h-46l-133 615c-2 8 -3 16 -4 25c-3 -9 -6 -17 -10 -25l-285 -615h-46l-128 669l-35 2c-13 1 -18 7 -17 18l2 19h190l-3 -19
c-1 -11 -9 -17 -22 -18l-59 -2l103 -556c2 -14 4 -31 4 -46c5 15 11 31 17 45l271 583c4 7 12 13 21 13h14c9 0 15 -4 17 -13l128 -582l6 -45c0 1 15 45 15 45l239 556l-61 2c-13 1 -19 7 -18 18l2 19h190z" />
    <glyph glyph-name="Ycircumflex" unicode="&#x176;" horiz-adv-x="680" 
d="M443 819c-5 0 -13 2 -16 5l-70 62l-8 8l-9 -8l-86 -62c-7 -5 -14 -5 -17 -5h-37l130 99h45l105 -99h-37zM670 708l-2 -19c-1 -11 -9 -17 -22 -18l-37 -2l-283 -377l-31 -252l64 -2c13 -1 19 -7 18 -18l-3 -20h-220l3 20c1 11 9 17 22 18l64 2l31 252l-190 377l-37 2
c-13 1 -18 7 -17 18l2 19h185l-3 -19c-2 -11 -9 -17 -22 -18l-52 -2l149 -299c5 -10 13 -35 16 -44c5 9 19 34 26 44l222 299l-52 2c-13 1 -19 7 -18 18l3 19h184z" />
    <glyph glyph-name="Ygrave" unicode="&#x1ef2;" horiz-adv-x="680" 
d="M227 918c15 0 20 -1 30 -11l101 -103h-36c-8 0 -13 1 -18 6l-133 108h56zM670 708l-2 -19c-1 -11 -9 -17 -22 -18l-37 -2l-283 -377l-31 -252l64 -2c13 -1 19 -7 18 -18l-3 -20h-220l3 20c1 11 9 17 22 18l64 2l31 252l-190 377l-37 2c-13 1 -18 7 -17 18l2 19h185
l-3 -19c-2 -11 -9 -17 -22 -18l-52 -2l149 -299c5 -10 13 -35 16 -44c5 9 19 34 26 44l222 299l-52 2c-13 1 -19 7 -18 18l3 19h184z" />
    <glyph glyph-name="abreve" unicode="&#x103;" horiz-adv-x="502" 
d="M323 584c-81 0 -113 49 -105 124h35c-8 -55 18 -92 74 -92c62 0 87 38 96 92h35c-9 -78 -57 -124 -135 -124zM429 38c13 -1 19 -7 18 -18l-3 -20h-89c-13 0 -17 10 -17 16l17 156c-42 -91 -114 -178 -203 -178c-91 0 -126 77 -126 173c0 175 140 337 303 337
c40 0 76 -6 108 -23l-54 -442zM363 256l25 203c-20 7 -41 10 -64 10c-136 0 -251 -149 -251 -294c0 -79 23 -142 94 -142c93 0 160 124 196 223z" />
    <glyph glyph-name="amacron" unicode="&#x101;" horiz-adv-x="502" 
d="M473 643l-4 -32h-271l3 32h272zM429 38c13 -1 19 -7 18 -18l-3 -20h-89c-13 0 -17 10 -17 16l17 156c-42 -91 -114 -178 -203 -178c-91 0 -126 77 -126 173c0 175 140 337 303 337c40 0 76 -6 108 -23l-54 -442zM363 256l25 203c-20 7 -41 10 -64 10
c-136 0 -251 -149 -251 -294c0 -79 23 -142 94 -142c93 0 160 124 196 223z" />
    <glyph glyph-name="ccaron" unicode="&#x10d;" horiz-adv-x="448" 
d="M293 584h-43l-93 124h33c5 0 10 -2 13 -6l73 -88l6 6l88 82c2 2 4 3 7 4s5 2 7 2h33zM363 373l4 78c-30 11 -58 17 -83 17c-124 0 -191 -98 -206 -219c-15 -129 33 -218 146 -218c50 0 100 19 131 46c12 10 20 10 25 3l11 -16c-43 -48 -118 -71 -179 -71
c-137 0 -200 109 -182 256c21 151 107 256 256 256c65 0 112 -21 136 -31l-16 -125h-24c-14 0 -20 8 -19 24z" />
    <glyph glyph-name="dcaron" unicode="&#x10f;" horiz-adv-x="533" 
d="M609 738c10 -22 15 -51 11 -75c-6 -55 -45 -106 -85 -141l-11 7c-5 3 -6 10 -1 16c28 32 53 69 57 103c2 19 -2 40 -11 60c-3 8 0 15 8 18zM483 0h-93c-8 0 -13 4 -13 13l4 79c-53 -61 -113 -98 -188 -98c-137 0 -181 103 -163 254c16 144 109 258 249 258
c62 0 110 -22 142 -73l32 255l-52 2c-13 1 -19 7 -18 18l2 20h120l-84 -689l46 -1c13 -1 19 -7 18 -18zM416 391c-31 54 -71 78 -133 78c-124 0 -188 -100 -204 -221c-15 -127 14 -216 132 -216c71 0 127 42 173 97z" />
    <glyph glyph-name="dcroat" unicode="&#x111;" horiz-adv-x="533" 
d="M549 563h-64l-64 -524l46 -1c13 -1 19 -7 18 -18l-2 -20h-93c-8 0 -13 4 -13 13l4 79c-53 -61 -113 -98 -188 -98c-137 0 -181 103 -163 254c16 144 109 258 249 258c62 0 110 -22 142 -73l16 130h-180l6 38h179l11 87l-52 2c-13 1 -19 7 -18 18l2 20h120l-15 -127h63z
M384 129l32 262c-31 54 -71 78 -133 78c-124 0 -188 -100 -204 -221c-15 -127 14 -216 132 -216c71 0 127 42 173 97z" />
    <glyph glyph-name="ecaron" unicode="&#x11b;" horiz-adv-x="438" 
d="M178 708c5 0 10 -2 13 -6l73 -88l6 6l88 82c2 2 4 3 7 4s5 2 7 2h33l-124 -124h-43l-93 124h33zM410 402c0 -134 -200 -155 -336 -171l-2 -41c0 -95 42 -159 135 -159c70 0 97 22 156 74c7 7 16 7 23 0l11 -13c-54 -64 -118 -98 -198 -98c-118 0 -173 83 -173 195
c0 163 102 315 251 315c75 0 133 -41 133 -102zM275 469c-106 0 -175 -100 -195 -205c119 14 288 35 288 137c0 44 -40 68 -93 68z" />
    <glyph glyph-name="edotaccent" unicode="&#x117;" horiz-adv-x="438" 
d="M292 632c-24 0 -41 20 -39 44c2 23 26 44 50 44s39 -21 38 -44c-1 -24 -25 -44 -49 -44zM410 402c0 -134 -200 -155 -336 -171l-2 -41c0 -95 42 -159 135 -159c70 0 97 22 156 74c7 7 16 7 23 0l11 -13c-54 -64 -118 -98 -198 -98c-118 0 -173 83 -173 195
c0 163 102 315 251 315c75 0 133 -41 133 -102zM275 469c-106 0 -175 -100 -195 -205c119 14 288 35 288 137c0 44 -40 68 -93 68z" />
    <glyph glyph-name="emacron" unicode="&#x113;" horiz-adv-x="438" 
d="M423 643l-4 -32h-271l3 32h272zM410 402c0 -134 -200 -155 -336 -171l-2 -41c0 -95 42 -159 135 -159c70 0 97 22 156 74c7 7 16 7 23 0l11 -13c-54 -64 -118 -98 -198 -98c-118 0 -173 83 -173 195c0 163 102 315 251 315c75 0 133 -41 133 -102zM275 469
c-106 0 -175 -100 -195 -205c119 14 288 35 288 137c0 44 -40 68 -93 68z" />
    <glyph glyph-name="uni0123" unicode="&#x123;" horiz-adv-x="509" 
d="M265 583c-30 0 -43 23 -39 54c8 57 48 119 95 157l7 -7c6 -7 4 -11 -3 -18c-23 -18 -54 -66 -63 -101c3 1 9 2 15 2c25 0 41 -19 37 -44c-2 -23 -25 -43 -49 -43zM365 481h130l-2 -16c0 -6 -6 -12 -14 -14l-81 -6c13 -22 19 -54 19 -76c0 -60 -25 -97 -68 -158
c-12 -18 -23 -46 -23 -65c0 -27 18 -52 40 -77c24 -27 40 -57 40 -91c0 -100 -113 -162 -221 -162c-94 0 -179 37 -179 118c0 104 122 150 237 150c14 0 62 -4 68 -5c-12 16 -20 35 -20 53c0 31 13 55 29 80c-32 -21 -56 -29 -93 -29c-83 0 -133 55 -133 139
c0 102 77 184 183 184c33 0 61 -7 88 -25zM238 214c83 0 136 73 136 154c0 66 -36 104 -102 104c-79 0 -134 -69 -134 -150c0 -70 37 -108 100 -108zM336 48c-17 3 -74 7 -89 7c-94 0 -196 -36 -196 -115c0 -67 68 -90 138 -90c87 0 174 53 174 125c0 31 -11 52 -27 73z" />
    <glyph glyph-name="imacron" unicode="&#x12b;" horiz-adv-x="203" 
d="M279 643l-4 -32h-271l3 32h272zM154 38c13 -1 18 -7 17 -18l-2 -20h-120l57 458l-53 2c-13 1 -18 7 -17 18l2 20h120l-56 -458z" />
    <glyph glyph-name="iogonek" unicode="&#x12f;" horiz-adv-x="221" 
d="M175 716c24 0 41 -21 38 -44c-1 -24 -25 -44 -49 -44s-41 20 -39 44c2 23 26 44 50 44zM168 38c13 -1 18 -7 17 -18l-2 -20h-60c-39 -22 -73 -51 -77 -88c-4 -36 20 -50 51 -50c18 0 37 4 50 13c4 3 10 3 13 -2l7 -15c-22 -17 -54 -27 -83 -27c-48 0 -82 25 -76 71
c4 42 42 73 82 98h-27l57 458l-53 2c-13 1 -18 7 -17 18l2 20h120l-56 -458z" />
    <glyph glyph-name="uni0137" unicode="&#x137;" horiz-adv-x="492" 
d="M478 498l-3 -20c-1 -11 -9 -17 -22 -18l-36 -2l-199 -169s-16 -15 -21 -17c5 -1 12 -9 12 -9l179 -224l38 -1c13 -1 18 -7 17 -18l-2 -20h-64c-11 0 -19 7 -22 11l-181 224c-12 14 -17 16 -36 16h-22l-31 -251h-47l84 688l-52 2c-13 1 -19 7 -18 18l3 19h119l-54 -443h23
c13 0 22 6 28 11l193 164l-25 1c-13 1 -19 7 -18 18l3 20h154zM191 -93c2 23 25 43 49 43c30 0 43 -23 39 -54c-8 -57 -48 -119 -95 -157l-7 7c-6 7 -4 11 3 18c23 18 54 66 63 101c-3 -1 -9 -2 -15 -2c-25 0 -41 19 -37 44z" />
    <glyph glyph-name="lacute" unicode="&#x13a;" horiz-adv-x="207" 
d="M112 774c-6 -4 -12 -6 -20 -6h-35l126 103c14 11 20 11 32 11h56zM142 38c13 -1 19 -7 18 -18l-3 -20h-119l84 688l-52 2c-13 1 -19 7 -18 18l3 20h119l-84 -688z" />
    <glyph glyph-name="lcaron" unicode="&#x13e;" horiz-adv-x="207" 
d="M262 738c10 -22 15 -51 11 -75c-6 -55 -45 -106 -85 -141l-11 7c-5 3 -6 10 -1 16c28 32 53 69 57 103c2 19 -2 40 -11 60c-3 8 0 15 8 18zM142 38c13 -1 19 -7 18 -18l-3 -20h-119l84 688l-52 2c-13 1 -19 7 -18 18l3 20h119l-84 -688z" />
    <glyph glyph-name="uni013C" unicode="&#x13c;" horiz-adv-x="207" 
d="M142 38c13 -1 19 -7 18 -18l-3 -20h-119l84 688l-52 2c-13 1 -19 7 -18 18l3 20h119l-84 -688zM49 -93c2 23 25 43 49 43c30 0 43 -23 39 -54c-8 -57 -48 -119 -95 -157l-7 7c-6 7 -4 11 3 18c23 18 54 66 63 101c-3 -1 -9 -2 -15 -2c-25 0 -41 19 -37 44z" />
    <glyph glyph-name="ncaron" unicode="&#x148;" horiz-adv-x="565" 
d="M186 708c5 0 10 -2 13 -6l73 -88l6 6l88 82c2 2 4 3 7 4s5 2 7 2h33l-124 -124h-43l-93 124h33zM499 38c13 -1 18 -7 17 -18l-2 -20h-120l39 319c11 91 -20 149 -111 149c-71 0 -130 -40 -178 -94l-46 -374h-47l56 459l-52 2c-13 1 -19 7 -18 18l3 19h98
c9 0 13 -4 13 -12l-4 -75c51 57 116 95 191 95c114 0 156 -79 143 -187l-34 -279z" />
    <glyph glyph-name="uni0146" unicode="&#x146;" horiz-adv-x="565" 
d="M499 38c13 -1 18 -7 17 -18l-2 -20h-120l39 319c11 91 -20 149 -111 149c-71 0 -130 -40 -178 -94l-46 -374h-47l56 459l-52 2c-13 1 -19 7 -18 18l3 19h98c9 0 13 -4 13 -12l-4 -75c51 57 116 95 191 95c114 0 156 -79 143 -187l-34 -279zM228 -93c2 23 25 43 49 43
c30 0 43 -23 39 -54c-8 -57 -48 -119 -95 -157l-7 7c-6 7 -4 11 3 18c23 18 54 66 63 101c-3 -1 -9 -2 -15 -2c-25 0 -41 19 -37 44z" />
    <glyph glyph-name="eng" unicode="&#x14b;" horiz-adv-x="532" 
d="M338 506c114 0 156 -79 143 -187l-47 -382c-9 -75 -58 -121 -134 -121c-17 0 -34 3 -47 10l5 24c2 10 14 5 19 4s12 -2 20 -2c56 0 83 35 89 85l47 382c11 91 -20 149 -111 149c-71 0 -130 -40 -178 -94l-46 -374h-47l56 459l-52 2c-13 1 -19 7 -18 18l3 19h98
c9 0 13 -4 13 -12l-4 -75c51 57 116 95 191 95z" />
    <glyph glyph-name="ohungarumlaut" unicode="&#x151;" horiz-adv-x="522" 
d="M257 589c-7 -7 -16 -9 -20 -9h-21l91 120c7 10 18 16 31 16h33zM376 589c-6 -6 -11 -9 -20 -9h-23l106 120c9 11 17 16 31 16h37zM288 506c144 0 214 -106 195 -257c-20 -155 -113 -255 -258 -255c-146 0 -214 105 -195 255c20 156 114 257 258 257zM230 31
c125 0 188 94 204 218c16 129 -29 219 -151 219c-125 0 -189 -96 -204 -219c-16 -132 32 -218 151 -218z" />
    <glyph glyph-name="omacron" unicode="&#x14d;" horiz-adv-x="522" 
d="M435 643l-4 -32h-271l3 32h272zM288 506c144 0 214 -106 195 -257c-20 -155 -113 -255 -258 -255c-146 0 -214 105 -195 255c20 156 114 257 258 257zM230 31c125 0 188 94 204 218c16 129 -29 219 -151 219c-125 0 -189 -96 -204 -219c-16 -132 32 -218 151 -218z" />
    <glyph glyph-name="racute" unicode="&#x155;" horiz-adv-x="411" 
d="M203 600c-6 -4 -12 -6 -20 -6h-35l126 103c14 11 20 11 32 11h56zM396 487l-10 -33c-5 -11 -14 -8 -20 -6c-23 8 -29 11 -60 11c-79 0 -131 -54 -168 -136l-40 -323h-47l56 459l-52 2c-13 1 -19 7 -18 18l3 19h97c15 0 14 -6 14 -15l-8 -106c43 82 98 129 178 129
c27 0 51 -6 75 -19z" />
    <glyph glyph-name="rcaron" unicode="&#x159;" horiz-adv-x="411" 
d="M139 708c5 0 10 -2 13 -6l73 -88l6 6l88 82c2 2 4 3 7 4s5 2 7 2h33l-124 -124h-43l-93 124h33zM396 487l-10 -33c-5 -11 -14 -8 -20 -6c-23 8 -29 11 -60 11c-79 0 -131 -54 -168 -136l-40 -323h-47l56 459l-52 2c-13 1 -19 7 -18 18l3 19h97c15 0 14 -6 14 -15l-8 -106
c43 82 98 129 178 129c27 0 51 -6 75 -19z" />
    <glyph glyph-name="uni0157" unicode="&#x157;" horiz-adv-x="411" 
d="M396 487l-10 -33c-5 -11 -14 -8 -20 -6c-23 8 -29 11 -60 11c-79 0 -131 -54 -168 -136l-40 -323h-47l56 459l-52 2c-13 1 -19 7 -18 18l3 19h97c15 0 14 -6 14 -15l-8 -106c43 82 98 129 178 129c27 0 51 -6 75 -19zM22 -93c2 23 25 43 49 43c30 0 43 -23 39 -54
c-8 -57 -48 -119 -95 -157l-7 7c-6 7 -4 11 3 18c23 18 54 66 63 101c-3 -1 -9 -2 -15 -2c-25 0 -41 19 -37 44z" />
    <glyph glyph-name="scedilla" unicode="&#x15f;" horiz-adv-x="416" 
d="M242 274c84 -25 131 -61 123 -128c-11 -79 -69 -133 -146 -149l-2 -5l-17 -37c57 -10 87 -27 83 -68c-4 -42 -49 -64 -100 -64c-27 0 -49 6 -70 21l7 14c5 10 12 5 15 3c13 -9 34 -15 50 -15c31 0 56 12 60 41c5 39 -44 42 -84 49l25 56h-15c-50 0 -97 10 -143 28l14 121
h25c14 0 19 -8 18 -24l-3 -74c26 -11 58 -16 96 -16c71 0 131 39 141 111c8 61 -51 83 -126 105c-81 24 -134 56 -123 128c9 80 92 134 181 134c36 0 79 -8 129 -26l-15 -119h-24c-14 0 -19 8 -18 24l2 72c-26 9 -51 13 -77 13c-63 0 -123 -36 -132 -95
c-8 -58 49 -76 126 -100z" />
    <glyph glyph-name="tbar" unicode="&#x167;" horiz-adv-x="332" 
d="M314 446h-157l-21 -173h155l-4 -33h-155l-16 -131c-6 -46 15 -78 59 -78c26 0 60 18 72 28c7 6 15 7 19 -1l9 -20c-29 -29 -79 -46 -115 -46c-71 0 -102 41 -93 114l17 134h-84l6 33h82l21 173h-71c-7 0 -11 3 -11 12l2 18l86 6l33 178c2 6 7 12 14 12h23l-23 -190h156z
" />
    <glyph glyph-name="tcaron" unicode="&#x165;" horiz-adv-x="332" 
d="M300 738c10 -22 15 -51 11 -75c-6 -55 -45 -106 -85 -141l-11 7c-5 3 -6 10 -1 16c28 32 53 69 57 103c2 19 -2 40 -11 60c-3 8 0 15 8 18zM160 -8c-71 0 -102 41 -93 114l42 340h-71c-7 0 -11 3 -11 12l2 18l86 6l33 178c2 6 7 12 14 12h23l-23 -190h156l-4 -36h-157
l-41 -337c-6 -46 15 -78 59 -78c26 0 60 18 72 28c7 6 15 7 19 -1l9 -20c-29 -29 -79 -46 -115 -46z" />
    <glyph glyph-name="uni0163" unicode="&#x163;" horiz-adv-x="332" 
d="M157 446l-41 -337c-6 -46 15 -78 59 -78c26 0 60 18 72 28c7 6 15 7 19 -1l9 -20c-25 -25 -66 -41 -100 -45v-1l-17 -37c57 -10 87 -27 83 -68c-4 -42 -49 -64 -100 -64c-27 0 -49 6 -70 21l7 14c5 10 12 5 15 3c13 -9 34 -15 50 -15c31 0 56 12 60 41
c5 39 -44 42 -84 49l25 57c-60 6 -85 46 -77 113l42 340h-71c-7 0 -11 3 -11 12l2 18l86 6l33 178c2 6 7 12 14 12h23l-23 -190h156l-4 -36h-157z" />
    <glyph glyph-name="uhungarumlaut" unicode="&#x171;" horiz-adv-x="564" 
d="M252 589c-7 -7 -16 -9 -20 -9h-21l91 120c7 10 18 16 31 16h33zM371 589c-6 -6 -11 -9 -20 -9h-23l106 120c9 11 17 16 31 16h37zM494 38c13 -1 18 -7 17 -18l-2 -20h-98c-9 0 -14 4 -13 13l4 74c-54 -58 -118 -95 -192 -95c-115 0 -157 81 -143 188l35 278l-53 2
c-13 1 -18 7 -17 18l2 19h72l48 1l-39 -318c-12 -93 23 -150 111 -150c70 0 131 41 178 94l42 334l-53 2c-13 1 -18 7 -17 18l2 19h72l48 1l-56 -458z" />
    <glyph glyph-name="umacron" unicode="&#x16b;" horiz-adv-x="564" 
d="M430 643l-4 -32h-271l3 32h272zM494 38c13 -1 18 -7 17 -18l-2 -20h-98c-9 0 -14 4 -13 13l4 74c-54 -58 -118 -95 -192 -95c-115 0 -157 81 -143 188l35 278l-53 2c-13 1 -18 7 -17 18l2 19h72l48 1l-39 -318c-12 -93 23 -150 111 -150c70 0 131 41 178 94l42 334l-53 2
c-13 1 -18 7 -17 18l2 19h72l48 1l-56 -458z" />
    <glyph glyph-name="uogonek" unicode="&#x173;" horiz-adv-x="564" 
d="M515 -127l7 -15c-22 -17 -54 -27 -83 -27c-48 0 -82 25 -76 71c4 42 42 73 82 98h-34c-9 0 -14 4 -13 13l4 74c-54 -58 -118 -95 -192 -95c-115 0 -157 81 -143 188l35 278l-53 2c-13 1 -18 7 -17 18l2 19h72l48 1l-39 -318c-12 -93 23 -150 111 -150c70 0 131 41 178 94
l42 334l-53 2c-13 1 -18 7 -17 18l2 19h72l48 1l-56 -458l52 -2c13 -1 18 -7 17 -18l-2 -20h-31c-39 -22 -73 -51 -77 -88c-4 -36 20 -50 51 -50c18 0 37 4 50 13c4 3 10 3 13 -2z" />
    <glyph glyph-name="uring" unicode="&#x16f;" horiz-adv-x="564" 
d="M215 651c1 12 4 23 10 33s13 19 22 26s19 13 30 17s22 6 34 6s22 -2 32 -6s19 -10 26 -17s12 -16 15 -26s4 -21 3 -33s-5 -23 -11 -33s-13 -19 -22 -26s-18 -12 -29 -16s-22 -6 -34 -6s-23 2 -33 6s-18 9 -25 16s-13 16 -16 26s-3 21 -2 33zM244 651c-2 -17 2 -30 11 -41
s22 -16 39 -16s31 5 43 16s19 24 21 41s-2 30 -11 41s-22 16 -39 16s-31 -5 -43 -16s-19 -24 -21 -41zM494 38c13 -1 18 -7 17 -18l-2 -20h-98c-9 0 -14 4 -13 13l4 74c-54 -58 -118 -95 -192 -95c-115 0 -157 81 -143 188l35 278l-53 2c-13 1 -18 7 -17 18l2 19h72l48 1
l-39 -318c-12 -93 23 -150 111 -150c70 0 131 41 178 94l42 334l-53 2c-13 1 -18 7 -17 18l2 19h72l48 1l-56 -458z" />
    <glyph glyph-name="wacute" unicode="&#x1e83;" horiz-adv-x="842" 
d="M511 600c-6 -4 -12 -6 -20 -6h-35l126 103c14 11 20 11 32 11h56zM827 498l-2 -19c-1 -11 -9 -17 -22 -18l-35 -1l-210 -460h-35c-5 0 -9 4 -10 11l-87 404l-5 31l-11 -31l-187 -404c-3 -7 -8 -11 -14 -11h-33l-97 460l-33 1c-13 1 -19 7 -18 18l3 19h174l-3 -19
c-1 -11 -9 -17 -22 -18l-52 -2l72 -366c2 -14 4 -27 4 -43c5 16 13 32 18 43l182 396c3 7 9 11 16 11h19c7 0 12 -4 13 -11l83 -396c3 -15 6 -29 7 -43c5 14 10 28 16 43l162 366l-52 2c-13 1 -18 7 -17 18l2 19h174z" />
    <glyph glyph-name="wcircumflex" unicode="&#x175;" horiz-adv-x="842" 
d="M548 584c-5 0 -9 2 -12 6l-68 82c-2 1 -4 4 -5 6l-3 -4c-1 -1 -2 -1 -3 -2l-88 -82c-2 -2 -5 -3 -7 -4s-5 -2 -8 -2h-33l124 124h43l93 -124h-33zM827 498l-2 -19c-1 -11 -9 -17 -22 -18l-35 -1l-210 -460h-35c-5 0 -9 4 -10 11l-87 404l-5 31l-11 -31l-187 -404
c-3 -7 -8 -11 -14 -11h-33l-97 460l-33 1c-13 1 -19 7 -18 18l3 19h174l-3 -19c-1 -11 -9 -17 -22 -18l-52 -2l72 -366c2 -14 4 -27 4 -43c5 16 13 32 18 43l182 396c3 7 9 11 16 11h19c7 0 12 -4 13 -11l83 -396c3 -15 6 -29 7 -43c5 14 10 28 16 43l162 366l-52 2
c-13 1 -18 7 -17 18l2 19h174z" />
    <glyph glyph-name="wdieresis" unicode="&#x1e85;" horiz-adv-x="842" 
d="M346 635c-23 0 -38 18 -36 41c2 22 23 40 46 40c22 0 37 -18 35 -40c-2 -23 -23 -41 -45 -41zM554 635c-23 0 -38 18 -36 41c2 22 23 40 46 40c22 0 37 -18 35 -40c-2 -23 -23 -41 -45 -41zM827 498l-2 -19c-1 -11 -9 -17 -22 -18l-35 -1l-210 -460h-35c-5 0 -9 4 -10 11
l-87 404l-5 31l-11 -31l-187 -404c-3 -7 -8 -11 -14 -11h-33l-97 460l-33 1c-13 1 -19 7 -18 18l3 19h174l-3 -19c-1 -11 -9 -17 -22 -18l-52 -2l72 -366c2 -14 4 -27 4 -43c5 16 13 32 18 43l182 396c3 7 9 11 16 11h19c7 0 12 -4 13 -11l83 -396c3 -15 6 -29 7 -43
c5 14 10 28 16 43l162 366l-52 2c-13 1 -18 7 -17 18l2 19h174z" />
    <glyph glyph-name="wgrave" unicode="&#x1e81;" horiz-adv-x="842" 
d="M428 716c17 0 23 -7 28 -16l64 -120h-27c-8 0 -14 3 -18 9l-93 127h46zM827 498l-2 -19c-1 -11 -9 -17 -22 -18l-35 -1l-210 -460h-35c-5 0 -9 4 -10 11l-87 404l-5 31l-11 -31l-187 -404c-3 -7 -8 -11 -14 -11h-33l-97 460l-33 1c-13 1 -19 7 -18 18l3 19h174l-3 -19
c-1 -11 -9 -17 -22 -18l-52 -2l72 -366c2 -14 4 -27 4 -43c5 16 13 32 18 43l182 396c3 7 9 11 16 11h19c7 0 12 -4 13 -11l83 -396c3 -15 6 -29 7 -43c5 14 10 28 16 43l162 366l-52 2c-13 1 -18 7 -17 18l2 19h174z" />
    <glyph glyph-name="ycircumflex" unicode="&#x177;" horiz-adv-x="579" 
d="M405 584c-5 0 -9 2 -12 6l-68 82c-2 1 -4 4 -5 6l-3 -4c-1 -1 -2 -1 -3 -2l-88 -82c-2 -2 -5 -3 -7 -4s-5 -2 -8 -2h-33l124 124h43l93 -124h-33zM565 498l-3 -19c-1 -11 -9 -17 -22 -18l-34 -1l-345 -620c-5 -9 -15 -16 -24 -16h-34l112 194l-140 442l-30 1
c-13 1 -19 7 -18 18l3 19h174l-3 -19c-1 -11 -9 -17 -22 -18l-52 -2l112 -361l5 -32l15 32l198 361l-51 2c-13 1 -19 7 -18 18l3 19h174z" />
    <glyph glyph-name="ygrave" unicode="&#x1ef3;" horiz-adv-x="579" 
d="M285 716c17 0 23 -7 28 -16l64 -120h-27c-8 0 -14 3 -18 9l-93 127h46zM565 498l-3 -19c-1 -11 -9 -17 -22 -18l-34 -1l-345 -620c-5 -9 -15 -16 -24 -16h-34l112 194l-140 442l-30 1c-13 1 -19 7 -18 18l3 19h174l-3 -19c-1 -11 -9 -17 -22 -18l-52 -2l112 -361l5 -32
l15 32l198 361l-51 2c-13 1 -19 7 -18 18l3 19h174z" />
    <glyph glyph-name="uni2074" horiz-adv-x="642" 
d="M615 124l-3 -18c-1 -5 -3 -8 -9 -8h-55l-12 -98h-31l12 98h-163c-8 0 -11 3 -11 8l-1 16l205 236h33l-28 -234h63zM541 291c1 8 2 16 4 26l-168 -193h143z" />
    <glyph glyph-name="uni0308" unicode="&#x308;" 
d="M-245 635c-23 0 -38 18 -36 41c2 22 23 40 46 40c22 0 37 -18 35 -40c-2 -23 -23 -41 -45 -41zM-37 635c-23 0 -38 18 -36 41c2 22 23 40 46 40c22 0 37 -18 35 -40c-2 -23 -23 -41 -45 -41z" />
    <glyph glyph-name="uni0307" unicode="&#x307;" 
d="M-61 632c-24 0 -41 20 -39 44c2 23 26 44 50 44s39 -21 38 -44c-1 -24 -25 -44 -49 -44z" />
    <glyph glyph-name="gravecomb" unicode="&#x300;" 
d="M-99 716c17 0 23 -7 28 -16l64 -120h-27c-8 0 -14 3 -18 9l-93 127h46z" />
    <glyph glyph-name="acutecomb" unicode="&#x301;" 
d="M-126 600c-6 -4 -12 -6 -20 -6h-35l126 103c14 11 20 11 32 11h56z" />
    <glyph glyph-name="uni030B" unicode="&#x30b;" 
d="M-251 589c-7 -7 -16 -9 -20 -9h-21l91 120c7 10 18 16 31 16h33zM-132 589c-6 -6 -11 -9 -20 -9h-23l106 120c9 11 17 16 31 16h37z" />
    <glyph glyph-name="uni0302" unicode="&#x302;" 
d="M-44 584c-5 0 -9 2 -12 6l-68 82c-2 1 -4 4 -5 6l-3 -4c-1 -1 -2 -1 -3 -2l-88 -82c-2 -2 -5 -3 -7 -4s-5 -2 -8 -2h-33l124 124h43l93 -124h-33z" />
    <glyph glyph-name="uni030C" unicode="&#x30c;" 
d="M-272 708c5 0 10 -2 13 -6l73 -88l6 6l88 82c2 2 4 3 7 4s5 2 7 2h33l-124 -124h-43l-93 124h33z" />
    <glyph glyph-name="uni0306" unicode="&#x306;" 
d="M-141 584c-81 0 -113 49 -105 124h35c-8 -55 18 -92 74 -92c62 0 87 38 96 92h35c-9 -78 -57 -124 -135 -124z" />
    <glyph glyph-name="uni030A" unicode="&#x30a;" 
d="M-184 651c1 12 4 23 10 33s13 19 22 26s19 13 30 17s22 6 34 6s22 -2 32 -6s19 -10 26 -17s12 -16 15 -26s4 -21 3 -33s-5 -23 -11 -33s-13 -19 -22 -26s-18 -12 -29 -16s-22 -6 -34 -6s-23 2 -33 6s-18 9 -25 16s-13 16 -16 26s-3 21 -2 33zM-155 651
c-2 -17 2 -30 11 -41s22 -16 39 -16s31 5 43 16s19 24 21 41s-2 30 -11 41s-22 16 -39 16s-31 -5 -43 -16s-19 -24 -21 -41z" />
    <glyph glyph-name="tildecomb" unicode="&#x303;" 
d="M-139 640c14 0 26 5 34 14s14 21 16 37h29c-1 -12 -5 -24 -9 -34s-10 -19 -17 -27s-15 -14 -25 -18s-20 -6 -31 -6s-21 2 -30 8s-18 12 -26 18l-25 18c-8 6 -15 8 -24 8c-14 0 -26 -4 -34 -14s-14 -22 -17 -37h-30c1 12 4 24 9 34c5 11 11 19 18 27s15 14 25 18
s20 6 31 6s22 -2 31 -8s18 -12 26 -18l24 -18c8 -6 16 -8 25 -8z" />
    <glyph glyph-name="uni0304" unicode="&#x304;" 
d="M-55 643l-4 -32h-271l3 32h272z" />
    <glyph glyph-name="uni0312" unicode="&#x312;" 
d="M-36 626c-2 -23 -25 -43 -49 -43c-30 0 -43 23 -39 54c8 57 48 119 95 157l7 -7c6 -7 4 -11 -3 -18c-23 -18 -54 -66 -63 -101c3 1 9 2 15 2c25 0 41 -19 37 -44z" />
    <glyph glyph-name="uni0326" unicode="&#x326;" 
d="M-197 -93c2 23 25 43 49 43c30 0 43 -23 39 -54c-8 -57 -48 -119 -95 -157l-7 7c-6 7 -4 11 3 18c23 18 54 66 63 101c-3 -1 -9 -2 -15 -2c-25 0 -41 19 -37 44z" />
    <glyph glyph-name="uni0327" unicode="&#x327;" 
d="M-202 -7l10 22h32l-11 -23l-17 -37c57 -10 87 -27 83 -68c-4 -42 -49 -64 -100 -64c-27 0 -49 6 -70 21l7 14c5 10 12 5 15 3c13 -9 34 -15 50 -15c31 0 56 12 60 41c5 39 -44 42 -84 49z" />
    <glyph glyph-name="uni0328" unicode="&#x328;" 
d="M-70 -127l7 -15c-22 -17 -54 -27 -83 -27c-48 0 -82 25 -76 71c4 45 49 78 92 104l23 -6c-39 -22 -73 -51 -77 -88c-4 -36 20 -50 51 -50c18 0 37 4 50 13c4 3 10 3 13 -2z" />
    <glyph glyph-name="uni0335" unicode="&#x335;" 
d="M-361 335l6 38h290l-4 -38h-292z" />
    <glyph glyph-name="uni0337" unicode="&#x337;" 
d="M-507 -38l481 554c9 11 12 15 26 15h25l-479 -553c-10 -12 -24 -16 -33 -16h-20z" />
    <glyph glyph-name="uni0338" unicode="&#x338;" 
d="M-677 -52l672 777c10 10 15 15 27 15h28l-673 -776c-9 -11 -18 -16 -32 -16h-22z" />
    <glyph glyph-name="uni0308.case" 
d="M-256 635c-23 0 -38 18 -36 41c2 22 23 40 46 40c22 0 37 -18 35 -40c-2 -23 -23 -41 -45 -41zM-48 635c-23 0 -38 18 -36 41c2 22 23 40 46 40c22 0 37 -18 35 -40c-2 -23 -23 -41 -45 -41z" />
    <glyph glyph-name="uni0307.case" 
d="M-136 628c-24 0 -41 20 -39 44c2 23 26 44 50 44s41 -21 38 -44c-1 -24 -25 -44 -49 -44z" />
    <glyph glyph-name="gravecomb.case" 
d="M-224 708c15 0 20 -1 30 -11l101 -103h-36c-8 0 -13 1 -18 6l-133 108h56z" />
    <glyph glyph-name="acutecomb.case" 
d="M-153 600c-6 -4 -12 -6 -20 -6h-35l126 103c14 11 20 11 32 11h56z" />
    <glyph glyph-name="uni030B.case" 
d="M-349 780c-6 -6 -11 -9 -20 -9h-23l88 95c11 11 19 16 34 16h33zM-213 780c-9 -6 -12 -9 -21 -9h-26l102 95c14 11 20 16 35 16h38z" />
    <glyph glyph-name="uni0302.case" 
d="M-47 609c-5 0 -13 2 -16 5l-70 62l-8 8l-9 -8l-86 -62c-7 -5 -14 -5 -17 -5h-37l130 99h45l105 -99h-37z" />
    <glyph glyph-name="uni030C.case" 
d="M-328 870c7 0 12 -2 15 -4l71 -62l7 -7l10 7l85 62c5 3 12 4 18 4h36l-129 -99h-45l-106 99h38z" />
    <glyph glyph-name="uni0306.case" 
d="M-224 584c-81 0 -113 49 -105 124h35c-8 -55 18 -92 74 -92c62 0 87 38 96 92h35c-9 -78 -57 -124 -135 -124z" />
    <glyph glyph-name="uni030A.case" 
d="M-232 636c4 44 48 79 93 79c47 0 78 -32 74 -79s-51 -79 -93 -79c-46 0 -78 32 -74 79zM-206 636c-4 -34 16 -57 51 -57c37 0 60 27 64 57c4 32 -15 57 -50 57c-37 0 -61 -26 -65 -57z" />
    <glyph glyph-name="tildecomb.case" 
d="M-96 666c30 0 46 24 50 49h27c-4 -43 -35 -82 -80 -82c-41 0 -75 50 -108 50c-30 0 -46 -25 -49 -49h-28c4 46 34 82 80 82c42 0 77 -50 108 -50z" />
    <glyph glyph-name="uni0304.case" 
d="M63 843l-4 -32h-271l3 32h272z" />
    <glyph glyph-name="uni0327.case" 
d="M-178 -7l10 22h32l-11 -23l-17 -37c57 -10 87 -27 83 -68c-4 -42 -49 -64 -100 -64c-27 0 -49 6 -70 21l7 14c5 10 12 5 15 3c13 -9 34 -15 50 -15c31 0 56 12 60 41c5 39 -44 42 -84 49z" />
    <glyph glyph-name="uni030C.salt" 
d="M-134 578l44 150h30c9 0 14 -6 10 -16l-45 -121c-4 -9 -10 -13 -21 -13h-18z" />
    <glyph glyph-name="serifBottom" horiz-adv-x="300" 
d="M39 0l3 20c1 11 8 17 22 18l64 2h52l64 -2c14 -1 19 -7 18 -18l-3 -20h-220z" />
  </font>
</defs>
</svg>
