<?xml version="1.0" standalone="no"?>
<!DOCTYPE svg PUBLIC "-//W3C//DTD SVG 1.1//EN" "http://www.w3.org/Graphics/SVG/1.1/DTD/svg11.dtd" >
<svg xmlns="http://www.w3.org/2000/svg" xmlns:xlink="http://www.w3.org/1999/xlink" version="1.1">
<metadata>
Created by FontForge 20190801 at Wed Mar 21 00:39:16 2018
 By Jimmy Wärting
Copyright 2018 The Aleo Project Authors \(https://github.com/AlessioLaiso/aleo\)
</metadata>
<defs>
<font id="Aleo-Light" horiz-adv-x="0" >
  <font-face 
    font-family="Aleo Light"
    font-weight="300"
    font-stretch="normal"
    units-per-em="1000"
    panose-1="0 0 4 0 0 0 0 0 0 0"
    ascent="805"
    descent="-195"
    x-height="498"
    cap-height="708"
    bbox="-640 -374.018 1086 926"
    underline-thickness="34"
    underline-position="-66"
    stemh="30"
    stemv="38"
    unicode-range="U+000D-FB02"
  />
<missing-glyph horiz-adv-x="630" 
d="M548 708v-708h-466v708h466zM529 18v672h-429v-672h429zM190 567c7 7 15 13 23 19s17 11 27 16s21 8 33 11s25 5 39 5c18 0 34 -3 50 -8s29 -13 41 -23s21 -21 27 -35s10 -30 10 -47c0 -18 -3 -34 -9 -47s-12 -25 -20 -35s-17 -18 -27 -26s-19 -14 -27 -21
s-16 -14 -22 -20s-10 -14 -11 -22l-4 -57h-33l-3 61c-1 10 2 19 7 27s12 16 20 23s17 14 27 21s20 14 28 23s15 19 21 30s8 24 8 40c0 12 -2 23 -7 32s-11 18 -19 24s-17 11 -27 15c-11 4 -22 5 -34 5c-15 0 -28 -1 -39 -5s-20 -8 -28 -13s-14 -9 -18 -13s-9 -6 -11 -6
c-5 0 -8 1 -10 5zM264 133c0 11 3 19 10 27s17 12 28 12s20 -4 27 -12s11 -16 11 -27s-4 -20 -11 -28s-16 -11 -27 -11s-21 3 -28 11s-10 17 -10 28z" />
    <glyph glyph-name="fi" unicode="fi" horiz-adv-x="588" 
d="M532 38c13 -1 20 -7 20 -18v-20h-216v20c0 11 7 17 20 18l64 2v406h-243v-406l64 -2c13 -1 20 -7 20 -18v-20h-214v20c0 11 7 17 20 18l62 2v405l-70 5c-10 1 -14 4 -14 12v20h84v43c0 122 73 198 200 198c61 0 110 -17 145 -53c12 -13 14 -23 14 -33
c0 -24 -19 -43 -44 -43c-23 0 -44 17 -44 45c1 12 6 23 10 27c-24 14 -52 20 -81 20c-97 0 -153 -60 -153 -163v-41h291v-442z" />
    <glyph glyph-name="fl" unicode="fl" horiz-adv-x="646" 
d="M612 2c-14 -8 -36 -11 -48 -11c-71 0 -119 48 -119 120v567c-77 5 -95 6 -110 6c-45 0 -88 -14 -117 -46c-32 -37 -41 -79 -41 -124v-33h143v-36h-143v-406l64 -2c13 -1 20 -7 20 -18v-19h-214v19c0 11 7 17 20 18l63 2v406l-70 4c-10 1 -14 5 -14 13v19h84v33
c0 123 76 206 198 206c18 0 78 -4 103 -7l61 -1v-600c0 -53 26 -84 80 -84c9 0 29 4 31 4c4 0 7 -2 7 -6z" />
    <glyph glyph-name=".notdef" horiz-adv-x="630" 
d="M548 708v-708h-466v708h466zM529 18v672h-429v-672h429zM190 567c7 7 15 13 23 19s17 11 27 16s21 8 33 11s25 5 39 5c18 0 34 -3 50 -8s29 -13 41 -23s21 -21 27 -35s10 -30 10 -47c0 -18 -3 -34 -9 -47s-12 -25 -20 -35s-17 -18 -27 -26s-19 -14 -27 -21
s-16 -14 -22 -20s-10 -14 -11 -22l-4 -57h-33l-3 61c-1 10 2 19 7 27s12 16 20 23s17 14 27 21s20 14 28 23s15 19 21 30s8 24 8 40c0 12 -2 23 -7 32s-11 18 -19 24s-17 11 -27 15c-11 4 -22 5 -34 5c-15 0 -28 -1 -39 -5s-20 -8 -28 -13s-14 -9 -18 -13s-9 -6 -11 -6
c-5 0 -8 1 -10 5zM264 133c0 11 3 19 10 27s17 12 28 12s20 -4 27 -12s11 -16 11 -27s-4 -20 -11 -28s-16 -11 -27 -11s-21 3 -28 11s-10 17 -10 28z" />
    <glyph glyph-name="NULL" horiz-adv-x="193" 
 />
    <glyph glyph-name="nonmarkingreturn" unicode="&#xd;" horiz-adv-x="193" 
 />
    <glyph glyph-name="space" unicode=" " horiz-adv-x="241" 
 />
    <glyph glyph-name="exclam" unicode="!" horiz-adv-x="213" 
d="M129 422l-7 -178h-33l-6 178v286h46v-286zM106 -8c-26 0 -47 21 -47 47c0 25 21 46 47 46c25 0 46 -21 46 -46c0 -26 -21 -47 -46 -47z" />
    <glyph glyph-name="quotedbl" unicode="&#x22;" horiz-adv-x="327" 
d="M112 562l-4 -77c-2 -15 -9 -18 -17 -18c-13 0 -15 12 -16 18l-5 77v146h42v-146zM257 562l-5 -77c-2 -12 -5 -18 -16 -18c-13 0 -15 12 -16 18l-4 77v146h41v-146z" />
    <glyph glyph-name="numbersign" unicode="#" horiz-adv-x="560" 
d="M320 0h-20c-17 0 -18 12 -16 22l43 200h-149l-43 -202c-5 -17 -13 -20 -23 -20h-21l47 222h-92c-14 0 -18 10 -14 26l2 8h109l41 195h-126l2 19c1 11 9 16 22 16h107l43 202c2 11 12 20 24 20h20l-47 -222h149l48 222h20c14 0 19 -9 16 -22l-44 -200h112l-2 -18
c-2 -11 -10 -17 -23 -17h-92l-41 -195h112c10 0 16 -3 16 -12l-2 -22h-131zM332 256l41 195h-149l-41 -195h149z" />
    <glyph glyph-name="dollar" unicode="$" horiz-adv-x="503" 
d="M221 -8c-79 4 -147 38 -195 92l14 20c8 10 17 10 25 2c40 -40 100 -70 159 -74l16 318c-113 34 -180 77 -180 182c0 112 90 178 197 182l5 84c0 7 5 16 15 16h18l-6 -101c62 -4 114 -28 158 -72l-11 -17c-8 -11 -17 -11 -28 0c-24 24 -80 45 -121 49l-14 -286
c119 -38 194 -72 194 -181c0 -123 -85 -206 -214 -214l-5 -105c-1 -8 -5 -15 -15 -15h-18zM104 536c0 -75 52 -111 138 -138l14 276c-90 -4 -152 -60 -152 -138zM422 199c0 83 -63 116 -151 142l-15 -309c99 7 166 70 166 167z" />
    <glyph glyph-name="percent" unicode="%" horiz-adv-x="764" 
d="M342 538c0 -101 -57 -177 -148 -177c-95 0 -149 73 -149 177c0 106 56 178 149 178c94 0 148 -75 148 -178zM611 698c4 6 11 10 19 10h33l-508 -699c-4 -6 -10 -9 -17 -9h-34zM304 538c0 89 -37 145 -110 145c-78 0 -110 -63 -110 -145c0 -88 36 -145 110 -145
c78 0 110 63 110 145zM724 168c0 -103 -55 -176 -148 -176c-96 0 -149 75 -149 176c0 102 52 178 149 178c95 0 148 -74 148 -178zM686 168c0 89 -37 146 -110 146c-76 0 -111 -63 -111 -146c0 -86 38 -144 111 -144c78 0 110 63 110 144z" />
    <glyph glyph-name="ampersand" unicode="&#x26;" horiz-adv-x="692" 
d="M316 716c82 0 161 -59 165 -142l-26 -4c-12 -2 -16 7 -17 10c-12 55 -62 98 -122 98c-81 0 -134 -53 -134 -125c0 -64 37 -110 86 -159l223 -220c28 46 46 96 53 150c2 8 5 14 14 14h27c-2 -64 -28 -139 -65 -192l148 -146h-44c-6 0 -11 1 -15 2s-8 4 -13 9l-102 101
c-65 -75 -154 -120 -251 -120c-111 0 -203 76 -203 189c0 99 78 179 168 213c-47 53 -70 99 -70 158c0 102 80 164 178 164zM88 184c0 -93 76 -153 162 -153c91 0 161 40 216 107l-235 231c-82 -33 -143 -103 -143 -185z" />
    <glyph glyph-name="quotesingle" unicode="'" horiz-adv-x="183" 
d="M112 562l-4 -77c-2 -15 -9 -18 -17 -18c-13 0 -15 12 -16 18l-5 77v146h42v-146z" />
    <glyph glyph-name="parenleft" unicode="(" horiz-adv-x="251" 
d="M96 315c0 -152 42 -288 120 -413c5 -9 5 -17 -3 -22l-21 -13c-91 136 -138 286 -138 448c0 169 47 310 138 448l21 -13c7 -6 7 -13 3 -21c-79 -126 -120 -266 -120 -414z" />
    <glyph glyph-name="parenright" unicode=")" horiz-adv-x="252" 
d="M156 315c0 148 -41 287 -120 414c-4 9 -2 17 4 21l20 13c94 -146 138 -278 138 -448c0 -175 -44 -301 -138 -447l-20 12c-7 6 -7 16 -4 22c79 127 120 264 120 413z" />
    <glyph glyph-name="asterisk" unicode="*" horiz-adv-x="378" 
d="M176 555c0 11 2 21 6 30c-10 -13 -14 -14 -24 -20l-94 -55l-12 22l94 55c7 4 25 9 29 10c-9 1 -22 6 -29 10l-95 55l13 23l94 -55c9 -5 20 -17 25 -23c-6 12 -7 24 -7 32v107h26v-106c0 -8 -4 -25 -7 -32c7 10 14 16 24 22l94 54l13 -22l-94 -54c-11 -6 -14 -7 -29 -11
c11 -2 22 -5 29 -9l95 -56l-13 -22l-95 55c-8 5 -21 16 -24 21c4 -11 7 -23 7 -30v-108h-26v107z" />
    <glyph glyph-name="plus" unicode="+" horiz-adv-x="561" 
d="M300 354h215v-37h-215v-227h-40v227h-214v37h214v225h40v-225z" />
    <glyph glyph-name="comma" unicode="," horiz-adv-x="228" 
d="M86 -126l-8 7c-3 3 -4 6 -4 9s2 6 5 9c24 24 50 76 51 101c-4 -1 -9 -2 -14 -2c-24 0 -44 20 -44 44s20 43 44 43c28 0 45 -23 45 -53c0 -63 -32 -115 -75 -158z" />
    <glyph glyph-name="hyphen" unicode="-" horiz-adv-x="370" 
d="M302 317v-41h-232v41h232z" />
    <glyph glyph-name="period" unicode="." horiz-adv-x="230" 
d="M116 -8c-26 0 -46 21 -46 47c0 25 20 46 46 46s46 -21 46 -46c0 -26 -20 -47 -46 -47z" />
    <glyph glyph-name="slash" unicode="/" horiz-adv-x="413" 
d="M72 -22c-6 -15 -19 -20 -28 -20h-20l311 751c5 12 14 19 27 19h20z" />
    <glyph glyph-name="zero" unicode="0" horiz-adv-x="617" 
d="M562 354c0 -195 -80 -362 -254 -362c-173 0 -254 161 -254 362c0 196 78 362 254 362c173 0 254 -163 254 -362zM512 354c0 173 -59 322 -205 322c-150 0 -203 -158 -203 -322c0 -173 57 -322 204 -322c151 0 204 159 204 322z" />
    <glyph glyph-name="one" unicode="1" horiz-adv-x="451" 
d="M61 0v16c0 9 5 14 16 15l146 7l2 609l-156 -139c-6 -6 -19 -6 -25 2l-14 20l204 180h37v-672l138 -7c11 -1 17 -6 17 -15v-16h-365z" />
    <glyph glyph-name="two" unicode="2" horiz-adv-x="543" 
d="M493 134v-134h-456v16c0 8 4 16 9 22l242 244c85 85 140 158 140 241c0 93 -63 152 -157 152c-86 0 -149 -50 -167 -138c-3 -12 -10 -18 -24 -16l-25 3c16 123 101 191 219 191c124 0 203 -75 203 -190c0 -103 -64 -169 -153 -262l-221 -226c19 5 51 8 68 8h271l6 65
c1 16 7 24 21 24h24z" />
    <glyph glyph-name="three" unicode="3" horiz-adv-x="541" 
d="M276 716c111 0 198 -68 198 -179c0 -86 -54 -147 -140 -168c99 -19 158 -77 158 -175c0 -118 -102 -202 -228 -202c-133 0 -195 59 -230 181l18 8c10 4 25 3 30 -10c32 -94 87 -139 182 -139c101 0 180 71 180 161c0 114 -85 153 -204 153v34c107 3 187 49 187 149
c0 90 -61 146 -153 146c-88 0 -148 -51 -169 -137c-3 -12 -9 -18 -19 -18l-30 4c16 118 100 192 220 192z" />
    <glyph glyph-name="four" unicode="4" horiz-adv-x="589" 
d="M561 241v-26c0 -11 -8 -12 -13 -12h-116v-203h-44v203h-333c-8 0 -15 3 -17 12l-4 23l355 470h43v-467h129zM388 612c0 8 2 29 3 37l-305 -408h302v371z" />
    <glyph glyph-name="five" unicode="5" horiz-adv-x="508" 
d="M442 687c0 -16 -12 -23 -28 -23h-256l-43 -236c33 9 86 16 121 16c138 0 224 -82 224 -212c0 -141 -102 -240 -244 -240c-69 0 -137 25 -184 63l12 18c9 13 22 10 36 1c36 -23 95 -40 138 -40c116 0 194 80 194 196c0 113 -70 174 -185 174c-36 0 -90 -9 -128 -20l-31 10
l56 314h318v-21z" />
    <glyph glyph-name="six" unicode="6" horiz-adv-x="539" 
d="M290 423c124 0 209 -86 209 -210c0 -133 -99 -221 -233 -221c-138 0 -222 93 -222 233c0 75 41 145 90 211l192 260c6 8 15 12 26 12h42l-211 -276c-19 -25 -28 -33 -52 -74c44 44 97 65 159 65zM90 214c0 -108 67 -182 175 -182c113 0 187 75 187 178
c0 106 -69 176 -176 176c-101 0 -186 -73 -186 -172z" />
    <glyph glyph-name="seven" unicode="7" horiz-adv-x="550" 
d="M514 708v-22c0 -7 -3 -20 -6 -25l-324 -643c-7 -12 -15 -18 -29 -18h-32l341 664h-371l-4 -67c-1 -16 -7 -24 -21 -24h-24v134z" />
    <glyph glyph-name="eight" unicode="8" horiz-adv-x="553" 
d="M277 -8c-130 0 -229 71 -229 195c0 99 58 163 154 183c-85 24 -129 85 -129 165c0 110 87 181 205 181c114 0 204 -70 204 -181c0 -81 -50 -144 -129 -165c95 -21 154 -84 154 -183c0 -125 -100 -195 -230 -195zM277 387c93 0 158 55 158 147c0 88 -65 144 -158 144
c-95 0 -158 -59 -158 -144c0 -89 64 -147 158 -147zM278 30c103 0 180 59 180 158c0 103 -74 160 -181 160c-106 0 -181 -56 -181 -160c0 -99 76 -158 182 -158z" />
    <glyph glyph-name="nine" unicode="9" horiz-adv-x="531" 
d="M245 301c-123 0 -201 87 -201 202c0 123 101 213 226 213c126 0 213 -94 213 -222c0 -73 -37 -139 -87 -210l-185 -272c-5 -8 -14 -12 -25 -12h-42l208 292c19 27 48 69 52 76c-40 -44 -98 -67 -159 -67zM437 502c0 100 -68 174 -168 174c-107 0 -177 -72 -177 -170
c0 -101 65 -168 166 -168c102 0 179 73 179 164z" />
    <glyph glyph-name="colon" unicode=":" horiz-adv-x="228" 
d="M115 391c-26 0 -47 21 -47 47c0 25 21 46 47 46c25 0 46 -21 46 -46c0 -26 -21 -47 -46 -47zM115 -8c-26 0 -47 21 -47 47c0 25 21 46 47 46c25 0 46 -21 46 -46c0 -26 -21 -47 -46 -47z" />
    <glyph glyph-name="semicolon" unicode=";" horiz-adv-x="229" 
d="M115 390c-26 0 -47 21 -47 47c0 25 21 46 47 46c25 0 46 -21 46 -46c0 -26 -21 -47 -46 -47zM161 32c0 -63 -32 -115 -75 -158l-8 7c-6 6 -5 12 1 18c24 24 50 76 51 101c-4 -1 -9 -2 -14 -2c-24 0 -44 20 -44 44s20 43 44 43c28 0 45 -23 45 -53z" />
    <glyph glyph-name="less" unicode="&#x3c;" horiz-adv-x="475" 
d="M422 538v-32c0 -10 -10 -16 -14 -18l-276 -140c-11 -6 -23 -10 -36 -13c14 -3 26 -7 36 -12l276 -141c11 -7 14 -13 14 -17v-33l-376 194v20z" />
    <glyph glyph-name="equal" unicode="=" horiz-adv-x="551" 
d="M483 434v-36h-413v36h413zM483 278v-37h-413v37h413z" />
    <glyph glyph-name="greater" unicode="&#x3e;" horiz-adv-x="475" 
d="M54 165c0 9 5 14 12 18l278 140c10 5 22 10 35 13c-12 3 -24 6 -35 12l-278 140c-9 5 -12 11 -12 18v32l374 -192v-20l-374 -194v33z" />
    <glyph glyph-name="question" unicode="?" horiz-adv-x="411" 
d="M32 646c46 46 106 70 164 70c93 0 171 -62 171 -152c0 -62 -29 -113 -81 -150c-53 -42 -81 -59 -84 -89l-6 -82h-32l-2 88c0 37 37 66 80 96c48 34 80 80 80 135c0 73 -61 114 -130 114c-49 0 -91 -26 -124 -47c-8 -5 -19 -7 -26 3zM179 -8c-26 0 -46 21 -46 47
c0 25 20 46 46 46s46 -21 46 -46c0 -26 -20 -47 -46 -47z" />
    <glyph glyph-name="at" unicode="@" horiz-adv-x="811" 
d="M577 94c-58 0 -88 32 -90 90c-34 -55 -78 -88 -139 -88c-75 0 -110 56 -110 126c0 131 109 240 244 240c32 0 73 -8 92 -18l-46 -174c-5 -17 -11 -59 -11 -74c0 -52 23 -70 66 -70c96 0 145 110 145 213c0 181 -123 293 -306 293c-193 0 -338 -158 -338 -358
c0 -219 146 -360 356 -360c86 0 173 19 240 62c10 6 19 4 24 -5l8 -13c-78 -53 -173 -77 -272 -77c-235 0 -392 158 -392 393c0 221 165 392 374 392c196 0 341 -130 341 -327c0 -130 -71 -245 -186 -245zM357 129c76 0 114 66 133 139l40 154c-25 6 -30 8 -54 8
c-112 0 -199 -101 -199 -207c0 -55 28 -94 80 -94z" />
    <glyph glyph-name="A" unicode="A" horiz-adv-x="771" 
d="M739 38c12 -1 19 -5 19 -18v-20h-191v20c0 13 7 17 19 18l47 1l-75 193h-342l-75 -192l50 -2c12 -1 19 -5 19 -18v-20h-191v20c0 13 7 17 19 18l48 2l274 668h54l274 -668zM232 270h310l-139 344l-16 45l-16 -45z" />
    <glyph glyph-name="B" unicode="B" horiz-adv-x="638" 
d="M429 362c105 -15 174 -69 174 -169c0 -30 -5 -57 -16 -81c-36 -80 -123 -112 -223 -112h-313v20c0 13 7 17 19 18l63 2h2v628h-3l-63 2c-12 1 -19 5 -19 18v20h288c40 0 75 -4 105 -12c88 -23 131 -85 131 -168c0 -82 -61 -144 -145 -166zM338 668h-152v-292h153
c106 0 184 54 184 147c0 105 -72 145 -185 145zM363 41c117 0 189 50 189 153c0 98 -83 145 -188 145h-178v-298h177z" />
    <glyph glyph-name="C" unicode="C" horiz-adv-x="644" 
d="M602 115l20 -21c-67 -70 -154 -102 -253 -102c-203 0 -332 154 -332 362c0 215 140 361 346 361c66 0 142 -16 226 -50v-158h-24c-14 0 -21 8 -22 24l-5 106c-64 24 -119 34 -175 34c-181 0 -293 -132 -293 -317c0 -188 110 -318 283 -318c85 0 150 22 211 78
c6 5 12 7 18 1z" />
    <glyph glyph-name="D" unicode="D" horiz-adv-x="760" 
d="M718 354c0 -209 -128 -354 -338 -354h-330v20c0 11 7 17 20 18l65 2v629l-65 2c-13 1 -20 7 -20 18v19h330c210 0 338 -148 338 -354zM665 354c0 185 -103 313 -285 313h-194v-626h194c185 0 285 130 285 313z" />
    <glyph glyph-name="E" unicode="E" horiz-adv-x="622" 
d="M559 708v-146h-25c-14 0 -20 8 -21 24l-4 80h-323v-287h282v-41h-282v-295h323l4 79c1 16 7 25 21 25h25v-147h-508v20c0 11 6 17 19 18l65 2v629l-65 2c-13 1 -20 7 -20 18v19h509z" />
    <glyph glyph-name="F" unicode="F" horiz-adv-x="595" 
d="M565 708v-146h-24c-14 0 -21 8 -22 24l-4 80h-329v-298h264v-43h-264v-285l65 -2c13 -1 19 -7 19 -18v-20h-220v20c0 11 7 17 20 18l65 2v629l-65 2c-13 1 -20 7 -20 18v19h515z" />
    <glyph glyph-name="G" unicode="G" horiz-adv-x="698" 
d="M648 321v-251c-86 -57 -160 -78 -268 -78c-208 0 -343 148 -343 362c0 219 136 361 355 361c76 0 188 -22 249 -50v-160h-24c-14 0 -21 8 -22 24l-5 108c-49 23 -116 34 -200 34c-190 0 -301 -131 -301 -317c0 -188 110 -320 295 -320c87 0 142 14 218 57v191h-136
c-10 0 -13 8 -13 11v28h195z" />
    <glyph glyph-name="H" unicode="H" horiz-adv-x="811" 
d="M681 669v-629l64 -2c13 -1 20 -7 20 -18v-20h-220v20c0 11 7 17 20 18l64 2v299h-443v-299l65 -2c13 -1 19 -7 19 -18v-20h-220v20c0 11 7 17 20 18l65 2v629l-65 2c-13 1 -20 7 -20 18v19h220v-19c0 -11 -6 -17 -19 -18l-65 -2v-291h443v291l-64 2c-13 1 -20 7 -20 18
v19h220v-19c0 -11 -7 -17 -20 -18z" />
    <glyph glyph-name="I" unicode="I" horiz-adv-x="316" 
d="M186 668v-628l65 -2c13 -1 19 -7 19 -18v-20h-220v20c0 11 7 17 20 18l65 2v628l-65 2c-13 1 -20 7 -20 18v20h220v-20c0 -11 -6 -17 -19 -18z" />
    <glyph glyph-name="J" unicode="J" horiz-adv-x="450" 
d="M427 708v-20c0 -11 -7 -17 -20 -18l-65 -2v-432c0 -151 -74 -244 -211 -244c-27 0 -66 7 -93 15l5 22c4 16 7 18 22 15c21 -5 46 -9 62 -9c112 0 164 77 164 200v433l-72 2c-13 1 -20 7 -20 18v20h228z" />
    <glyph glyph-name="K" unicode="K" horiz-adv-x="718" 
d="M657 38c13 -1 20 -7 20 -18v-20h-213v20c0 11 7 17 20 18l76 1l-275 281c-19 19 -33 21 -54 21h-46v-301l65 -2c13 -1 19 -7 19 -18v-20h-219v20c0 11 7 17 20 18l64 2v629l-64 2c-13 1 -20 7 -20 18v19h219v-19c0 -11 -6 -17 -19 -18l-65 -2v-288h42c27 0 37 5 51 19
l262 269l-72 1c-13 1 -20 7 -20 18v20h208v-20c0 -11 -7 -17 -20 -18l-38 -1l-271 -279c-11 -13 -26 -23 -33 -25c16 -5 27 -15 36 -25l288 -301z" />
    <glyph glyph-name="L" unicode="L" horiz-adv-x="582" 
d="M506 131h24v-131h-480v20c0 13 7 17 19 18l63 2h3v628l-66 2c-12 1 -19 5 -19 18v20h220v-20c0 -13 -7 -17 -19 -18l-65 -2v-624h294l5 62c1 16 7 25 21 25z" />
    <glyph glyph-name="M" unicode="M" horiz-adv-x="964" 
d="M834 669v-629l64 -2c13 -1 20 -7 20 -18v-20h-216v20c0 11 7 17 20 18l67 2v564c0 9 0 18 1 28l-278 -496c-5 -9 -11 -13 -20 -13h-8c-8 0 -15 4 -20 13l-286 496c1 -10 1 -19 1 -28v-564l67 -2c13 -1 20 -7 20 -18v-20h-216v20c0 11 7 17 20 18l65 2v629l-65 2
c-13 1 -20 7 -20 18v19h120c11 0 13 0 19 -9l286 -493c5 -9 9 -19 13 -30c4 11 13 31 13 31l278 492c6 8 8 9 19 9h120v-19c0 -11 -7 -17 -20 -18z" />
    <glyph glyph-name="N" unicode="N" horiz-adv-x="789" 
d="M765 708v-19c0 -11 -7 -17 -20 -18l-64 -2v-669h-25c-8 0 -13 3 -18 10l-460 614c1 -10 1 -20 1 -29v-555l67 -2c13 -1 20 -7 20 -18v-20h-216v20c0 11 7 17 20 18l65 2v628l-65 2c-13 1 -20 7 -20 18v20h110c12 0 15 -5 19 -10l458 -613c-1 10 -1 20 -1 29v555l-67 2
c-13 1 -20 7 -20 18v19h216z" />
    <glyph glyph-name="O" unicode="O" horiz-adv-x="753" 
d="M712 354c0 -211 -131 -362 -338 -362c-205 0 -337 152 -337 362c0 209 132 362 337 362c209 0 338 -156 338 -362zM658 354c0 190 -107 318 -284 318s-284 -131 -284 -318c0 -185 103 -317 284 -317c180 0 284 128 284 317z" />
    <glyph glyph-name="P" unicode="P" horiz-adv-x="593" 
d="M558 497c0 -134 -109 -212 -251 -212h-121v-245l64 -2c13 -1 20 -7 20 -18v-20h-220v20c0 11 7 17 20 18l65 2v629l-65 2c-13 1 -20 7 -20 18v19h257c157 0 251 -67 251 -211zM507 498c0 116 -77 170 -200 170h-121v-342h121c117 0 200 66 200 172z" />
    <glyph glyph-name="Q" unicode="Q" horiz-adv-x="759" 
d="M711 354c0 -131 -50 -247 -155 -313l184 -197h-43c-16 0 -27 6 -32 12l-151 163c-35 -15 -99 -27 -140 -27c-206 0 -338 151 -338 362c0 209 132 362 338 362c208 0 337 -156 337 -362zM658 354c0 191 -107 318 -284 318c-179 0 -285 -133 -285 -318
c0 -186 104 -317 285 -317c180 0 284 128 284 317z" />
    <glyph glyph-name="R" unicode="R" horiz-adv-x="676" 
d="M621 38c13 -1 19 -7 19 -18v-20h-70c-14 0 -20 7 -25 13l-227 287c-15 18 -23 20 -48 20h-84v-280l64 -2c13 -1 20 -7 20 -18v-20h-220v20c0 11 7 17 20 18l65 2v629l-65 2c-13 1 -19 7 -19 18v19h256c146 0 243 -52 243 -186c0 -111 -85 -185 -201 -196
c8 -5 16 -12 22 -20l212 -267zM300 358c118 0 200 56 200 160c0 111 -81 150 -193 150h-121v-310h114z" />
    <glyph glyph-name="S" unicode="S" horiz-adv-x="514" 
d="M296 386c109 -35 178 -75 178 -179c0 -133 -99 -215 -227 -215c-66 0 -129 13 -190 39v158h24c14 0 21 -8 22 -24l5 -102c47 -20 80 -28 141 -28c109 0 177 65 177 164c0 94 -70 117 -177 151c-115 36 -178 78 -178 183c0 111 89 182 205 182c59 0 119 -14 182 -41v-158
h-24c-14 0 -21 8 -22 24l-5 108c-40 17 -83 25 -131 25c-92 0 -158 -56 -158 -137c0 -87 72 -116 178 -150z" />
    <glyph glyph-name="T" unicode="T" horiz-adv-x="623" 
d="M594 708v-146h-24c-14 0 -21 8 -22 24l-4 79h-206v-625l65 -2c13 -1 20 -7 20 -18v-20h-220v20c0 11 7 17 20 18l64 2v625h-207l-4 -79c-1 -16 -7 -24 -21 -24h-25v146h564z" />
    <glyph glyph-name="U" unicode="U" horiz-adv-x="751" 
d="M728 708v-19c0 -11 -7 -17 -20 -18l-64 -2v-399c0 -160 -106 -278 -268 -278c-165 0 -268 118 -268 278v399l-65 2c-13 1 -19 7 -19 18v19h232v-19c0 -11 -7 -17 -20 -18l-77 -2v-399c0 -133 83 -234 217 -234c135 0 217 102 217 234v399l-77 2c-13 1 -20 7 -20 18v19
h232z" />
    <glyph glyph-name="V" unicode="V" horiz-adv-x="763" 
d="M738 708v-19c0 -11 -7 -17 -20 -18l-38 -2l-276 -669h-45l-276 669l-39 2c-13 1 -20 7 -20 18v19h190v-19c0 -11 -7 -17 -20 -18l-58 -2l231 -562c6 -15 11 -32 15 -49c4 18 9 34 15 49l229 562l-58 2c-13 1 -19 7 -19 18v19h189z" />
    <glyph glyph-name="W" unicode="W" horiz-adv-x="1103" 
d="M1078 708v-19c0 -11 -6 -17 -19 -18l-35 -2l-210 -669h-46l-209 614c-3 8 -5 16 -7 25c-2 -9 -4 -17 -7 -25l-210 -614h-45l-211 669l-35 2c-13 1 -20 7 -20 18v19h190v-19c0 -11 -7 -17 -20 -18l-58 -2l170 -556c3 -11 7 -31 10 -46c4 15 8 35 11 45l200 583
c1 6 9 13 19 13h14c13 0 16 -6 19 -13l200 -582c4 -13 8 -30 11 -45c3 15 6 32 10 45l170 556l-62 2c-13 1 -19 7 -19 18v19h189z" />
    <glyph glyph-name="X" unicode="X" horiz-adv-x="732" 
d="M668 38c13 -1 20 -7 20 -18v-20h-192v20c0 11 7 17 20 18h7c3 0 10 1 19 1s19 1 30 1l-204 298c-1 -5 -4 -9 -7 -14l-200 -284l62 -2c13 -1 20 -7 20 -18v-20h-199v20c0 11 7 17 20 18l41 2l227 323l-215 306l-41 2c-13 1 -20 7 -20 18v19h194v-19c0 -11 -6 -17 -19 -18
l-55 -2l194 -282c2 6 5 13 7 16l187 266l-61 2c-13 1 -20 7 -20 18v19h198v-19c0 -11 -7 -17 -20 -18l-40 -2l-217 -303l227 -326c7 0 13 -1 18 -1s10 -1 13 -1h6z" />
    <glyph glyph-name="Y" unicode="Y" horiz-adv-x="687" 
d="M663 708v-19c0 -11 -7 -17 -20 -18l-37 -2l-237 -377v-252l65 -2c13 -1 19 -7 19 -18v-20h-219v20c0 11 7 17 20 18l64 2v252l-237 377l-37 2c-13 1 -20 7 -20 18v19h185v-19c0 -11 -7 -17 -20 -18l-52 -2l186 -299c10 -16 13 -25 21 -44c10 23 12 30 21 44l185 299
l-52 2c-13 1 -20 7 -20 18v19h185z" />
    <glyph glyph-name="Z" unicode="Z" horiz-adv-x="633" 
d="M575 691c0 -7 -2 -14 -7 -21l-449 -628h400l7 85c1 16 7 25 21 25h24v-152h-519v19c0 6 1 11 5 17l450 630h-391l-7 -85c-1 -16 -7 -25 -21 -25h-24v152h511v-17z" />
    <glyph glyph-name="bracketleft" unicode="[" horiz-adv-x="269" 
d="M85 758h159v-18c0 -9 -6 -14 -16 -14h-102v-826h102c9 0 16 -2 16 -14v-18h-159v890z" />
    <glyph glyph-name="backslash" unicode="\" horiz-adv-x="414" 
d="M53 728c13 0 22 -7 27 -19l311 -751h-19c-13 0 -24 7 -29 20l-311 750h21z" />
    <glyph glyph-name="bracketright" unicode="]" horiz-adv-x="268" 
d="M25 -114c0 8 6 14 15 14h103v826h-103c-9 0 -15 6 -15 14v18h159v-890h-159v18z" />
    <glyph glyph-name="asciicircum" unicode="^" horiz-adv-x="455" 
d="M242 708l171 -308h-34c-11 0 -14 8 -17 12l-120 218c-5 10 -9 16 -14 31c-6 -15 -8 -21 -14 -31l-120 -218c-4 -6 -8 -12 -16 -12h-36l170 308h30z" />
    <glyph glyph-name="underscore" unicode="_" horiz-adv-x="570" 
d="M482 -136h-394v34h394v-34z" />
    <glyph glyph-name="grave" unicode="`" horiz-adv-x="271" 
d="M104 716c16 0 24 -7 30 -16l78 -120h-26c-12 0 -15 5 -19 9l-109 127h46z" />
    <glyph glyph-name="a" unicode="a" horiz-adv-x="513" 
d="M450 38c13 -1 20 -7 20 -18v-20h-85c-10 0 -17 5 -19 14l-7 64c-61 -57 -105 -86 -186 -86c-78 0 -133 48 -133 129c0 119 184 150 317 151v52c0 92 -38 143 -118 143c-49 0 -104 -25 -132 -53c-15 -15 -28 -14 -34 -2l-8 15c52 52 108 79 179 79c109 0 160 -75 160 -182
v-285zM357 240c-111 -1 -271 -22 -271 -118c0 -61 38 -95 99 -95c78 0 118 30 172 84v129z" />
    <glyph glyph-name="b" unicode="b" horiz-adv-x="547" 
d="M510 252c0 -149 -80 -258 -217 -258c-45 0 -111 9 -199 28v666l-53 2c-13 1 -19 7 -19 18v20h119l1 -317c47 62 106 95 174 95c136 0 194 -104 194 -254zM461 252c0 131 -45 216 -159 216c-66 0 -120 -39 -161 -97v-319c69 -14 117 -21 143 -21c122 0 177 95 177 221z
" />
    <glyph glyph-name="c" unicode="c" horiz-adv-x="459" 
d="M422 64c-40 -50 -110 -71 -170 -71c-136 0 -214 111 -214 256c0 148 79 256 225 256c37 0 88 -10 140 -31v-125h-24c-14 0 -21 8 -22 24c0 1 -5 57 -6 78c-32 11 -60 17 -85 17c-119 0 -179 -92 -179 -219s59 -218 172 -218c49 0 99 19 126 46c11 11 20 9 24 3z" />
    <glyph glyph-name="d" unicode="d" horiz-adv-x="560" 
d="M521 0h-93c-8 0 -13 4 -14 13l-5 79c-46 -63 -103 -98 -177 -98c-137 0 -194 103 -194 254c0 145 78 258 217 258c63 0 115 -23 152 -73v255l-52 2c-13 1 -20 7 -20 18v20h119v-689l48 -1c13 -1 19 -7 19 -18v-20zM407 391c-35 52 -81 78 -143 78
c-123 0 -177 -98 -177 -221c0 -133 45 -216 159 -216c66 0 120 39 161 97v262z" />
    <glyph glyph-name="e" unicode="e" horiz-adv-x="497" 
d="M263 506c123 0 196 -92 196 -219c0 -15 -7 -19 -14 -19h-359c0 -143 57 -237 184 -237c50 0 110 20 141 46c12 11 22 9 26 3l13 -16c-36 -45 -121 -70 -184 -70c-153 0 -228 115 -228 265c0 141 85 247 225 247zM264 470c-103 0 -164 -67 -176 -171h328
c0 103 -59 171 -152 171z" />
    <glyph glyph-name="f" unicode="f" horiz-adv-x="383" 
d="M47 0v20c0 11 7 17 20 18l63 2v405l-71 5c-10 1 -14 4 -14 12v20h85v63c0 101 50 171 152 171c21 0 39 -3 59 -10l-1 -23c0 -5 -9 -8 -15 -7c-7 1 -31 3 -37 3c-84 0 -112 -57 -112 -136v-61h161v-36h-160v-406l64 -2c13 -1 20 -7 20 -18v-20h-214z" />
    <glyph glyph-name="g" unicode="g" horiz-adv-x="516" 
d="M238 506c39 0 81 -11 110 -30h128v-17c0 -8 -5 -12 -14 -13l-76 -6c21 -30 29 -58 29 -94c0 -99 -75 -158 -177 -158c-29 0 -55 3 -78 12c-24 -14 -45 -36 -45 -60c0 -53 66 -55 176 -60c101 -5 175 -22 175 -107c0 -99 -111 -159 -224 -159c-106 0 -212 43 -212 134
c0 58 44 94 98 112c-40 14 -54 34 -54 68c0 36 34 70 61 84c-48 28 -75 77 -75 134c0 102 80 160 178 160zM238 220c80 0 134 47 134 126c0 77 -55 125 -134 125c-81 0 -134 -46 -134 -126c0 -78 54 -125 134 -125zM423 -34c0 66 -81 72 -149 76c-48 2 -89 5 -113 9
c-54 -21 -88 -54 -88 -98c0 -77 96 -103 170 -103c94 0 180 43 180 116z" />
    <glyph glyph-name="h" unicode="h" horiz-adv-x="624" 
d="M565 38c13 -1 19 -7 19 -18v-20h-119v318c0 93 -40 149 -130 149c-70 0 -125 -39 -166 -94v-333l52 -2c13 -1 20 -7 20 -18v-20h-192v20c0 11 7 17 20 18l52 2v648l-52 2c-13 1 -20 7 -20 18v19h120v-315c51 62 107 93 178 93c111 0 165 -72 165 -187v-278z" />
    <glyph glyph-name="i" unicode="i" horiz-adv-x="282" 
d="M146 625c-25 0 -44 20 -44 45c0 24 19 43 44 43c24 0 43 -19 43 -43c0 -25 -19 -45 -43 -45zM222 38c13 -1 20 -7 20 -18v-20h-192v20c0 11 7 17 20 18l52 2v418l-52 2c-13 1 -20 7 -20 18v20h120v-458z" />
    <glyph glyph-name="j" unicode="j" horiz-adv-x="252" 
d="M147 624c-24 0 -44 20 -44 45c0 24 20 44 44 44s44 -20 44 -44c0 -25 -20 -45 -44 -45zM171 498v-561c0 -75 -45 -121 -119 -121c-18 0 -35 2 -48 10l1 17c0 7 3 13 17 11c2 0 16 -2 22 -2c55 0 79 30 79 85v522l-52 2c-13 1 -20 7 -20 18v19h120z" />
    <glyph glyph-name="k" unicode="k" horiz-adv-x="564" 
d="M505 38c13 -1 20 -7 20 -18v-20h-64c-12 0 -19 8 -23 12l-209 223c-14 14 -19 16 -38 16h-22v-211l52 -2c13 -1 20 -7 20 -18v-20h-192v20c0 11 7 17 20 18l52 2v648l-52 2c-13 1 -20 7 -20 18v19h120v-443h23c10 0 20 4 27 11l172 164l-25 1c-13 1 -20 7 -20 18v20h154
v-20c0 -11 -6 -17 -19 -18l-36 -2l-178 -169c-5 -5 -14 -11 -20 -17c8 -5 19 -14 25 -21l195 -212z" />
    <glyph glyph-name="l" unicode="l" horiz-adv-x="279" 
d="M221 38c13 -1 20 -7 20 -18v-20h-192v20c0 11 7 17 20 18l52 2v648l-52 2c-13 1 -20 7 -20 18v20h120v-688z" />
    <glyph glyph-name="m" unicode="m" horiz-adv-x="883" 
d="M822 38c13 -1 19 -7 19 -18v-20h-119v318c0 89 -38 149 -122 149s-131 -62 -131 -149v-278l52 -2c13 -1 20 -7 20 -18v-20h-120v318c0 88 -32 149 -113 149c-59 0 -106 -41 -137 -91v-336l53 -2c13 -1 19 -7 19 -18v-20h-191v20c0 11 6 17 19 18l53 2v419l-53 2
c-13 1 -19 7 -19 18v19h98c9 0 14 -4 15 -12l4 -73c44 60 89 92 151 92c75 0 115 -44 131 -120c21 75 81 120 159 120c109 0 159 -78 159 -187v-278z" />
    <glyph glyph-name="n" unicode="n" horiz-adv-x="629" 
d="M567 38c13 -1 20 -7 20 -18v-20h-120v318c0 89 -38 149 -130 149c-67 0 -123 -37 -166 -94v-333l53 -2c13 -1 19 -7 19 -18v-20h-191v20c0 11 6 17 19 18l53 2v419l-54 2c-12 1 -19 5 -19 18v19h99c9 0 14 -4 15 -12l4 -76c45 57 105 95 180 95c111 0 166 -74 166 -187
v-278z" />
    <glyph glyph-name="o" unicode="o" horiz-adv-x="530" 
d="M266 506c144 0 226 -105 226 -257c0 -154 -83 -255 -226 -255c-147 0 -228 104 -228 255s82 257 228 257zM266 31c121 0 177 89 177 218c0 127 -55 219 -177 219s-178 -88 -178 -219c0 -128 54 -218 178 -218z" />
    <glyph glyph-name="p" unicode="p" horiz-adv-x="548" 
d="M509 252c0 -148 -80 -258 -216 -258c-65 0 -114 22 -152 73v-203l52 -2c13 -1 20 -7 20 -18v-20h-192v20c0 11 7 17 20 18l52 2v595l-52 2c-13 1 -20 7 -20 18v19h98c11 0 15 -2 15 -12l5 -78c44 60 105 98 176 98c136 0 194 -104 194 -254zM460 252
c0 131 -45 215 -158 215c-69 0 -120 -36 -161 -97v-261c34 -52 80 -78 142 -78c122 0 177 95 177 221z" />
    <glyph glyph-name="q" unicode="q" horiz-adv-x="538" 
d="M509 -139c13 -1 20 -7 20 -18v-19h-192v19c0 11 7 17 20 18l52 2v225c-45 -59 -103 -94 -175 -94c-136 0 -194 106 -194 253c0 144 79 258 218 258c45 0 111 -9 199 -28v-614zM409 447c-69 14 -116 21 -142 21c-121 0 -177 -93 -177 -221c0 -131 45 -215 158 -215
c69 0 119 36 161 96v319z" />
    <glyph glyph-name="r" unicode="r" horiz-adv-x="436" 
d="M332 506c26 0 55 -7 77 -19l-9 -25c-3 -10 -12 -18 -23 -14c-13 5 -28 11 -54 11c-78 0 -124 -53 -152 -136v-283l53 -2c12 -1 19 -5 19 -18v-20h-191v20c0 13 7 17 19 18l53 2v419l-54 2c-12 1 -19 5 -19 18v19h98c6 0 10 -1 12 -3s4 -6 4 -12l4 -106
c33 83 85 129 163 129z" />
    <glyph glyph-name="s" unicode="s" horiz-adv-x="427" 
d="M388 146c0 -96 -76 -154 -175 -154c-50 0 -99 10 -147 28v121h24c14 0 21 -8 22 -24l6 -74c27 -11 59 -16 97 -16c72 0 128 42 128 111c0 61 -61 82 -139 105c-82 23 -138 54 -138 128c0 82 76 134 164 134c36 0 80 -8 132 -26v-119h-24c-14 0 -21 8 -22 24l-6 72
c-27 9 -53 13 -79 13c-62 0 -120 -36 -120 -95c0 -58 60 -77 138 -100c79 -23 139 -57 139 -128z" />
    <glyph glyph-name="t" unicode="t" horiz-adv-x="355" 
d="M208 -8c-72 0 -107 41 -107 114v340h-71c-7 0 -13 4 -13 12v18l85 6l12 178c0 4 5 12 12 12h23v-190h157v-36h-157v-337c0 -50 27 -78 69 -78c27 0 53 17 68 28c10 7 17 2 20 -3l11 -18c-26 -28 -70 -46 -109 -46z" />
    <glyph glyph-name="u" unicode="u" horiz-adv-x="598" 
d="M536 38c13 -1 20 -7 20 -18v-20h-98c-9 0 -15 4 -15 13l-4 74c-47 -59 -109 -95 -181 -95c-112 0 -166 78 -166 188v278l-52 2c-13 1 -20 7 -20 18v19h72l48 1v-318c0 -92 41 -150 130 -150c65 0 124 38 166 94v334l-52 2c-13 1 -20 7 -20 18v19h72l48 1v-458z" />
    <glyph glyph-name="v" unicode="v" horiz-adv-x="579" 
d="M554 498v-19c0 -11 -7 -17 -20 -18l-35 -1l-193 -460h-42l-194 460l-33 1c-13 1 -19 7 -19 18v19h174v-19c0 -11 -7 -17 -20 -18l-52 -2l153 -366c4 -9 10 -32 12 -43c3 11 9 34 13 43l153 366l-52 2c-13 1 -20 7 -20 18v19h175z" />
    <glyph glyph-name="w" unicode="w" horiz-adv-x="839" 
d="M814 497v-19c0 -11 -7 -17 -20 -18l-35 -1l-153 -459h-35c-5 0 -10 4 -12 11l-136 404c-3 9 -6 18 -8 29c-3 -11 -6 -20 -8 -29l-138 -404c-2 -7 -6 -11 -12 -11h-33l-154 459l-33 1c-13 1 -19 7 -19 18v19h174v-19c0 -11 -7 -17 -20 -18l-52 -2l117 -365l9 -43
c3 11 10 33 13 43l133 396c2 7 7 11 14 11h20c7 0 12 -4 14 -11l132 -396c5 -15 9 -32 12 -43c2 11 7 28 10 43l117 365l-51 2c-13 1 -20 7 -20 18v19h174z" />
    <glyph glyph-name="x" unicode="x" horiz-adv-x="564" 
d="M494 38c13 -1 19 -7 19 -18v-20h-147v20c0 11 6 17 19 18l28 1l-134 193c-2 -7 -4 -11 -7 -16l-126 -177l30 -1c13 -1 20 -7 20 -18v-20h-148v20c0 11 7 17 20 18l27 1l153 216l-145 205l-31 1c-13 1 -20 7 -20 18v19h148v-19c0 -11 -7 -17 -20 -18l-24 -1l126 -184
c1 6 5 12 9 18l116 166l-26 1c-13 1 -20 7 -20 18v19h148v-19c0 -11 -7 -17 -20 -18l-31 -1l-146 -203l154 -218z" />
    <glyph glyph-name="y" unicode="y" horiz-adv-x="578" 
d="M552 498v-19c0 -11 -7 -17 -20 -18l-34 -1l-269 -620c-4 -9 -12 -16 -22 -16h-34l88 194l-194 442l-30 1c-13 1 -20 7 -20 18v19h174v-19c0 -11 -7 -17 -20 -18l-51 -2l155 -361c4 -9 9 -26 10 -30c1 4 7 21 11 30l153 361l-51 2c-13 1 -20 7 -20 18v19h174z" />
    <glyph glyph-name="z" unicode="z" horiz-adv-x="499" 
d="M436 125v-125h-382v19c0 6 3 11 8 18l312 424h-252l-5 -68c-1 -16 -8 -24 -22 -24h-24v129h359v-20c0 -7 -2 -13 -7 -19l-311 -422h273l5 64c1 16 8 24 22 24h24z" />
    <glyph glyph-name="braceleft" unicode="{" horiz-adv-x="279" 
d="M115 222c0 50 -34 76 -77 76v30c43 0 78 33 78 76c0 31 -8 71 -16 105c-7 30 -15 83 -15 107c0 83 54 142 141 142h27v-17c0 -9 -5 -15 -14 -15h-15c-58 0 -96 -45 -96 -108c0 -35 7 -75 14 -108c8 -35 14 -75 14 -106c0 -46 -35 -83 -74 -91c43 -8 74 -46 74 -91
c0 -33 -7 -74 -14 -106c-8 -37 -14 -76 -14 -108c0 -65 40 -108 96 -108h15c10 0 15 -6 15 -15v-17h-28c-84 0 -140 57 -140 142c0 34 7 76 14 107c9 39 15 70 15 105z" />
    <glyph glyph-name="bar" unicode="|" horiz-adv-x="208" 
d="M122 758v-934h-37v934h37z" />
    <glyph glyph-name="braceright" unicode="}" horiz-adv-x="278" 
d="M164 222c0 -33 7 -74 14 -105c9 -38 16 -76 16 -106c0 -82 -56 -143 -141 -143h-27v21c0 10 8 11 12 11h16c62 0 98 52 98 108c0 28 -8 79 -15 109c-8 34 -15 80 -15 105c0 48 34 81 74 91c-42 8 -73 47 -73 91c0 33 7 74 14 106c8 34 15 82 15 108c0 60 -37 108 -97 108
h-17c-6 0 -12 4 -12 12v21h27c87 0 141 -61 141 -143c0 -27 -8 -78 -15 -106c-9 -39 -15 -70 -15 -106c0 -45 32 -76 77 -76v-30c-45 0 -77 -28 -77 -76z" />
    <glyph glyph-name="asciitilde" unicode="~" horiz-adv-x="572" 
d="M386 284c54 0 81 41 81 90h39c0 -75 -45 -130 -118 -130c-33 0 -68 15 -105 32c-37 16 -72 31 -97 31c-52 0 -82 -44 -82 -90h-38c0 75 45 129 118 129c36 0 71 -15 105 -31c36 -17 68 -31 97 -31z" />
    <glyph glyph-name="uni00A0" unicode="&#xa0;" horiz-adv-x="241" 
 />
    <glyph glyph-name="exclamdown" unicode="&#xa1;" horiz-adv-x="221" 
d="M111 413c-26 0 -46 21 -46 47c0 25 20 46 46 46s46 -21 46 -46c0 -26 -20 -47 -46 -47zM89 99l7 178h32l8 -178v-275h-47v275z" />
    <glyph glyph-name="cent" unicode="&#xa2;" horiz-adv-x="465" 
d="M429 64c-36 -47 -102 -70 -179 -70l-5 -104c0 -10 -5 -16 -15 -16h-18l6 123c-115 21 -173 125 -173 252c0 140 74 247 198 255v1l5 103c0 7 7 16 15 16h18l-6 -119c29 -2 86 -16 134 -31v-125h-24c-14 0 -20 8 -21 24l-7 78c-31 11 -59 17 -83 17l-1 -1l-21 -435
c53 0 101 7 139 45c11 11 21 9 25 3zM220 37l22 429c-103 -12 -149 -111 -149 -217c0 -100 40 -191 127 -212z" />
    <glyph glyph-name="sterling" unicode="&#xa3;" horiz-adv-x="589" 
d="M37 332c0 10 8 17 18 17h83v147c0 137 79 219 206 219c88 0 148 -44 181 -118l-19 -11c-6 -4 -20 -3 -26 6c-40 58 -65 82 -136 82c-103 0 -158 -71 -158 -178v-146h240v-20c0 -7 -7 -14 -16 -14h-224v-152c0 -56 -21 -95 -68 -126l44 4h394v-20c0 -11 -9 -22 -22 -22
h-485v32c53 19 89 66 89 121v163h-101v16z" />
    <glyph glyph-name="currency" unicode="&#xa4;" horiz-adv-x="532" 
d="M94 336c0 42 15 78 38 107l-76 77l24 25l77 -77c32 26 68 39 109 39c42 0 80 -16 108 -38l77 77l25 -25l-77 -77c26 -32 39 -68 39 -109c0 -42 -16 -80 -38 -108l76 -77l-24 -25l-78 77c-30 -24 -69 -38 -108 -38c-42 0 -80 16 -108 38l-78 -77l-24 25l77 76
c-24 30 -39 72 -39 110zM130 335c0 -73 62 -135 136 -135s136 62 136 136c0 73 -63 136 -136 136c-37 0 -70 -15 -96 -41c-25 -25 -40 -61 -40 -96z" />
    <glyph glyph-name="yen" unicode="&#xa5;" horiz-adv-x="559" 
d="M248 308l-212 400h40c9 0 16 -5 20 -13l172 -333c7 -13 9 -25 13 -36c3 11 7 23 13 36l173 333c4 8 10 13 19 13h40l-212 -400h174v-29h-183v-59h183v-29h-183v-191h-48v191h-183v29h183v59h-183v29h174z" />
    <glyph glyph-name="brokenbar" unicode="&#xa6;" horiz-adv-x="202" 
d="M120 758v-388h-37v388h37zM120 212v-388h-37v388h37z" />
    <glyph glyph-name="section" unicode="&#xa7;" horiz-adv-x="463" 
d="M218 -66c-61 0 -112 20 -158 61l11 14c9 12 18 13 30 3c32 -27 74 -43 121 -43c72 0 128 39 128 111c0 70 -68 94 -151 129c-89 37 -152 72 -152 148c0 58 38 97 97 118c-43 29 -62 63 -62 105c0 81 77 136 164 136c56 0 105 -18 146 -54l-10 -16c-5 -9 -14 -9 -26 -1
c-36 24 -67 34 -109 34c-62 0 -123 -38 -123 -97c0 -58 65 -84 146 -119c80 -36 145 -75 145 -152c0 -57 -30 -98 -83 -121c42 -31 60 -59 60 -102c0 -96 -74 -154 -174 -154zM306 206c43 20 67 50 67 95c0 61 -49 87 -112 117c-33 16 -74 33 -90 41
c-49 -21 -82 -48 -82 -96c0 -52 54 -83 121 -112c45 -20 55 -23 96 -45z" />
    <glyph glyph-name="dieresis" unicode="&#xa8;" horiz-adv-x="387" 
d="M109 602c-23 0 -41 18 -41 41s18 41 41 41s41 -18 41 -41s-18 -41 -41 -41zM280 602c-23 0 -41 18 -41 41s18 41 41 41s41 -18 41 -41s-18 -41 -41 -41z" />
    <glyph glyph-name="copyright" unicode="&#xa9;" horiz-adv-x="820" 
d="M50 354c0 203 164 361 360 361c200 0 361 -162 361 -361s-162 -361 -361 -361c-200 0 -360 161 -360 361zM79 354c0 -183 147 -334 331 -334c188 0 332 152 332 334c0 185 -147 334 -332 334c-187 0 -331 -155 -331 -334zM547 207c7 5 14 7 19 2l16 -15
c-49 -49 -102 -65 -168 -65c-134 0 -218 97 -218 225c0 135 97 226 226 226c64 0 113 -19 154 -56l-12 -16c-4 -9 -14 -7 -23 0c-38 25 -68 36 -117 36c-111 0 -184 -75 -184 -190c0 -110 64 -188 176 -188c51 0 93 11 131 41z" />
    <glyph glyph-name="ordfeminine" unicode="&#xaa;" horiz-adv-x="356" 
d="M270 419c-9 0 -12 4 -13 12l-5 32c-32 -32 -67 -48 -112 -48c-52 0 -83 31 -83 75c0 74 115 91 194 92v25c0 51 -22 78 -71 78c-27 0 -61 -17 -77 -29c-7 -5 -18 -8 -23 1l-6 11c33 33 64 47 110 47c70 0 102 -45 102 -107v-188zM150 441c39 0 75 21 101 47v69
c-75 -3 -160 -13 -160 -65c0 -36 28 -51 59 -51z" />
    <glyph glyph-name="guillemotleft" unicode="&#xab;" horiz-adv-x="379" 
d="M50 263l121 189l15 -8c13 -8 7 -17 4 -24l-91 -146c-4 -7 -8 -11 -11 -14c3 -3 7 -7 11 -14l91 -148c4 -9 7 -17 -4 -24l-15 -7l-121 189v7zM178 263l120 189l16 -7c13 -8 7 -18 4 -24l-92 -147c-4 -7 -7 -11 -10 -14c3 -3 6 -7 10 -14l92 -147c5 -10 7 -19 -4 -25
l-16 -7l-120 189v7z" />
    <glyph glyph-name="logicalnot" unicode="&#xac;" horiz-adv-x="550" 
d="M476 354v-184h-40v147h-374v37h414z" />
    <glyph glyph-name="uni00AD" unicode="&#xad;" horiz-adv-x="370" 
d="M302 317v-41h-232v41h232z" />
    <glyph glyph-name="registered" unicode="&#xae;" horiz-adv-x="820" 
d="M50 354c0 204 165 361 360 361c198 0 361 -163 361 -361c0 -199 -161 -361 -361 -361s-360 161 -360 361zM79 354c0 -183 147 -334 331 -334c188 0 332 152 332 334c0 184 -146 334 -332 334c-184 0 -331 -150 -331 -334zM319 133h-43v443h124c97 0 155 -34 155 -117
c0 -74 -53 -113 -123 -122c8 -5 14 -13 20 -20l142 -184h-40c-7 0 -11 2 -15 8l-135 175c-9 12 -19 12 -30 12h-55v-195zM393 360c71 0 120 28 120 94c0 70 -43 88 -113 88h-81v-182h74z" />
    <glyph glyph-name="macron" unicode="&#xaf;" horiz-adv-x="405" 
d="M339 658v-32h-273v32h273z" />
    <glyph glyph-name="degree" unicode="&#xb0;" horiz-adv-x="411" 
d="M54 567c0 88 69 149 150 149c82 0 150 -63 150 -149c0 -87 -70 -149 -150 -149c-82 0 -150 64 -150 149zM89 567c0 -66 56 -115 115 -115c66 0 115 56 115 115c0 64 -51 115 -115 115c-69 0 -115 -53 -115 -115z" />
    <glyph glyph-name="plusminus" unicode="&#xb1;" horiz-adv-x="570" 
d="M304 374h216v-37h-216v-201h-38v201h-216v37h216v202h38v-202zM520 76v-36h-470v36h470z" />
    <glyph glyph-name="uni00B2" unicode="&#xb2;" horiz-adv-x="344" 
d="M285 528v-78h-237v12c0 4 3 12 7 15l118 119c38 38 67 72 67 116c0 46 -31 69 -71 69c-37 0 -61 -21 -77 -62c-2 -6 -6 -11 -13 -10l-24 4c10 66 56 99 116 99c59 0 106 -36 106 -98c0 -56 -37 -91 -77 -131l-103 -105c11 4 30 5 39 5h117l3 24c1 14 6 21 18 21h11z" />
    <glyph glyph-name="uni00B3" unicode="&#xb3;" horiz-adv-x="336" 
d="M168 812c57 0 104 -34 104 -92c0 -45 -29 -75 -66 -86c48 -12 75 -36 75 -83c0 -66 -58 -105 -117 -105c-72 0 -100 29 -120 92l14 6c8 3 17 4 21 -6c13 -38 45 -62 83 -62c44 0 82 29 82 73c0 53 -40 71 -96 71v24c55 2 90 25 90 70s-32 67 -71 67
c-41 0 -65 -21 -77 -62c-3 -10 -10 -11 -23 -9l-13 2c10 65 55 100 114 100z" />
    <glyph glyph-name="acute" unicode="&#xb4;" horiz-adv-x="269" 
d="M105 589c-6 -6 -9 -9 -19 -9h-28l78 120c9 14 20 16 30 16h47z" />
    <glyph glyph-name="uni00B5" unicode="&#xb5;" horiz-adv-x="550" 
d="M131 180c0 -92 41 -150 129 -150c69 0 125 40 166 94v374h48v-498h-26c-9 0 -15 4 -15 13l-5 74c-45 -57 -101 -90 -170 -90c-64 0 -109 25 -134 75c2 -15 4 -65 4 -84v-164h-24c-13 0 -22 8 -22 21v653h48z" />
    <glyph glyph-name="paragraph" unicode="&#xb6;" horiz-adv-x="654" 
d="M624 666h-112v-761h-43v761h-164v-761h-43v445c-122 0 -221 65 -221 182s99 176 221 176h362v-42z" />
    <glyph glyph-name="periodcentered" unicode="&#xb7;" horiz-adv-x="237" 
d="M119 247c-28 0 -50 22 -50 50s22 50 50 50c27 0 49 -22 49 -50s-22 -50 -49 -50z" />
    <glyph glyph-name="cedilla" unicode="&#xb8;" horiz-adv-x="287" 
d="M83 -141c13 -6 34 -13 49 -13c30 0 54 12 54 41c0 39 -46 42 -89 49l21 66h30l-14 -48c57 -10 90 -25 90 -67c0 -46 -47 -65 -92 -65c-27 0 -50 7 -72 22l4 8c5 10 10 11 19 7z" />
    <glyph glyph-name="uni00B9" unicode="&#xb9;" horiz-adv-x="291" 
d="M142 474v270l2 19l-72 -63c-6 -4 -11 -5 -16 2l-12 15l106 92h29v-335h73v-24h-188v24h78z" />
    <glyph glyph-name="ordmasculine" unicode="&#xba;" horiz-adv-x="401" 
d="M200 714c22 0 42 -3 60 -10c59 -24 83 -80 83 -140c0 -90 -51 -150 -143 -150c-90 0 -144 59 -144 150s54 150 144 150zM200 442c71 0 105 47 105 122s-34 122 -105 122c-74 0 -106 -52 -106 -122c0 -73 35 -122 106 -122z" />
    <glyph glyph-name="guillemotright" unicode="&#xbb;" horiz-adv-x="381" 
d="M204 256l-120 -189l-16 7c-13 8 -7 18 -4 24l92 147c4 7 7 11 10 14c-3 3 -6 7 -10 14l-92 147c-5 10 -7 19 4 25l16 7l120 -189v-7zM332 256l-121 -189l-15 8c-13 8 -7 17 -4 24l91 146c4 7 8 11 11 14c-3 3 -7 7 -11 14l-91 148c-4 9 -7 17 4 24l15 7l121 -189v-7z" />
    <glyph glyph-name="onequarter" unicode="&#xbc;" horiz-adv-x="686" 
d="M130 375v270l2 19l-72 -63c-6 -4 -11 -5 -16 2l-12 15l106 92h29v-335h73v-24h-188v24h78zM168 16c-8 -12 -13 -16 -27 -16h-20l400 690c5 11 15 18 27 18h22zM661 124v-18c0 -5 -3 -8 -9 -8h-54v-98h-32v98h-162c-8 0 -11 3 -12 8l-4 16l176 236h34v-234h63zM566 291
c0 8 1 16 2 26l-144 -193h142v167z" />
    <glyph glyph-name="onehalf" unicode="&#xbd;" horiz-adv-x="688" 
d="M130 375v270l2 19l-72 -63c-6 -4 -11 -5 -16 2l-12 15l106 92h29v-335h73v-24h-188v24h78zM145 16c-8 -12 -13 -16 -27 -16h-20l400 690c5 11 15 18 27 18h21zM643 78v-78h-237v12c0 4 3 12 7 15l118 119c38 38 67 72 67 116c0 46 -31 69 -71 69c-37 0 -61 -21 -77 -62
c-2 -6 -6 -11 -13 -10l-24 4c10 66 56 99 116 99c59 0 106 -36 106 -98c0 -56 -37 -91 -77 -131l-103 -105c11 4 30 5 39 5h117l3 24c1 14 6 21 18 21h11z" />
    <glyph glyph-name="threequarters" unicode="&#xbe;" horiz-adv-x="718" 
d="M162 712c57 0 104 -34 104 -92c0 -45 -29 -75 -66 -86c48 -12 75 -36 75 -83c0 -66 -58 -105 -117 -105c-72 0 -100 29 -120 92l14 6c8 3 17 4 21 -6c13 -38 45 -62 83 -62c44 0 82 29 82 73c0 53 -40 71 -96 71v24c55 2 90 25 90 70s-32 67 -71 67
c-41 0 -65 -21 -77 -62c-3 -10 -10 -11 -23 -9l-13 2c10 65 55 100 114 100zM205 15c-9 -13 -18 -15 -27 -15h-20l400 690c7 14 17 17 27 17h21zM694 124v-18c0 -5 -3 -8 -9 -8h-55v-98h-31v98h-163c-8 0 -11 3 -12 8l-3 16l176 236h33v-234h64zM599 291c0 8 0 16 1 26
l-144 -194h143v168z" />
    <glyph glyph-name="questiondown" unicode="&#xbf;" horiz-adv-x="415" 
d="M232 413c-25 0 -46 21 -46 46s21 46 46 46s46 -21 46 -46s-21 -46 -46 -46zM380 -112c-43 -43 -104 -70 -164 -70c-94 0 -172 59 -172 150c0 83 45 122 120 172c26 17 44 31 46 56l5 81h33l2 -87c0 -26 -16 -45 -41 -64c-83 -62 -119 -77 -119 -154
c0 -74 59 -114 129 -114c50 0 95 19 123 47c6 6 11 9 14 9s5 -1 7 -2s3 -2 4 -4z" />
    <glyph glyph-name="Agrave" unicode="&#xc0;" horiz-adv-x="771" 
d="M411 771c-7 0 -14 1 -19 6l-146 108h56c15 0 19 -1 31 -11l114 -103h-36zM739 38c12 -1 19 -5 19 -18v-20h-191v20c0 13 7 17 19 18l47 1l-75 193h-342l-75 -192l50 -2c12 -1 19 -5 19 -18v-20h-191v20c0 13 7 17 19 18l48 2l274 668h54l274 -668zM232 270h310l-139 344
l-16 45l-16 -45z" />
    <glyph glyph-name="Aacute" unicode="&#xc1;" horiz-adv-x="771" 
d="M422 799c-7 -7 -8 -8 -18 -8h-29l79 119c8 12 15 16 29 16h47zM739 38c12 -1 19 -5 19 -18v-20h-191v20c0 13 7 17 19 18l47 1l-75 193h-342l-75 -192l50 -2c12 -1 19 -5 19 -18v-20h-191v20c0 13 7 17 19 18l48 2l274 668h54l274 -668zM232 270h310l-139 344l-16 45
l-16 -45z" />
    <glyph glyph-name="Acircumflex" unicode="&#xc2;" horiz-adv-x="771" 
d="M299 776c-5 -4 -12 -5 -16 -5h-37l117 99h45l118 -99h-37c-6 0 -14 2 -17 5l-86 68zM739 38c12 -1 19 -5 19 -18v-20h-191v20c0 13 7 17 19 18l47 1l-75 193h-342l-75 -192l50 -2c12 -1 19 -5 19 -18v-20h-191v20c0 13 7 17 19 18l48 2l274 668h54l274 -668zM232 270h310
l-139 344l-16 45l-16 -45z" />
    <glyph glyph-name="Atilde" unicode="&#xc3;" horiz-adv-x="771" 
d="M356 817c-36 20 -67 4 -70 -41h-28c0 67 51 99 102 74c10 -5 55 -33 56 -34c37 -20 70 -1 70 41h27c0 -66 -50 -99 -101 -74c-10 5 -56 34 -56 34zM739 38c12 -1 19 -5 19 -18v-20h-191v20c0 13 7 17 19 18l47 1l-75 193h-342l-75 -192l50 -2c12 -1 19 -5 19 -18v-20
h-191v20c0 13 7 17 19 18l48 2l274 668h54l274 -668zM232 270h310l-139 344l-16 45l-16 -45z" />
    <glyph glyph-name="Adieresis" unicode="&#xc4;" horiz-adv-x="771" 
d="M282 793c-23 0 -41 18 -41 41c0 22 18 40 41 40c22 0 40 -18 40 -40c0 -23 -18 -41 -40 -41zM490 793c-23 0 -41 18 -41 41c0 22 18 40 41 40c22 0 40 -18 40 -40c0 -23 -18 -41 -40 -41zM739 38c12 -1 19 -5 19 -18v-20h-191v20c0 13 7 17 19 18l47 1l-75 193h-342
l-75 -192l50 -2c12 -1 19 -5 19 -18v-20h-191v20c0 13 7 17 19 18l48 2l274 668h54l274 -668zM232 270h310l-139 344l-16 45l-16 -45z" />
    <glyph glyph-name="Aring" unicode="&#xc5;" horiz-adv-x="771" 
d="M386 736c-45 0 -84 36 -84 79c0 44 39 79 84 79c46 0 84 -35 84 -79c0 -43 -38 -79 -84 -79zM386 870c-30 0 -55 -25 -55 -55s25 -55 55 -55s55 25 55 55s-25 55 -55 55zM739 38c12 -1 19 -5 19 -18v-20h-191v20c0 13 7 17 19 18l47 1l-75 193h-342l-75 -192l50 -2
c12 -1 19 -5 19 -18v-20h-191v20c0 13 7 17 19 18l48 2l274 668h54l274 -668zM232 270h310l-139 344l-16 45l-16 -45z" />
    <glyph glyph-name="AE" unicode="&#xc6;" horiz-adv-x="998" 
d="M934 708v-146h-24c-14 0 -21 8 -22 24l-4 80h-357l36 -287h280v-41h-275l38 -295h278l4 79c1 16 8 25 22 25h24v-147h-444v20c0 11 6 17 19 18l49 1l-23 180h-298l-95 -173l46 -3c15 -1 23 -7 23 -20v-23h-173v23c0 12 6 19 19 20l32 3l344 624l-41 1c-13 1 -20 7 -20 18
v19h562zM478 669c-5 -15 -15 -36 -20 -47l-200 -365h272z" />
    <glyph glyph-name="Ccedilla" unicode="&#xc7;" horiz-adv-x="644" 
d="M622 94c-65 -68 -149 -100 -244 -102l-12 -37c57 -9 91 -27 91 -68c0 -10 -3 -19 -7 -27c-16 -27 -49 -37 -85 -37c-31 0 -53 7 -73 21l6 14c5 10 11 5 14 3c12 -8 36 -15 52 -15c30 0 54 12 54 41c0 39 -45 42 -89 49l19 57c-191 10 -311 160 -311 361
c0 215 140 361 346 361c66 0 142 -16 226 -50v-158h-24c-14 0 -21 8 -22 24l-5 106c-64 24 -119 34 -175 34c-181 0 -293 -132 -293 -317c0 -188 110 -318 283 -318c85 0 150 22 211 78c6 5 12 7 18 1z" />
    <glyph glyph-name="Egrave" unicode="&#xc8;" horiz-adv-x="622" 
d="M227 885c15 0 19 -1 31 -11l114 -103h-36c-7 0 -14 1 -19 6l-146 108h56zM559 708v-146h-25c-14 0 -20 8 -21 24l-4 80h-323v-287h282v-41h-282v-295h323l4 79c1 16 7 25 21 25h25v-147h-508v20c0 11 6 17 19 18l65 2v629l-65 2c-13 1 -20 7 -20 18v19h509z" />
    <glyph glyph-name="Eacute" unicode="&#xc9;" horiz-adv-x="622" 
d="M347 799c-7 -7 -8 -8 -18 -8h-29l79 119c8 12 15 16 29 16h47zM559 708v-146h-25c-14 0 -20 8 -21 24l-4 80h-323v-287h282v-41h-282v-295h323l4 79c1 16 7 25 21 25h25v-147h-508v20c0 11 6 17 19 18l65 2v629l-65 2c-13 1 -20 7 -20 18v19h509z" />
    <glyph glyph-name="Ecircumflex" unicode="&#xca;" horiz-adv-x="622" 
d="M414 771c-6 0 -14 2 -17 5l-86 68l-87 -68c-5 -4 -12 -5 -16 -5h-37l117 99h45l118 -99h-37zM559 708v-146h-25c-14 0 -20 8 -21 24l-4 80h-323v-287h282v-41h-282v-295h323l4 79c1 16 7 25 21 25h25v-147h-508v20c0 11 6 17 19 18l65 2v629l-65 2c-13 1 -20 7 -20 18v19
h509z" />
    <glyph glyph-name="Edieresis" unicode="&#xcb;" horiz-adv-x="622" 
d="M207 793c-23 0 -41 18 -41 41c0 22 18 40 41 40c22 0 40 -18 40 -40c0 -23 -18 -41 -40 -41zM415 793c-23 0 -41 18 -41 41c0 22 18 40 41 40c22 0 40 -18 40 -40c0 -23 -18 -41 -40 -41zM559 708v-146h-25c-14 0 -20 8 -21 24l-4 80h-323v-287h282v-41h-282v-295h323
l4 79c1 16 7 25 21 25h25v-147h-508v20c0 11 6 17 19 18l65 2v629l-65 2c-13 1 -20 7 -20 18v19h509z" />
    <glyph glyph-name="Igrave" unicode="&#xcc;" horiz-adv-x="316" 
d="M74 885c15 0 19 -1 31 -11l114 -103h-36c-7 0 -14 1 -19 6l-146 108h56zM186 668v-628l65 -2c13 -1 19 -7 19 -18v-20h-220v20c0 11 7 17 20 18l65 2v628l-65 2c-13 1 -20 7 -20 18v20h220v-20c0 -11 -6 -17 -19 -18z" />
    <glyph glyph-name="Iacute" unicode="&#xcd;" horiz-adv-x="316" 
d="M194 799c-7 -7 -8 -8 -18 -8h-29l79 119c8 12 15 16 29 16h47zM186 668v-628l65 -2c13 -1 19 -7 19 -18v-20h-220v20c0 11 7 17 20 18l65 2v628l-65 2c-13 1 -20 7 -20 18v20h220v-20c0 -11 -6 -17 -19 -18z" />
    <glyph glyph-name="Icircumflex" unicode="&#xce;" horiz-adv-x="316" 
d="M261 771c-6 0 -14 2 -17 5l-86 68l-87 -68c-5 -4 -12 -5 -16 -5h-37l117 99h45l118 -99h-37zM186 668v-628l65 -2c13 -1 19 -7 19 -18v-20h-220v20c0 11 7 17 20 18l65 2v628l-65 2c-13 1 -20 7 -20 18v20h220v-20c0 -11 -6 -17 -19 -18z" />
    <glyph glyph-name="Idieresis" unicode="&#xcf;" horiz-adv-x="316" 
d="M54 793c-23 0 -41 18 -41 41c0 22 18 40 41 40c22 0 40 -18 40 -40c0 -23 -18 -41 -40 -41zM262 793c-23 0 -41 18 -41 41c0 22 18 40 41 40c22 0 40 -18 40 -40c0 -23 -18 -41 -40 -41zM186 668v-628l65 -2c13 -1 19 -7 19 -18v-20h-220v20c0 11 7 17 20 18l65 2v628
l-65 2c-13 1 -20 7 -20 18v20h220v-20c0 -11 -6 -17 -19 -18z" />
    <glyph glyph-name="Eth" unicode="&#xd0;" horiz-adv-x="760" 
d="M380 708c210 0 338 -148 338 -354c0 -209 -128 -354 -338 -354h-330v20c0 11 7 17 20 18l65 2v302h-108v32h108v295l-65 2c-13 1 -20 7 -20 18v19h330zM380 41c185 0 285 130 285 313c0 185 -103 313 -285 313h-194v-293h202v-32h-202v-301h194z" />
    <glyph glyph-name="Ntilde" unicode="&#xd1;" horiz-adv-x="789" 
d="M365 817c-36 20 -67 4 -70 -41h-28c0 67 51 99 102 74c10 -5 55 -33 56 -34c37 -20 70 -1 70 41h27c0 -66 -50 -99 -101 -74c-10 5 -56 34 -56 34zM549 708h216v-19c0 -11 -7 -17 -20 -18l-64 -2v-669h-25c-8 0 -13 3 -18 10l-460 614c1 -10 1 -20 1 -29v-555l67 -2
c13 -1 20 -7 20 -18v-20h-216v20c0 11 7 17 20 18l65 2v628l-65 2c-13 1 -20 7 -20 18v20h110c12 0 15 -5 19 -10l458 -613c-1 10 -1 20 -1 29v555l-67 2c-13 1 -20 7 -20 18v19z" />
    <glyph glyph-name="Ograve" unicode="&#xd2;" horiz-adv-x="753" 
d="M293 885c15 0 19 -1 31 -11l114 -103h-36c-7 0 -14 1 -19 6l-146 108h56zM712 354c0 -211 -131 -362 -338 -362c-205 0 -337 152 -337 362c0 209 132 362 337 362c209 0 338 -156 338 -362zM658 354c0 190 -107 318 -284 318s-284 -131 -284 -318
c0 -185 103 -317 284 -317c180 0 284 128 284 317z" />
    <glyph glyph-name="Oacute" unicode="&#xd3;" horiz-adv-x="753" 
d="M413 799c-7 -7 -8 -8 -18 -8h-29l79 119c8 12 15 16 29 16h47zM712 354c0 -211 -131 -362 -338 -362c-205 0 -337 152 -337 362c0 209 132 362 337 362c209 0 338 -156 338 -362zM658 354c0 190 -107 318 -284 318s-284 -131 -284 -318c0 -185 103 -317 284 -317
c180 0 284 128 284 317z" />
    <glyph glyph-name="Ocircumflex" unicode="&#xd4;" horiz-adv-x="753" 
d="M480 771c-6 0 -14 2 -17 5l-86 68l-87 -68c-5 -4 -12 -5 -16 -5h-37l117 99h45l118 -99h-37zM712 354c0 -211 -131 -362 -338 -362c-205 0 -337 152 -337 362c0 209 132 362 337 362c209 0 338 -156 338 -362zM658 354c0 190 -107 318 -284 318s-284 -131 -284 -318
c0 -185 103 -317 284 -317c180 0 284 128 284 317z" />
    <glyph glyph-name="Otilde" unicode="&#xd5;" horiz-adv-x="753" 
d="M347 817c-36 20 -67 4 -70 -41h-28c0 67 51 99 102 74c10 -5 55 -33 56 -34c37 -20 70 -1 70 41h27c0 -66 -50 -99 -101 -74c-10 5 -56 34 -56 34zM374 716c209 0 338 -156 338 -362c0 -211 -131 -362 -338 -362c-205 0 -337 152 -337 362c0 209 132 362 337 362zM374 37
c180 0 284 128 284 317c0 190 -107 318 -284 318s-284 -131 -284 -318c0 -185 103 -317 284 -317z" />
    <glyph glyph-name="Odieresis" unicode="&#xd6;" horiz-adv-x="753" 
d="M273 793c-23 0 -41 18 -41 41c0 22 18 40 41 40c22 0 40 -18 40 -40c0 -23 -18 -41 -40 -41zM481 793c-23 0 -41 18 -41 41c0 22 18 40 41 40c22 0 40 -18 40 -40c0 -23 -18 -41 -40 -41zM712 354c0 -211 -131 -362 -338 -362c-205 0 -337 152 -337 362
c0 209 132 362 337 362c209 0 338 -156 338 -362zM658 354c0 190 -107 318 -284 318s-284 -131 -284 -318c0 -185 103 -317 284 -317c180 0 284 128 284 317z" />
    <glyph glyph-name="multiply" unicode="&#xd7;" horiz-adv-x="479" 
d="M264 335l186 -186l-26 -26l-186 186l-187 -187l-26 26l187 187l-184 184l26 27l184 -184l183 183l27 -27z" />
    <glyph glyph-name="Oslash" unicode="&#xd8;" horiz-adv-x="753" 
d="M605 629c69 -66 107 -163 107 -275c0 -211 -131 -362 -338 -362c-77 0 -144 21 -197 59l-65 -87c-9 -14 -21 -16 -32 -16h-22l93 124c-73 65 -114 165 -114 282c0 209 132 362 337 362c82 0 152 -24 206 -66l56 75c9 11 13 15 25 15h27zM90 354c0 -101 31 -187 89 -244
l374 503c-47 38 -107 59 -179 59c-177 0 -284 -131 -284 -318zM374 37c180 0 284 128 284 317c0 98 -29 180 -81 236l-373 -501c45 -33 102 -52 170 -52z" />
    <glyph glyph-name="Ugrave" unicode="&#xd9;" horiz-adv-x="751" 
d="M292 885c15 0 19 -1 31 -11l114 -103h-36c-7 0 -14 1 -19 6l-146 108h56zM728 708v-19c0 -11 -7 -17 -20 -18l-64 -2v-399c0 -160 -106 -278 -268 -278c-165 0 -268 118 -268 278v399l-65 2c-13 1 -19 7 -19 18v19h232v-19c0 -11 -7 -17 -20 -18l-77 -2v-399
c0 -133 83 -234 217 -234c135 0 217 102 217 234v399l-77 2c-13 1 -20 7 -20 18v19h232z" />
    <glyph glyph-name="Uacute" unicode="&#xda;" horiz-adv-x="751" 
d="M412 799c-7 -7 -8 -8 -18 -8h-29l79 119c8 12 15 16 29 16h47zM728 708v-19c0 -11 -7 -17 -20 -18l-64 -2v-399c0 -160 -106 -278 -268 -278c-165 0 -268 118 -268 278v399l-65 2c-13 1 -19 7 -19 18v19h232v-19c0 -11 -7 -17 -20 -18l-77 -2v-399
c0 -133 83 -234 217 -234c135 0 217 102 217 234v399l-77 2c-13 1 -20 7 -20 18v19h232z" />
    <glyph glyph-name="Ucircumflex" unicode="&#xdb;" horiz-adv-x="751" 
d="M479 771c-6 0 -14 2 -17 5l-86 68l-87 -68c-5 -4 -12 -5 -16 -5h-37l117 99h45l118 -99h-37zM728 708v-19c0 -11 -7 -17 -20 -18l-64 -2v-399c0 -160 -106 -278 -268 -278c-165 0 -268 118 -268 278v399l-65 2c-13 1 -19 7 -19 18v19h232v-19c0 -11 -7 -17 -20 -18
l-77 -2v-399c0 -133 83 -234 217 -234c135 0 217 102 217 234v399l-77 2c-13 1 -20 7 -20 18v19h232z" />
    <glyph glyph-name="Udieresis" unicode="&#xdc;" horiz-adv-x="751" 
d="M272 793c-23 0 -41 18 -41 41c0 22 18 40 41 40c22 0 40 -18 40 -40c0 -23 -18 -41 -40 -41zM480 793c-23 0 -41 18 -41 41c0 22 18 40 41 40c22 0 40 -18 40 -40c0 -23 -18 -41 -40 -41zM728 708v-19c0 -11 -7 -17 -20 -18l-64 -2v-399c0 -160 -106 -278 -268 -278
c-165 0 -268 118 -268 278v399l-65 2c-13 1 -19 7 -19 18v19h232v-19c0 -11 -7 -17 -20 -18l-77 -2v-399c0 -133 83 -234 217 -234c135 0 217 102 217 234v399l-77 2c-13 1 -20 7 -20 18v19h232z" />
    <glyph glyph-name="Yacute" unicode="&#xdd;" horiz-adv-x="687" 
d="M380 799c-7 -7 -8 -8 -18 -8h-29l79 119c8 12 15 16 29 16h47zM663 708v-19c0 -11 -7 -17 -20 -18l-37 -2l-237 -377v-252l65 -2c13 -1 19 -7 19 -18v-20h-219v20c0 11 7 17 20 18l64 2v252l-237 377l-37 2c-13 1 -20 7 -20 18v19h185v-19c0 -11 -7 -17 -20 -18l-52 -2
l186 -299c10 -16 13 -25 21 -44c10 23 12 30 21 44l185 299l-52 2c-13 1 -20 7 -20 18v19h185z" />
    <glyph glyph-name="Thorn" unicode="&#xde;" horiz-adv-x="553" 
d="M134 0h-50v708h50v-142h132c156 0 251 -68 251 -210c0 -135 -109 -213 -251 -213h-132v-143zM266 184c117 0 200 66 200 172c0 120 -80 168 -200 168h-132v-340h132z" />
    <glyph glyph-name="germandbls" unicode="&#xdf;" horiz-adv-x="538" 
d="M296 716c96 0 177 -58 177 -140c0 -54 -37 -100 -80 -127c-48 -31 -79 -58 -79 -89c0 -34 24 -53 61 -68c94 -39 132 -69 132 -145c0 -94 -70 -155 -171 -155c-61 0 -107 20 -153 61l11 17c8 12 18 10 30 0c35 -29 70 -43 115 -43c74 0 124 48 124 113
c0 53 -38 87 -99 109c-64 23 -100 52 -100 103c0 44 36 73 82 106c49 35 82 68 82 118c0 64 -63 104 -134 104c-112 0 -172 -73 -172 -180v-500h-47v500c0 130 86 216 221 216z" />
    <glyph glyph-name="agrave" unicode="&#xe0;" horiz-adv-x="513" 
d="M143 715c16 0 24 -7 30 -16l78 -120h-26c-12 0 -15 5 -19 9l-109 127h46zM450 38c13 -1 20 -7 20 -18v-20h-85c-10 0 -17 5 -19 14l-7 64c-61 -57 -105 -86 -186 -86c-78 0 -133 48 -133 129c0 119 184 150 317 151v52c0 92 -38 143 -118 143c-49 0 -104 -25 -132 -53
c-15 -15 -28 -14 -34 -2l-8 15c52 52 108 79 179 79c109 0 160 -75 160 -182v-285zM357 240c-111 -1 -271 -22 -271 -118c0 -61 38 -95 99 -95c78 0 118 30 172 84v129z" />
    <glyph glyph-name="aacute" unicode="&#xe1;" horiz-adv-x="513" 
d="M282 589c-7 -7 -8 -8 -18 -8h-29l79 119c8 12 15 16 29 16h47zM450 38c13 -1 20 -7 20 -18v-20h-85c-10 0 -17 5 -19 14l-7 64c-61 -57 -105 -86 -186 -86c-78 0 -133 48 -133 129c0 119 184 150 317 151v52c0 92 -38 143 -118 143c-49 0 -104 -25 -132 -53
c-15 -15 -28 -14 -34 -2l-8 15c52 52 108 79 179 79c109 0 160 -75 160 -182v-285zM357 240c-111 -1 -271 -22 -271 -118c0 -61 38 -95 99 -95c78 0 118 30 172 84v129z" />
    <glyph glyph-name="acircumflex" unicode="&#xe2;" horiz-adv-x="513" 
d="M349 561c-6 0 -14 2 -17 5l-86 68l-87 -68c-5 -4 -12 -5 -16 -5h-37l117 99h45l118 -99h-37zM450 38c13 -1 20 -7 20 -18v-20h-85c-10 0 -17 5 -19 14l-7 64c-61 -57 -105 -86 -186 -86c-78 0 -133 48 -133 129c0 119 184 150 317 151v52c0 92 -38 143 -118 143
c-49 0 -104 -25 -132 -53c-15 -15 -28 -14 -34 -2l-8 15c52 52 108 79 179 79c109 0 160 -75 160 -182v-285zM357 240c-111 -1 -271 -22 -271 -118c0 -61 38 -95 99 -95c78 0 118 30 172 84v129z" />
    <glyph glyph-name="atilde" unicode="&#xe3;" horiz-adv-x="513" 
d="M206 607c-36 20 -67 4 -70 -41h-28c0 67 51 99 102 74c10 -5 55 -33 56 -34c37 -20 70 -1 70 41h27c0 -66 -50 -99 -101 -74c-10 5 -56 34 -56 34zM450 38c13 -1 20 -7 20 -18v-20h-85c-10 0 -17 5 -19 14l-7 64c-61 -57 -105 -86 -186 -86c-78 0 -133 48 -133 129
c0 119 184 150 317 151v52c0 92 -38 143 -118 143c-49 0 -104 -25 -132 -53c-15 -15 -28 -14 -34 -2l-8 15c52 52 108 79 179 79c109 0 160 -75 160 -182v-285zM357 111v129c-111 -1 -271 -22 -271 -118c0 -61 38 -95 99 -95c78 0 118 30 172 84z" />
    <glyph glyph-name="adieresis" unicode="&#xe4;" horiz-adv-x="513" 
d="M142 583c-23 0 -41 18 -41 41c0 22 18 40 41 40c22 0 40 -18 40 -40c0 -23 -18 -41 -40 -41zM350 583c-23 0 -41 18 -41 41c0 22 18 40 41 40c22 0 40 -18 40 -40c0 -23 -18 -41 -40 -41zM450 38c13 -1 20 -7 20 -18v-20h-85c-10 0 -17 5 -19 14l-7 64
c-61 -57 -105 -86 -186 -86c-78 0 -133 48 -133 129c0 119 184 150 317 151v52c0 92 -38 143 -118 143c-49 0 -104 -25 -132 -53c-15 -15 -28 -14 -34 -2l-8 15c52 52 108 79 179 79c109 0 160 -75 160 -182v-285zM357 240c-111 -1 -271 -22 -271 -118c0 -61 38 -95 99 -95
c78 0 118 30 172 84v129z" />
    <glyph glyph-name="aring" unicode="&#xe5;" horiz-adv-x="513" 
d="M246 526c-45 0 -84 36 -84 79c0 44 39 79 84 79c46 0 84 -35 84 -79c0 -43 -38 -79 -84 -79zM246 550c30 0 55 25 55 55s-25 55 -55 55s-55 -25 -55 -55s25 -55 55 -55zM450 38c13 -1 20 -7 20 -18v-20h-85c-10 0 -17 5 -19 14l-7 64c-61 -57 -105 -86 -186 -86
c-78 0 -133 48 -133 129c0 119 184 150 317 151v52c0 92 -38 143 -118 143c-49 0 -104 -25 -132 -53c-15 -15 -28 -14 -34 -2l-8 15c52 52 108 79 179 79c109 0 160 -75 160 -182v-285zM357 240c-111 -1 -271 -22 -271 -118c0 -61 38 -95 99 -95c78 0 118 30 172 84v129z
" />
    <glyph glyph-name="ae" unicode="&#xe6;" horiz-adv-x="783" 
d="M566 506c114 0 177 -101 177 -229c0 -13 0 -19 -12 -19h-330c0 -129 53 -227 168 -227c47 0 105 21 129 45c9 9 18 11 26 3l12 -15c-37 -46 -116 -71 -170 -71c-91 0 -153 50 -184 138c-25 -92 -104 -139 -194 -139c-91 0 -148 44 -148 137c0 122 183 160 317 161v34
c0 87 -36 144 -118 144c-51 0 -103 -24 -133 -54c-12 -12 -25 -14 -33 -2l-9 15c52 52 106 79 176 79c81 0 129 -40 146 -120c32 75 95 120 180 120zM564 470c-100 0 -155 -82 -162 -181h299c0 103 -48 181 -137 181zM357 257c-116 -5 -272 -27 -272 -126
c0 -68 43 -105 112 -105c95 0 160 70 160 166v65z" />
    <glyph glyph-name="ccedilla" unicode="&#xe7;" horiz-adv-x="459" 
d="M422 64c-35 -43 -92 -65 -146 -70l-13 -39c57 -9 91 -27 91 -68c0 -10 -3 -19 -7 -27c-16 -27 -49 -37 -85 -37c-31 0 -53 7 -73 21l6 14c5 10 11 5 14 3c12 -8 36 -15 52 -15c30 0 54 12 54 41c0 39 -45 42 -89 49l19 57c-132 4 -207 114 -207 256c0 148 79 256 225 256
c37 0 88 -10 140 -31v-125h-24c-14 0 -21 8 -22 24c0 1 -5 57 -6 78c-32 11 -60 17 -85 17c-119 0 -179 -92 -179 -219s59 -218 172 -218c49 0 99 19 126 46c11 11 20 9 24 3z" />
    <glyph glyph-name="egrave" unicode="&#xe8;" horiz-adv-x="497" 
d="M169 675c15 0 19 -1 31 -11l114 -103h-36c-7 0 -14 1 -19 6l-146 108h56zM263 506c123 0 196 -92 196 -219c0 -15 -7 -19 -14 -19h-359c0 -143 57 -237 184 -237c50 0 110 20 141 46c12 11 22 9 26 3l13 -16c-36 -45 -121 -70 -184 -70c-153 0 -228 115 -228 265
c0 141 85 247 225 247zM264 470c-103 0 -164 -67 -176 -171h328c0 103 -59 171 -152 171z" />
    <glyph glyph-name="eacute" unicode="&#xe9;" horiz-adv-x="497" 
d="M262 589c-6 -6 -9 -9 -18 -9h-29l79 120c8 12 15 16 29 16h47zM263 506c123 0 196 -92 196 -219c0 -15 -7 -19 -14 -19h-359c0 -143 57 -237 184 -237c50 0 110 20 141 46c12 11 22 9 26 3l13 -16c-36 -45 -121 -70 -184 -70c-153 0 -228 115 -228 265
c0 141 85 247 225 247zM264 470c-103 0 -164 -67 -176 -171h328c0 103 -59 171 -152 171z" />
    <glyph glyph-name="ecircumflex" unicode="&#xea;" horiz-adv-x="497" 
d="M366 561c-6 0 -14 2 -17 5l-86 68l-87 -68c-5 -4 -12 -5 -16 -5h-37l117 99h45l118 -99h-37zM263 506c123 0 196 -92 196 -219c0 -15 -7 -19 -14 -19h-359c0 -143 57 -237 184 -237c50 0 110 20 141 46c12 11 22 9 26 3l13 -16c-36 -45 -121 -70 -184 -70
c-153 0 -228 115 -228 265c0 141 85 247 225 247zM264 470c-103 0 -164 -67 -176 -171h328c0 103 -59 171 -152 171z" />
    <glyph glyph-name="edieresis" unicode="&#xeb;" horiz-adv-x="497" 
d="M159 583c-23 0 -41 18 -41 41c0 22 18 40 41 40c22 0 40 -18 40 -40c0 -23 -18 -41 -40 -41zM367 583c-23 0 -41 18 -41 41c0 22 18 40 41 40c22 0 40 -18 40 -40c0 -23 -18 -41 -40 -41zM263 506c123 0 196 -92 196 -219c0 -15 -7 -19 -14 -19h-359
c0 -143 57 -237 184 -237c50 0 110 20 141 46c12 11 22 9 26 3l13 -16c-36 -45 -121 -70 -184 -70c-153 0 -228 115 -228 265c0 141 85 247 225 247zM264 470c-103 0 -164 -67 -176 -171h328c0 103 -59 171 -152 171z" />
    <glyph glyph-name="igrave" unicode="&#xec;" horiz-adv-x="282" 
d="M33 675c15 0 19 -1 31 -11l114 -103h-36c-7 0 -14 1 -19 6l-146 108h56zM222 38c13 -1 20 -7 20 -18v-20h-192v20c0 11 7 17 20 18l52 2v418l-52 2c-13 1 -20 7 -20 18v20h120v-458z" />
    <glyph glyph-name="iacute" unicode="&#xed;" horiz-adv-x="282" 
d="M163 589c-7 -7 -8 -8 -18 -8h-29l79 119c8 12 15 16 29 16h47zM222 38c13 -1 20 -7 20 -18v-20h-192v20c0 11 7 17 20 18l52 2v418l-52 2c-13 1 -20 7 -20 18v20h120v-458z" />
    <glyph glyph-name="icircumflex" unicode="&#xee;" horiz-adv-x="282" 
d="M230 561c-6 0 -14 2 -17 5l-86 68l-87 -68c-5 -4 -12 -5 -16 -5h-37l117 99h45l118 -99h-37zM222 38c13 -1 20 -7 20 -18v-20h-192v20c0 11 7 17 20 18l52 2v418l-52 2c-13 1 -20 7 -20 18v20h120v-458z" />
    <glyph glyph-name="idieresis" unicode="&#xef;" horiz-adv-x="282" 
d="M23 583c-23 0 -41 18 -41 41c0 22 18 40 41 40c22 0 40 -18 40 -40c0 -23 -18 -41 -40 -41zM231 583c-23 0 -41 18 -41 41c0 22 18 40 41 40c22 0 40 -18 40 -40c0 -23 -18 -41 -40 -41zM222 38c13 -1 20 -7 20 -18v-20h-192v20c0 11 7 17 20 18l52 2v418l-52 2
c-13 1 -20 7 -20 18v20h120v-458z" />
    <glyph glyph-name="eth" unicode="&#xf0;" horiz-adv-x="523" 
d="M216 535c-6 10 -1 15 3 19l63 55c-42 23 -91 38 -134 47c-10 3 -14 12 -11 23l5 17c61 -10 122 -30 172 -61l76 68l9 -15c5 -8 4 -11 -4 -19l-57 -50c102 -77 144 -190 144 -319c0 -174 -72 -306 -230 -306c-131 0 -218 101 -218 234c0 138 88 232 217 232
c84 0 150 -46 189 -116c-9 106 -50 194 -133 250l-82 -73zM254 32c129 0 179 111 183 250c-25 84 -92 141 -178 141c-116 0 -177 -82 -177 -195c0 -114 69 -196 172 -196z" />
    <glyph glyph-name="ntilde" unicode="&#xf1;" horiz-adv-x="629" 
d="M297 607c-36 20 -67 4 -70 -41h-28c0 67 51 99 102 74c10 -5 55 -33 56 -34c37 -20 70 -1 70 41h27c0 -66 -50 -99 -101 -74c-10 5 -56 34 -56 34zM567 38c13 -1 20 -7 20 -18v-20h-120v318c0 89 -38 149 -130 149c-67 0 -123 -37 -166 -94v-333l53 -2
c13 -1 19 -7 19 -18v-20h-191v20c0 11 6 17 19 18l53 2v419l-54 2c-12 1 -19 5 -19 18v19h99c9 0 14 -4 15 -12l4 -76c45 57 105 95 180 95c111 0 166 -74 166 -187v-278z" />
    <glyph glyph-name="ograve" unicode="&#xf2;" horiz-adv-x="530" 
d="M171 675c15 0 19 -1 31 -11l114 -103h-36c-7 0 -14 1 -19 6l-146 108h56zM266 506c144 0 226 -105 226 -257c0 -154 -83 -255 -226 -255c-147 0 -228 104 -228 255s82 257 228 257zM266 31c121 0 177 89 177 218c0 127 -55 219 -177 219s-178 -88 -178 -219
c0 -128 54 -218 178 -218z" />
    <glyph glyph-name="oacute" unicode="&#xf3;" horiz-adv-x="530" 
d="M264 589c-6 -6 -9 -9 -18 -9h-29l79 120c8 12 15 16 29 16h47zM266 506c144 0 226 -105 226 -257c0 -154 -83 -255 -226 -255c-147 0 -228 104 -228 255s82 257 228 257zM266 31c121 0 177 89 177 218c0 127 -55 219 -177 219s-178 -88 -178 -219
c0 -128 54 -218 178 -218z" />
    <glyph glyph-name="ocircumflex" unicode="&#xf4;" horiz-adv-x="530" 
d="M368 561c-6 0 -14 2 -17 5l-86 68l-87 -68c-5 -4 -12 -5 -16 -5h-37l117 99h45l118 -99h-37zM266 506c144 0 226 -105 226 -257c0 -154 -83 -255 -226 -255c-147 0 -228 104 -228 255s82 257 228 257zM266 31c121 0 177 89 177 218c0 127 -55 219 -177 219
s-178 -88 -178 -219c0 -128 54 -218 178 -218z" />
    <glyph glyph-name="otilde" unicode="&#xf5;" horiz-adv-x="530" 
d="M225 607c-36 20 -67 4 -70 -41h-28c0 67 51 99 102 74c10 -5 55 -33 56 -34c37 -20 70 -1 70 41h27c0 -66 -50 -99 -101 -74c-10 5 -56 34 -56 34zM266 506c144 0 226 -105 226 -257c0 -154 -83 -255 -226 -255c-147 0 -228 104 -228 255s82 257 228 257zM266 31
c121 0 177 89 177 218c0 127 -55 219 -177 219s-178 -88 -178 -219c0 -128 54 -218 178 -218z" />
    <glyph glyph-name="odieresis" unicode="&#xf6;" horiz-adv-x="530" 
d="M161 583c-23 0 -41 18 -41 41c0 22 18 40 41 40c22 0 40 -18 40 -40c0 -23 -18 -41 -40 -41zM369 583c-23 0 -41 18 -41 41c0 22 18 40 41 40c22 0 40 -18 40 -40c0 -23 -18 -41 -40 -41zM266 506c144 0 226 -105 226 -257c0 -154 -83 -255 -226 -255
c-147 0 -228 104 -228 255s82 257 228 257zM266 31c121 0 177 89 177 218c0 127 -55 219 -177 219s-178 -88 -178 -219c0 -128 54 -218 178 -218z" />
    <glyph glyph-name="divide" unicode="&#xf7;" horiz-adv-x="524" 
d="M261 465c-27 0 -48 21 -48 48c0 26 21 47 48 47c26 0 47 -21 47 -47c0 -27 -21 -48 -47 -48zM496 354v-37h-470v37h470zM261 110c-27 0 -48 21 -48 48c0 26 21 47 48 47c26 0 47 -21 47 -47c0 -27 -21 -48 -47 -48z" />
    <glyph glyph-name="oslash" unicode="&#xf8;" horiz-adv-x="530" 
d="M505 531l-72 -97c39 -45 59 -109 59 -185c0 -154 -83 -255 -226 -255c-53 0 -97 13 -132 38l-40 -54c-8 -13 -23 -16 -31 -16h-19l66 89c-47 45 -72 114 -72 198c0 151 82 257 228 257c60 0 108 -18 145 -50l47 63c8 11 12 12 22 12h25zM88 249c0 -68 15 -125 48 -164
l250 337c-28 29 -68 46 -120 46c-122 0 -178 -88 -178 -219zM443 249c0 59 -12 111 -37 149l-248 -334c27 -21 63 -33 108 -33c121 0 177 89 177 218z" />
    <glyph glyph-name="ugrave" unicode="&#xf9;" horiz-adv-x="598" 
d="M176 675c15 0 19 -1 31 -11l114 -103h-36c-7 0 -14 1 -19 6l-146 108h56zM536 38c13 -1 20 -7 20 -18v-20h-98c-9 0 -15 4 -15 13l-4 74c-47 -59 -109 -95 -181 -95c-112 0 -166 78 -166 188v278l-52 2c-13 1 -20 7 -20 18v19h72l48 1v-318c0 -92 41 -150 130 -150
c65 0 124 38 166 94v334l-52 2c-13 1 -20 7 -20 18v19h72l48 1v-458z" />
    <glyph glyph-name="uacute" unicode="&#xfa;" horiz-adv-x="598" 
d="M269 589c-6 -6 -9 -9 -18 -9h-29l79 120c8 12 15 16 29 16h47zM536 38c13 -1 20 -7 20 -18v-20h-98c-9 0 -15 4 -15 13l-4 74c-47 -59 -109 -95 -181 -95c-112 0 -166 78 -166 188v278l-52 2c-13 1 -20 7 -20 18v19h72l48 1v-318c0 -92 41 -150 130 -150
c65 0 124 38 166 94v334l-52 2c-13 1 -20 7 -20 18v19h72l48 1v-458z" />
    <glyph glyph-name="ucircumflex" unicode="&#xfb;" horiz-adv-x="598" 
d="M373 561c-6 0 -14 2 -17 5l-86 68l-87 -68c-5 -4 -12 -5 -16 -5h-37l117 99h45l118 -99h-37zM536 38c13 -1 20 -7 20 -18v-20h-98c-9 0 -15 4 -15 13l-4 74c-47 -59 -109 -95 -181 -95c-112 0 -166 78 -166 188v278l-52 2c-13 1 -20 7 -20 18v19h72l48 1v-318
c0 -92 41 -150 130 -150c65 0 124 38 166 94v334l-52 2c-13 1 -20 7 -20 18v19h72l48 1v-458z" />
    <glyph glyph-name="udieresis" unicode="&#xfc;" horiz-adv-x="598" 
d="M166 583c-23 0 -41 18 -41 41c0 22 18 40 41 40c22 0 40 -18 40 -40c0 -23 -18 -41 -40 -41zM374 583c-23 0 -41 18 -41 41c0 22 18 40 41 40c22 0 40 -18 40 -40c0 -23 -18 -41 -40 -41zM536 38c13 -1 20 -7 20 -18v-20h-98c-9 0 -15 4 -15 13l-4 74
c-47 -59 -109 -95 -181 -95c-112 0 -166 78 -166 188v278l-52 2c-13 1 -20 7 -20 18v19h72l48 1v-318c0 -92 41 -150 130 -150c65 0 124 38 166 94v334l-52 2c-13 1 -20 7 -20 18v19h72l48 1v-458z" />
    <glyph glyph-name="yacute" unicode="&#xfd;" horiz-adv-x="578" 
d="M288 589c-6 -6 -9 -9 -18 -9h-29l79 120c8 12 15 16 29 16h47zM552 498v-19c0 -11 -7 -17 -20 -18l-34 -1l-269 -620c-4 -9 -12 -16 -22 -16h-34l88 194l-194 442l-30 1c-13 1 -20 7 -20 18v19h174v-19c0 -11 -7 -17 -20 -18l-51 -2l155 -361c4 -9 9 -26 10 -30
c1 4 7 21 11 30l153 361l-51 2c-13 1 -20 7 -20 18v19h174z" />
    <glyph glyph-name="thorn" unicode="&#xfe;" horiz-adv-x="536" 
d="M84 728h47v-318c45 59 104 96 175 96c134 0 194 -105 194 -254c0 -143 -75 -258 -217 -258c-65 0 -114 24 -152 76v-246h-47v904zM292 468c-68 0 -120 -38 -161 -98v-261c36 -55 78 -78 143 -78c122 0 176 94 176 221c0 129 -42 216 -158 216z" />
    <glyph glyph-name="ydieresis" unicode="&#xff;" horiz-adv-x="578" 
d="M185 583c-23 0 -41 18 -41 41c0 22 18 40 41 40c22 0 40 -18 40 -40c0 -23 -18 -41 -40 -41zM393 583c-23 0 -41 18 -41 41c0 22 18 40 41 40c22 0 40 -18 40 -40c0 -23 -18 -41 -40 -41zM552 498v-19c0 -11 -7 -17 -20 -18l-34 -1l-269 -620c-4 -9 -12 -16 -22 -16h-34
l88 194l-194 442l-30 1c-13 1 -20 7 -20 18v19h174v-19c0 -11 -7 -17 -20 -18l-51 -2l155 -361c4 -9 9 -26 10 -30c1 4 7 21 11 30l153 361l-51 2c-13 1 -20 7 -20 18v19h174z" />
    <glyph glyph-name="Aogonek" unicode="&#x104;" horiz-adv-x="771" 
d="M751 -128l8 -14c-22 -20 -54 -27 -79 -27c-47 0 -86 24 -86 71c0 37 30 72 70 98h-97v20c0 13 7 17 19 18l47 1l-75 193h-342l-75 -192l50 -2c12 -1 19 -5 19 -18v-20h-191v20c0 13 7 17 19 18l48 2l274 668h54l274 -668l51 -2c12 -1 19 -5 19 -18v-20h-60
c-40 -23 -66 -54 -66 -88c0 -35 27 -50 56 -50c22 0 39 7 49 13c6 3 11 2 14 -3zM232 270h310l-139 344l-16 45l-16 -45z" />
    <glyph glyph-name="aogonek" unicode="&#x105;" horiz-adv-x="513" 
d="M401 0c-40 -23 -66 -54 -66 -88c0 -35 27 -50 56 -50c22 0 39 7 49 13c6 3 11 2 14 -3l8 -14c-22 -20 -54 -27 -79 -27c-47 0 -86 24 -86 71c0 39 33 75 76 101c-4 3 -6 6 -7 11l-7 64c-61 -57 -105 -86 -186 -86c-78 0 -133 48 -133 129c0 119 184 150 317 151v52
c0 92 -38 143 -118 143c-49 0 -104 -25 -132 -53c-15 -15 -28 -14 -34 -2l-8 15c52 52 108 79 179 79c109 0 160 -75 160 -182v-285l46 -1c13 -1 20 -7 20 -18v-20h-69zM357 111v129c-111 -1 -271 -22 -271 -118c0 -61 38 -95 99 -95c78 0 118 30 172 84z" />
    <glyph glyph-name="Cacute" unicode="&#x106;" horiz-adv-x="644" 
d="M419 799c-7 -7 -8 -8 -18 -8h-29l79 119c8 12 15 16 29 16h47zM602 115l20 -21c-67 -70 -154 -102 -253 -102c-203 0 -332 154 -332 362c0 215 140 361 346 361c66 0 142 -16 226 -50v-158h-24c-14 0 -21 8 -22 24l-5 106c-64 24 -119 34 -175 34
c-181 0 -293 -132 -293 -317c0 -188 110 -318 283 -318c85 0 150 22 211 78c6 5 12 7 18 1z" />
    <glyph glyph-name="cacute" unicode="&#x107;" horiz-adv-x="459" 
d="M250 589c-6 -6 -9 -9 -18 -9h-29l79 120c8 12 15 16 29 16h47zM422 64c-40 -50 -110 -71 -170 -71c-136 0 -214 111 -214 256c0 148 79 256 225 256c37 0 88 -10 140 -31v-125h-24c-14 0 -21 8 -22 24c0 1 -5 57 -6 78c-32 11 -60 17 -85 17c-119 0 -179 -92 -179 -219
s59 -218 172 -218c49 0 99 19 126 46c11 11 20 9 24 3z" />
    <glyph glyph-name="Eogonek" unicode="&#x118;" horiz-adv-x="622" 
d="M552 -128l8 -14c-22 -20 -54 -27 -79 -27c-47 0 -86 24 -86 71c0 37 30 72 70 98h-414v20c0 11 6 17 19 18l65 2v629l-65 2c-13 1 -20 7 -20 18v19h509v-146h-25c-14 0 -20 8 -21 24l-4 80h-323v-287h282v-41h-282v-295h323l4 79c1 16 7 25 21 25h25v-147h-60
c-40 -23 -66 -54 -66 -88c0 -35 27 -50 56 -50c22 0 39 7 49 13c6 3 11 2 14 -3z" />
    <glyph glyph-name="eogonek" unicode="&#x119;" horiz-adv-x="497" 
d="M459 287c0 -15 -7 -19 -14 -19h-359c0 -143 57 -237 184 -237c50 0 110 20 141 46c12 11 22 9 26 3l13 -16c-32 -40 -104 -65 -164 -69c-35 -23 -57 -51 -57 -83c0 -35 27 -50 56 -50c22 0 39 7 49 13c6 3 11 2 14 -3l8 -14c-22 -20 -54 -27 -79 -27c-47 0 -86 24 -86 71
c0 34 26 67 62 92c-144 7 -215 119 -215 265c0 141 85 247 225 247c123 0 196 -92 196 -219zM88 299h328c0 103 -59 171 -152 171c-103 0 -164 -67 -176 -171z" />
    <glyph glyph-name="dotlessi" unicode="&#x131;" horiz-adv-x="282" 
d="M222 38c13 -1 20 -7 20 -18v-20h-192v20c0 11 7 17 20 18l52 2v418l-52 2c-13 1 -20 7 -20 18v20h120v-458z" />
    <glyph glyph-name="Lslash" unicode="&#x141;" horiz-adv-x="591" 
d="M539 132v-132h-479v20c0 11 7 17 20 18l64 2v254l-98 -51v33c0 6 4 12 10 15l88 46v331l-64 2c-13 1 -20 7 -20 18v20h219v-20c0 -11 -7 -17 -20 -18l-64 -2v-307l208 109v-32c0 -10 -5 -13 -9 -15l-199 -106v-273h293l5 64c1 16 8 24 22 24h24z" />
    <glyph glyph-name="lslash" unicode="&#x142;" horiz-adv-x="301" 
d="M271 476v-25c0 -12 -5 -14 -9 -16l-89 -42v-353l53 -2c13 -1 20 -7 20 -18v-20h-192v20c0 11 7 17 20 18l52 2v335l-98 -45v26c0 7 4 12 10 15l88 42v275l-52 2c-13 1 -20 7 -20 18v20h119v-297z" />
    <glyph glyph-name="Nacute" unicode="&#x143;" horiz-adv-x="789" 
d="M431 799c-7 -7 -8 -8 -18 -8h-29l79 119c8 12 15 16 29 16h47zM765 708v-19c0 -11 -7 -17 -20 -18l-64 -2v-669h-25c-8 0 -13 3 -18 10l-460 614c1 -10 1 -20 1 -29v-555l67 -2c13 -1 20 -7 20 -18v-20h-216v20c0 11 7 17 20 18l65 2v628l-65 2c-13 1 -20 7 -20 18v20
h110c12 0 15 -5 19 -10l458 -613c-1 10 -1 20 -1 29v555l-67 2c-13 1 -20 7 -20 18v19h216z" />
    <glyph glyph-name="nacute" unicode="&#x144;" horiz-adv-x="629" 
d="M336 589c-6 -6 -9 -9 -18 -9h-29l79 120c8 12 15 16 29 16h47zM567 38c13 -1 20 -7 20 -18v-20h-120v318c0 89 -38 149 -130 149c-67 0 -123 -37 -166 -94v-333l53 -2c13 -1 19 -7 19 -18v-20h-191v20c0 11 6 17 19 18l53 2v419l-54 2c-12 1 -19 5 -19 18v19h99
c9 0 14 -4 15 -12l4 -76c45 57 105 95 180 95c111 0 166 -74 166 -187v-278z" />
    <glyph glyph-name="OE" unicode="&#x152;" horiz-adv-x="1092" 
d="M1028 708v-146h-24c-16 0 -21 9 -22 24l-4 80h-323v-287h282v-41h-282v-295h323l4 79c1 15 6 25 22 25h24v-147h-419v167c-50 -112 -145 -173 -268 -173c-194 0 -303 158 -303 360c0 206 114 361 303 361c124 0 220 -67 268 -174v167h419zM604 354
c0 182 -92 318 -257 318s-257 -139 -257 -318c0 -176 88 -317 257 -317c170 0 257 141 257 317z" />
    <glyph glyph-name="oe" unicode="&#x153;" horiz-adv-x="847" 
d="M628 506c115 0 179 -101 179 -228c0 -16 -4 -20 -13 -20h-330c0 -126 51 -226 169 -226c51 0 96 18 128 45c12 11 20 9 25 3l13 -16c-37 -47 -113 -70 -170 -70c-95 0 -159 55 -187 147c-28 -93 -96 -147 -192 -147c-139 0 -211 111 -211 255c0 147 73 257 212 257
c97 0 163 -58 190 -145c29 92 98 145 187 145zM628 470c-100 0 -155 -74 -162 -181h299c0 104 -49 181 -137 181zM254 31c116 0 164 98 164 218c0 123 -51 219 -164 219c-115 0 -166 -91 -166 -219c0 -124 48 -218 166 -218z" />
    <glyph glyph-name="Sacute" unicode="&#x15a;" horiz-adv-x="514" 
d="M293 799c-7 -7 -8 -8 -18 -8h-29l79 119c8 12 15 16 29 16h47zM296 386c109 -35 178 -75 178 -179c0 -133 -99 -215 -227 -215c-66 0 -129 13 -190 39v158h24c14 0 21 -8 22 -24l5 -102c47 -20 80 -28 141 -28c109 0 177 65 177 164c0 94 -70 117 -177 151
c-115 36 -178 78 -178 183c0 111 89 182 205 182c59 0 119 -14 182 -41v-158h-24c-14 0 -21 8 -22 24l-5 108c-40 17 -83 25 -131 25c-92 0 -158 -56 -158 -137c0 -87 72 -116 178 -150z" />
    <glyph glyph-name="sacute" unicode="&#x15b;" horiz-adv-x="427" 
d="M213 589c-6 -6 -9 -9 -18 -9h-29l79 120c8 12 15 16 29 16h47zM388 146c0 -96 -76 -154 -175 -154c-50 0 -99 10 -147 28v121h24c14 0 21 -8 22 -24l6 -74c27 -11 59 -16 97 -16c72 0 128 42 128 111c0 61 -61 82 -139 105c-82 23 -138 54 -138 128c0 82 76 134 164 134
c36 0 80 -8 132 -26v-119h-24c-14 0 -21 8 -22 24l-6 72c-27 9 -53 13 -79 13c-62 0 -120 -36 -120 -95c0 -58 60 -77 138 -100c79 -23 139 -57 139 -128z" />
    <glyph glyph-name="Scaron" unicode="&#x160;" horiz-adv-x="514" 
d="M282 796h-42l-109 123h33c5 0 10 -2 14 -6l78 -81l6 -7l5 7l78 81c2 2 4 3 6 4c3 1 5 2 7 2h33zM296 386c109 -35 178 -75 178 -179c0 -133 -99 -215 -227 -215c-66 0 -129 13 -190 39v158h24c14 0 21 -8 22 -24l5 -102c47 -20 80 -28 141 -28c109 0 177 65 177 164
c0 94 -70 117 -177 151c-115 36 -178 78 -178 183c0 111 89 182 205 182c59 0 119 -14 182 -41v-158h-24c-14 0 -21 8 -22 24l-5 108c-40 17 -83 25 -131 25c-92 0 -158 -56 -158 -137c0 -87 72 -116 178 -150z" />
    <glyph glyph-name="scaron" unicode="&#x161;" horiz-adv-x="427" 
d="M121 709c5 0 10 -2 14 -6l78 -81l6 -7l5 7l78 81c2 2 4 3 6 4c3 1 5 2 7 2h33l-109 -123h-42l-109 123h33zM388 146c0 -96 -76 -154 -175 -154c-50 0 -99 10 -147 28v121h24c14 0 21 -8 22 -24l6 -74c27 -11 59 -16 97 -16c72 0 128 42 128 111c0 61 -61 82 -139 105
c-82 23 -138 54 -138 128c0 82 76 134 164 134c36 0 80 -8 132 -26v-119h-24c-14 0 -21 8 -22 24l-6 72c-27 9 -53 13 -79 13c-62 0 -120 -36 -120 -95c0 -58 60 -77 138 -100c79 -23 139 -57 139 -128z" />
    <glyph glyph-name="Ydieresis" unicode="&#x178;" horiz-adv-x="687" 
d="M240 793c-23 0 -41 18 -41 41c0 22 18 40 41 40c22 0 40 -18 40 -40c0 -23 -18 -41 -40 -41zM448 793c-23 0 -41 18 -41 41c0 22 18 40 41 40c22 0 40 -18 40 -40c0 -23 -18 -41 -40 -41zM663 708v-19c0 -11 -7 -17 -20 -18l-37 -2l-237 -377v-252l65 -2
c13 -1 19 -7 19 -18v-20h-219v20c0 11 7 17 20 18l64 2v252l-237 377l-37 2c-13 1 -20 7 -20 18v19h185v-19c0 -11 -7 -17 -20 -18l-52 -2l186 -299c10 -16 13 -25 21 -44c10 23 12 30 21 44l185 299l-52 2c-13 1 -20 7 -20 18v19h185z" />
    <glyph glyph-name="Zacute" unicode="&#x179;" horiz-adv-x="633" 
d="M353 799c-7 -7 -8 -8 -18 -8h-29l79 119c8 12 15 16 29 16h47zM575 691c0 -7 -2 -14 -7 -21l-449 -628h400l7 85c1 16 7 25 21 25h24v-152h-519v19c0 6 1 11 5 17l450 630h-391l-7 -85c-1 -16 -7 -25 -21 -25h-24v152h511v-17z" />
    <glyph glyph-name="zacute" unicode="&#x17a;" horiz-adv-x="499" 
d="M257 589c-6 -6 -9 -9 -18 -9h-29l79 120c8 12 15 16 29 16h47zM436 125v-125h-382v19c0 6 3 11 8 18l312 424h-252l-5 -68c-1 -16 -8 -24 -22 -24h-24v129h359v-20c0 -7 -2 -13 -7 -19l-311 -422h273l5 64c1 16 8 24 22 24h24z" />
    <glyph glyph-name="Zdotaccent" unicode="&#x17b;" horiz-adv-x="633" 
d="M317 796c-24 0 -43 19 -43 43c0 23 19 43 43 43c23 0 43 -20 43 -43c0 -24 -20 -43 -43 -43zM575 691c0 -7 -2 -14 -7 -21l-449 -628h400l7 85c1 16 7 25 21 25h24v-152h-519v19c0 6 1 11 5 17l450 630h-391l-7 -85c-1 -16 -7 -25 -21 -25h-24v152h511v-17z" />
    <glyph glyph-name="zdotaccent" unicode="&#x17c;" horiz-adv-x="499" 
d="M258 586c-24 0 -43 19 -43 43c0 23 19 43 43 43c23 0 43 -20 43 -43c0 -24 -20 -43 -43 -43zM436 125v-125h-382v19c0 6 3 11 8 18l312 424h-252l-5 -68c-1 -16 -8 -24 -22 -24h-24v129h359v-20c0 -7 -2 -13 -7 -19l-311 -422h273l5 64c1 16 8 24 22 24h24z" />
    <glyph glyph-name="Zcaron" unicode="&#x17d;" horiz-adv-x="633" 
d="M342 796h-42l-109 123h33c5 0 10 -2 14 -6l78 -81l6 -7l5 7l78 81c2 2 4 3 6 4c3 1 5 2 7 2h33zM575 691c0 -7 -2 -14 -7 -21l-449 -628h400l7 85c1 16 7 25 21 25h24v-152h-519v19c0 6 1 11 5 17l450 630h-391l-7 -85c-1 -16 -7 -25 -21 -25h-24v152h511v-17z" />
    <glyph glyph-name="zcaron" unicode="&#x17e;" horiz-adv-x="499" 
d="M165 709c5 0 10 -2 14 -6l78 -81l6 -7l5 7l78 81c2 2 4 3 6 4c3 1 5 2 7 2h33l-109 -123h-42l-109 123h33zM436 125v-125h-382v19c0 6 3 11 8 18l312 424h-252l-5 -68c-1 -16 -8 -24 -22 -24h-24v129h359v-20c0 -7 -2 -13 -7 -19l-311 -422h273l5 64c1 16 8 24 22 24h24z
" />
    <glyph glyph-name="florin" unicode="&#x192;" horiz-adv-x="478" 
d="M214 7c-16 -124 -85 -187 -210 -187v24c0 11 6 16 18 16c82 0 134 58 144 148l48 389l-96 5c-9 1 -13 4 -13 12v20h113l12 95c16 125 85 187 211 187v-25c0 -10 -6 -15 -18 -15c-87 0 -135 -59 -146 -148l-13 -94h179v-36h-181z" />
    <glyph glyph-name="circumflex" unicode="&#x2c6;" horiz-adv-x="374" 
d="M284 584c-5 0 -10 2 -14 6l-83 88l-83 -88c-5 -5 -14 -6 -14 -6h-34l110 124h42l108 -124h-32z" />
    <glyph glyph-name="caron" unicode="&#x2c7;" horiz-adv-x="376" 
d="M94 708c5 0 9 -2 13 -6l83 -88l84 88c5 5 14 6 14 6h32l-108 -124h-43l-109 124h34z" />
    <glyph glyph-name="uni02C9" unicode="&#x2c9;" horiz-adv-x="405" 
d="M339 658v-32h-273v32h273z" />
    <glyph glyph-name="breve" unicode="&#x2d8;" horiz-adv-x="372" 
d="M187 584c-78 0 -119 44 -119 124h34c0 -62 32 -92 85 -92c58 0 86 39 86 92h34c0 -82 -45 -124 -120 -124z" />
    <glyph glyph-name="dotaccent" unicode="&#x2d9;" horiz-adv-x="224" 
d="M114 631c-25 0 -45 20 -45 45c0 24 20 44 45 44c24 0 44 -20 44 -44c0 -25 -20 -45 -44 -45z" />
    <glyph glyph-name="ring" unicode="&#x2da;" horiz-adv-x="302" 
d="M66 651c0 51 40 82 85 82c48 0 87 -35 87 -82c0 -50 -42 -81 -86 -81c-47 0 -86 31 -86 81zM94 651c0 -34 24 -57 58 -57s57 23 57 57s-23 57 -57 57s-58 -23 -58 -57z" />
    <glyph glyph-name="ogonek" unicode="&#x2db;" horiz-adv-x="288" 
d="M219 -126l8 -16c-22 -20 -54 -27 -79 -27c-47 0 -86 24 -86 71c0 40 35 77 80 104l24 -6c-40 -23 -66 -54 -66 -88c0 -35 27 -50 56 -50c22 0 43 7 50 14c4 3 11 2 13 -2z" />
    <glyph glyph-name="tilde" unicode="&#x2dc;" horiz-adv-x="390" 
d="M251 640c31 0 44 26 44 51h29c0 -50 -24 -85 -72 -85c-24 0 -38 12 -59 26c-26 17 -32 26 -52 26c-32 0 -42 -25 -44 -51h-31c0 46 26 85 74 85c24 0 38 -12 59 -26c26 -17 32 -26 52 -26z" />
    <glyph glyph-name="hungarumlaut" unicode="&#x2dd;" horiz-adv-x="388" 
d="M98 589c-6 -6 -11 -9 -19 -9h-21l76 120c9 14 20 16 30 16h32zM217 589c-6 -6 -9 -9 -19 -9h-23l91 120c9 14 20 16 30 16h36z" />
    <glyph glyph-name="pi" unicode="&#x3c0;" horiz-adv-x="667" 
d="M608 480c0 -12 -6 -18 -18 -18h-86v-462h-48v462h-234v-354c0 -75 -38 -113 -106 -113c-20 0 -40 2 -54 11l2 20c3 7 10 8 21 6c5 -1 11 -2 19 -2c48 0 71 26 71 78v354h-101v16c0 11 10 20 20 20h514v-18z" />
    <glyph glyph-name="endash" unicode="&#x2013;" horiz-adv-x="528" 
d="M462 307v-35h-394v35h394z" />
    <glyph glyph-name="emdash" unicode="&#x2014;" horiz-adv-x="783" 
d="M717 307v-35h-649v35h649z" />
    <glyph glyph-name="quoteleft" unicode="&#x2018;" horiz-adv-x="205" 
d="M84 528c-14 26 -20 47 -20 76c0 56 25 97 68 140l14 -9c6 -4 2 -10 0 -13c-24 -32 -44 -69 -44 -102c0 -20 6 -40 18 -60c3 -5 3 -15 -5 -18z" />
    <glyph glyph-name="quoteright" unicode="&#x2019;" horiz-adv-x="207" 
d="M122 738c14 -26 21 -48 21 -75c0 -56 -30 -102 -69 -141l-14 9c-4 4 -4 10 0 14c26 34 44 67 44 103c0 19 -6 40 -18 60c-4 6 -3 14 6 18z" />
    <glyph glyph-name="quotesinglbase" unicode="&#x201a;" horiz-adv-x="217" 
d="M128 88c14 -25 21 -49 21 -76c0 -55 -30 -101 -69 -140l-14 9c-4 4 -4 10 0 14c26 34 44 65 44 103c0 19 -6 39 -18 59c-4 6 -3 14 6 18z" />
    <glyph glyph-name="quotedblleft" unicode="&#x201c;" horiz-adv-x="340" 
d="M84 528c-14 26 -20 47 -20 76c0 56 25 97 68 140l14 -9c6 -4 2 -11 0 -13c-24 -32 -44 -69 -44 -102c0 -20 6 -40 18 -60c3 -5 3 -15 -5 -18zM218 528c-12 22 -20 52 -20 76c0 55 30 102 68 140l14 -9c4 -3 6 -8 1 -13c-13 -17 -23 -34 -31 -51s-13 -34 -13 -52
c0 -20 5 -40 17 -60c5 -7 4 -15 -4 -18z" />
    <glyph glyph-name="quotedblright" unicode="&#x201d;" horiz-adv-x="341" 
d="M122 738c14 -26 21 -48 21 -75c0 -56 -30 -102 -69 -141l-14 9c-4 4 -4 10 0 14c26 34 44 67 44 103c0 19 -6 40 -18 60c-4 6 -3 14 6 18zM256 738c15 -28 22 -53 22 -75c0 -53 -32 -104 -69 -141l-14 9c-4 4 -4 11 -1 14c26 34 44 67 44 103c0 19 -5 39 -17 59
c-7 10 0 16 5 18z" />
    <glyph glyph-name="quotedblbase" unicode="&#x201e;" horiz-adv-x="352" 
d="M128 88c14 -25 21 -49 21 -76c0 -55 -30 -101 -69 -140l-14 9c-4 4 -4 10 0 14c26 34 44 65 44 103c0 19 -6 39 -18 59c-4 6 -3 14 6 18zM262 88c13 -23 22 -52 22 -76c0 -52 -33 -104 -69 -140l-14 9c-4 4 -4 11 -1 14c26 34 44 65 44 103c0 19 -5 39 -17 59
c-7 10 0 16 5 18z" />
    <glyph glyph-name="dagger" unicode="&#x2020;" horiz-adv-x="476" 
d="M30 462c0 12 7 22 23 22c48 -2 126 -9 167 -10l-6 242c15 8 34 8 50 0l-6 -242l166 10c19 0 24 -11 24 -22v-16h-190v-248l6 -372c-18 -9 -32 -9 -50 0l6 372v248h-190v16z" />
    <glyph glyph-name="daggerdbl" unicode="&#x2021;" horiz-adv-x="492" 
d="M228 95v351h-190v16c0 13 7 22 24 22c45 -2 127 -9 166 -10l-6 242c16 8 34 8 50 0l-6 -242l167 10c18 0 23 -12 23 -22v-16h-190v-351h190v-16c0 -13 -10 -22 -23 -22c-24 1 -140 9 -167 10l6 -241c-18 -9 -32 -9 -50 0l6 241c-28 -1 -140 -9 -166 -10
c-13 0 -24 9 -24 22v16h190z" />
    <glyph glyph-name="bullet" unicode="&#x2022;" horiz-adv-x="419" 
d="M210 152c-81 0 -147 66 -147 147c0 80 66 146 147 146c80 0 146 -66 146 -146c0 -81 -66 -147 -146 -147z" />
    <glyph glyph-name="ellipsis" unicode="&#x2026;" horiz-adv-x="721" 
d="M116 -8c-25 0 -46 21 -46 47c0 25 21 46 46 46s46 -21 46 -46c0 -26 -21 -47 -46 -47zM361 -8c-25 0 -46 21 -46 47c0 25 21 46 46 46s46 -21 46 -46c0 -26 -21 -47 -46 -47zM606 -8c-25 0 -46 21 -46 47c0 25 21 46 46 46s46 -21 46 -46c0 -26 -21 -47 -46 -47z" />
    <glyph glyph-name="perthousand" unicode="&#x2030;" horiz-adv-x="1127" 
d="M342 538c0 -103 -57 -177 -148 -177c-70 0 -116 39 -138 100c-8 22 -11 48 -11 77c0 106 56 178 149 178c94 0 148 -76 148 -178zM611 698c7 10 10 10 19 10h33l-508 -699c-4 -6 -10 -9 -17 -9h-34zM304 538c0 87 -36 145 -110 145s-110 -58 -110 -145c0 -26 2 -48 8 -66
c17 -50 50 -79 102 -79c75 0 110 59 110 145zM724 169c0 -103 -57 -177 -148 -177c-70 0 -116 39 -138 100c-8 22 -11 48 -11 77c0 106 56 178 149 178c94 0 148 -76 148 -178zM1086 168c0 -103 -57 -177 -148 -177c-70 0 -116 39 -138 100c-8 22 -11 48 -11 77
c0 106 56 178 149 178c94 0 148 -76 148 -178zM686 169c0 87 -36 145 -110 145s-110 -58 -110 -145c0 -26 2 -48 8 -66c17 -50 50 -79 102 -79c75 0 110 59 110 145zM1048 168c0 87 -36 145 -110 145s-110 -58 -110 -145c0 -26 2 -48 8 -66c17 -50 50 -79 102 -79
c75 0 110 59 110 145z" />
    <glyph glyph-name="guilsinglleft" unicode="&#x2039;" horiz-adv-x="251" 
d="M50 263l121 189l15 -8c13 -8 7 -17 4 -24l-91 -146c-4 -7 -8 -11 -11 -14c3 -3 7 -7 11 -14l91 -148c4 -9 7 -17 -4 -24l-15 -7l-121 189v7z" />
    <glyph glyph-name="guilsinglright" unicode="&#x203a;" horiz-adv-x="253" 
d="M68 75c-13 6 -7 17 -4 24l91 147c2 4 6 10 11 14c-5 4 -8 9 -11 14l-91 146c-5 10 -6 19 4 24l16 8l120 -189v-7l-120 -189z" />
    <glyph glyph-name="fraction" unicode="&#x2044;" horiz-adv-x="515" 
d="M84 16c-8 -12 -13 -16 -27 -16h-20l400 690c5 11 15 18 27 18h22z" />
    <glyph glyph-name="Euro" unicode="&#x20ac;" horiz-adv-x="626" 
d="M121 432c19 160 111 282 268 282c86 0 141 -28 192 -87l-15 -17c-5 -5 -13 -8 -20 -1c-42 42 -95 64 -154 64c-132 0 -205 -100 -222 -241h302v-15c0 -8 -5 -14 -16 -14h-288c-3 -39 -1 -4 -1 -89h259v-15c0 -9 -6 -14 -16 -14h-240c15 -148 84 -251 218 -251
c71 0 111 22 165 76c6 6 13 9 20 2l19 -18c-54 -67 -121 -102 -206 -102c-162 0 -246 119 -266 292h-80v30h78c0 11 -3 53 0 88h-78v30h81z" />
    <glyph glyph-name="trademark" unicode="&#x2122;" horiz-adv-x="724" 
d="M499 505l6 15l107 182c4 6 10 6 12 6h28v-288h-31v222l3 22l-110 -190c-3 -5 -6 -8 -12 -8h-6c-6 0 -9 3 -12 8l-112 188l2 -20v-222h-31v288h29c6 0 10 -4 12 -6l109 -182zM280 678h-99v-258h-35v258h-101v29h235v-29z" />
    <glyph glyph-name="uni2126" unicode="&#x2126;" horiz-adv-x="760" 
d="M436 182c140 31 215 110 215 240c0 162 -115 252 -271 252c-158 0 -271 -93 -271 -252c0 -137 83 -211 215 -240v-182h-251c-13 0 -19 11 -19 18v26h229v111c-136 29 -226 131 -226 269c0 181 142 292 323 292s323 -111 323 -291c0 -141 -93 -242 -226 -270v-111h228v-26
c0 -11 -7 -18 -18 -18h-251v182z" />
    <glyph glyph-name="partialdiff" unicode="&#x2202;" horiz-adv-x="568" 
d="M184 670c46 32 86 47 140 47c129 0 184 -117 184 -266c0 -246 -86 -457 -282 -457c-112 0 -182 83 -182 196c0 152 103 276 252 276c77 0 139 -43 164 -116c2 16 4 65 4 82v20c0 128 -41 226 -146 226c-31 0 -80 -15 -99 -28c-12 -8 -20 -4 -25 3zM232 32
c124 0 193 121 216 258c-14 81 -67 138 -146 138c-128 0 -208 -104 -208 -237c0 -95 52 -159 138 -159z" />
    <glyph glyph-name="uni2206" unicode="&#x2206;" horiz-adv-x="706" 
d="M370 708l294 -708h-634l294 708h46zM595 42l-235 572l-13 38l-13 -38l-235 -572h496z" />
    <glyph glyph-name="product" unicode="&#x220f;" horiz-adv-x="667" 
d="M638 666h-105v-842h-49v842h-296v-842h-50v842h-104v42h604v-42z" />
    <glyph glyph-name="summation" unicode="&#x2211;" horiz-adv-x="669" 
d="M632 707v-41h-520l323 -394v-13l-323 -394h520v-41h-594v18c0 6 2 11 6 16l336 408l-336 408c-4 4 -6 10 -6 16v18z" />
    <glyph glyph-name="minus" unicode="&#x2212;" horiz-adv-x="556" 
d="M485 354v-37h-415v37h415z" />
    <glyph glyph-name="radical" unicode="&#x221a;" horiz-adv-x="627" 
d="M44 345c-12 0 -20 8 -20 21v14h157c9 0 15 -3 18 -12l103 -270l10 -43l8 38l244 755c2 7 10 12 18 12h28l-278 -860h-40l-134 345h-114z" />
    <glyph glyph-name="infinity" unicode="&#x221e;" horiz-adv-x="736" 
d="M530 141c-68 0 -121 55 -162 120c-43 -69 -94 -120 -160 -120c-84 0 -144 66 -144 155s64 154 144 154c66 0 112 -48 160 -120c46 68 93 120 162 120c81 0 144 -68 144 -154c0 -89 -64 -155 -144 -155zM210 180c57 0 93 49 137 115c-40 62 -79 115 -137 115
c-65 0 -106 -46 -106 -115c0 -70 44 -115 106 -115zM529 180c62 0 105 49 105 115c0 65 -41 115 -105 115c-61 0 -97 -53 -138 -115c45 -68 81 -115 138 -115z" />
    <glyph glyph-name="integral" unicode="&#x222b;" horiz-adv-x="532" 
d="M278 543c10 101 72 173 164 173c22 0 44 -4 62 -12l-3 -22c-2 -9 -11 -8 -15 -8s-8 1 -32 1c-80 0 -118 -56 -130 -138l-66 -531c-14 -114 -74 -186 -178 -186c-21 0 -49 4 -62 12l4 19c2 5 5 8 12 8c0 0 28 -2 36 -2c92 0 133 59 142 149z" />
    <glyph glyph-name="approxequal" unicode="&#x2248;" horiz-adv-x="507" 
d="M354 405c34 0 64 16 81 37l9 -29c-22 -31 -53 -45 -92 -45c-32 0 -69 14 -101 28c-37 16 -71 30 -96 30c-34 0 -67 -18 -81 -38l-11 28c21 31 56 47 95 47c34 0 66 -14 101 -29c37 -16 67 -29 95 -29zM354 247c34 0 64 16 81 37l9 -29c-21 -29 -55 -45 -92 -45
c-34 0 -66 14 -101 29c-37 16 -67 29 -96 29c-36 0 -67 -16 -81 -37l-11 28c20 30 57 46 95 46c34 0 66 -14 101 -29c37 -16 67 -29 95 -29z" />
    <glyph glyph-name="notequal" unicode="&#x2260;" horiz-adv-x="523" 
d="M293 434l59 134h35l-58 -134h139v-36h-156l-52 -120h208v-37h-224l-58 -135h-36l58 135h-153v37h170l52 120h-222v36h238z" />
    <glyph glyph-name="lessequal" unicode="&#x2264;" horiz-adv-x="486" 
d="M427 552v-32c0 -4 -1 -7 -3 -10s-6 -5 -12 -8l-275 -136c-5 -3 -26 -10 -39 -12c13 -2 34 -9 39 -12l275 -136c6 -3 10 -5 12 -8s3 -6 3 -10v-32l-375 188v20zM427 76v-36h-375v36h375z" />
    <glyph glyph-name="greaterequal" unicode="&#x2265;" horiz-adv-x="487" 
d="M436 344l-376 -188v32c0 8 6 13 16 18l274 136c10 5 28 9 38 12c-10 3 -28 7 -38 12l-274 136c-9 4 -16 9 -16 18v32l376 -188v-20zM60 40v36h376v-36h-376z" />
    <glyph glyph-name="lozenge" unicode="&#x25ca;" horiz-adv-x="505" 
d="M236 755h33l201 -416l-201 -416h-33l-201 416zM242 -4c4 -7 9 -24 10 -28c1 4 6 21 10 28l168 343l-168 343c-5 8 -9 19 -10 28c-2 -9 -6 -20 -10 -28l-166 -343z" />
    <glyph glyph-name="uni2669" unicode="&#x2669;" horiz-adv-x="172" 
d="M87 728v-904h-2v904h2z" />
    <glyph glyph-name=".null" horiz-adv-x="600" 
 />
    <glyph glyph-name="undercommaaccent" horiz-adv-x="232" 
d="M172 -60l-26 -103c-5 -13 -14 -12 -22 -12h-16l22 130h30c11 0 14 -5 12 -15z" />
    <glyph glyph-name="grave.case" horiz-adv-x="381" 
d="M146 885c19 0 19 -2 30 -11l114 -103h-35c-7 0 -14 1 -19 6l-146 108h56z" />
    <glyph glyph-name="dieresis.case" horiz-adv-x="472" 
d="M133 793c-22 0 -40 18 -40 40s18 40 40 40s40 -18 40 -40s-18 -40 -40 -40zM340 792c-22 0 -40 18 -40 40s18 40 40 40s40 -18 40 -40s-18 -40 -40 -40z" />
    <glyph glyph-name="macron.case" horiz-adv-x="391" 
d="M300 824v-30h-208v30h208z" />
    <glyph glyph-name="acute.case" horiz-adv-x="379" 
d="M111 589c-7 -7 -8 -8 -18 -8h-29l79 119c8 12 15 16 29 16h47z" />
    <glyph glyph-name="circumflex.case" horiz-adv-x="460" 
d="M333 771c-5 0 -14 2 -17 5l-78 62l-8 6l-8 -6l-78 -62c-5 -5 -16 -5 -17 -5h-37l118 99h44l118 -99h-37z" />
    <glyph glyph-name="caron.case" horiz-adv-x="460" 
d="M128 870c5 0 13 -1 16 -4l78 -62l8 -7l9 7l78 62c4 4 12 4 17 4h36l-117 -99h-45l-118 99h38z" />
    <glyph glyph-name="breve.case" horiz-adv-x="423" 
d="M212 764c-77 0 -121 33 -121 106h32c0 -53 34 -76 89 -76c59 0 89 27 89 76h32c0 -74 -45 -106 -121 -106z" />
    <glyph glyph-name="dotaccent.case" horiz-adv-x="270" 
d="M136 796c-24 0 -43 19 -43 43c0 23 19 43 43 43c23 0 43 -20 43 -43c0 -24 -20 -43 -43 -43z" />
    <glyph glyph-name="ring.case" horiz-adv-x="339" 
d="M86 815c0 44 39 79 84 79s84 -34 84 -79s-39 -79 -84 -79c-44 0 -84 33 -84 79zM113 815c0 -34 23 -57 57 -57s57 23 57 57s-23 57 -57 57s-57 -23 -57 -57z" />
    <glyph glyph-name="tilde.case" horiz-adv-x="439" 
d="M278 808c29 0 43 26 43 49h27c0 -46 -24 -82 -70 -82c-21 0 -42 13 -60 25c-21 14 -37 25 -54 25c-30 0 -42 -23 -44 -49h-28c0 46 26 82 71 82c22 0 43 -13 61 -25c21 -14 37 -25 54 -25z" />
    <glyph glyph-name="hungarumlaut.case" horiz-adv-x="472" 
d="M132 780c-6 -6 -9 -9 -18 -9h-24l77 95c11 14 20 16 32 16h33zM268 780c-9 -7 -11 -9 -20 -9h-26l91 95c12 12 17 16 33 16h38z" />
    <glyph glyph-name="caron.salt" horiz-adv-x="199" 
d="M134 713l-33 -123c-5 -13 -11 -12 -19 -12h-16l26 150h30c11 0 14 -5 12 -15z" />
    <glyph glyph-name="Abreve" unicode="&#x102;" horiz-adv-x="771" 
d="M386 790c-77 0 -121 33 -121 106h32c0 -53 34 -76 89 -76c59 0 89 27 89 76h32c0 -74 -45 -106 -121 -106zM739 38c12 -1 19 -5 19 -18v-20h-191v20c0 13 7 17 19 18l47 1l-75 193h-342l-75 -192l50 -2c12 -1 19 -5 19 -18v-20h-191v20c0 13 7 17 19 18l48 2l274 668h54
l274 -668zM232 270h310l-139 344l-16 45l-16 -45z" />
    <glyph glyph-name="Amacron" unicode="&#x100;" horiz-adv-x="771" 
d="M522 852v-32h-272v32h272zM739 38c12 -1 19 -5 19 -18v-20h-191v20c0 13 7 17 19 18l47 1l-75 193h-342l-75 -192l50 -2c12 -1 19 -5 19 -18v-20h-191v20c0 13 7 17 19 18l48 2l274 668h54l274 -668zM232 270h310l-139 344l-16 45l-16 -45z" />
    <glyph glyph-name="Ccaron" unicode="&#x10c;" horiz-adv-x="644" 
d="M408 796h-42l-109 123h33c5 0 10 -2 14 -6l78 -81l6 -7l5 7l78 81c2 2 4 3 6 4c3 1 5 2 7 2h33zM602 115l20 -21c-67 -70 -154 -102 -253 -102c-203 0 -332 154 -332 362c0 215 140 361 346 361c66 0 142 -16 226 -50v-158h-24c-14 0 -21 8 -22 24l-5 106
c-64 24 -119 34 -175 34c-181 0 -293 -132 -293 -317c0 -188 110 -318 283 -318c85 0 150 22 211 78c6 5 12 7 18 1z" />
    <glyph glyph-name="Dcaron" unicode="&#x10e;" horiz-adv-x="760" 
d="M287 919c5 0 10 -2 14 -6l78 -81l6 -7l5 7l78 81c2 2 4 3 6 4c3 1 5 2 7 2h33l-109 -123h-42l-109 123h33zM718 354c0 -209 -128 -354 -338 -354h-330v20c0 11 7 17 20 18l65 2v629l-65 2c-13 1 -20 7 -20 18v19h330c210 0 338 -148 338 -354zM665 354
c0 185 -103 313 -285 313h-194v-626h194c185 0 285 130 285 313z" />
    <glyph glyph-name="Dcroat" unicode="&#x110;" horiz-adv-x="760" 
d="M380 708c210 0 338 -148 338 -354c0 -209 -128 -354 -338 -354h-330v20c0 11 7 17 20 18l65 2v302h-108v32h108v295l-65 2c-13 1 -20 7 -20 18v19h330zM380 41c185 0 285 130 285 313c0 185 -103 313 -285 313h-194v-293h202v-32h-202v-301h194z" />
    <glyph glyph-name="Ecaron" unicode="&#x11a;" horiz-adv-x="622" 
d="M218 919c5 0 10 -2 14 -6l78 -81l6 -7l5 7l78 81c2 2 4 3 6 4c3 1 5 2 7 2h33l-109 -123h-42l-109 123h33zM559 708v-146h-25c-14 0 -20 8 -21 24l-4 80h-323v-287h282v-41h-282v-295h323l4 79c1 16 7 25 21 25h25v-147h-508v20c0 11 6 17 19 18l65 2v629l-65 2
c-13 1 -20 7 -20 18v19h509z" />
    <glyph glyph-name="Edotaccent" unicode="&#x116;" horiz-adv-x="622" 
d="M311 796c-24 0 -43 19 -43 43c0 23 19 43 43 43c23 0 43 -20 43 -43c0 -24 -20 -43 -43 -43zM559 708v-146h-25c-14 0 -20 8 -21 24l-4 80h-323v-287h282v-41h-282v-295h323l4 79c1 16 7 25 21 25h25v-147h-508v20c0 11 6 17 19 18l65 2v629l-65 2c-13 1 -20 7 -20 18v19
h509z" />
    <glyph glyph-name="Emacron" unicode="&#x112;" horiz-adv-x="622" 
d="M447 852v-32h-272v32h272zM559 708v-146h-25c-14 0 -20 8 -21 24l-4 80h-323v-287h282v-41h-282v-295h323l4 79c1 16 7 25 21 25h25v-147h-508v20c0 11 6 17 19 18l65 2v629l-65 2c-13 1 -20 7 -20 18v19h509z" />
    <glyph glyph-name="uni0122" unicode="&#x122;" horiz-adv-x="698" 
d="M648 321v-251c-86 -57 -160 -78 -268 -78c-208 0 -343 148 -343 362c0 219 136 361 355 361c76 0 188 -22 249 -50v-160h-24c-14 0 -21 8 -22 24l-5 108c-49 23 -116 34 -200 34c-190 0 -301 -131 -301 -317c0 -188 110 -320 295 -320c87 0 142 14 218 57v191h-136
c-10 0 -13 8 -13 11v28h195zM387 -62l-26 -103c-5 -13 -14 -12 -22 -12h-16l22 130h30c11 0 14 -5 12 -15z" />
    <glyph glyph-name="Imacron" unicode="&#x12a;" horiz-adv-x="316" 
d="M294 852v-32h-272v32h272zM186 668v-628l65 -2c13 -1 19 -7 19 -18v-20h-220v20c0 11 7 17 20 18l65 2v628l-65 2c-13 1 -20 7 -20 18v20h220v-20c0 -11 -6 -17 -19 -18z" />
    <glyph glyph-name="Iogonek" unicode="&#x12e;" horiz-adv-x="316" 
d="M251 670l-65 -2v-628l65 -2c13 -1 19 -7 19 -18v-20h-80c-40 -23 -66 -54 -66 -88c0 -35 27 -50 56 -50c22 0 39 7 49 13c6 3 11 2 14 -3l8 -14c-22 -20 -54 -27 -79 -27c-47 0 -86 24 -86 71c0 37 30 72 70 98h-106v20c0 11 7 17 20 18l65 2v628l-65 2
c-13 1 -20 7 -20 18v20h220v-20c0 -11 -6 -17 -19 -18z" />
    <glyph glyph-name="uni0136" unicode="&#x136;" horiz-adv-x="718" 
d="M657 38c13 -1 20 -7 20 -18v-20h-213v20c0 11 7 17 20 18l76 1l-275 281c-19 19 -33 21 -54 21h-46v-301l65 -2c13 -1 19 -7 19 -18v-20h-219v20c0 11 7 17 20 18l64 2v629l-64 2c-13 1 -20 7 -20 18v19h219v-19c0 -11 -6 -17 -19 -18l-65 -2v-288h42c27 0 37 5 51 19
l262 269l-72 1c-13 1 -20 7 -20 18v20h208v-20c0 -11 -7 -17 -20 -18l-38 -1l-271 -279c-11 -13 -26 -23 -33 -25c16 -5 27 -15 36 -25l288 -301zM397 -62l-26 -103c-5 -13 -14 -12 -22 -12h-16l22 130h30c11 0 14 -5 12 -15z" />
    <glyph glyph-name="Lacute" unicode="&#x139;" horiz-adv-x="582" 
d="M199 799c-7 -7 -8 -8 -18 -8h-29l79 119c8 12 15 16 29 16h47zM506 131h24v-131h-480v20c0 13 7 17 19 18l63 2h3v628l-66 2c-12 1 -19 5 -19 18v20h220v-20c0 -13 -7 -17 -19 -18l-65 -2v-624h294l5 62c1 16 7 25 21 25z" />
    <glyph glyph-name="Lcaron" unicode="&#x13d;" horiz-adv-x="582" 
d="M506 131h24v-131h-480v20c0 13 7 17 19 18l63 2h3v628l-66 2c-12 1 -19 5 -19 18v20h220v-20c0 -13 -7 -17 -19 -18l-65 -2v-624h294l5 62c1 16 7 25 21 25zM355 570c-5 -13 -11 -12 -19 -12h-16l26 150h30c11 0 14 -5 12 -15z" />
    <glyph glyph-name="uni013B" unicode="&#x13b;" horiz-adv-x="582" 
d="M506 131h24v-131h-480v20c0 13 7 17 19 18l63 2h3v628l-66 2c-12 1 -19 5 -19 18v20h220v-20c0 -13 -7 -17 -19 -18l-65 -2v-624h294l5 62c1 16 7 25 21 25zM317 -47c11 0 14 -5 12 -15l-26 -103c-5 -13 -14 -12 -22 -12h-16l22 130h30z" />
    <glyph glyph-name="Ncaron" unicode="&#x147;" horiz-adv-x="789" 
d="M302 919c5 0 10 -2 14 -6l78 -81l6 -7l5 7l78 81c2 2 4 3 6 4c3 1 5 2 7 2h33l-109 -123h-42l-109 123h33zM765 708v-19c0 -11 -7 -17 -20 -18l-64 -2v-669h-25c-8 0 -13 3 -18 10l-460 614c1 -10 1 -20 1 -29v-555l67 -2c13 -1 20 -7 20 -18v-20h-216v20
c0 11 7 17 20 18l65 2v628l-65 2c-13 1 -20 7 -20 18v20h110c12 0 15 -5 19 -10l458 -613c-1 10 -1 20 -1 29v555l-67 2c-13 1 -20 7 -20 18v19h216z" />
    <glyph glyph-name="uni0145" unicode="&#x145;" horiz-adv-x="789" 
d="M765 708v-19c0 -11 -7 -17 -20 -18l-64 -2v-669h-25c-8 0 -13 3 -18 10l-460 614c1 -10 1 -20 1 -29v-555l67 -2c13 -1 20 -7 20 -18v-20h-216v20c0 11 7 17 20 18l65 2v628l-65 2c-13 1 -20 7 -20 18v20h110c12 0 15 -5 19 -10l458 -613c-1 10 -1 20 -1 29v555l-67 2
c-13 1 -20 7 -20 18v19h216zM433 -62l-26 -103c-5 -13 -14 -12 -22 -12h-16l22 130h30c11 0 14 -5 12 -15z" />
    <glyph glyph-name="Eng" unicode="&#x14a;" horiz-adv-x="789" 
d="M636 13l-458 611c1 -10 1 -20 1 -29v-555l67 -2c13 -1 20 -7 20 -18v-20h-216v20c0 11 7 17 20 18l65 2v628l-65 2c-13 1 -20 7 -20 18v20h110c12 0 15 -5 19 -10l458 -613c-1 10 -1 20 -1 29v555l-67 2c-13 1 -20 7 -20 18v19h216v-19c0 -11 -7 -17 -20 -18l-64 -2v-687
c0 -50 -11 -91 -34 -119s-58 -43 -105 -43c-28 0 -49 5 -74 15l5 20c2 10 9 13 29 6c9 -3 21 -5 36 -5c63 0 98 41 98 121v36z" />
    <glyph glyph-name="Ohungarumlaut" unicode="&#x150;" horiz-adv-x="753" 
d="M319 799c-6 -6 -9 -9 -18 -9h-29l79 120c8 12 15 16 29 16h47zM462 799c-6 -6 -9 -9 -18 -9h-29l79 120c8 12 15 16 29 16h47zM712 354c0 -211 -131 -362 -338 -362c-205 0 -337 152 -337 362c0 209 132 362 337 362c209 0 338 -156 338 -362zM658 354
c0 190 -107 318 -284 318s-284 -131 -284 -318c0 -185 103 -317 284 -317c180 0 284 128 284 317z" />
    <glyph glyph-name="Omacron" unicode="&#x14c;" horiz-adv-x="753" 
d="M513 852v-32h-272v32h272zM712 354c0 -211 -131 -362 -338 -362c-205 0 -337 152 -337 362c0 209 132 362 337 362c209 0 338 -156 338 -362zM658 354c0 190 -107 318 -284 318s-284 -131 -284 -318c0 -185 103 -317 284 -317c180 0 284 128 284 317z" />
    <glyph glyph-name="Racute" unicode="&#x154;" horiz-adv-x="676" 
d="M331 798c-7 -7 -8 -8 -18 -8h-29l79 119c8 12 15 16 29 16h47zM621 38c13 -1 19 -7 19 -18v-20h-70c-14 0 -20 7 -25 13l-227 287c-15 18 -23 20 -48 20h-84v-280l64 -2c13 -1 20 -7 20 -18v-20h-220v20c0 11 7 17 20 18l65 2v629l-65 2c-13 1 -19 7 -19 18v19h256
c146 0 243 -52 243 -186c0 -111 -85 -185 -201 -196c8 -5 16 -12 22 -20l212 -267zM300 358c118 0 200 56 200 160c0 111 -81 150 -193 150h-121v-310h114z" />
    <glyph glyph-name="Rcaron" unicode="&#x158;" horiz-adv-x="676" 
d="M202 918c5 0 10 -2 14 -6l78 -81l6 -7l5 7l78 81c2 2 4 3 6 4c3 1 5 2 7 2h33l-109 -123h-42l-109 123h33zM621 38c13 -1 19 -7 19 -18v-20h-70c-14 0 -20 7 -25 13l-227 287c-15 18 -23 20 -48 20h-84v-280l64 -2c13 -1 20 -7 20 -18v-20h-220v20c0 11 7 17 20 18l65 2
v629l-65 2c-13 1 -19 7 -19 18v19h256c146 0 243 -52 243 -186c0 -111 -85 -185 -201 -196c8 -5 16 -12 22 -20l212 -267zM300 358c118 0 200 56 200 160c0 111 -81 150 -193 150h-121v-310h114z" />
    <glyph glyph-name="uni0156" unicode="&#x156;" horiz-adv-x="676" 
d="M621 38c13 -1 19 -7 19 -18v-20h-70c-14 0 -20 7 -25 13l-227 287c-15 18 -23 20 -48 20h-84v-280l64 -2c13 -1 20 -7 20 -18v-20h-220v20c0 11 7 17 20 18l65 2v629l-65 2c-13 1 -19 7 -19 18v19h256c146 0 243 -52 243 -186c0 -111 -85 -185 -201 -196
c8 -5 16 -12 22 -20l212 -267zM300 358c118 0 200 56 200 160c0 111 -81 150 -193 150h-121v-310h114zM376 -62l-26 -103c-5 -13 -14 -12 -22 -12h-16l22 130h30c11 0 14 -5 12 -15z" />
    <glyph glyph-name="Scedilla" unicode="&#x15e;" horiz-adv-x="514" 
d="M474 207c0 -123 -84 -202 -198 -214l-13 -38c57 -9 91 -27 91 -68c0 -10 -3 -19 -7 -27c-16 -27 -49 -37 -85 -37c-31 0 -53 7 -73 21l6 14c5 10 11 5 14 3c12 -8 36 -15 52 -15c30 0 54 12 54 41c0 39 -45 42 -89 49l18 56c-65 0 -127 13 -187 39v158h24
c14 0 21 -8 22 -24l5 -102c47 -20 80 -28 141 -28c109 0 177 65 177 164c0 94 -70 117 -177 151c-115 36 -178 78 -178 183c0 111 89 182 205 182c59 0 119 -14 182 -41v-158h-24c-14 0 -21 8 -22 24l-5 108c-40 17 -83 25 -131 25c-92 0 -158 -56 -158 -137
c0 -87 72 -116 178 -150c109 -35 178 -75 178 -179z" />
    <glyph glyph-name="Tbar" unicode="&#x166;" horiz-adv-x="623" 
d="M30 708h564v-146h-24c-14 0 -21 8 -22 24l-4 79h-206v-292h144l1 -38h-145v-295l65 -2c13 -1 20 -7 20 -18v-20h-220v20c0 11 7 17 20 18l64 2v295h-146l1 38h145v292h-207l-4 -79c-1 -16 -7 -24 -21 -24h-25v146z" />
    <glyph glyph-name="Tcaron" unicode="&#x164;" horiz-adv-x="623" 
d="M219 919c5 0 10 -2 14 -6l78 -81l6 -7l5 7l78 81c2 2 4 3 6 4c3 1 5 2 7 2h33l-109 -123h-42l-109 123h33zM594 708v-146h-24c-14 0 -21 8 -22 24l-4 79h-206v-625l65 -2c13 -1 20 -7 20 -18v-20h-220v20c0 11 7 17 20 18l64 2v625h-207l-4 -79c-1 -16 -7 -24 -21 -24
h-25v146h564z" />
    <glyph glyph-name="uni0162" unicode="&#x162;" horiz-adv-x="623" 
d="M30 708h564v-146h-24c-14 0 -21 8 -22 24l-4 79h-206v-625l65 -2c13 -1 20 -7 20 -18v-20h-96l-15 -45c57 -9 91 -27 91 -68c0 -10 -3 -19 -7 -27c-16 -27 -49 -37 -85 -37c-31 0 -53 7 -73 21l6 14c5 10 11 5 14 3c12 -8 36 -15 52 -15c30 0 54 12 54 41
c0 39 -45 42 -89 49l21 64h-93v20c0 11 7 17 20 18l64 2v625h-207l-4 -79c-1 -16 -7 -24 -21 -24h-25v146z" />
    <glyph glyph-name="Uhungarumlaut" unicode="&#x170;" horiz-adv-x="751" 
d="M318 799c-6 -6 -9 -9 -18 -9h-29l79 120c8 12 15 16 29 16h47zM461 799c-6 -6 -9 -9 -18 -9h-29l79 120c8 12 15 16 29 16h47zM728 708v-19c0 -11 -7 -17 -20 -18l-64 -2v-399c0 -160 -106 -278 -268 -278c-165 0 -268 118 -268 278v399l-65 2c-13 1 -19 7 -19 18v19h232
v-19c0 -11 -7 -17 -20 -18l-77 -2v-399c0 -133 83 -234 217 -234c135 0 217 102 217 234v399l-77 2c-13 1 -20 7 -20 18v19h232z" />
    <glyph glyph-name="Umacron" unicode="&#x16a;" horiz-adv-x="751" 
d="M512 852v-32h-272v32h272zM728 708v-19c0 -11 -7 -17 -20 -18l-64 -2v-399c0 -160 -106 -278 -268 -278c-165 0 -268 118 -268 278v399l-65 2c-13 1 -19 7 -19 18v19h232v-19c0 -11 -7 -17 -20 -18l-77 -2v-399c0 -133 83 -234 217 -234c135 0 217 102 217 234v399l-77 2
c-13 1 -20 7 -20 18v19h232z" />
    <glyph glyph-name="Uogonek" unicode="&#x172;" horiz-adv-x="751" 
d="M496 708h232v-19c0 -11 -7 -17 -20 -18l-64 -2v-399c0 -153 -97 -268 -248 -277c-33 -22 -54 -51 -54 -81c0 -35 27 -50 56 -50c22 0 39 7 49 13c6 3 11 2 14 -3l8 -14c-22 -20 -54 -27 -79 -27c-47 0 -86 24 -86 71c0 34 25 65 59 90c-157 6 -255 122 -255 278v399
l-65 2c-13 1 -19 7 -19 18v19h232v-19c0 -11 -7 -17 -20 -18l-77 -2v-399c0 -133 83 -234 217 -234c135 0 217 102 217 234v399l-77 2c-13 1 -20 7 -20 18v19z" />
    <glyph glyph-name="Uring" unicode="&#x16e;" horiz-adv-x="751" 
d="M376 736c-45 0 -84 36 -84 79c0 44 39 79 84 79c46 0 84 -35 84 -79c0 -43 -38 -79 -84 -79zM376 760c30 0 55 25 55 55s-25 55 -55 55s-55 -25 -55 -55s25 -55 55 -55zM728 708v-19c0 -11 -7 -17 -20 -18l-64 -2v-399c0 -160 -106 -278 -268 -278
c-165 0 -268 118 -268 278v399l-65 2c-13 1 -19 7 -19 18v19h232v-19c0 -11 -7 -17 -20 -18l-77 -2v-399c0 -133 83 -234 217 -234c135 0 217 102 217 234v399l-77 2c-13 1 -20 7 -20 18v19h232z" />
    <glyph glyph-name="Wacute" unicode="&#x1e82;" horiz-adv-x="1103" 
d="M588 799c-7 -7 -8 -8 -18 -8h-29l79 119c8 12 15 16 29 16h47zM1078 708v-19c0 -11 -6 -17 -19 -18l-35 -2l-210 -669h-46l-209 614c-3 8 -5 16 -7 25c-2 -9 -4 -17 -7 -25l-210 -614h-45l-211 669l-35 2c-13 1 -20 7 -20 18v19h190v-19c0 -11 -7 -17 -20 -18l-58 -2
l170 -556c3 -11 7 -31 10 -46c4 15 8 35 11 45l200 583c1 6 9 13 19 13h14c13 0 16 -6 19 -13l200 -582c4 -13 8 -30 11 -45c3 15 6 32 10 45l170 556l-62 2c-13 1 -19 7 -19 18v19h189z" />
    <glyph glyph-name="Wcircumflex" unicode="&#x174;" horiz-adv-x="1103" 
d="M655 771c-6 0 -14 2 -17 5l-86 68l-87 -68c-5 -4 -12 -5 -16 -5h-37l117 99h45l118 -99h-37zM1078 708v-19c0 -11 -6 -17 -19 -18l-35 -2l-210 -669h-46l-209 614c-3 8 -5 16 -7 25c-2 -9 -4 -17 -7 -25l-210 -614h-45l-211 669l-35 2c-13 1 -20 7 -20 18v19h190v-19
c0 -11 -7 -17 -20 -18l-58 -2l170 -556c3 -11 7 -31 10 -46c4 15 8 35 11 45l200 583c1 6 9 13 19 13h14c13 0 16 -6 19 -13l200 -582c4 -13 8 -30 11 -45c3 15 6 32 10 45l170 556l-62 2c-13 1 -19 7 -19 18v19h189z" />
    <glyph glyph-name="Wdieresis" unicode="&#x1e84;" horiz-adv-x="1103" 
d="M448 793c-23 0 -41 18 -41 41c0 22 18 40 41 40c22 0 40 -18 40 -40c0 -23 -18 -41 -40 -41zM656 793c-23 0 -41 18 -41 41c0 22 18 40 41 40c22 0 40 -18 40 -40c0 -23 -18 -41 -40 -41zM1078 708v-19c0 -11 -6 -17 -19 -18l-35 -2l-210 -669h-46l-209 614
c-3 8 -5 16 -7 25c-2 -9 -4 -17 -7 -25l-210 -614h-45l-211 669l-35 2c-13 1 -20 7 -20 18v19h190v-19c0 -11 -7 -17 -20 -18l-58 -2l170 -556c3 -11 7 -31 10 -46c4 15 8 35 11 45l200 583c1 6 9 13 19 13h14c13 0 16 -6 19 -13l200 -582c4 -13 8 -30 11 -45
c3 15 6 32 10 45l170 556l-62 2c-13 1 -19 7 -19 18v19h189z" />
    <glyph glyph-name="Wgrave" unicode="&#x1e80;" horiz-adv-x="1103" 
d="M468 885c15 0 19 -1 31 -11l114 -103h-36c-7 0 -14 1 -19 6l-146 108h56zM1078 708v-19c0 -11 -6 -17 -19 -18l-35 -2l-210 -669h-46l-209 614c-3 8 -5 16 -7 25c-2 -9 -4 -17 -7 -25l-210 -614h-45l-211 669l-35 2c-13 1 -20 7 -20 18v19h190v-19c0 -11 -7 -17 -20 -18
l-58 -2l170 -556c3 -11 7 -31 10 -46c4 15 8 35 11 45l200 583c1 6 9 13 19 13h14c13 0 16 -6 19 -13l200 -582c4 -13 8 -30 11 -45c3 15 6 32 10 45l170 556l-62 2c-13 1 -19 7 -19 18v19h189z" />
    <glyph glyph-name="Ycircumflex" unicode="&#x176;" horiz-adv-x="687" 
d="M447 771c-6 0 -14 2 -17 5l-86 68l-87 -68c-5 -4 -12 -5 -16 -5h-37l117 99h45l118 -99h-37zM663 708v-19c0 -11 -7 -17 -20 -18l-37 -2l-237 -377v-252l65 -2c13 -1 19 -7 19 -18v-20h-219v20c0 11 7 17 20 18l64 2v252l-237 377l-37 2c-13 1 -20 7 -20 18v19h185v-19
c0 -11 -7 -17 -20 -18l-52 -2l186 -299c10 -16 13 -25 21 -44c10 23 12 30 21 44l185 299l-52 2c-13 1 -20 7 -20 18v19h185z" />
    <glyph glyph-name="Ygrave" unicode="&#x1ef2;" horiz-adv-x="687" 
d="M260 885c15 0 19 -1 31 -11l114 -103h-36c-7 0 -14 1 -19 6l-146 108h56zM663 708v-19c0 -11 -7 -17 -20 -18l-37 -2l-237 -377v-252l65 -2c13 -1 19 -7 19 -18v-20h-219v20c0 11 7 17 20 18l64 2v252l-237 377l-37 2c-13 1 -20 7 -20 18v19h185v-19
c0 -11 -7 -17 -20 -18l-52 -2l186 -299c10 -16 13 -25 21 -44c10 23 12 30 21 44l185 299l-52 2c-13 1 -20 7 -20 18v19h185z" />
    <glyph glyph-name="abreve" unicode="&#x103;" horiz-adv-x="513" 
d="M246 580c-77 0 -121 33 -121 106h32c0 -53 34 -76 89 -76c59 0 89 27 89 76h32c0 -74 -45 -106 -121 -106zM450 38c13 -1 20 -7 20 -18v-20h-85c-10 0 -17 5 -19 14l-7 64c-61 -57 -105 -86 -186 -86c-78 0 -133 48 -133 129c0 119 184 150 317 151v52
c0 92 -38 143 -118 143c-49 0 -104 -25 -132 -53c-15 -15 -28 -14 -34 -2l-8 15c52 52 108 79 179 79c109 0 160 -75 160 -182v-285zM357 240c-111 -1 -271 -22 -271 -118c0 -61 38 -95 99 -95c78 0 118 30 172 84v129z" />
    <glyph glyph-name="amacron" unicode="&#x101;" horiz-adv-x="513" 
d="M382 642v-32h-272v32h272zM450 38c13 -1 20 -7 20 -18v-20h-85c-10 0 -17 5 -19 14l-7 64c-61 -57 -105 -86 -186 -86c-78 0 -133 48 -133 129c0 119 184 150 317 151v52c0 92 -38 143 -118 143c-49 0 -104 -25 -132 -53c-15 -15 -28 -14 -34 -2l-8 15
c52 52 108 79 179 79c109 0 160 -75 160 -182v-285zM357 240c-111 -1 -271 -22 -271 -118c0 -61 38 -95 99 -95c78 0 118 30 172 84v129z" />
    <glyph glyph-name="ccaron" unicode="&#x10d;" horiz-adv-x="459" 
d="M158 709c5 0 10 -2 14 -6l78 -81l6 -7l5 7l78 81c2 2 4 3 6 4c3 1 5 2 7 2h33l-109 -123h-42l-109 123h33zM422 64c-40 -50 -110 -71 -170 -71c-136 0 -214 111 -214 256c0 148 79 256 225 256c37 0 88 -10 140 -31v-125h-24c-14 0 -21 8 -22 24c0 1 -5 57 -6 78
c-32 11 -60 17 -85 17c-119 0 -179 -92 -179 -219s59 -218 172 -218c49 0 99 19 126 46c11 11 20 9 24 3z" />
    <glyph glyph-name="dcaron" unicode="&#x10f;" horiz-adv-x="560" 
d="M521 0h-93c-8 0 -13 4 -14 13l-5 79c-46 -63 -103 -98 -177 -98c-137 0 -194 103 -194 254c0 145 78 258 217 258c63 0 115 -23 152 -73v255l-52 2c-13 1 -20 7 -20 18v20h119v-689l48 -1c13 -1 19 -7 19 -18v-20zM576 693l-33 -123c-5 -13 -11 -12 -19 -12h-16l26 150
h30c11 0 14 -5 12 -15zM407 391c-35 52 -81 78 -143 78c-123 0 -177 -98 -177 -221c0 -133 45 -216 159 -216c66 0 120 39 161 97v262z" />
    <glyph glyph-name="dcroat" unicode="&#x111;" horiz-adv-x="560" 
d="M529 581h-75v-542l48 -1c13 -1 19 -7 19 -18v-20h-93c-8 0 -13 4 -14 13l-5 79c-46 -63 -103 -98 -177 -98c-137 0 -194 103 -194 254c0 145 78 258 217 258c63 0 115 -23 152 -73v148h-125v33h125v74l-52 2c-13 1 -20 7 -20 18v20h119v-114h75v-33zM407 129v262
c-35 52 -81 78 -143 78c-123 0 -177 -98 -177 -221c0 -133 45 -216 159 -216c66 0 120 39 161 97z" />
    <glyph glyph-name="ecaron" unicode="&#x11b;" horiz-adv-x="497" 
d="M170 709c5 0 10 -2 14 -6l78 -81l6 -7l5 7l78 81c2 2 4 3 6 4c3 1 5 2 7 2h33l-109 -123h-42l-109 123h33zM263 506c123 0 196 -92 196 -219c0 -15 -7 -19 -14 -19h-359c0 -143 57 -237 184 -237c50 0 110 20 141 46c12 11 22 9 26 3l13 -16c-36 -45 -121 -70 -184 -70
c-153 0 -228 115 -228 265c0 141 85 247 225 247zM264 470c-103 0 -164 -67 -176 -171h328c0 103 -59 171 -152 171z" />
    <glyph glyph-name="edotaccent" unicode="&#x117;" horiz-adv-x="497" 
d="M263 586c-24 0 -43 19 -43 43c0 23 19 43 43 43c23 0 43 -20 43 -43c0 -24 -20 -43 -43 -43zM263 506c123 0 196 -92 196 -219c0 -15 -7 -19 -14 -19h-359c0 -143 57 -237 184 -237c50 0 110 20 141 46c12 11 22 9 26 3l13 -16c-36 -45 -121 -70 -184 -70
c-153 0 -228 115 -228 265c0 141 85 247 225 247zM264 470c-103 0 -164 -67 -176 -171h328c0 103 -59 171 -152 171z" />
    <glyph glyph-name="emacron" unicode="&#x113;" horiz-adv-x="497" 
d="M399 642v-32h-272v32h272zM263 506c123 0 196 -92 196 -219c0 -15 -7 -19 -14 -19h-359c0 -143 57 -237 184 -237c50 0 110 20 141 46c12 11 22 9 26 3l13 -16c-36 -45 -121 -70 -184 -70c-153 0 -228 115 -228 265c0 141 85 247 225 247zM264 470
c-103 0 -164 -67 -176 -171h328c0 103 -59 171 -152 171z" />
    <glyph glyph-name="uni0123" unicode="&#x123;" horiz-adv-x="516" 
d="M238 506c39 0 81 -11 110 -30h128v-17c0 -8 -5 -12 -14 -13l-76 -6c21 -30 29 -58 29 -94c0 -99 -75 -158 -177 -158c-29 0 -55 3 -78 12c-24 -14 -45 -36 -45 -60c0 -53 66 -55 176 -60c101 -5 175 -22 175 -107c0 -99 -111 -159 -224 -159c-106 0 -212 43 -212 134
c0 58 44 94 98 112c-40 14 -54 34 -54 68c0 36 34 70 61 84c-48 28 -75 77 -75 134c0 102 80 160 178 160zM238 220c80 0 134 47 134 126c0 77 -55 125 -134 125c-81 0 -134 -46 -134 -126c0 -78 54 -125 134 -125zM423 -34c0 66 -81 72 -149 76c-48 2 -89 5 -113 9
c-54 -21 -88 -54 -88 -98c0 -77 96 -103 170 -103c94 0 180 43 180 116zM284 -259l-26 -103c-5 -13 -14 -12 -22 -12h-16l22 130h30c11 0 14 -5 12 -15z" />
    <glyph glyph-name="imacron" unicode="&#x12b;" horiz-adv-x="282" 
d="M263 642v-32h-272v32h272zM222 38c13 -1 20 -7 20 -18v-20h-192v20c0 11 7 17 20 18l52 2v418l-52 2c-13 1 -20 7 -20 18v20h120v-458z" />
    <glyph glyph-name="iogonek" unicode="&#x12f;" horiz-adv-x="282" 
d="M146 625c-25 0 -44 20 -44 45c0 24 19 43 44 43c24 0 43 -19 43 -43c0 -25 -19 -45 -43 -45zM166 0c-40 -23 -66 -54 -66 -88c0 -35 27 -50 56 -50c22 0 43 7 50 14c4 3 11 2 13 -2l8 -16c-22 -20 -54 -27 -79 -27c-47 0 -86 24 -86 71c0 37 30 72 70 98h-82v20
c0 11 7 17 20 18l52 2v418l-52 2c-13 1 -20 7 -20 18v20h120v-458l52 -2c13 -1 20 -7 20 -18v-20h-76z" />
    <glyph glyph-name="uni0137" unicode="&#x137;" horiz-adv-x="564" 
d="M505 38c13 -1 20 -7 20 -18v-20h-64c-12 0 -19 8 -23 12l-209 223c-14 14 -19 16 -38 16h-22v-211l52 -2c13 -1 20 -7 20 -18v-20h-192v20c0 11 7 17 20 18l52 2v648l-52 2c-13 1 -20 7 -20 18v19h120v-443h23c10 0 20 4 27 11l172 164l-25 1c-13 1 -20 7 -20 18v20h154
v-20c0 -11 -6 -17 -19 -18l-36 -2l-178 -169c-5 -5 -14 -11 -20 -17c8 -5 19 -14 25 -21l195 -212zM320 -62l-26 -103c-5 -13 -14 -12 -22 -12h-16l22 130h30c11 0 14 -5 12 -15z" />
    <glyph glyph-name="lacute" unicode="&#x13a;" horiz-adv-x="279" 
d="M176 799c-7 -7 -8 -8 -18 -8h-29l79 119c8 12 15 16 29 16h47zM221 38c13 -1 20 -7 20 -18v-20h-192v20c0 11 7 17 20 18l52 2v648l-52 2c-13 1 -20 7 -20 18v20h120v-688z" />
    <glyph glyph-name="lcaron" unicode="&#x13e;" horiz-adv-x="279" 
d="M221 38c13 -1 20 -7 20 -18v-20h-192v20c0 11 7 17 20 18l52 2v648l-52 2c-13 1 -20 7 -20 18v20h120v-688zM279 693l-33 -123c-5 -13 -11 -12 -19 -12h-16l26 150h30c11 0 14 -5 12 -15z" />
    <glyph glyph-name="uni013C" unicode="&#x13c;" horiz-adv-x="279" 
d="M221 38c13 -1 20 -7 20 -18v-20h-192v20c0 11 7 17 20 18l52 2v648l-52 2c-13 1 -20 7 -20 18v20h120v-688zM172 -62l-26 -103c-5 -13 -14 -12 -22 -12h-16l22 130h30c11 0 14 -5 12 -15z" />
    <glyph glyph-name="ncaron" unicode="&#x148;" horiz-adv-x="629" 
d="M362 586h-42l-109 123h33c5 0 10 -2 14 -6l78 -81l6 -7l5 7l78 81c2 2 4 3 6 4c3 1 5 2 7 2h33zM567 38c13 -1 20 -7 20 -18v-20h-120v318c0 89 -38 149 -130 149c-67 0 -123 -37 -166 -94v-333l53 -2c13 -1 19 -7 19 -18v-20h-191v20c0 11 6 17 19 18l53 2v419l-54 2
c-12 1 -19 5 -19 18v19h99c9 0 14 -4 15 -12l4 -76c45 57 105 95 180 95c111 0 166 -74 166 -187v-278z" />
    <glyph glyph-name="uni0146" unicode="&#x146;" horiz-adv-x="629" 
d="M567 38c13 -1 20 -7 20 -18v-20h-120v318c0 89 -38 149 -130 149c-67 0 -123 -37 -166 -94v-333l53 -2c13 -1 19 -7 19 -18v-20h-191v20c0 11 6 17 19 18l53 2v419l-54 2c-12 1 -19 5 -19 18v19h99c9 0 14 -4 15 -12l4 -76c45 57 105 95 180 95c111 0 166 -74 166 -187
v-278zM341 -47c11 0 14 -5 12 -15l-26 -103c-5 -13 -14 -12 -22 -12h-16l22 130h30z" />
    <glyph glyph-name="eng" unicode="&#x14b;" horiz-adv-x="629" 
d="M349 505c111 0 166 -74 166 -187v-319l-1 -17c-3 -50 -11 -91 -34 -119s-60 -43 -107 -43c-28 0 -49 5 -74 15l5 20c3 9 9 13 29 6c9 -3 21 -5 36 -5c63 0 98 41 98 121v341c0 89 -38 149 -130 149c-67 0 -123 -37 -166 -94v-333l53 -2c13 -1 19 -7 19 -18v-20h-191v20
c0 11 6 17 19 18l53 2v419l-54 2c-12 1 -19 5 -19 18v19h99c9 0 14 -4 15 -12l4 -76c45 57 105 95 180 95z" />
    <glyph glyph-name="ohungarumlaut" unicode="&#x151;" horiz-adv-x="530" 
d="M207 589c-6 -6 -9 -9 -18 -9h-29l79 120c8 12 15 16 29 16h47zM350 589c-6 -6 -9 -9 -18 -9h-29l79 120c8 12 15 16 29 16h47zM266 506c144 0 226 -105 226 -257c0 -154 -83 -255 -226 -255c-147 0 -228 104 -228 255s82 257 228 257zM266 31c121 0 177 89 177 218
c0 127 -55 219 -177 219s-178 -88 -178 -219c0 -128 54 -218 178 -218z" />
    <glyph glyph-name="omacron" unicode="&#x14d;" horiz-adv-x="530" 
d="M401 642v-32h-272v32h272zM266 506c144 0 226 -105 226 -257c0 -154 -83 -255 -226 -255c-147 0 -228 104 -228 255s82 257 228 257zM266 31c121 0 177 89 177 218c0 127 -55 219 -177 219s-178 -88 -178 -219c0 -128 54 -218 178 -218z" />
    <glyph glyph-name="racute" unicode="&#x155;" horiz-adv-x="436" 
d="M217 589c-6 -6 -9 -9 -18 -9h-29l79 120c8 12 15 16 29 16h47zM332 506c26 0 55 -7 77 -19l-9 -25c-3 -10 -12 -18 -23 -14c-13 5 -28 11 -54 11c-78 0 -124 -53 -152 -136v-283l53 -2c12 -1 19 -5 19 -18v-20h-191v20c0 13 7 17 19 18l53 2v419l-54 2
c-12 1 -19 5 -19 18v19h98c6 0 10 -1 12 -3s4 -6 4 -12l4 -106c33 83 85 129 163 129z" />
    <glyph glyph-name="rcaron" unicode="&#x159;" horiz-adv-x="436" 
d="M243 586h-42l-109 123h33c5 0 10 -2 14 -6l78 -81l6 -7l5 7l78 81c2 2 4 3 6 4c3 1 5 2 7 2h33zM332 506c26 0 55 -7 77 -19l-9 -25c-3 -10 -12 -18 -23 -14c-13 5 -28 11 -54 11c-78 0 -124 -53 -152 -136v-283l53 -2c12 -1 19 -5 19 -18v-20h-191v20c0 13 7 17 19 18
l53 2v419l-54 2c-12 1 -19 5 -19 18v19h98c6 0 10 -1 12 -3s4 -6 4 -12l4 -106c33 83 85 129 163 129z" />
    <glyph glyph-name="uni0157" unicode="&#x157;" horiz-adv-x="436" 
d="M332 506c26 0 55 -7 77 -19l-9 -25c-3 -10 -12 -18 -23 -14c-13 5 -28 11 -54 11c-78 0 -124 -53 -152 -136v-283l53 -2c12 -1 19 -5 19 -18v-20h-191v20c0 13 7 17 19 18l53 2v419l-54 2c-12 1 -19 5 -19 18v19h98c6 0 10 -1 12 -3s4 -6 4 -12l4 -106
c33 83 85 129 163 129zM175 -47c11 0 14 -5 12 -15l-26 -103c-5 -13 -14 -12 -22 -12h-16l22 130h30z" />
    <glyph glyph-name="scedilla" unicode="&#x15f;" horiz-adv-x="427" 
d="M388 146c0 -90 -66 -146 -155 -153l-13 -38c57 -9 91 -27 91 -68c0 -10 -3 -19 -7 -27c-16 -27 -49 -37 -85 -37c-31 0 -53 7 -73 21l6 14c5 10 11 5 14 3c12 -8 36 -15 52 -15c30 0 54 12 54 41c0 39 -45 42 -89 49l18 56c-46 2 -91 11 -135 28v121h24
c14 0 21 -8 22 -24l6 -74c27 -11 59 -16 97 -16c72 0 128 42 128 111c0 61 -61 82 -139 105c-82 23 -138 54 -138 128c0 82 76 134 164 134c36 0 80 -8 132 -26v-119h-24c-14 0 -21 8 -22 24l-6 72c-27 9 -53 13 -79 13c-62 0 -120 -36 -120 -95c0 -58 60 -77 138 -100
c79 -23 139 -57 139 -128z" />
    <glyph glyph-name="tbar" unicode="&#x167;" horiz-adv-x="355" 
d="M306 56l11 -18c-26 -28 -70 -46 -109 -46c-72 0 -107 41 -107 114v200h-77v31h77v109h-71c-7 0 -13 4 -13 12v18l85 6l12 178c0 4 5 12 12 12h23v-190h157v-36h-157v-109h156v-31h-156v-197c0 -50 27 -78 69 -78c27 0 53 17 68 28c10 7 17 2 20 -3z" />
    <glyph glyph-name="tcaron" unicode="&#x165;" horiz-adv-x="355" 
d="M266 693l-33 -123c-5 -13 -11 -12 -19 -12h-16l26 150h30c11 0 14 -5 12 -15zM208 -8c-72 0 -107 41 -107 114v340h-71c-7 0 -13 4 -13 12v18l85 6l12 178c0 4 5 12 12 12h23v-190h157v-36h-157v-337c0 -50 27 -78 69 -78c27 0 53 17 68 28c10 7 17 2 20 -3l11 -18
c-26 -28 -70 -46 -109 -46z" />
    <glyph glyph-name="uni0163" unicode="&#x163;" horiz-adv-x="355" 
d="M317 38c-25 -27 -68 -45 -106 -46l-12 -37c57 -9 91 -27 91 -68c0 -10 -3 -19 -7 -27c-16 -27 -49 -37 -85 -37c-31 0 -53 7 -73 21l6 14c5 10 11 5 14 3c12 -8 36 -15 52 -15c30 0 54 12 54 41c0 39 -45 42 -89 49l19 58c-54 10 -80 49 -80 112v340h-71
c-7 0 -13 4 -13 12v18l85 6l12 178c0 4 5 12 12 12h23v-190h157v-36h-157v-337c0 -50 27 -78 69 -78c27 0 53 17 68 28c10 7 17 2 20 -3z" />
    <glyph glyph-name="uhungarumlaut" unicode="&#x171;" horiz-adv-x="598" 
d="M212 589c-6 -6 -9 -9 -18 -9h-29l79 120c8 12 15 16 29 16h47zM355 589c-6 -6 -9 -9 -18 -9h-29l79 120c8 12 15 16 29 16h47zM536 38c13 -1 20 -7 20 -18v-20h-98c-9 0 -15 4 -15 13l-4 74c-47 -59 -109 -95 -181 -95c-112 0 -166 78 -166 188v278l-52 2
c-13 1 -20 7 -20 18v19h72l48 1v-318c0 -92 41 -150 130 -150c65 0 124 38 166 94v334l-52 2c-13 1 -20 7 -20 18v19h72l48 1v-458z" />
    <glyph glyph-name="umacron" unicode="&#x16b;" horiz-adv-x="598" 
d="M406 642v-32h-272v32h272zM536 38c13 -1 20 -7 20 -18v-20h-98c-9 0 -15 4 -15 13l-4 74c-47 -59 -109 -95 -181 -95c-112 0 -166 78 -166 188v278l-52 2c-13 1 -20 7 -20 18v19h72l48 1v-318c0 -92 41 -150 130 -150c65 0 124 38 166 94v334l-52 2c-13 1 -20 7 -20 18
v19h72l48 1v-458z" />
    <glyph glyph-name="uogonek" unicode="&#x173;" horiz-adv-x="598" 
d="M551 -128l8 -14c-22 -20 -54 -27 -79 -27c-47 0 -86 24 -86 71c0 37 30 72 70 98h-6c-9 0 -15 4 -15 13l-4 74c-47 -59 -109 -95 -181 -95c-112 0 -166 78 -166 188v278l-52 2c-13 1 -20 7 -20 18v19h72l48 1v-318c0 -92 41 -150 130 -150c65 0 124 38 166 94v334l-52 2
c-13 1 -20 7 -20 18v19h72l48 1v-458l52 -2c13 -1 20 -7 20 -18v-20h-58c-40 -23 -66 -54 -66 -88c0 -35 27 -50 56 -50c22 0 39 7 49 13c6 3 11 2 14 -3z" />
    <glyph glyph-name="uring" unicode="&#x16f;" horiz-adv-x="598" 
d="M270 526c-45 0 -84 36 -84 79c0 44 39 79 84 79c46 0 84 -35 84 -79c0 -43 -38 -79 -84 -79zM270 550c30 0 55 25 55 55s-25 55 -55 55s-55 -25 -55 -55s25 -55 55 -55zM536 38c13 -1 20 -7 20 -18v-20h-98c-9 0 -15 4 -15 13l-4 74c-47 -59 -109 -95 -181 -95
c-112 0 -166 78 -166 188v278l-52 2c-13 1 -20 7 -20 18v19h72l48 1v-318c0 -92 41 -150 130 -150c65 0 124 38 166 94v334l-52 2c-13 1 -20 7 -20 18v19h72l48 1v-458z" />
    <glyph glyph-name="wacute" unicode="&#x1e83;" horiz-adv-x="839" 
d="M419 589c-6 -6 -9 -9 -18 -9h-29l79 120c8 12 15 16 29 16h47zM814 497v-19c0 -11 -7 -17 -20 -18l-35 -1l-153 -459h-35c-5 0 -10 4 -12 11l-136 404c-3 9 -6 18 -8 29c-3 -11 -6 -20 -8 -29l-138 -404c-2 -7 -6 -11 -12 -11h-33l-154 459l-33 1c-13 1 -19 7 -19 18v19
h174v-19c0 -11 -7 -17 -20 -18l-52 -2l117 -365l9 -43c3 11 10 33 13 43l133 396c2 7 7 11 14 11h20c7 0 12 -4 14 -11l132 -396c5 -15 9 -32 12 -43c2 11 7 28 10 43l117 365l-51 2c-13 1 -20 7 -20 18v19h174z" />
    <glyph glyph-name="wcircumflex" unicode="&#x175;" horiz-adv-x="839" 
d="M523 561c-6 0 -14 2 -17 5l-86 68l-87 -68c-5 -4 -12 -5 -16 -5h-37l117 99h45l118 -99h-37zM814 497v-19c0 -11 -7 -17 -20 -18l-35 -1l-153 -459h-35c-5 0 -10 4 -12 11l-136 404c-3 9 -6 18 -8 29c-3 -11 -6 -20 -8 -29l-138 -404c-2 -7 -6 -11 -12 -11h-33l-154 459
l-33 1c-13 1 -19 7 -19 18v19h174v-19c0 -11 -7 -17 -20 -18l-52 -2l117 -365l9 -43c3 11 10 33 13 43l133 396c2 7 7 11 14 11h20c7 0 12 -4 14 -11l132 -396c5 -15 9 -32 12 -43c2 11 7 28 10 43l117 365l-51 2c-13 1 -20 7 -20 18v19h174z" />
    <glyph glyph-name="wdieresis" unicode="&#x1e85;" horiz-adv-x="839" 
d="M316 583c-23 0 -41 18 -41 41c0 22 18 40 41 40c22 0 40 -18 40 -40c0 -23 -18 -41 -40 -41zM524 583c-23 0 -41 18 -41 41c0 22 18 40 41 40c22 0 40 -18 40 -40c0 -23 -18 -41 -40 -41zM814 497v-19c0 -11 -7 -17 -20 -18l-35 -1l-153 -459h-35c-5 0 -10 4 -12 11
l-136 404c-3 9 -6 18 -8 29c-3 -11 -6 -20 -8 -29l-138 -404c-2 -7 -6 -11 -12 -11h-33l-154 459l-33 1c-13 1 -19 7 -19 18v19h174v-19c0 -11 -7 -17 -20 -18l-52 -2l117 -365l9 -43c3 11 10 33 13 43l133 396c2 7 7 11 14 11h20c7 0 12 -4 14 -11l132 -396
c5 -15 9 -32 12 -43c2 11 7 28 10 43l117 365l-51 2c-13 1 -20 7 -20 18v19h174z" />
    <glyph glyph-name="wgrave" unicode="&#x1e81;" horiz-adv-x="839" 
d="M336 675c15 0 19 -1 31 -11l114 -103h-36c-7 0 -14 1 -19 6l-146 108h56zM814 497v-19c0 -11 -7 -17 -20 -18l-35 -1l-153 -459h-35c-5 0 -10 4 -12 11l-136 404c-3 9 -6 18 -8 29c-3 -11 -6 -20 -8 -29l-138 -404c-2 -7 -6 -11 -12 -11h-33l-154 459l-33 1
c-13 1 -19 7 -19 18v19h174v-19c0 -11 -7 -17 -20 -18l-52 -2l117 -365l9 -43c3 11 10 33 13 43l133 396c2 7 7 11 14 11h20c7 0 12 -4 14 -11l132 -396c5 -15 9 -32 12 -43c2 11 7 28 10 43l117 365l-51 2c-13 1 -20 7 -20 18v19h174z" />
    <glyph glyph-name="ycircumflex" unicode="&#x177;" horiz-adv-x="578" 
d="M392 561c-6 0 -14 2 -17 5l-86 68l-87 -68c-5 -4 -12 -5 -16 -5h-37l117 99h45l118 -99h-37zM552 498v-19c0 -11 -7 -17 -20 -18l-34 -1l-269 -620c-4 -9 -12 -16 -22 -16h-34l88 194l-194 442l-30 1c-13 1 -20 7 -20 18v19h174v-19c0 -11 -7 -17 -20 -18l-51 -2
l155 -361c4 -9 9 -26 10 -30c1 4 7 21 11 30l153 361l-51 2c-13 1 -20 7 -20 18v19h174z" />
    <glyph glyph-name="ygrave" unicode="&#x1ef3;" horiz-adv-x="578" 
d="M205 675c15 0 19 -1 31 -11l114 -103h-36c-7 0 -14 1 -19 6l-146 108h56zM552 498v-19c0 -11 -7 -17 -20 -18l-34 -1l-269 -620c-4 -9 -12 -16 -22 -16h-34l88 194l-194 442l-30 1c-13 1 -20 7 -20 18v19h174v-19c0 -11 -7 -17 -20 -18l-51 -2l155 -361
c4 -9 9 -26 10 -30c1 4 7 21 11 30l153 361l-51 2c-13 1 -20 7 -20 18v19h174z" />
    <glyph glyph-name="uni0308" unicode="&#x308;" 
d="M-490 793c-23 0 -41 18 -41 41c0 22 18 40 41 40c22 0 40 -18 40 -40c0 -23 -18 -41 -40 -41zM-282 793c-23 0 -41 18 -41 41c0 22 18 40 41 40c22 0 40 -18 40 -40c0 -23 -18 -41 -40 -41z" />
    <glyph glyph-name="uni0307" unicode="&#x307;" 
d="M-134 796c-24 0 -43 19 -43 43c0 23 19 43 43 43c23 0 43 -20 43 -43c0 -24 -20 -43 -43 -43z" />
    <glyph glyph-name="gravecomb" unicode="&#x300;" 
d="M-187 885c15 0 19 -1 31 -11l114 -103h-36c-7 0 -14 1 -19 6l-146 108h56z" />
    <glyph glyph-name="acutecomb" unicode="&#x301;" 
d="M-201 589c-6 -6 -9 -9 -18 -9h-29l79 120c8 12 15 16 29 16h47z" />
    <glyph glyph-name="uni030B" unicode="&#x30b;" 
d="M-290 589c-6 -6 -9 -9 -18 -9h-29l79 120c8 12 15 16 29 16h47zM-147 589c-6 -6 -9 -9 -18 -9h-29l79 120c8 12 15 16 29 16h47z" />
    <glyph glyph-name="uni0302" unicode="&#x302;" 
d="M-283 771c-6 0 -14 2 -17 5l-86 68l-87 -68c-5 -4 -12 -5 -16 -5h-37l117 99h45l118 -99h-37z" />
    <glyph glyph-name="uni030C" unicode="&#x30c;" 
d="M-380 708c5 0 10 -2 14 -6l78 -81l6 -7l5 7l78 81c2 2 4 3 6 4c3 1 5 2 7 2h33l-109 -123h-42l-109 123h33z" />
    <glyph glyph-name="uni0306" unicode="&#x306;" 
d="M-211 550c-77 0 -121 33 -121 106h32c0 -53 34 -76 89 -76c59 0 89 27 89 76h32c0 -74 -45 -106 -121 -106z" />
    <glyph glyph-name="uni030A" unicode="&#x30a;" 
d="M-386 736c-45 0 -84 36 -84 79c0 44 39 79 84 79c46 0 84 -35 84 -79c0 -43 -38 -79 -84 -79zM-386 760c30 0 55 25 55 55s-25 55 -55 55s-55 -25 -55 -55s25 -55 55 -55z" />
    <glyph glyph-name="tildecomb" unicode="&#x303;" 
d="M-283 857h27c0 -66 -50 -99 -101 -74c-10 5 -56 34 -56 34c-36 20 -67 4 -70 -41h-28c0 67 51 99 102 74c10 -5 55 -33 56 -34c37 -20 70 -1 70 41z" />
    <glyph glyph-name="uni0304" unicode="&#x304;" 
d="M-91 594v-30h-208v30h208z" />
    <glyph glyph-name="uni0312" unicode="&#x312;" 
d="M-81 811l8 -7c3 -3 4 -6 4 -9s-2 -6 -5 -9c-24 -24 -50 -76 -51 -101c4 1 9 2 14 2c24 0 44 -20 44 -44s-20 -43 -44 -43c-28 0 -45 23 -45 53c0 63 32 115 75 158z" />
    <glyph glyph-name="uni0326" unicode="&#x326;" 
d="M-142 -288l-8 7c-3 3 -4 6 -4 9s2 6 5 9c24 24 50 76 51 101c-4 -1 -9 -2 -14 -2c-24 0 -44 20 -44 44s20 43 44 43c28 0 45 -23 45 -53c0 -63 -32 -115 -75 -158z" />
    <glyph glyph-name="uni0327" unicode="&#x327;" 
d="M-113 -177c-31 0 -53 7 -73 21l6 14c5 10 11 5 14 3c12 -8 36 -15 52 -15c30 0 54 12 54 41c0 39 -45 42 -89 49l21 64h31l-15 -45c57 -9 91 -27 91 -68c0 -10 -3 -19 -7 -27c-16 -27 -49 -37 -85 -37z" />
    <glyph glyph-name="uni0328" unicode="&#x328;" 
d="M-69 -128l8 -14c-22 -20 -54 -27 -79 -27c-47 0 -86 24 -86 71c0 40 35 77 80 104l24 -6c-40 -23 -66 -54 -66 -88c0 -35 27 -50 56 -50c22 0 39 7 49 13c6 3 11 2 14 -3z" />
    <glyph glyph-name="uni0335" unicode="&#x335;" 
d="M-419 364h254v-32h-254v32z" />
    <glyph glyph-name="uni0337" unicode="&#x337;" 
d="M-471 -38l414 557c8 11 12 12 22 12h25l-411 -553c-8 -13 -23 -16 -31 -16h-19z" />
    <glyph glyph-name="uni0338" unicode="&#x338;" 
d="M-640 -52l578 777c9 11 13 15 25 15h27l-576 -776c-9 -14 -21 -16 -32 -16h-22z" />
    <glyph glyph-name="uni0308.case" 
d="M-490 793c-23 0 -41 18 -41 41c0 22 18 40 41 40c22 0 40 -18 40 -40c0 -23 -18 -41 -40 -41zM-282 793c-23 0 -41 18 -41 41c0 22 18 40 41 40c22 0 40 -18 40 -40c0 -23 -18 -41 -40 -41z" />
    <glyph glyph-name="uni0307.case" 
d="M-134 796c-24 0 -43 19 -43 43c0 23 19 43 43 43c23 0 43 -20 43 -43c0 -24 -20 -43 -43 -43z" />
    <glyph glyph-name="gravecomb.case" 
d="M-177 885c15 0 19 -1 31 -11l114 -103h-36c-7 0 -14 1 -19 6l-146 108h56z" />
    <glyph glyph-name="acutecomb.case" 
d="M-189 589c-7 -7 -8 -8 -18 -8h-29l79 119c8 12 15 16 29 16h47z" />
    <glyph glyph-name="uni030B.case" 
d="M-290 589c-6 -6 -9 -9 -18 -9h-29l79 120c8 12 15 16 29 16h47zM-147 589c-6 -6 -9 -9 -18 -9h-29l79 120c8 12 15 16 29 16h47z" />
    <glyph glyph-name="uni0302.case" 
d="M-283 771c-6 0 -14 2 -17 5l-86 68l-87 -68c-5 -4 -12 -5 -16 -5h-37l117 99h45l118 -99h-37z" />
    <glyph glyph-name="uni030C.case" 
d="M-413 708c5 0 10 -2 14 -6l78 -81l6 -7l5 7l78 81c2 2 4 3 6 4c3 1 5 2 7 2h33l-109 -123h-42l-109 123h33z" />
    <glyph glyph-name="uni0306.case" 
d="M-211 580c-77 0 -121 33 -121 106h32c0 -53 34 -76 89 -76c59 0 89 27 89 76h32c0 -74 -45 -106 -121 -106z" />
    <glyph glyph-name="uni030A.case" 
d="M-386 736c-45 0 -84 36 -84 79c0 44 39 79 84 79c46 0 84 -35 84 -79c0 -43 -38 -79 -84 -79zM-386 760c30 0 55 25 55 55s-25 55 -55 55s-55 -25 -55 -55s25 -55 55 -55z" />
    <glyph glyph-name="tildecomb.case" 
d="M-283 857h27c0 -66 -50 -99 -101 -74c-10 5 -56 34 -56 34c-36 20 -67 4 -70 -41h-28c0 67 51 99 102 74c10 -5 55 -33 56 -34c37 -20 70 -1 70 41z" />
    <glyph glyph-name="uni0304.case" 
d="M-59 642v-32h-272v32h272z" />
    <glyph glyph-name="SerifBottomLeft" horiz-adv-x="100" 
d="M-42 0v23c0 12 6 19 19 20l53 5l71 -4c12 -1 29 -3 29 -21v-23h-172z" />
    <glyph glyph-name="SerifBottomRight" horiz-adv-x="100" 
d="M-130 0v23c0 18 17 20 29 21l71 4l53 -5c13 -1 19 -8 19 -20v-23h-172z" />
    <glyph glyph-name="SerifSpur" horiz-adv-x="300" 
d="M0 -39l-54 2c-12 1 -19 5 -19 18v19h88v-39h-15z" />
    <glyph glyph-name="SerifUpLeft" horiz-adv-x="100" 
d="M0 0v158h24c14 0 21 -8 22 -24l5 -110z" />
    <glyph glyph-name="SerifUpRight" horiz-adv-x="100" 
d="M0 0l-52 42l7 85c1 16 7 25 21 25h24v-152z" />
    <glyph glyph-name="SerfiBottomSymmetrical" horiz-adv-x="138" 
d="M-72 0v20c0 13 7 17 19 18l63 2h27l63 -2c12 -1 19 -5 19 -18v-20h-191z" />
    <glyph glyph-name="fTopEnd" horiz-adv-x="241" 
d="M129 670c-10 4 -16 9 -37 9v37c21 0 45 -6 63 -15l-8 -20c-2 -8 -9 -14 -18 -11z" />
  </font>
</defs>
</svg>
