<svg id="Layer_1" data-name="Layer 1" xmlns="http://www.w3.org/2000/svg" viewBox="0 0 151 151"><defs><style>.cls-3{fill:#fff}</style></defs><circle cx="75.5" cy="75.5" r="75" stroke="#ffa00f" stroke-miterlimit="10" fill="#fff"/><circle cx="75.5" cy="75.5" r="66.18" fill="#ffa00f"/><path class="cls-3" transform="rotate(-89.64 43.154 85.705)" d="M40.22 82.77h5.88v5.88h-5.88z"/><path class="cls-3" transform="rotate(-89.64 50.337 85.743)" d="M47.4 82.8h5.88v5.88H47.4z"/><path class="cls-3" transform="rotate(-89.64 57.505 85.795)" d="M54.56 82.86h5.88v5.88h-5.88z"/><path class="cls-3" transform="rotate(-89.64 64.683 85.828)" d="M61.74 82.89h5.88v5.88h-5.88z"/><path class="cls-3" transform="rotate(-89.43 71.529 86.162)" d="M68.59 83.22h5.88v5.88h-5.88z"/><path class="cls-3" transform="rotate(-89.65 79.049 85.918)" d="M76.11 82.98h5.88v5.88h-5.88z"/><path class="cls-3" transform="rotate(-89.4 86.563 85.957)" d="M83.29 83.02h5.88v5.88h-5.88z"/><path class="cls-3" transform="rotate(-89.4 93.719 86.001)" d="M90.44 83.08h5.88v5.88h-5.88z"/><path class="cls-3" transform="rotate(-89.64 100.566 86.066)" d="M97.62 83.13h5.88v5.88h-5.88z"/><path class="cls-3" transform="rotate(-89.4 108.096 86.065)" d="M104.79 83.17h5.88v5.88h-5.88z"/><path class="cls-3" transform="rotate(-89.64 50.37 78.625)" d="M47.43 75.68h5.88v5.88h-5.88z"/><path class="cls-3" transform="rotate(-89.64 57.548 78.678)" d="M54.61 75.74h5.88v5.88h-5.88z"/><path class="cls-3" transform="rotate(-89.64 71.908 78.768)" d="M68.97 75.83h5.88v5.88h-5.88z"/><path class="cls-3" transform="rotate(-89.4 79.39 78.797)" d="M76.14 75.86h5.88v5.88h-5.88z"/><path class="cls-3" transform="rotate(-89.65 86.26 78.834)" d="M83.32 75.89h5.88v5.88h-5.88z"/><path class="cls-3" transform="rotate(-89.4 93.768 78.85)" d="M90.49 75.95h5.88v5.88h-5.88z"/><path class="cls-3" transform="rotate(-89.64 107.787 78.991)" d="M104.85 76.05h5.88v5.88h-5.88z"/><path class="cls-3" transform="rotate(-89.64 57.596 71.786)" d="M54.65 68.85h5.88v5.88h-5.88z"/><path class="cls-3" transform="rotate(-89.4 79.427 71.902)" d="M76.19 68.98h5.88v5.88h-5.88z"/><path class="cls-3" transform="rotate(-89.4 86.583 71.937)" d="M83.35 69.03h5.88v5.88h-5.88z"/><path class="cls-3" transform="rotate(-89.65 57.65 64.898)" d="M54.71 61.96h5.88v5.88h-5.88z"/><path class="cls-3" transform="rotate(-89.64 79.168 65.032)" d="M76.22 62.09h5.88v5.88h-5.88z"/><path class="cls-3" transform="rotate(-89.64 86.336 65.085)" d="M83.39 62.15h5.88v5.88h-5.88z"/><path class="cls-3" transform="rotate(-89.4 108.181 72.01)" d="M104.89 69.14h5.88v5.88h-5.88z"/></svg>