<svg id="Layer_1" data-name="Layer 1" xmlns="http://www.w3.org/2000/svg" viewBox="0 0 151 151"><defs><style>.cls-3{fill:#fff}</style></defs><circle cx="75.5" cy="75.5" r="75" stroke="#9d162e" stroke-miterlimit="10" fill="#fff"/><circle cx="75.49" cy="75.49" r="66.18" fill="#9d162e"/><path class="cls-3" d="M86 50l-8.25 19.6H74.3l10.36-23.34h2.65L97.64 69.6H94.2zM107.35 92.56l8.2-19.65H119l-10.36 23.35H106L95.65 72.91h3.45zM73.31 72.91h-.08c-3.14 7.51-6 11.33-8.73 11.35-1.38 0-4.37-1.57-8.9-12-4-9.23-8-13.72-12.25-13.72H43c-4.27.19-7.91 4.73-10.82 13.51l-.1.3a1.8 1.8 0 103.38 1.22l.13-.38c3.33-10.08 6.61-11 7.62-11 1.5 0 4.67 1.5 9 11.53 4.25 9.83 8 14.21 12.22 14.21 4.12 0 7.83-4.9 12-15h-3.12z"/></svg>