<svg data-name="Layer 1" xmlns="http://www.w3.org/2000/svg" viewBox="0 0 151 151"><circle cx="75.5" cy="75.5" r="75" stroke="#9bc8eb" stroke-miterlimit="10" fill="#fff"/><circle cx="75.49" cy="75.49" r="66.18" fill="#9bc8eb"/><path d="M103.59 64.2c-4-9.12-9.3-17.08-14.78-22.4-5.71-5.55-11.07-7.62-15.1-5.8-3.87 1.72-5.91 6.75-5.81 14.19a10.26 10.26 0 00-6.91.39c-4.94 2.2-7.32 8.38-7 16.21a6.51 6.51 0 00-2.38.55c-3.15 1.4-4.81 5.13-4.87 9.91a5 5 0 00-3.69 0c-4 1.78-4.45 9.23-1 17 3 6.63 7.65 11 11.45 11a4.61 4.61 0 001.83-.37 5.42 5.42 0 002.86-3.68 11.47 11.47 0 006.68 2.63 6.75 6.75 0 002.73-.57 7.08 7.08 0 003.29-3.11c3.3 2.45 6.57 3.72 9.53 3.72a9.6 9.6 0 003.88-.8 10 10 0 004.52-4.16l.58.58c4.37 4.25 8.54 6.46 12.06 6.46a7.37 7.37 0 003-.63c8.19-3.63 7.77-21.68-.87-41.12zM70.36 94.39a15.13 15.13 0 01-.36 2.32 43.42 43.42 0 01-9.93-14.32 46.58 46.58 0 01-3.76-13.23c4 1.25 8.56 6 11.43 12.51a27.38 27.38 0 012.62 12.72zM54.51 103c-3.09 1.37-8-3.94-10.53-9.57S40.84 80.57 44 79.2a2.45 2.45 0 011-.26 4.25 4.25 0 011.88.5 32.58 32.58 0 002.76 10.29 31.48 31.48 0 006.82 9.94c-.3 1.68-.97 2.85-1.95 3.33zm-5.32-21.89a24.21 24.21 0 015.27 7.62 23.9 23.9 0 012.11 8.09 30.67 30.67 0 01-5-7.94 32 32 0 01-2.38-7.77zm17.59 20.23c-2 .92-4.73.21-7.56-2l-.59-.5v-.61a24.36 24.36 0 00-2.31-10.35c-2-4.42-4.71-7.83-7.45-9.61-.18-4.44 1-7.93 3.59-9.06a4.29 4.29 0 011.69-.38 47.8 47.8 0 004 14.4 44.53 44.53 0 0011.12 15.58 5.19 5.19 0 01-2.49 2.53zm16.71-.19c-3.23 1.43-7.39.38-11.73-3a15.06 15.06 0 00.67-3.65 29.58 29.58 0 00-2.78-13.7C66.27 73.23 61 68 56.13 66.94c-.4-7.07 1.54-12.64 5.71-14.49a7.37 7.37 0 013-.63 10.24 10.24 0 013.11.52c.48 7.38 2.82 16.1 6.66 24.73a77.68 77.68 0 0012.75 20.25 8.22 8.22 0 01-3.87 3.83zm5.65-10.79a20.37 20.37 0 01-.89 4.83 76.82 76.82 0 01-11.71-19 74.84 74.84 0 01-6.4-23 22.09 22.09 0 013.49 2.25C78.18 59 82.3 64.6 85.24 71.21s4.32 13.4 3.9 19.15zm14.55 13c-3.16 1.41-7.82-.57-12.81-5.42l-1.06-1.06a20.72 20.72 0 001.39-6.41c.44-6.08-1-13.24-4.08-20.15s-7.41-12.74-12.22-16.48a22.5 22.5 0 00-4.92-3c-.23-6.88 1.43-11.62 4.56-13a5.33 5.33 0 012.19-.44c3 0 6.69 2 10.62 5.86 5.3 5.17 10.39 12.9 14.34 21.74 7.89 17.81 8.8 35.37 2 38.4z" fill="#fff"/></svg>