<svg data-name="Layer 1" xmlns="http://www.w3.org/2000/svg" viewBox="0 0 151 151"><circle cx="75.5" cy="75.5" r="75" stroke="#003c73" stroke-miterlimit="10" fill="#fff"/><circle cx="75.49" cy="75.49" r="66.18" fill="#003c73"/><path d="M48.09 87.15a1 1 0 01-1-1V69a1 1 0 112.06 0v17.12a1 1 0 01-1 1zm-5.83 1.37V71.39a1 1 0 00-2 0v17.13a1 1 0 002 0zm20.56 6.85V78.24a1 1 0 00-2 0v17.13a1 1 0 002 0zM56 89.21V54.94a1 1 0 00-2.06 0v34.27a1 1 0 102.06 0zM69.67 93V75.84a1 1 0 00-2 0V93a1 1 0 002 0zm27.42-4.46V71.39a1 1 0 10-2.06 0v17.13a1 1 0 002.06 0zm-6.86-2.74V68.65a1 1 0 00-2 0v17.13a1 1 0 002 0zm13.71 3.43V61.79a1 1 0 10-2.06 0v27.42a1 1 0 102.06 0zm6.85 3.42V65.22a1 1 0 10-2.05 0v27.41a1 1 0 002.05 0zm-34.26 3.41V61.79a1 1 0 10-2.06 0v34.27a1 1 0 002.06 0zm6.85-6.85V54.94a1 1 0 00-2 0v34.27a1 1 0 002 0z" fill="#fff"/></svg>