<svg xmlns="http://www.w3.org/2000/svg" viewBox="0 0 738.57 100"><defs><style>.cls-1{fill:#232526;}</style></defs><g id="mark"><rect class="cls-1" x="0.05" y="72.97" width="16.5" height="16.5" transform="translate(89.57 73.43) rotate(90.36)"/><rect class="cls-1" x="24.71" y="73.13" width="16.5" height="16.5" transform="translate(114.54 48.92) rotate(90.36)"/><rect class="cls-1" x="49.37" y="73.28" width="16.5" height="16.5" transform="translate(139.5 24.42) rotate(90.36)"/><rect class="cls-1" x="74.03" y="73.43" width="16.5" height="16.5" transform="translate(164.47 -0.09) rotate(90.36)"/><rect class="cls-1" x="98.69" y="73.59" width="16.5" height="16.5" transform="translate(189.44 -24.6) rotate(90.36)"/><rect class="cls-1" x="123.35" y="73.74" width="16.5" height="16.5" transform="translate(214.4 -49.1) rotate(90.36)"/><rect class="cls-1" x="148.01" y="73.89" width="16.5" height="16.5" transform="translate(239.37 -73.61) rotate(90.36)"/><rect class="cls-1" x="172.67" y="74.04" width="16.5" height="16.5" transform="translate(264.34 -98.11) rotate(90.36)"/><rect class="cls-1" x="197.33" y="74.2" width="16.5" height="16.5" transform="translate(289.3 -122.62) rotate(90.36)"/><rect class="cls-1" x="221.99" y="74.35" width="16.5" height="16.5" transform="translate(314.27 -147.13) rotate(90.36)"/><rect class="cls-1" x="24.86" y="48.65" width="16.5" height="16.5" transform="translate(90.22 24.14) rotate(90.36)"/><rect class="cls-1" x="49.52" y="48.8" width="16.5" height="16.5" transform="translate(115.18 -0.36) rotate(90.36)"/><rect class="cls-1" x="98.84" y="49.11" width="16.5" height="16.5" transform="translate(165.11 -49.38) rotate(90.36)"/><rect class="cls-1" x="123.5" y="49.26" width="16.5" height="16.5" transform="translate(190.08 -73.88) rotate(90.36)"/><rect class="cls-1" x="148.16" y="49.42" width="16.5" height="16.5" transform="translate(215.05 -98.39) rotate(90.36)"/><rect class="cls-1" x="172.83" y="49.57" width="16.5" height="16.5" transform="translate(240.01 -122.89) rotate(90.36)"/><rect class="cls-1" x="222.15" y="49.87" width="16.5" height="16.5" transform="translate(289.95 -171.91) rotate(90.36)"/><rect class="cls-1" x="49.67" y="25.14" width="16.5" height="16.5" transform="translate(91.67 -24.32) rotate(90.36)"/><rect class="cls-1" x="123.65" y="25.6" width="16.5" height="16.5" transform="translate(166.57 -97.83) rotate(90.36)"/><rect class="cls-1" x="148.31" y="25.76" width="16.5" height="16.5" transform="translate(191.54 -122.34) rotate(90.36)"/><rect class="cls-1" x="49.82" y="1.49" width="16.5" height="16.5" transform="translate(68.16 -48.27) rotate(90.36)"/><rect class="cls-1" x="123.8" y="1.94" width="16.5" height="16.5" transform="translate(143.06 -121.79) rotate(90.36)"/><rect class="cls-1" x="148.46" y="2.1" width="16.5" height="16.5" transform="translate(168.02 -146.29) rotate(90.36)"/><rect class="cls-1" x="222.29" y="26.22" width="16.5" height="16.5" transform="translate(266.43 -195.86) rotate(90.36)"/></g><g id="typemark"><path class="cls-1" d="M316.32,20c0-11.28-7.47-18.86-18.6-18.86H280.27V3.45a1.12,1.12,0,0,0,1,1.15l2.8.6V34.77l-2.8.55a1.12,1.12,0,0,0-1,1.15v2.35h17.45C308.85,38.82,316.32,31.24,316.32,20ZM297.72,5.49c8.18,0,13.06,5.41,13.06,14.47s-4.88,14.47-13.06,14.47h-8.25V5.49Z"/><path class="cls-1" d="M344.9,36.31a1.16,1.16,0,0,0-.91-1.15l-.19,0v.09l-1.75-.38-.55-.11V21.63a13,13,0,0,0-.58-4.12,8.46,8.46,0,0,0-1.81-3.2,9,9,0,0,0-2.92-2,9.88,9.88,0,0,0-4-.74,14.09,14.09,0,0,0-5.71,1,16,16,0,0,0-4.74,3.17l-.09.09.89,1.56a2.07,2.07,0,0,0,.57.68,1.54,1.54,0,0,0,.93.24,2,2,0,0,0,1.3-.45,9,9,0,0,1,.85-.53l.65-.4a12,12,0,0,1,2-.93,7.5,7.5,0,0,1,2.82-.46,4.72,4.72,0,0,1,3.79,1.57,6.94,6.94,0,0,1,1.32,4.6v1.87a34.63,34.63,0,0,0-7.5.69,18,18,0,0,0-5.06,1.9,8.19,8.19,0,0,0-2.88,2.66,6,6,0,0,0-.86,3.11,7.45,7.45,0,0,0,.59,3.21,7.27,7.27,0,0,0,1.61,2.24,7,7,0,0,0,2.4,1.29,8.58,8.58,0,0,0,2.88.48,11.46,11.46,0,0,0,2.86-.27,15.52,15.52,0,0,0,2.32-.79,8.73,8.73,0,0,0,2.13-1.28l.76-.62,1.12-.93.47,2.25c.11.44.24.82.63,1a3.62,3.62,0,0,0,1.15.22h5.59Zm-8.31-9.4v5.21c-.5.49-1,1-1.51,1.4a9.9,9.9,0,0,1-1.69,1.13,8.67,8.67,0,0,1-1.9.67,9.16,9.16,0,0,1-2.16.26,5.82,5.82,0,0,1-1.68-.26,4,4,0,0,1-1.31-.65,2.76,2.76,0,0,1-.89-1.19,4.3,4.3,0,0,1-.35-1.71,3.29,3.29,0,0,1,.6-1.9,4.61,4.61,0,0,1,2-1.51,15.75,15.75,0,0,1,3.62-1.09A31.7,31.7,0,0,1,336.59,26.91Z"/><path class="cls-1" d="M361.13,35.32,359.24,35l-1-.19V21.87c1.44-3.59,3.67-5.41,6.63-5.41a7,7,0,0,1,2.09.26,5,5,0,0,0,1.3.26c.39,0,.71-.3.84-.81l.59-3.61-.09-.05a7.07,7.07,0,0,0-3.69-1c-3.35,0-6,1.87-8,5.57l-.28-3.67a2,2,0,0,0-.46-1.07,1.42,1.42,0,0,0-1.11-.31h-6.58v2.35a1.08,1.08,0,0,0,.89,1.15c.31.1,1.25.3,2.87.6v18.6l-2.85.55a1.07,1.07,0,0,0-.91,1.15v2.35H362V36.47A1.08,1.08,0,0,0,361.13,35.32Z"/><path class="cls-1" d="M374,16.25h3v16a6.9,6.9,0,0,0,1.72,5.13,6.66,6.66,0,0,0,4.91,1.82,10.22,10.22,0,0,0,3.56-.64,9.28,9.28,0,0,0,3-1.8l.11-.09-1.44-2.32a.88.88,0,0,0-.75-.48,1.58,1.58,0,0,0-.6.22,2.46,2.46,0,0,0-.34.22,1.74,1.74,0,0,1-.3.2,3.6,3.6,0,0,1-.9.41,4.68,4.68,0,0,1-1.26.2,2.81,2.81,0,0,1-2-.74,3.29,3.29,0,0,1-.74-2.39V16.3h7.58V12.59h-7.58V3.5h-2.51a1.23,1.23,0,0,0-.82.24.9.9,0,0,0-.38.74l-1,8.08-4.35.57v2a1.06,1.06,0,0,0,.32.91A1.28,1.28,0,0,0,374,16.25Z"/><path class="cls-1" d="M414.07,38.87h8.73v-2.4a1,1,0,0,0-.92-1.1c-1.08-.2-1.87-.38-2.39-.5l-.45-.1V21.84a6.24,6.24,0,0,1,1.67-4.59,5.25,5.25,0,0,1,3.86-1.52,4.93,4.93,0,0,1,3.85,1.57,6.62,6.62,0,0,1,1.32,4.59v17h8.73V36.47a1,1,0,0,0-.89-1.09c-.29-.1-1.14-.28-2.92-.61V21.84c0-3.28-.77-5.74-2.34-7.52a7.47,7.47,0,0,0-2.89-2,11.54,11.54,0,0,0-4.13-.69A9.35,9.35,0,0,0,420.62,13a8.1,8.1,0,0,0-3.34,3.86A8.85,8.85,0,0,0,415,13.21a6.54,6.54,0,0,0-4.49-1.56c-2.7,0-5.17,1.31-7.36,3.9l-.33-2.43a1.37,1.37,0,0,0-1.4-1h-6.64v2.35a1,1,0,0,0,.84,1.15c.29.09,1.14.27,2.92.6v18.6l-2.9.55a1,1,0,0,0-.86,1.15v2.35h12.49V36.47a1.07,1.07,0,0,0-.94-1.15,14.17,14.17,0,0,1-1.54-.32l-1.28-.23V19.07c1.75-2.25,3.63-3.34,5.74-3.34,3.27,0,4.86,2,4.86,6.11Z"/><path class="cls-1" d="M464.6,15.36a11.39,11.39,0,0,0-4.08-2.76,15.15,15.15,0,0,0-10.56,0,11.39,11.39,0,0,0-4.08,2.76,12.44,12.44,0,0,0-2.59,4.33,16,16,0,0,0-.85,5.7,16,16,0,0,0,.85,5.7,12.58,12.58,0,0,0,2.59,4.34A11.5,11.5,0,0,0,450,38.18a15.15,15.15,0,0,0,10.56,0,11.5,11.5,0,0,0,4.08-2.75,11.74,11.74,0,0,0,2.55-4.34,17.65,17.65,0,0,0,.89-5.7,17.59,17.59,0,0,0-.89-5.69A11.74,11.74,0,0,0,464.6,15.36Zm-9.36.27c2.6,0,4.53.85,5.72,2.54a12.48,12.48,0,0,1,1.91,7.27A12.49,12.49,0,0,1,461,32.72c-1.19,1.69-3.12,2.54-5.72,2.54a8.36,8.36,0,0,1-3.38-.71,5.8,5.8,0,0,1-2.34-1.84,8.36,8.36,0,0,1-1.44-3.07,16.83,16.83,0,0,1-.52-4.14,17.73,17.73,0,0,1,.52-4.25,8.49,8.49,0,0,1,1.44-3.08,6.17,6.17,0,0,1,2.34-1.93A8.27,8.27,0,0,1,455.24,15.63Z"/><path class="cls-1" d="M500.43,35.38c-.31-.11-1.25-.31-2.87-.61V12.07h-8.73v2.4a1.08,1.08,0,0,0,.92,1.15c1.49.28,2.45.48,2.84.59V31.7a9.39,9.39,0,0,1-6.83,3.56v0h-.16a5,5,0,0,1-4.06-1.56,6.92,6.92,0,0,1-1.32-4.6v-17h-8.78v2.35a1.12,1.12,0,0,0,.94,1.15c.34.11,1.34.32,2.82.6V29.1a11.13,11.13,0,0,0,2.33,7.37,8.42,8.42,0,0,0,6.71,2.82,11.51,11.51,0,0,0,8.66-4l.33,2.51a1.42,1.42,0,0,0,1.4,1.1h6.69v-2.4A1,1,0,0,0,500.43,35.38Z"/><path class="cls-1" d="M505,16.25h3v16a6.9,6.9,0,0,0,1.72,5.13,6.66,6.66,0,0,0,4.91,1.82,10.22,10.22,0,0,0,3.56-.64,9.43,9.43,0,0,0,3-1.8l.1-.09-1.44-2.32a.88.88,0,0,0-.76-.48,1.61,1.61,0,0,0-.59.22,2.46,2.46,0,0,0-.34.22,1.74,1.74,0,0,1-.3.2,3.6,3.6,0,0,1-.9.41,4.68,4.68,0,0,1-1.26.2,2.82,2.82,0,0,1-2-.74,3.29,3.29,0,0,1-.74-2.39V16.3h7.58V12.59h-7.58V3.5h-2.51a1.23,1.23,0,0,0-.82.24.9.9,0,0,0-.38.74l-1,8.08-4.35.57v2a1.06,1.06,0,0,0,.32.91A1.28,1.28,0,0,0,505,16.25Z"/><path class="cls-1" d="M526.14,3.55a32.77,32.77,0,0,0,3.34.61V34.77l-2.8.55a1.12,1.12,0,0,0-1,1.15v2.35h12.54V36.47a1.12,1.12,0,0,0-1-1.15c-.24-.06-1-.23-2.31-.47l-.49-.08V19.29c2.19-2.43,4.46-3.61,7-3.61,3.6,0,5.43,2.07,5.43,6.16v17h8.73V36.47a1.08,1.08,0,0,0-.9-1.15c-.31-.1-1.25-.3-2.87-.6V21.84a11.25,11.25,0,0,0-2.33-7.42,8.39,8.39,0,0,0-6.71-2.77,11.42,11.42,0,0,0-8.3,3.74V.05h-9.3V2.41A1.11,1.11,0,0,0,526.14,3.55Z"/><path class="cls-1" d="M609.31,20c0-11.28-7.47-18.86-18.6-18.86H573.26V3.45a1.12,1.12,0,0,0,1,1.15l2.8.6V34.77l-2.79.55a1.12,1.12,0,0,0-1,1.15v2.35h17.45C601.84,38.82,609.31,31.24,609.31,20ZM590.71,5.49c8.18,0,13.06,5.41,13.06,14.47s-4.88,14.47-13.06,14.47h-8.25V5.49Z"/><path class="cls-1" d="M626.87,36.42a1.16,1.16,0,0,0-.91-1.15l-2.85-.55V12.07h-8.73v2.35a1.16,1.16,0,0,0,.91,1.15l2.9.55v18.6l-2.9.55a1.16,1.16,0,0,0-.91,1.15v2.4h12.49Z"/><path class="cls-1" d="M618.24,6.33a3.77,3.77,0,0,0,1.09.76,2.71,2.71,0,0,0,1.32.28A2.78,2.78,0,0,0,622,7.09a3.85,3.85,0,0,0,1.84-1.84,3,3,0,0,0,.33-1.33,3.08,3.08,0,0,0-.33-1.38,4.05,4.05,0,0,0-.76-1.14A4.07,4.07,0,0,0,622,.64a2.9,2.9,0,0,0-1.33-.27,2.83,2.83,0,0,0-1.32.27,4,4,0,0,0-1.09.76,4.28,4.28,0,0,0-.76,1.14,3,3,0,0,0-.28,1.38,2.9,2.9,0,0,0,.28,1.33A3.85,3.85,0,0,0,618.24,6.33Z"/><path class="cls-1" d="M655.08,15.1V13.22h-7.32A10,10,0,0,0,645,12.07a12.25,12.25,0,0,0-2.85-.36l.11-.11h-.39a12.53,12.53,0,0,0-4.07.58,10.29,10.29,0,0,0-3.29,1.75,8.24,8.24,0,0,0-2.13,2.72,7.87,7.87,0,0,0-.75,3.57,8.19,8.19,0,0,0,1.12,4.31,8.37,8.37,0,0,0,2.91,2.85l-.14.08a6.39,6.39,0,0,0-1.12.74,8,8,0,0,0-1.12,1.17,3.82,3.82,0,0,0-.65,1.31l0,.21a3.47,3.47,0,0,0-.16,1,4.12,4.12,0,0,0,.71,2.44,4.28,4.28,0,0,0,1.5,1.3,8.24,8.24,0,0,0-3.17,2.11,5,5,0,0,0-1.29,3.45,5.35,5.35,0,0,0,.75,2.69,6.93,6.93,0,0,0,2.19,2.3,13.21,13.21,0,0,0,3.65,1.59,19.09,19.09,0,0,0,5.17.58,16.51,16.51,0,0,0,5.27-.74,12.62,12.62,0,0,0,3.92-2,9.91,9.91,0,0,0,2.54-2.87,7,7,0,0,0,.86-3.42,5,5,0,0,0-.76-3,5.79,5.79,0,0,0-2.1-1.88,11.56,11.56,0,0,0-2.91-1,22.45,22.45,0,0,0-2.45-.3l-.81-.07c-1.08-.1-2.2-.21-3.25-.21a21.45,21.45,0,0,1-2.85-.21,4.94,4.94,0,0,1-2-.66,1.34,1.34,0,0,1-.65-1.27,1.59,1.59,0,0,1,.38-1,4.5,4.5,0,0,1,1.15-1.08,12.67,12.67,0,0,0,3.48.46,11.94,11.94,0,0,0,4-.58A10.58,10.58,0,0,0,649,26.66,8,8,0,0,0,651.09,24a7.9,7.9,0,0,0,.75-3.57,7.93,7.93,0,0,0-.75-3.64l2.77-.39C654.87,16.14,655.08,15.55,655.08,15.1ZM642,25.75v-.1h-.16a6.64,6.64,0,0,1-2.35-.36,5,5,0,0,1-1.77-1.06,4.35,4.35,0,0,1-1.06-1.62,5.32,5.32,0,0,1-.41-2.08,4.94,4.94,0,0,1,1.42-3.75,7.09,7.09,0,0,1,8.35,0,5,5,0,0,1,1.46,3.75,6.62,6.62,0,0,1-.36,2.1,3.81,3.81,0,0,1-1,1.65,5.12,5.12,0,0,1-1.77,1.07A7.26,7.26,0,0,1,642,25.75Zm.05,19a15.92,15.92,0,0,1-3.31-.31,7.65,7.65,0,0,1-2.3-.87,3.62,3.62,0,0,1-1.36-1.25,2.89,2.89,0,0,1-.44-1.59,3.39,3.39,0,0,1,.89-2.35,7.91,7.91,0,0,1,2.37-1.66l.68.09a19.41,19.41,0,0,0,1.95.21l1.39.06c.45,0,.91,0,1.38,0,.93.05,1.78.16,2.6.26a10.74,10.74,0,0,1,2.11.46,3.18,3.18,0,0,1,1.44.9,2,2,0,0,1,.48,1.3h0v.16a3.16,3.16,0,0,1-.55,1.79,4.66,4.66,0,0,1-1.52,1.42,7.76,7.76,0,0,1-2.46,1A15.44,15.44,0,0,1,642.07,44.77Z"/><path class="cls-1" d="M672.11,36.42a1.16,1.16,0,0,0-.91-1.15l-2.85-.55V12.07h-8.73v2.35a1.17,1.17,0,0,0,.92,1.15l2.9.55v18.6l-2.91.55a1.17,1.17,0,0,0-.91,1.15v2.4h12.49Z"/><path class="cls-1" d="M663.48,6.33a3.91,3.91,0,0,0,1.09.76,3.28,3.28,0,0,0,2.65,0,3.91,3.91,0,0,0,1.09-.76,3.85,3.85,0,0,0,.76-1.08,3,3,0,0,0,.33-1.33,3.22,3.22,0,0,0-.33-1.38,4.28,4.28,0,0,0-.76-1.14,4.13,4.13,0,0,0-1.09-.76,3.39,3.39,0,0,0-2.65,0,4.13,4.13,0,0,0-1.09.76,4.28,4.28,0,0,0-.76,1.14,3.17,3.17,0,0,0-.28,1.38,2.9,2.9,0,0,0,.28,1.33A3.85,3.85,0,0,0,663.48,6.33Z"/><path class="cls-1" d="M693,36.8l.1-.09-1.43-2.32a.9.9,0,0,0-.76-.48,1.58,1.58,0,0,0-.6.22,2.46,2.46,0,0,0-.34.22,2.11,2.11,0,0,1-.29.2,3.82,3.82,0,0,1-.91.41,4.68,4.68,0,0,1-1.26.2,2.82,2.82,0,0,1-2-.74A3.29,3.29,0,0,1,684.7,32V16.3h7.58V12.59H684.7V3.5h-2.51a1.27,1.27,0,0,0-.82.24.9.9,0,0,0-.38.74l-1,8.08-4.35.57v2a1.09,1.09,0,0,0,.32.91,1.28,1.28,0,0,0,.83.24h3v16a6.9,6.9,0,0,0,1.72,5.13,6.67,6.67,0,0,0,4.92,1.82A10.2,10.2,0,0,0,690,38.6,9.43,9.43,0,0,0,693,36.8Z"/><path class="cls-1" d="M720.58,35.16l-.2,0v.09l-1.75-.38-.54-.11V21.63a13,13,0,0,0-.58-4.12,8.6,8.6,0,0,0-1.81-3.2,9.17,9.17,0,0,0-2.93-2,9.88,9.88,0,0,0-4-.74,14,14,0,0,0-5.7,1,15.87,15.87,0,0,0-4.75,3.17l-.09.09.89,1.56a2.35,2.35,0,0,0,.57.68,1.56,1.56,0,0,0,.93.24,2,2,0,0,0,1.3-.45c.25-.18.54-.35.85-.53l.66-.4a11.26,11.26,0,0,1,2-.93,7.48,7.48,0,0,1,2.81-.46,4.72,4.72,0,0,1,3.8,1.57,7,7,0,0,1,1.32,4.6v1.87a34.73,34.73,0,0,0-7.51.69,18,18,0,0,0-5.06,1.9,8.07,8.07,0,0,0-2.87,2.66A6,6,0,0,0,697,32a7.45,7.45,0,0,0,.59,3.21,6,6,0,0,0,4,3.53,8.52,8.52,0,0,0,2.87.48,11.41,11.41,0,0,0,2.86-.27,14.79,14.79,0,0,0,2.32-.79,8.55,8.55,0,0,0,2.13-1.28l.77-.62,1.12-.93.47,2.25c.11.44.23.82.63,1a3.55,3.55,0,0,0,1.14.22h5.59V36.31A1.16,1.16,0,0,0,720.58,35.16Zm-7.41-8.25v5.21a19.33,19.33,0,0,1-1.5,1.4,9.63,9.63,0,0,1-1.7,1.13,8.49,8.49,0,0,1-1.9.67,9.1,9.1,0,0,1-2.16.26,5.8,5.8,0,0,1-1.67-.26,3.92,3.92,0,0,1-1.31-.65,2.76,2.76,0,0,1-.89-1.19,4.3,4.3,0,0,1-.36-1.71,3.3,3.3,0,0,1,.61-1.9,4.5,4.5,0,0,1,2-1.51,15.43,15.43,0,0,1,3.62-1.09A31.48,31.48,0,0,1,713.17,26.91Z"/><path class="cls-1" d="M737.62,35.27c-.34-.11-1.34-.33-2.81-.61V0H726V2.41A1.06,1.06,0,0,0,727,3.5c.34.11,1.34.33,2.82.6V34.72l-2.8.55a1.12,1.12,0,0,0-1,1.15v2.4h12.54v-2.4A1.12,1.12,0,0,0,737.62,35.27Z"/><path class="cls-1" d="M305.5,55.7a1,1,0,0,0,.75,1.09c.41.1,1.42.31,3,.61V70H289.42V57.4c1.63-.29,2.69-.5,3.07-.61s.64-.48.64-1.09V53.34H280.22V55.7a1,1,0,0,0,.74,1.09c.41.1,1.43.31,3,.61V87l-2.85.55a1.09,1.09,0,0,0-.91,1.15v2.41h12.91V88.66c0-.42-.44-1-3.77-1.7V74h19.85V87l-2.8.55a1.12,1.12,0,0,0-1,1.15v2.41h13V88.66a1,1,0,0,0-.75-1.09c-.4-.11-1.42-.31-3-.61V57.4l2.9-.56a1.07,1.07,0,0,0,.91-1.14V53.34h-13Z"/><path class="cls-1" d="M328.11,59.34a2.83,2.83,0,0,0,1.32.28,2.87,2.87,0,0,0,1.33-.28,3.71,3.71,0,0,0,1.08-.76,3.93,3.93,0,0,0,.77-1.09,2.93,2.93,0,0,0,.33-1.32,3.15,3.15,0,0,0-.33-1.38,4.3,4.3,0,0,0-.77-1.14,3.71,3.71,0,0,0-1.08-.76,2.87,2.87,0,0,0-1.33-.28,2.83,2.83,0,0,0-1.32.28,3.91,3.91,0,0,0-1.09.76,4.28,4.28,0,0,0-.76,1.14,3,3,0,0,0-.28,1.38,2.83,2.83,0,0,0,.28,1.32,3.78,3.78,0,0,0,1.85,1.85Z"/><path class="cls-1" d="M334.74,87.51,331.89,87V64.31h-8.73v2.36a1.18,1.18,0,0,0,.92,1.15l2.9.55V87l-2.91.55a1.17,1.17,0,0,0-.91,1.15v2.41h12.49V88.66A1.16,1.16,0,0,0,334.74,87.51Z"/><path class="cls-1" d="M356.91,78a8.08,8.08,0,0,0-2.24-1.39l-2.51-.94c-.48-.18-1-.34-1.68-.52-.48-.14-1-.29-1.56-.47a6.33,6.33,0,0,1-3-1.79,2.62,2.62,0,0,1-.58-1.87,2.89,2.89,0,0,1,1.35-2.28,5.56,5.56,0,0,1,3.51-1.12h0a17.91,17.91,0,0,1,3.93.55l.3,3.35a.94.94,0,0,0,1.05.86h2.19V65.35l-.11,0a22.37,22.37,0,0,0-6.94-1.42c-3.25,0-5.69.76-7.47,2.33a6.91,6.91,0,0,0-2.57,5.45,6.13,6.13,0,0,0,2.26,5,10.09,10.09,0,0,0,2.38,1.48c.94.42,2.54.94,4.89,1.68a10.45,10.45,0,0,1,2.16.83,5.32,5.32,0,0,1,1.52,1.21,3.1,3.1,0,0,1,.59,2.09,3.35,3.35,0,0,1-1.31,2.54,5.93,5.93,0,0,1-4,1.27,12,12,0,0,1-5.23-1l-.31-3.28a.89.89,0,0,0-.94-.74h-2V90l.11,0a27.6,27.6,0,0,0,8.62,1.42,10.55,10.55,0,0,0,7.11-2.49,7.87,7.87,0,0,0,2.61-6.18A5.62,5.62,0,0,0,356.91,78Z"/><path class="cls-1" d="M377.66,86.15a1.65,1.65,0,0,0-.6.23,2.46,2.46,0,0,0-.34.22c-.09.06-.18.13-.3.2a3.55,3.55,0,0,1-.9.4,4.32,4.32,0,0,1-1.26.2,2.86,2.86,0,0,1-2-.73,3.31,3.31,0,0,1-.74-2.4V68.55h7.58V64.84h-7.58V55.75H369a1.23,1.23,0,0,0-.82.24.88.88,0,0,0-.38.73l-1,8.08-4.35.58v2a1.07,1.07,0,0,0,.32.91,1.28,1.28,0,0,0,.83.24h3v16a6.87,6.87,0,0,0,1.72,5.13,6.66,6.66,0,0,0,4.91,1.82,10.2,10.2,0,0,0,3.56-.63,9.28,9.28,0,0,0,3-1.81l.1-.09-1.44-2.31A.89.89,0,0,0,377.66,86.15Z"/><path class="cls-1" d="M405.83,67.6a11.68,11.68,0,0,0-4.08-2.75,15.18,15.18,0,0,0-10.57,0,11.5,11.5,0,0,0-4.08,2.75,12.58,12.58,0,0,0-2.59,4.34,16,16,0,0,0-.85,5.7,16,16,0,0,0,.85,5.7,12.44,12.44,0,0,0,2.59,4.33,11.39,11.39,0,0,0,4.08,2.76,15.18,15.18,0,0,0,10.57,0,11.57,11.57,0,0,0,4.08-2.76,11.87,11.87,0,0,0,2.54-4.34,18.47,18.47,0,0,0,0-11.39A11.87,11.87,0,0,0,405.83,67.6Zm-9.37.27c2.61,0,4.53.86,5.72,2.55a12.38,12.38,0,0,1,1.91,7.27A12.38,12.38,0,0,1,402.18,85c-1.19,1.69-3.11,2.55-5.72,2.55a8.21,8.21,0,0,1-3.38-.72A5.84,5.84,0,0,1,390.74,85a8.57,8.57,0,0,1-1.44-3.08,17.19,17.19,0,0,1-.51-4.14,18.16,18.16,0,0,1,.51-4.24,8.57,8.57,0,0,1,1.44-3.08,6.2,6.2,0,0,1,2.34-1.94A8.47,8.47,0,0,1,396.46,67.87Z"/><path class="cls-1" d="M430.11,63.79c-3.35,0-6,1.88-8,5.58l-.28-3.68a2,2,0,0,0-.46-1.07,1.4,1.4,0,0,0-1.1-.31H413.7v2.36a1.08,1.08,0,0,0,.9,1.14c.31.11,1.25.3,2.86.61V87l-2.85.55a1.1,1.1,0,0,0-.91,1.15v2.36h12.49V88.71a1.09,1.09,0,0,0-.91-1.15l-1.88-.35-1-.19V74.12c1.45-3.59,3.68-5.41,6.63-5.41a7.41,7.41,0,0,1,2.1.25,5,5,0,0,0,1.3.27c.39,0,.71-.31.84-.81l.59-3.61-.09-.06A7.17,7.17,0,0,0,430.11,63.79Z"/><path class="cls-1" d="M454.71,64.31v2.36a1,1,0,0,0,.86,1.15l.53.1c.52.09,1.23.22,2.16.43L452.64,82c-.18.43-.42,1.07-.67,1.86a12.76,12.76,0,0,0-.55-1.87l-5.83-13.61c1.44-.27,2.41-.48,2.73-.59a1,1,0,0,0,.91-1.09V64.26H437.06v2.41a1,1,0,0,0,.89,1.09,18.29,18.29,0,0,0,2.29.51l9.23,21.07L444.6,100h3.69a2,2,0,0,0,1.82-1.25l13.08-30.42c.15,0,.43-.08.95-.19l.27-.06.83-.19a4.78,4.78,0,0,1,.58-.13,1,1,0,0,0,.92-1.09V64.26l-2,0Z"/><path class="cls-1" d="M484.13,55.7a1,1,0,0,0,.75,1.09c.41.1,1.42.31,3,.61V87l-2.9.55a1,1,0,0,0-.86,1.15v2.41H497V88.66a1,1,0,0,0-.75-1.09c-.39-.1-1.34-.29-3.06-.61V57.4l2.9-.56A1.07,1.07,0,0,0,497,55.7V53.34H484.13Z"/><path class="cls-1" d="M530.84,87.52c-.32-.11-1.26-.31-2.87-.61V74a11.25,11.25,0,0,0-2.29-7.36,8.16,8.16,0,0,0-6.7-2.83,11.84,11.84,0,0,0-8.67,4l-.37-2.53a1.4,1.4,0,0,0-1.41-1h-6.64v2.36a1,1,0,0,0,.84,1.14c.29.1,1.14.27,2.92.61V87l-2.9.55a1,1,0,0,0-.86,1.15v2.36h12.49V88.71a1.07,1.07,0,0,0-.9-1.14c-1.12-.25-2.44-.54-2.91-.61V71.48c2.16-2.39,4.53-3.61,7.05-3.61,3.57,0,5.38,2.09,5.38,6.22v17h8.78V88.66A1.1,1.1,0,0,0,530.84,87.52Z"/><path class="cls-1" d="M547.8,87.51,545,87V64.31h-8.73v2.36a1.17,1.17,0,0,0,.91,1.15l2.9.55V87l-2.9.55a1.16,1.16,0,0,0-.91,1.15v2.41h12.49V88.66A1.16,1.16,0,0,0,547.8,87.51Z"/><path class="cls-1" d="M543.82,52.89a2.9,2.9,0,0,0-1.33-.28,2.83,2.83,0,0,0-1.32.28,3.77,3.77,0,0,0-1.09.76,4.05,4.05,0,0,0-.76,1.14,3,3,0,0,0-.28,1.38,2.83,2.83,0,0,0,.28,1.32,3.91,3.91,0,0,0,.76,1.09,3.77,3.77,0,0,0,1.09.76,2.83,2.83,0,0,0,1.32.28,2.9,2.9,0,0,0,1.33-.28,3.85,3.85,0,0,0,1.08-.76,3.91,3.91,0,0,0,.76-1.09,2.93,2.93,0,0,0,.33-1.32,3,3,0,0,0-.33-1.38,4.05,4.05,0,0,0-.76-1.14A3.85,3.85,0,0,0,543.82,52.89Z"/><path class="cls-1" d="M567.46,86.15a1.69,1.69,0,0,0-.59.23,2,2,0,0,0-.34.22c-.09.06-.18.13-.3.2a3.71,3.71,0,0,1-.9.4,4.32,4.32,0,0,1-1.26.2,2.83,2.83,0,0,1-2-.73,3.31,3.31,0,0,1-.74-2.4V68.55h7.58V64.84H561.3V55.75h-2.51A1.28,1.28,0,0,0,558,56a.87.87,0,0,0-.37.73l-1,8.08-4.35.58v2a1.07,1.07,0,0,0,.32.91,1.28,1.28,0,0,0,.83.24h3v16a6.91,6.91,0,0,0,1.72,5.13A6.68,6.68,0,0,0,563,91.48a10.2,10.2,0,0,0,3.56-.63,9.14,9.14,0,0,0,3-1.81l.1-.09-1.43-2.31A.92.92,0,0,0,567.46,86.15Z"/><path class="cls-1" d="M581.54,52.89a2.9,2.9,0,0,0-1.33-.28,2.83,2.83,0,0,0-1.32.28,3.77,3.77,0,0,0-1.09.76,4.28,4.28,0,0,0-.76,1.14,3,3,0,0,0-.28,1.38,2.83,2.83,0,0,0,.28,1.32,3.91,3.91,0,0,0,.76,1.09,3.77,3.77,0,0,0,1.09.76,2.83,2.83,0,0,0,1.32.28,2.9,2.9,0,0,0,1.33-.28,3.85,3.85,0,0,0,1.08-.76,3.91,3.91,0,0,0,.76-1.09,2.93,2.93,0,0,0,.33-1.32,3,3,0,0,0-.33-1.38,4.05,4.05,0,0,0-.76-1.14A3.85,3.85,0,0,0,581.54,52.89Z"/><path class="cls-1" d="M585.52,87.51,582.67,87V64.31h-8.73v2.36a1.17,1.17,0,0,0,.91,1.15l2.9.55V87l-2.9.55a1.16,1.16,0,0,0-.91,1.15v2.41h12.49V88.66A1.16,1.16,0,0,0,585.52,87.51Z"/><path class="cls-1" d="M614.1,87.41l-.19,0v.09c-.39-.1-1.1-.25-1.75-.38l-.55-.12V73.88a13.07,13.07,0,0,0-.58-4.13,8.42,8.42,0,0,0-1.81-3.19,8.66,8.66,0,0,0-2.93-2,9.63,9.63,0,0,0-4-.75,14.09,14.09,0,0,0-5.71,1.06A15.81,15.81,0,0,0,591.8,68l-.09.08.9,1.56a2.11,2.11,0,0,0,.57.69,1.52,1.52,0,0,0,.93.24,2,2,0,0,0,1.29-.45,8.32,8.32,0,0,1,.85-.54c.21-.12.43-.25.66-.4a11.64,11.64,0,0,1,2-.92,7.48,7.48,0,0,1,2.81-.46,4.75,4.75,0,0,1,3.8,1.56A7,7,0,0,1,606.8,74v1.88a35.35,35.35,0,0,0-7.5.68,17.79,17.79,0,0,0-5.06,1.9,8.22,8.22,0,0,0-2.88,2.67,6,6,0,0,0-.86,3.11,7.38,7.38,0,0,0,.59,3.2,7.18,7.18,0,0,0,1.6,2.25A7,7,0,0,0,595.1,91a8.32,8.32,0,0,0,2.87.48,12,12,0,0,0,2.86-.26,15.33,15.33,0,0,0,2.33-.8,8.9,8.9,0,0,0,2.13-1.27l.76-.63,1.12-.92.47,2.25c.11.44.23.81.63,1a3.62,3.62,0,0,0,1.15.21H615v-2.4A1.17,1.17,0,0,0,614.1,87.41Zm-7.4-8.25v5.2a19.47,19.47,0,0,1-1.51,1.41,9.63,9.63,0,0,1-1.7,1.13,8.49,8.49,0,0,1-1.9.67,9.05,9.05,0,0,1-2.15.25,5.8,5.8,0,0,1-1.68-.25,3.85,3.85,0,0,1-1.31-.66,2.73,2.73,0,0,1-.89-1.18,4.36,4.36,0,0,1-.35-1.72,3.31,3.31,0,0,1,.6-1.9,4.64,4.64,0,0,1,2-1.51,16,16,0,0,1,3.62-1.08A30.56,30.56,0,0,1,606.7,79.16Z"/><path class="cls-1" d="M632.25,86.15a1.65,1.65,0,0,0-.6.23,2.46,2.46,0,0,0-.34.22c-.09.06-.18.13-.3.2a3.55,3.55,0,0,1-.9.4,4.32,4.32,0,0,1-1.26.2,2.86,2.86,0,0,1-2-.73,3.31,3.31,0,0,1-.74-2.4V68.55h7.58V64.84h-7.58V55.75h-2.51a1.23,1.23,0,0,0-.82.24.88.88,0,0,0-.38.73l-1,8.08-4.35.58v2a1.07,1.07,0,0,0,.32.91,1.28,1.28,0,0,0,.83.24h3v16a6.87,6.87,0,0,0,1.72,5.13,6.67,6.67,0,0,0,4.92,1.82,10.19,10.19,0,0,0,3.55-.63,9.28,9.28,0,0,0,3-1.81l.1-.09L633,86.64A.89.89,0,0,0,632.25,86.15Z"/><path class="cls-1" d="M643.67,59.34a2.83,2.83,0,0,0,1.32.28,2.87,2.87,0,0,0,1.33-.28,3.91,3.91,0,0,0,1.09-.76,4.13,4.13,0,0,0,.76-1.09,2.93,2.93,0,0,0,.33-1.32,3.15,3.15,0,0,0-.33-1.38,4.53,4.53,0,0,0-.76-1.14,3.91,3.91,0,0,0-1.09-.76,2.87,2.87,0,0,0-1.33-.28,2.83,2.83,0,0,0-1.32.28,3.91,3.91,0,0,0-1.09.76,4.28,4.28,0,0,0-.76,1.14,3,3,0,0,0-.28,1.38,2.83,2.83,0,0,0,.28,1.32,3.78,3.78,0,0,0,1.85,1.85Z"/><path class="cls-1" d="M650.3,87.51,647.45,87V64.31h-8.73v2.36a1.18,1.18,0,0,0,.92,1.15l2.9.55V87l-2.91.55a1.17,1.17,0,0,0-.91,1.15v2.41h12.49V88.66A1.16,1.16,0,0,0,650.3,87.51Z"/><path class="cls-1" d="M672.47,66.67a1.09,1.09,0,0,0,.91,1.15l1.89.35.91.18-5.58,14a31.67,31.67,0,0,0-.88,3.08,18.59,18.59,0,0,0-.81-3.08l-5.52-14c.7-.13,1.27-.22,1.7-.29s.84-.14,1-.19a1.09,1.09,0,0,0,.91-1.15V64.31H654.81v2.41a1.09,1.09,0,0,0,1,1.15l.25,0c.2,0,.48.1.87.16a8.49,8.49,0,0,1,1.32.28l9.26,22.76h4.44l9.26-22.75,1.33-.28a9.28,9.28,0,0,1,1.14-.22,1,1,0,0,0,.91-1.1V64.31H672.47Z"/><path class="cls-1" d="M707.12,67a9.23,9.23,0,0,0-3.5-2.29,12.14,12.14,0,0,0-4.4-.79,12.73,12.73,0,0,0-5.18,1,11.46,11.46,0,0,0-4,2.81,12.87,12.87,0,0,0-2.49,4.23,14.89,14.89,0,0,0-.9,5.18,18.1,18.1,0,0,0,1,6.11,12.34,12.34,0,0,0,2.65,4.5,11.39,11.39,0,0,0,4.08,2.8,13.57,13.57,0,0,0,5.13,1,17.3,17.3,0,0,0,2.9-.26,17.9,17.9,0,0,0,2.84-.74,11.3,11.3,0,0,0,2.59-1.32A7.76,7.76,0,0,0,710,87.35l.08-.1-1.37-1.81a1.11,1.11,0,0,0-1-.54,2.19,2.19,0,0,0-1.13.44c-.41.26-.94.52-1.56.83a15.42,15.42,0,0,1-2.17.88,10.57,10.57,0,0,1-3,.35,8.51,8.51,0,0,1-3.28-.61A6.55,6.55,0,0,1,694,85a8.31,8.31,0,0,1-1.74-3,13.52,13.52,0,0,1-.62-4.18H709a1.35,1.35,0,0,0,1.07-.43,2.93,2.93,0,0,0,.24-1.56,15.07,15.07,0,0,0-.84-5.07A10.75,10.75,0,0,0,707.12,67Zm-7.84.68a7,7,0,0,1,2.81.51,6.12,6.12,0,0,1,2.08,1.48,6.79,6.79,0,0,1,1.23,2.29,8.76,8.76,0,0,1,.46,2.72h-14a9.3,9.3,0,0,1,2.34-5.17,6.68,6.68,0,0,1,4.77-1.87l-.05,0Z"/></g></svg>