<svg xmlns="http://www.w3.org/2000/svg" viewBox="0 0 115.78 100"><defs><style>.cls-1{fill:#232526;}</style></defs><g id="mark"><rect class="cls-1" x="9.76" y="29.47" width="6.8" height="6.8" transform="translate(46.1 19.92) rotate(90.36)"/><rect class="cls-1" x="19.92" y="29.53" width="6.8" height="6.8" transform="translate(56.39 9.82) rotate(90.36)"/><rect class="cls-1" x="30.07" y="29.6" width="6.8" height="6.8" transform="translate(66.67 -0.27) rotate(90.36)"/><rect class="cls-1" x="40.23" y="29.66" width="6.8" height="6.8" transform="translate(76.96 -10.37) rotate(90.36)"/><rect class="cls-1" x="50.39" y="29.72" width="6.8" height="6.8" transform="translate(87.24 -20.46) rotate(90.36)"/><rect class="cls-1" x="60.55" y="29.79" width="6.8" height="6.8" transform="translate(97.53 -30.56) rotate(90.36)"/><rect class="cls-1" x="70.71" y="29.85" width="6.8" height="6.8" transform="translate(107.81 -40.65) rotate(90.36)"/><rect class="cls-1" x="80.87" y="29.91" width="6.8" height="6.8" transform="translate(118.1 -50.75) rotate(90.36)"/><rect class="cls-1" x="91.03" y="29.97" width="6.8" height="6.8" transform="translate(128.38 -60.84) rotate(90.36)"/><rect class="cls-1" x="101.19" y="30.04" width="6.8" height="6.8" transform="translate(138.67 -70.94) rotate(90.36)"/><rect class="cls-1" x="19.98" y="19.45" width="6.8" height="6.8" transform="translate(46.37 -0.38) rotate(90.36)"/><rect class="cls-1" x="30.14" y="19.51" width="6.8" height="6.8" transform="translate(56.65 -10.48) rotate(90.36)"/><rect class="cls-1" x="50.45" y="19.64" width="6.8" height="6.8" transform="translate(77.22 -30.67) rotate(90.36)"/><rect class="cls-1" x="60.61" y="19.7" width="6.8" height="6.8" transform="translate(87.51 -40.77) rotate(90.36)"/><rect class="cls-1" x="70.77" y="19.77" width="6.8" height="6.8" transform="translate(97.79 -50.86) rotate(90.36)"/><rect class="cls-1" x="80.93" y="19.83" width="6.8" height="6.8" transform="translate(108.08 -60.96) rotate(90.36)"/><rect class="cls-1" x="101.25" y="19.96" width="6.8" height="6.8" transform="translate(128.65 -81.15) rotate(90.36)"/><rect class="cls-1" x="30.2" y="9.77" width="6.8" height="6.8" transform="translate(46.97 -20.35) rotate(90.36)"/><rect class="cls-1" x="60.67" y="9.96" width="6.8" height="6.8" transform="translate(77.82 -50.63) rotate(90.36)"/><rect class="cls-1" x="70.83" y="10.02" width="6.8" height="6.8" transform="translate(88.11 -60.73) rotate(90.36)"/><rect class="cls-1" x="30.26" y="0.02" width="6.8" height="6.8" transform="translate(37.28 -30.22) rotate(90.36)"/><rect class="cls-1" x="60.73" y="0.21" width="6.8" height="6.8" transform="translate(68.14 -60.5) rotate(90.36)"/><rect class="cls-1" x="70.89" y="0.27" width="6.8" height="6.8" transform="translate(78.42 -70.6) rotate(90.36)"/><rect class="cls-1" x="101.31" y="10.21" width="6.8" height="6.8" transform="translate(118.96 -91.01) rotate(90.36)"/></g><g id="typemark"><path class="cls-1" d="M29,97v2.7H21.9a1.61,1.61,0,0,1-1.58-1.23L20,95.66A11.75,11.75,0,0,1,10.82,100a9.38,9.38,0,0,1-7.91-3.73C1,93.71,0,90.11,0,85.56A16.16,16.16,0,0,1,3.3,75.07a11.07,11.07,0,0,1,9.05-4.28,10,10,0,0,1,7.29,2.88V63.19l-3.44-.62a1.2,1.2,0,0,1-1.06-1.26v-2.7H25V95.09c1.81.35,2.68.53,3,.63A1.14,1.14,0,0,1,29,97ZM19.64,91.5V78.3a7.4,7.4,0,0,0-6.13-3.1,6.87,6.87,0,0,0-5.87,2.63c-1.36,1.79-2,4.31-2,7.73,0,5.17,1.28,8.25,3.89,9.4a7.27,7.27,0,0,0,2.91.53h.12l.05.05C15.27,95.5,17.65,94.14,19.64,91.5ZM61.85,97v2.7H54.76a1.63,1.63,0,0,1-1.58-1.23l-.37-2.78A11.73,11.73,0,0,1,43.68,100a9.36,9.36,0,0,1-7.9-3.73c-1.94-2.56-2.92-6.16-2.92-10.71a16.16,16.16,0,0,1,3.3-10.49,11.07,11.07,0,0,1,9.06-4.28,10,10,0,0,1,7.29,2.88V63.19l-3.45-.62A1.19,1.19,0,0,1,48,61.31v-2.7H57.9V95.09c1.84.35,2.68.53,3,.63A1.13,1.13,0,0,1,61.85,97ZM52.51,91.5V78.3a7.42,7.42,0,0,0-6.14-3.1,6.9,6.9,0,0,0-5.87,2.63c-1.36,1.79-2,4.31-2,7.73,0,5.17,1.27,8.25,3.89,9.4a7.19,7.19,0,0,0,2.9.53h.12l0,.05C48.14,95.5,50.51,94.14,52.51,91.5ZM97,95.77c-.33-.11-1.29-.31-2.94-.62V81.72a11.88,11.88,0,0,0-2.48-7.86,8.91,8.91,0,0,0-7.13-3,12,12,0,0,0-8.6,3.77v-16h-10v2.59a1.28,1.28,0,0,0,1.07,1.31c.33.11,1.45.32,3.43.63v32l-2.85.56a1.29,1.29,0,0,0-1.1,1.31v2.59h13.4V97.08a1.29,1.29,0,0,0-1.09-1.31c-.26-.07-1.11-.25-2.44-.5l-.42-.07V79.09c2.26-2.51,4.61-3.73,7.18-3.73,3.71,0,5.59,2.14,5.59,6.36v18H98V97.08A1.24,1.24,0,0,0,97,95.77Zm9.53-30.26a4,4,0,0,0,1.17.83,3.06,3.06,0,0,0,1.44.3,3.1,3.1,0,0,0,1.45-.3,4.31,4.31,0,0,0,1.17-.83,4.19,4.19,0,0,0,.82-1.17,3.16,3.16,0,0,0,.36-1.44,3.48,3.48,0,0,0-.36-1.5,4.74,4.74,0,0,0-.82-1.22,4.08,4.08,0,0,0-1.17-.82,3.13,3.13,0,0,0-1.45-.31,3.09,3.09,0,0,0-1.44.31,3.82,3.82,0,0,0-1.17.82,4.28,4.28,0,0,0-.82,1.22,3.23,3.23,0,0,0-.31,1.5,3.06,3.06,0,0,0,.31,1.44A4,4,0,0,0,106.52,65.51Zm8.21,30.2-2.9-.56V71.34h-9.4v2.59a1.34,1.34,0,0,0,1,1.32l3,.56V95.15l-3,.56a1.34,1.34,0,0,0-1,1.32v2.64h13.35V97A1.34,1.34,0,0,0,114.73,95.71Z"/></g></svg>