<svg xmlns="http://www.w3.org/2000/svg" viewBox="0 0 210.22 100"><defs><style>.cls-1{fill:#232526;}</style></defs><g id="mark"><rect class="cls-1" x="0.58" y="32.81" width="7.57" height="7.57" transform="translate(40.98 32.46) rotate(90.36)"/><rect class="cls-1" x="11.89" y="32.88" width="7.57" height="7.57" transform="translate(52.43 21.22) rotate(90.36)"/><rect class="cls-1" x="23.2" y="32.95" width="7.57" height="7.57" transform="translate(63.88 9.98) rotate(90.36)"/><rect class="cls-1" x="34.51" y="33.02" width="7.57" height="7.57" transform="translate(75.33 -1.26) rotate(90.36)"/><rect class="cls-1" x="45.82" y="33.09" width="7.57" height="7.57" transform="translate(86.78 -12.5) rotate(90.36)"/><rect class="cls-1" x="57.13" y="33.16" width="7.57" height="7.57" transform="translate(98.23 -23.74) rotate(90.36)"/><rect class="cls-1" x="68.44" y="33.23" width="7.57" height="7.57" transform="translate(109.69 -34.98) rotate(90.36)"/><rect class="cls-1" x="79.75" y="33.3" width="7.57" height="7.57" transform="translate(121.14 -46.22) rotate(90.36)"/><rect class="cls-1" x="91.06" y="33.37" width="7.57" height="7.57" transform="translate(132.59 -57.46) rotate(90.36)"/><rect class="cls-1" x="102.37" y="33.44" width="7.57" height="7.57" transform="translate(144.04 -68.7) rotate(90.36)"/><rect class="cls-1" x="11.96" y="21.66" width="7.57" height="7.57" transform="translate(41.28 9.86) rotate(90.36)"/><rect class="cls-1" x="23.27" y="21.73" width="7.57" height="7.57" transform="translate(52.73 -1.38) rotate(90.36)"/><rect class="cls-1" x="45.89" y="21.87" width="7.57" height="7.57" transform="translate(75.63 -23.86) rotate(90.36)"/><rect class="cls-1" x="57.2" y="21.94" width="7.57" height="7.57" transform="translate(87.08 -35.1) rotate(90.36)"/><rect class="cls-1" x="68.51" y="22.01" width="7.57" height="7.57" transform="translate(98.53 -46.34) rotate(90.36)"/><rect class="cls-1" x="79.82" y="22.08" width="7.57" height="7.57" transform="translate(109.98 -57.58) rotate(90.36)"/><rect class="cls-1" x="102.44" y="22.22" width="7.57" height="7.57" transform="translate(132.88 -80.06) rotate(90.36)"/><rect class="cls-1" x="23.34" y="10.87" width="7.57" height="7.57" transform="translate(41.94 -12.37) rotate(90.36)"/><rect class="cls-1" x="57.27" y="11.09" width="7.57" height="7.57" transform="translate(76.3 -46.09) rotate(90.36)"/><rect class="cls-1" x="68.58" y="11.16" width="7.57" height="7.57" transform="translate(87.75 -57.33) rotate(90.36)"/><rect class="cls-1" x="23.4" y="0.02" width="7.57" height="7.57" transform="translate(31.16 -23.36) rotate(90.36)"/><rect class="cls-1" x="57.33" y="0.23" width="7.57" height="7.57" transform="translate(65.51 -57.07) rotate(90.36)"/><rect class="cls-1" x="68.64" y="0.3" width="7.57" height="7.57" transform="translate(76.96 -68.31) rotate(90.36)"/><rect class="cls-1" x="102.51" y="11.37" width="7.57" height="7.57" transform="translate(122.1 -91.05) rotate(90.36)"/></g><g id="typemark"><path class="cls-1" d="M16.56,63.29c0-5.17-3.43-8.65-8.53-8.65H0v1.08a.51.51,0,0,0,.44.52l1.29.28V70.08l-1.28.25a.53.53,0,0,0-.45.53v1.08H8C13.13,71.94,16.56,68.46,16.56,63.29ZM8,56.65c3.75,0,6,2.48,6,6.64s-2.24,6.64-6,6.64H4.24V56.65Z"/><path class="cls-1" d="M29.67,70.79a.54.54,0,0,0-.42-.53l-.09,0v.05c-.17-.05-.5-.12-.8-.18l-.25,0v-6a6,6,0,0,0-.27-1.9A3.83,3.83,0,0,0,27,60.7a4.09,4.09,0,0,0-1.34-.93,4.6,4.6,0,0,0-1.85-.34,6.38,6.38,0,0,0-2.62.49A7.16,7.16,0,0,0,19,61.37l0,0,.41.71a1,1,0,0,0,.26.32.76.76,0,0,0,.43.11.92.92,0,0,0,.6-.21,3.33,3.33,0,0,1,.39-.24l.3-.19a4.76,4.76,0,0,1,.9-.42,3.45,3.45,0,0,1,1.29-.21A2.16,2.16,0,0,1,25.3,62a3.19,3.19,0,0,1,.6,2.1V65a15.72,15.72,0,0,0-3.44.31,8.43,8.43,0,0,0-2.32.87,3.82,3.82,0,0,0-1.32,1.22,2.72,2.72,0,0,0-.39,1.43,3.2,3.2,0,0,0,1,2.5,3.23,3.23,0,0,0,1.11.59,3.79,3.79,0,0,0,1.31.22A5.75,5.75,0,0,0,23.17,72a7.07,7.07,0,0,0,1.06-.37,3.9,3.9,0,0,0,1-.58l.35-.29.51-.42.22,1c.05.2.11.37.29.43a1.6,1.6,0,0,0,.52.1h2.57Zm-3.82-4.31v2.39a8.18,8.18,0,0,1-.69.64,4.47,4.47,0,0,1-.77.52,4.54,4.54,0,0,1-1.86.42,2.92,2.92,0,0,1-.77-.11,1.88,1.88,0,0,1-.6-.3,1.27,1.27,0,0,1-.41-.55,1.92,1.92,0,0,1-.16-.79,1.51,1.51,0,0,1,.27-.87,2.21,2.21,0,0,1,.93-.69,7.64,7.64,0,0,1,1.66-.5A14,14,0,0,1,25.85,66.48Z"/><path class="cls-1" d="M37.11,70.33l-.87-.16-.44-.09V64.17c.66-1.65,1.69-2.48,3-2.48a3.29,3.29,0,0,1,1,.11,2.17,2.17,0,0,0,.6.13.42.42,0,0,0,.38-.38l.28-1.65-.05,0a3.25,3.25,0,0,0-1.69-.44A4.1,4.1,0,0,0,35.66,62l-.12-1.69a1,1,0,0,0-.22-.49.63.63,0,0,0-.5-.14h-3v1.08a.49.49,0,0,0,.41.52c.14,0,.57.14,1.31.28v8.53l-1.3.25a.5.5,0,0,0-.42.53v1.08h5.73V70.86A.51.51,0,0,0,37.11,70.33Z"/><path class="cls-1" d="M43,61.59H44.4v7.35a3.17,3.17,0,0,0,.79,2.36,3.07,3.07,0,0,0,2.26.83,4.64,4.64,0,0,0,1.63-.29A4.26,4.26,0,0,0,50.44,71l.05,0-.66-1.06a.41.41,0,0,0-.35-.22.83.83,0,0,0-.27.1l-.16.1-.13.09a1.56,1.56,0,0,1-.42.19,2.13,2.13,0,0,1-.57.09,1.3,1.3,0,0,1-.94-.34,1.52,1.52,0,0,1-.33-1.1V61.61h3.47v-1.7H46.66V55.74H45.51a.56.56,0,0,0-.38.11.41.41,0,0,0-.18.34l-.47,3.7-2,.27v.9a.5.5,0,0,0,.15.42A.59.59,0,0,0,43,61.59Z"/><path class="cls-1" d="M61.39,72h4v-1.1a.47.47,0,0,0-.42-.5l-1.09-.23-.21,0V64.15a2.86,2.86,0,0,1,.77-2.1,2.38,2.38,0,0,1,1.77-.7,2.25,2.25,0,0,1,1.76.72,3,3,0,0,1,.61,2.11V72h4V70.86a.47.47,0,0,0-.41-.5c-.13,0-.52-.12-1.34-.28V64.15a5,5,0,0,0-1.07-3.45,3.31,3.31,0,0,0-1.32-.9,5.33,5.33,0,0,0-1.9-.32,4.3,4.3,0,0,0-2.14.63,3.73,3.73,0,0,0-1.54,1.77,4,4,0,0,0-1.06-1.69,3,3,0,0,0-2.06-.71,4.41,4.41,0,0,0-3.38,1.79l-.15-1.12a.62.62,0,0,0-.64-.48h-3v1.08a.47.47,0,0,0,.39.52,12.36,12.36,0,0,0,1.34.28v8.53l-1.33.25a.48.48,0,0,0-.4.53v1.08h5.73V70.86a.5.5,0,0,0-.43-.53,5.62,5.62,0,0,1-.7-.14l-.59-.11v-7.2a3.32,3.32,0,0,1,2.63-1.53c1.5,0,2.23.92,2.23,2.8Z"/><path class="cls-1" d="M84.57,61.18a5.28,5.28,0,0,0-1.87-1.26,6.9,6.9,0,0,0-4.85,0A5.28,5.28,0,0,0,76,61.18a6,6,0,0,0-1.19,2,8.93,8.93,0,0,0,0,5.22,5.82,5.82,0,0,0,1.19,2,5.31,5.31,0,0,0,1.87,1.27,7.05,7.05,0,0,0,4.85,0,5.15,5.15,0,0,0,3-3.26,8.32,8.32,0,0,0,0-5.22A5.26,5.26,0,0,0,84.57,61.18Zm-4.3.12a3,3,0,0,1,2.63,1.17,6.83,6.83,0,0,1,0,6.67,3,3,0,0,1-2.63,1.17A3.79,3.79,0,0,1,78.72,70a2.71,2.71,0,0,1-1.07-.84A3.82,3.82,0,0,1,77,67.73a7.73,7.73,0,0,1-.24-1.9A8,8,0,0,1,77,63.88a3.82,3.82,0,0,1,.66-1.41,2.89,2.89,0,0,1,1.07-.89A3.94,3.94,0,0,1,80.27,61.3Z"/><path class="cls-1" d="M101,70.36c-.14,0-.58-.14-1.32-.28V59.67h-4v1.1a.49.49,0,0,0,.42.53c.69.13,1.12.22,1.31.27v7.11a4.34,4.34,0,0,1-3.14,1.63v0H94.2a2.33,2.33,0,0,1-1.87-.71,3.2,3.2,0,0,1-.6-2.11V59.67h-4v1.08a.51.51,0,0,0,.43.52,10.61,10.61,0,0,0,1.3.28v5.93a5.11,5.11,0,0,0,1.07,3.38,3.85,3.85,0,0,0,3.07,1.3,5.33,5.33,0,0,0,4-1.85l.15,1.15a.64.64,0,0,0,.64.5h3.07v-1.1A.47.47,0,0,0,101,70.36Z"/><path class="cls-1" d="M103.09,61.59h1.38v7.35a3.17,3.17,0,0,0,.79,2.36,3.1,3.1,0,0,0,2.26.83,4.6,4.6,0,0,0,1.63-.29,4.16,4.16,0,0,0,1.36-.83l0,0-.66-1.06a.41.41,0,0,0-.34-.22.86.86,0,0,0-.28.1l-.15.1L109,70a1.66,1.66,0,0,1-.41.19,2.28,2.28,0,0,1-.58.09,1.29,1.29,0,0,1-.93-.34,1.48,1.48,0,0,1-.34-1.1V61.61h3.47v-1.7h-3.47V55.74h-1.15a.56.56,0,0,0-.38.11.4.4,0,0,0-.17.34l-.48,3.7-2,.27v.9a.5.5,0,0,0,.15.42A.56.56,0,0,0,103.09,61.59Z"/><path class="cls-1" d="M112.79,55.76c.15.05.65.14,1.53.28v14l-1.28.25a.52.52,0,0,0-.44.53v1.08h5.75V70.86a.5.5,0,0,0-.44-.52c-.11,0-.48-.11-1.06-.22l-.22,0V63a4.25,4.25,0,0,1,3.18-1.65c1.65,0,2.49,1,2.49,2.82v7.79h4V70.86a.49.49,0,0,0-.41-.52c-.15,0-.58-.14-1.32-.28V64.15a5.16,5.16,0,0,0-1.07-3.4,3.86,3.86,0,0,0-3.08-1.27,5.23,5.23,0,0,0-3.8,1.71v-7h-4.27v1.08A.5.5,0,0,0,112.79,55.76Z"/><path class="cls-1" d="M150.94,63.29c0-5.17-3.43-8.65-8.53-8.65h-8v1.08a.51.51,0,0,0,.44.52l1.29.28V70.08l-1.28.25a.53.53,0,0,0-.45.53v1.08h8C147.51,71.94,150.94,68.46,150.94,63.29Zm-8.53-6.64c3.75,0,6,2.48,6,6.64s-2.24,6.64-6,6.64h-3.79V56.65Z"/><path class="cls-1" d="M159,70.84a.54.54,0,0,0-.42-.53l-1.3-.25V59.67h-4v1.08a.54.54,0,0,0,.42.53l1.33.25v8.53l-1.33.25a.54.54,0,0,0-.42.53v1.1H159Z"/><path class="cls-1" d="M155,57a1.93,1.93,0,0,0,.5.35,1.28,1.28,0,0,0,.61.13,1.31,1.31,0,0,0,.61-.13,1.86,1.86,0,0,0,.49-.35,1.54,1.54,0,0,0,.35-.5,1.34,1.34,0,0,0,.15-.61,1.42,1.42,0,0,0-.15-.63,1.76,1.76,0,0,0-.35-.52,1.86,1.86,0,0,0-.49-.35,1.31,1.31,0,0,0-.61-.13,1.28,1.28,0,0,0-.61.13,1.93,1.93,0,0,0-.5.35,2.25,2.25,0,0,0-.35.52,1.48,1.48,0,0,0-.12.63,1.38,1.38,0,0,0,.12.61A1.93,1.93,0,0,0,155,57Z"/><path class="cls-1" d="M171.93,61.06V60.2h-3.36a4.71,4.71,0,0,0-1.25-.53,5.69,5.69,0,0,0-1.3-.17l0,0h-.18a5.85,5.85,0,0,0-1.87.27,4.73,4.73,0,0,0-1.51.81,3.75,3.75,0,0,0-1,1.24,3.64,3.64,0,0,0-.35,1.64A3.66,3.66,0,0,0,163,66.69l-.07,0a3.77,3.77,0,0,0-.51.34,3.58,3.58,0,0,0-.51.54,1.69,1.69,0,0,0-.3.6l0,.09a1.63,1.63,0,0,0-.08.45,1.88,1.88,0,0,0,.33,1.12,2,2,0,0,0,.69.6,3.59,3.59,0,0,0-1.45,1,2.26,2.26,0,0,0-.6,1.58,2.4,2.4,0,0,0,.35,1.23,3.14,3.14,0,0,0,1,1.06,6,6,0,0,0,1.68.72,8.6,8.6,0,0,0,2.36.27,7.51,7.51,0,0,0,2.42-.34,5.62,5.62,0,0,0,1.8-.92,4.42,4.42,0,0,0,1.17-1.32,3.2,3.2,0,0,0,.39-1.56,2.28,2.28,0,0,0-.35-1.39,2.67,2.67,0,0,0-1-.86,5.27,5.27,0,0,0-1.34-.44,10.37,10.37,0,0,0-1.12-.13l-.37,0c-.5,0-1-.09-1.49-.09a10,10,0,0,1-1.31-.1,2.28,2.28,0,0,1-.91-.3.62.62,0,0,1-.3-.58.75.75,0,0,1,.18-.49,1.89,1.89,0,0,1,.53-.49,5.87,5.87,0,0,0,1.59.21,5.6,5.6,0,0,0,1.85-.27,4.92,4.92,0,0,0,1.46-.82,3.86,3.86,0,0,0,.95-1.25,3.64,3.64,0,0,0,.34-1.64,3.71,3.71,0,0,0-.34-1.67l1.27-.17C171.83,61.54,171.93,61.27,171.93,61.06Zm-6,4.89v0h-.07a3.15,3.15,0,0,1-1.08-.16,2.45,2.45,0,0,1-.82-.49,2.13,2.13,0,0,1-.48-.74,2.53,2.53,0,0,1-.19-1,2.28,2.28,0,0,1,.65-1.72,3.27,3.27,0,0,1,3.83,0,2.26,2.26,0,0,1,.67,1.72,3,3,0,0,1-.16,1,1.8,1.8,0,0,1-.48.76,2.3,2.3,0,0,1-.82.49A3.26,3.26,0,0,1,165.94,66Zm0,8.72a7.5,7.5,0,0,1-1.52-.14,3.83,3.83,0,0,1-1.05-.4,1.67,1.67,0,0,1-.62-.58,1.26,1.26,0,0,1-.21-.72,1.56,1.56,0,0,1,.41-1.08,3.7,3.7,0,0,1,1.09-.77l.31,0c.29,0,.58.08.89.1l.64,0,.63,0c.43,0,.82.08,1.2.12a5,5,0,0,1,1,.22,1.44,1.44,0,0,1,.67.41.94.94,0,0,1,.22.59h0v.08a1.42,1.42,0,0,1-.26.82,2.17,2.17,0,0,1-.69.65,3.37,3.37,0,0,1-1.13.44A6.81,6.81,0,0,1,166,74.67Z"/><path class="cls-1" d="M179.74,70.84a.54.54,0,0,0-.42-.53l-1.3-.25V59.67h-4v1.08a.54.54,0,0,0,.42.53l1.33.25v8.53l-1.33.25a.54.54,0,0,0-.42.53v1.1h5.73Z"/><path class="cls-1" d="M175.78,57a2.11,2.11,0,0,0,.5.35,1.5,1.5,0,0,0,1.22,0A2.11,2.11,0,0,0,178,57a1.69,1.69,0,0,0,.34-.5,1.35,1.35,0,0,0,.16-.61,1.44,1.44,0,0,0-.16-.63,2,2,0,0,0-.34-.52,2.11,2.11,0,0,0-.5-.35,1.5,1.5,0,0,0-1.22,0,2.11,2.11,0,0,0-.5.35,2.25,2.25,0,0,0-.35.52,1.48,1.48,0,0,0-.12.63,1.38,1.38,0,0,0,.12.61A1.93,1.93,0,0,0,175.78,57Z"/><path class="cls-1" d="M189.3,71l0,0-.66-1.06a.41.41,0,0,0-.35-.22.83.83,0,0,0-.27.1l-.16.1-.13.09a1.56,1.56,0,0,1-.42.19,2.14,2.14,0,0,1-.58.09,1.29,1.29,0,0,1-.93-.34,1.52,1.52,0,0,1-.33-1.1V61.61H189v-1.7h-3.47V55.74h-1.16a.54.54,0,0,0-.37.11.41.41,0,0,0-.18.34l-.47,3.7-2,.27v.9a.5.5,0,0,0,.15.42.59.59,0,0,0,.38.11h1.39v7.35a3.17,3.17,0,0,0,.79,2.36,3.07,3.07,0,0,0,2.26.83,4.64,4.64,0,0,0,1.63-.29A4.26,4.26,0,0,0,189.3,71Z"/><path class="cls-1" d="M202,70.26l-.09,0v.05l-.8-.18-.25,0v-6a6,6,0,0,0-.27-1.9,3.83,3.83,0,0,0-.83-1.46,4.09,4.09,0,0,0-1.34-.93,4.6,4.6,0,0,0-1.85-.34,6.38,6.38,0,0,0-2.62.49,7.16,7.16,0,0,0-2.18,1.45l0,0,.41.71a1,1,0,0,0,.26.32.74.74,0,0,0,.43.11.89.89,0,0,0,.59-.21l.39-.24.3-.19a5.43,5.43,0,0,1,.9-.42,3.52,3.52,0,0,1,1.29-.21A2.17,2.17,0,0,1,198,62a3.19,3.19,0,0,1,.6,2.1V65a15.72,15.72,0,0,0-3.44.31,8.31,8.31,0,0,0-2.32.87,3.82,3.82,0,0,0-1.32,1.22,2.72,2.72,0,0,0-.39,1.43,2.91,2.91,0,0,0,2.1,3.09,3.89,3.89,0,0,0,1.32.22,5.6,5.6,0,0,0,1.31-.12,6.8,6.8,0,0,0,1.07-.37,4.09,4.09,0,0,0,1-.58l.35-.29.51-.42.22,1c.05.2.1.37.28.43a1.72,1.72,0,0,0,.53.1h2.56v-1.1A.54.54,0,0,0,202,70.26Zm-3.4-3.78v2.39a8.18,8.18,0,0,1-.69.64,4.22,4.22,0,0,1-.78.52,3.56,3.56,0,0,1-.87.3,3.78,3.78,0,0,1-1,.12,3,3,0,0,1-.77-.11,2.11,2.11,0,0,1-.6-.3,1.25,1.25,0,0,1-.4-.55,1.92,1.92,0,0,1-.17-.79,1.52,1.52,0,0,1,.28-.87,2.21,2.21,0,0,1,.93-.69,7.64,7.64,0,0,1,1.66-.5A14,14,0,0,1,198.57,66.48Z"/><path class="cls-1" d="M209.79,70.31c-.16,0-.62-.15-1.29-.28V54.14h-4v1.1a.49.49,0,0,0,.43.5c.16,0,.62.15,1.29.28v14l-1.28.25a.51.51,0,0,0-.44.53v1.1h5.75v-1.1A.51.51,0,0,0,209.79,70.31Z"/><path class="cls-1" d="M11.6,79.68a.45.45,0,0,0,.34.5c.19,0,.65.14,1.38.28v5.78H4.22V80.46c.75-.13,1.23-.23,1.41-.28s.29-.22.29-.5V78.6H0v1.08a.46.46,0,0,0,.34.5c.19,0,.65.14,1.39.28V94l-1.31.25A.5.5,0,0,0,0,94.8v1.1H5.92V94.8c0-.19-.2-.45-1.72-.78V88.09h9.1V94L12,94.27a.53.53,0,0,0-.45.53v1.1h5.95V94.8a.46.46,0,0,0-.35-.5c-.18,0-.65-.14-1.38-.28V80.46l1.33-.25a.5.5,0,0,0,.42-.53V78.6H11.6Z"/><path class="cls-1" d="M22,81.35a1.24,1.24,0,0,0,.6.13,1.28,1.28,0,0,0,.61-.13,1.71,1.71,0,0,0,.5-.35,1.77,1.77,0,0,0,.35-.5,1.33,1.33,0,0,0,.15-.6,1.43,1.43,0,0,0-.15-.64,2.15,2.15,0,0,0-.35-.52,1.93,1.93,0,0,0-.5-.35,1.28,1.28,0,0,0-.61-.12,1.24,1.24,0,0,0-.6.12,1.77,1.77,0,0,0-.5.35,1.9,1.9,0,0,0-.35.52,1.38,1.38,0,0,0-.13.64,1.24,1.24,0,0,0,.13.6,1.76,1.76,0,0,0,.85.85Z"/><path class="cls-1" d="M25,94.27,23.7,94V83.63h-4v1.08a.54.54,0,0,0,.42.53l1.33.25V94l-1.34.25a.54.54,0,0,0-.41.53v1.1h5.73V94.8A.55.55,0,0,0,25,94.27Z"/><path class="cls-1" d="M35.18,89.93a3.65,3.65,0,0,0-1-.64L33,88.86c-.22-.08-.48-.16-.77-.24s-.46-.13-.72-.22a2.81,2.81,0,0,1-1.36-.82,1.15,1.15,0,0,1-.27-.86,1.32,1.32,0,0,1,.62-1,2.56,2.56,0,0,1,1.61-.51h0a8.14,8.14,0,0,1,1.8.25L34.07,87a.44.44,0,0,0,.48.4h1V84.11l-.05,0a10.4,10.4,0,0,0-3.18-.65,5,5,0,0,0-3.43,1.07A3.2,3.2,0,0,0,27.72,87a2.8,2.8,0,0,0,1,2.31,4.42,4.42,0,0,0,1.09.68c.43.19,1.17.43,2.24.77a4.54,4.54,0,0,1,1,.38,2.36,2.36,0,0,1,.7.56,1.41,1.41,0,0,1,.27,1,1.53,1.53,0,0,1-.6,1.16,2.72,2.72,0,0,1-1.82.58,5.56,5.56,0,0,1-2.4-.45l-.14-1.5a.42.42,0,0,0-.43-.35h-.94V95.4l.05,0a12.59,12.59,0,0,0,4,.65A4.88,4.88,0,0,0,35,94.93a3.63,3.63,0,0,0,1.19-2.84A2.59,2.59,0,0,0,35.18,89.93Z"/><path class="cls-1" d="M44.69,93.65a.83.83,0,0,0-.27.1l-.16.1-.13.1a2.12,2.12,0,0,1-.42.18,1.86,1.86,0,0,1-.58.09,1.33,1.33,0,0,1-.93-.33,1.56,1.56,0,0,1-.34-1.1V85.58h3.48V83.87H41.86V79.7H40.71a.66.66,0,0,0-.38.11.44.44,0,0,0-.17.34l-.47,3.71-2,.26V85a.48.48,0,0,0,.15.42.59.59,0,0,0,.38.11h1.39v7.36a3.16,3.16,0,0,0,.79,2.35,3.06,3.06,0,0,0,2.25.83,4.6,4.6,0,0,0,1.63-.29A4.13,4.13,0,0,0,45.65,95l0,0L45,93.87A.42.42,0,0,0,44.69,93.65Z"/><path class="cls-1" d="M57.61,85.14a5.28,5.28,0,0,0-1.87-1.26,6.9,6.9,0,0,0-4.85,0A5.28,5.28,0,0,0,49,85.14a6,6,0,0,0-1.19,2,9,9,0,0,0,0,5.23,6,6,0,0,0,1.19,2,5.42,5.42,0,0,0,1.87,1.26,6.9,6.9,0,0,0,4.85,0,5.42,5.42,0,0,0,1.87-1.26,5.58,5.58,0,0,0,1.17-2,8.54,8.54,0,0,0,0-5.23A5.41,5.41,0,0,0,57.61,85.14Zm-4.29.12a3,3,0,0,1,2.62,1.17,6.83,6.83,0,0,1,0,6.67,3,3,0,0,1-2.62,1.17,3.83,3.83,0,0,1-1.56-.33,2.63,2.63,0,0,1-1.07-.84A4.07,4.07,0,0,1,50,91.69a7.73,7.73,0,0,1-.24-1.9,8.53,8.53,0,0,1,.24-2,4.16,4.16,0,0,1,.66-1.41,2.86,2.86,0,0,1,1.07-.88A3.81,3.81,0,0,1,53.32,85.26Z"/><path class="cls-1" d="M68.75,83.39A4.08,4.08,0,0,0,65.09,86L65,84.26a1,1,0,0,0-.21-.49.69.69,0,0,0-.51-.14h-3v1.08a.51.51,0,0,0,.41.53c.15,0,.58.14,1.32.28V94l-1.31.26a.49.49,0,0,0-.42.52V95.9H67V94.82a.49.49,0,0,0-.42-.52l-.86-.17-.44-.08V88.13c.66-1.65,1.68-2.48,3-2.48a3.73,3.73,0,0,1,1,.11,2.1,2.1,0,0,0,.6.13c.17,0,.32-.14.38-.38l.27-1.65,0,0A3.27,3.27,0,0,0,68.75,83.39Z"/><path class="cls-1" d="M80,83.63v1.08a.48.48,0,0,0,.4.53l.24,0,1,.2-2.58,6.25c-.08.2-.19.49-.31.85a5.28,5.28,0,0,0-.25-.85l-2.67-6.24c.66-.13,1.1-.23,1.25-.28a.47.47,0,0,0,.42-.5v-1.1H71.93v1.1a.47.47,0,0,0,.41.5,8.28,8.28,0,0,0,1,.24l4.24,9.66L75.39,100h1.7a.88.88,0,0,0,.83-.57l6-14,.44-.09.12,0,.38-.09.27-.06a.47.47,0,0,0,.42-.5v-1.1l-.94,0Z"/><path class="cls-1" d="M93.52,79.68a.46.46,0,0,0,.35.5c.18,0,.65.14,1.38.28V94l-1.33.25a.48.48,0,0,0-.4.53v1.1h5.92V94.8a.45.45,0,0,0-.34-.5c-.18,0-.61-.13-1.4-.28V80.46L99,80.21a.5.5,0,0,0,.41-.53V78.6H93.52Z"/><path class="cls-1" d="M114.94,94.27c-.14,0-.57-.13-1.31-.27V88.09a5.16,5.16,0,0,0-1-3.38,3.73,3.73,0,0,0-3.07-1.29,5.43,5.43,0,0,0-4,1.85l-.17-1.16a.63.63,0,0,0-.65-.48h-3v1.08a.48.48,0,0,0,.39.53c.13,0,.52.12,1.34.28V94l-1.34.26a.46.46,0,0,0-.39.52V95.9h5.73V94.82a.49.49,0,0,0-.42-.52c-.51-.12-1.12-.25-1.33-.28v-7.1a4.36,4.36,0,0,1,3.23-1.66c1.64,0,2.47,1,2.47,2.85V95.9h4V94.8A.53.53,0,0,0,114.94,94.27Z"/><path class="cls-1" d="M122.72,94.27l-1.3-.25V83.63h-4v1.08a.55.55,0,0,0,.42.53l1.33.25V94l-1.33.25a.55.55,0,0,0-.42.53v1.1h5.73V94.8A.54.54,0,0,0,122.72,94.27Z"/><path class="cls-1" d="M120.9,78.39a1.61,1.61,0,0,0-1.22,0,1.63,1.63,0,0,0-.84.87,1.38,1.38,0,0,0-.13.64,1.24,1.24,0,0,0,.13.6,1.57,1.57,0,0,0,.34.5,1.86,1.86,0,0,0,.5.35,1.5,1.5,0,0,0,1.22,0,1.86,1.86,0,0,0,.5-.35,1.77,1.77,0,0,0,.35-.5,1.33,1.33,0,0,0,.15-.6,1.58,1.58,0,0,0-.15-.64,2.49,2.49,0,0,0-.35-.52A2.11,2.11,0,0,0,120.9,78.39Z"/><path class="cls-1" d="M131.74,93.65a.83.83,0,0,0-.27.1l-.16.1-.13.1a2.05,2.05,0,0,1-.41.18,1.91,1.91,0,0,1-.58.09,1.3,1.3,0,0,1-.93-.33,1.51,1.51,0,0,1-.34-1.1V85.58h3.47V83.87h-3.47V79.7h-1.15a.61.61,0,0,0-.38.11.42.42,0,0,0-.18.34l-.47,3.71-2,.26V85c0,.21,0,.35.15.42a.54.54,0,0,0,.37.11h1.39v7.36a3.16,3.16,0,0,0,.79,2.35,3.08,3.08,0,0,0,2.26.83,4.64,4.64,0,0,0,1.63-.29A4,4,0,0,0,132.7,95l.05,0-.66-1.06A.41.41,0,0,0,131.74,93.65Z"/><path class="cls-1" d="M138.2,78.39a1.61,1.61,0,0,0-1.22,0,1.63,1.63,0,0,0-.84.87,1.38,1.38,0,0,0-.13.64,1.24,1.24,0,0,0,.13.6,1.57,1.57,0,0,0,.34.5,1.86,1.86,0,0,0,.5.35,1.5,1.5,0,0,0,1.22,0,1.86,1.86,0,0,0,.5-.35,1.77,1.77,0,0,0,.35-.5,1.33,1.33,0,0,0,.15-.6,1.58,1.58,0,0,0-.15-.64,2.49,2.49,0,0,0-.35-.52A2.11,2.11,0,0,0,138.2,78.39Z"/><path class="cls-1" d="M140,94.27l-1.3-.25V83.63h-4v1.08a.55.55,0,0,0,.42.53l1.33.25V94l-1.33.25a.55.55,0,0,0-.42.53v1.1h5.73V94.8A.54.54,0,0,0,140,94.27Z"/><path class="cls-1" d="M153.13,94.22H153v0c-.17,0-.5-.11-.8-.18L152,94V88a5.9,5.9,0,0,0-.27-1.89,3.8,3.8,0,0,0-.83-1.47,3.93,3.93,0,0,0-1.34-.92,4.42,4.42,0,0,0-1.85-.35,6.33,6.33,0,0,0-2.61.49,7.22,7.22,0,0,0-2.18,1.45l0,0,.41.72a1,1,0,0,0,.26.31.7.7,0,0,0,.42.11.9.9,0,0,0,.6-.21,4.44,4.44,0,0,1,.39-.24l.3-.18a5.05,5.05,0,0,1,.9-.43,3.45,3.45,0,0,1,1.29-.21,2.15,2.15,0,0,1,1.74.72,3.2,3.2,0,0,1,.61,2.11v.86a15.82,15.82,0,0,0-3.45.31,8.43,8.43,0,0,0-2.32.87,3.84,3.84,0,0,0-1.32,1.23,2.78,2.78,0,0,0-.39,1.42,3.45,3.45,0,0,0,.27,1.47,3.2,3.2,0,0,0,.74,1,3.1,3.1,0,0,0,1.1.59,3.81,3.81,0,0,0,1.32.22,5.66,5.66,0,0,0,1.31-.12,7.8,7.8,0,0,0,1.06-.36,3.93,3.93,0,0,0,1-.59l.35-.29.52-.42.21,1c.05.2.11.38.29.44a1.61,1.61,0,0,0,.52.09h2.57v-1.1A.54.54,0,0,0,153.13,94.22Zm-3.39-3.78v2.39a8.05,8.05,0,0,1-.69.64,5,5,0,0,1-.78.52,4.24,4.24,0,0,1-.87.31,4.35,4.35,0,0,1-1,.11,2.56,2.56,0,0,1-.77-.11,1.78,1.78,0,0,1-.6-.3,1.27,1.27,0,0,1-.41-.55,1.9,1.9,0,0,1-.16-.78,1.56,1.56,0,0,1,.27-.87,2.14,2.14,0,0,1,.93-.7,7.53,7.53,0,0,1,1.66-.49A13.93,13.93,0,0,1,149.74,90.44Z"/><path class="cls-1" d="M161.46,93.65a.86.86,0,0,0-.28.1l-.15.1-.14.1a1.83,1.83,0,0,1-.41.18,1.91,1.91,0,0,1-.58.09,1.33,1.33,0,0,1-.93-.33,1.51,1.51,0,0,1-.34-1.1V85.58h3.47V83.87h-3.47V79.7h-1.15a.61.61,0,0,0-.38.11.41.41,0,0,0-.17.34l-.48,3.71-2,.26V85a.48.48,0,0,0,.15.42.56.56,0,0,0,.38.11h1.39v7.36a3.16,3.16,0,0,0,.78,2.35,3.1,3.1,0,0,0,2.26.83,4.6,4.6,0,0,0,1.63-.29,4,4,0,0,0,1.36-.83l.05,0-.66-1.06A.41.41,0,0,0,161.46,93.65Z"/><path class="cls-1" d="M166.7,81.35a1.24,1.24,0,0,0,.6.13,1.28,1.28,0,0,0,.61-.13,1.71,1.71,0,0,0,.5-.35,1.77,1.77,0,0,0,.35-.5,1.33,1.33,0,0,0,.15-.6,1.43,1.43,0,0,0-.15-.64,2.15,2.15,0,0,0-.35-.52,1.93,1.93,0,0,0-.5-.35,1.28,1.28,0,0,0-.61-.12,1.24,1.24,0,0,0-.6.12,1.77,1.77,0,0,0-.5.35,1.9,1.9,0,0,0-.35.52,1.38,1.38,0,0,0-.13.64,1.24,1.24,0,0,0,.13.6,1.44,1.44,0,0,0,.35.5A1.59,1.59,0,0,0,166.7,81.35Z"/><path class="cls-1" d="M169.74,94.27,168.43,94V83.63h-4v1.08a.54.54,0,0,0,.42.53l1.33.25V94l-1.34.25a.54.54,0,0,0-.41.53v1.1h5.73V94.8A.55.55,0,0,0,169.74,94.27Z"/><path class="cls-1" d="M179.91,84.71a.5.5,0,0,0,.41.53l.87.16.41.08-2.55,6.44a12,12,0,0,0-.4,1.42,8.38,8.38,0,0,0-.38-1.42l-2.53-6.43.78-.14a2.76,2.76,0,0,0,.45-.09.49.49,0,0,0,.42-.52V83.63h-5.58v1.11a.49.49,0,0,0,.43.52l.12,0,.4.07a4.32,4.32,0,0,1,.6.13l4.25,10.44h2l4.25-10.44.61-.13c.27,0,.46-.1.52-.1a.47.47,0,0,0,.42-.5V83.63h-5.53Z"/><path class="cls-1" d="M195.8,84.85a4.31,4.31,0,0,0-1.61-1,5.43,5.43,0,0,0-2-.37,5.84,5.84,0,0,0-2.38.46A5.19,5.19,0,0,0,188,85.19a5.89,5.89,0,0,0-1.14,1.94,6.72,6.72,0,0,0-.42,2.37,8.41,8.41,0,0,0,.44,2.81,5.76,5.76,0,0,0,1.21,2.06,5.38,5.38,0,0,0,1.87,1.29,6.34,6.34,0,0,0,2.36.43,8.45,8.45,0,0,0,2.63-.45,5.81,5.81,0,0,0,1.19-.61,3.64,3.64,0,0,0,1-.83l0,0-.63-.83a.52.52,0,0,0-.47-.25,1,1,0,0,0-.51.21l-.72.38a7.59,7.59,0,0,1-1,.4,4.72,4.72,0,0,1-1.37.16,4,4,0,0,1-1.51-.28,3.06,3.06,0,0,1-1.17-.84,3.91,3.91,0,0,1-.8-1.37,6.1,6.1,0,0,1-.28-1.91h8a.64.64,0,0,0,.49-.2,1.41,1.41,0,0,0,.11-.71,6.82,6.82,0,0,0-.39-2.33A5.21,5.21,0,0,0,195.8,84.85Zm-3.6.32a3.34,3.34,0,0,1,1.29.23,2.89,2.89,0,0,1,1,.68,3.14,3.14,0,0,1,.56,1,4.14,4.14,0,0,1,.21,1.25h-6.43A4.11,4.11,0,0,1,189.86,86a3,3,0,0,1,2.18-.86l0,0Z"/></g></svg>