<svg id="Layer_1" data-name="Layer 1" xmlns="http://www.w3.org/2000/svg" viewBox="0 0 100 74.85"><defs><style>.cls-1{fill:#fff;}</style></defs><title>ddhi-vertical-dartmouth-text-white</title><path class="cls-1" d="M54.45,15.57l0-2.92,2.91,0v2.92Zm7.28,0,0-2.91-2.92,0,0,2.92Zm4.36,0,0-2.92-2.92,0,0,2.92Zm4.37,0,0-2.92-2.92,0,0,2.92Zm4.36,0,0-2.92-2.92,0,0,2.92Zm4.37,0V12.8H76.28v2.92Zm4.36,0,0-2.92-2.92,0,0,2.92Zm4.36,0,0-2.92-2.92,0,0,2.92Zm4.37,0,0-2.91-2.92,0,0,2.92Zm4.36,0,0-2.92-2.92,0,0,2.92ZM61.76,11.28l0-2.92H58.86l0,2.92Zm4.36,0,0-2.92-2.92,0,0,2.92Zm8.73,0,0-2.91L72,8.43l0,2.92Zm4.36,0,0-2.92-2.92,0,0,2.92Zm4.37,0V8.5l-2.91,0,0,2.92Zm4.36,0,0-2.92L85,8.51l0,2.92Zm8.73.05,0-2.92-2.92,0,0,2.92ZM66.15,7.12V4.2H63.25l0,2.92Zm13.09.09,0-2.92-2.92,0,0,2.92Zm4.36,0,0-2.92H80.7l0,2.91ZM66.17,2.94l0-2.92L63.27,0l0,2.92ZM79.26,3l0-2.92-2.92,0V3Zm4.37,0,0-2.92-2.92,0,0,2.92ZM96.69,7.31l0-2.92H93.79V7.3Zm-34,34.35v1.16h-3a.7.7,0,0,1-.68-.54l-.16-1.19A5,5,0,0,1,54.91,43a4,4,0,0,1-3.39-1.61,7.49,7.49,0,0,1-1.26-4.6,6.93,6.93,0,0,1,1.42-4.5,4.77,4.77,0,0,1,3.89-1.84,4.34,4.34,0,0,1,3.13,1.23V27.15l-1.48-.27a.51.51,0,0,1-.45-.54V25.18H61V40.85c.78.15,1.15.22,1.28.27A.49.49,0,0,1,62.72,41.66Zm-4-2.35V33.64a3.16,3.16,0,0,0-2.63-1.34,3,3,0,0,0-2.52,1.13,5.34,5.34,0,0,0-.87,3.32c0,2.23.54,3.55,1.67,4A3.1,3.1,0,0,0,55.6,41h0l0,0A3.83,3.83,0,0,0,58.7,39.31Zm18.13,2.35v1.16h-3a.69.69,0,0,1-.68-.54L73,41.09A5,5,0,0,1,69,43a4,4,0,0,1-3.4-1.61,7.49,7.49,0,0,1-1.25-4.6,6.93,6.93,0,0,1,1.42-4.5,4.74,4.74,0,0,1,3.89-1.84,4.36,4.36,0,0,1,3.13,1.23V27.15l-1.48-.27a.51.51,0,0,1-.45-.54V25.18h4.25V40.85a12.7,12.7,0,0,1,1.28.27A.48.48,0,0,1,76.83,41.66Zm-4-2.35V33.64a3.18,3.18,0,0,0-2.64-1.34,3,3,0,0,0-2.52,1.13,5.41,5.41,0,0,0-.87,3.32c0,2.23.55,3.55,1.67,4a3.17,3.17,0,0,0,1.25.23h.05l0,0A3.86,3.86,0,0,0,72.82,39.31Zm19.11,1.83c-.14,0-.56-.13-1.26-.27V35.1a5.08,5.08,0,0,0-1.07-3.37,3.8,3.8,0,0,0-3.06-1.27,5.18,5.18,0,0,0-3.7,1.62V25.23H78.55v1.11a.55.55,0,0,0,.46.56,13.11,13.11,0,0,0,1.47.27V40.9l-1.22.24a.55.55,0,0,0-.48.56v1.12h5.76V41.7a.55.55,0,0,0-.47-.56c-.11,0-.48-.11-1-.21l-.18,0V34a4.16,4.16,0,0,1,3.09-1.6c1.59,0,2.4.92,2.4,2.73v7.72h4V41.7A.54.54,0,0,0,91.93,41.14Zm4.09-13a1.88,1.88,0,0,0,.5.36,1.38,1.38,0,0,0,.62.13,1.32,1.32,0,0,0,.62-.13,1.79,1.79,0,0,0,.51-.36,1.93,1.93,0,0,0,.35-.5,1.38,1.38,0,0,0,.15-.62,1.43,1.43,0,0,0-.15-.64,1.81,1.81,0,0,0-.35-.53,1.77,1.77,0,0,0-.51-.35,1.32,1.32,0,0,0-.62-.13,1.38,1.38,0,0,0-.62.13,1.86,1.86,0,0,0-.5.35,1.81,1.81,0,0,0-.35.53,1.35,1.35,0,0,0-.13.64,1.32,1.32,0,0,0,.13.62A1.93,1.93,0,0,0,96,28.14Zm3.53,13-1.25-.24V30.65h-4v1.11a.56.56,0,0,0,.45.56l1.27.25v8.3l-1.28.24a.58.58,0,0,0-.44.57v1.14H100V41.68A.58.58,0,0,0,99.55,41.11Z"/><g id="Dartmouth_Wordmark" data-name="Dartmouth Wordmark"><path class="cls-1" d="M92.58,64.67v-.18H89.84v.18c.39.24.57.51.57,1.61v6.55c0,1.1-.18,1.38-.57,1.61v.19h2.74v-.19c-.39-.23-.56-.51-.56-1.61V70h5.81v2.82c0,1.1-.18,1.38-.57,1.61v.19H100v-.19c-.39-.23-.57-.51-.57-1.61V66.28c0-1.1.18-1.37.57-1.61v-.18H97.26v.18c.39.24.57.51.57,1.61v2.61H92V66.28c0-1.1.17-1.37.56-1.61m-7.53,9.77c-.44-.25-.64-.54-.64-1.68V65.59h1.23c1.58,0,1.89.23,2.31.75l.18-.06-.3-1.92a20.1,20.1,0,0,1-2.36.13H81.74a20.24,20.24,0,0,1-2.36-.13l-.3,1.92.19.06c.42-.52.72-.75,2.3-.75H82.8v7.17c0,1.14-.2,1.43-.64,1.68v.19h2.89ZM75,64.67c.42.25.64.54.64,1.69v4.33a2.55,2.55,0,0,1-2.75,2.88,2.52,2.52,0,0,1-2.81-2.78V66.28c0-1.1.17-1.37.56-1.61v-.18H67.89v.18c.39.24.57.51.57,1.61v4.61c0,2.49,1.55,4,4.2,4s4.2-1.48,4.2-4.16V66.36c0-1.15.22-1.44.64-1.69v-.18H75ZM60.9,64.25a5.26,5.26,0,0,0-5.37,5.38,5.12,5.12,0,0,0,5.38,5.22,5.25,5.25,0,0,0,5.36-5.38,5.11,5.11,0,0,0-5.37-5.22M61,73.73c-2.14,0-3.8-1.87-3.8-4.42s1.41-3.94,3.53-3.94,3.79,1.87,3.79,4.42-1.4,3.94-3.52,3.94m-17.11.71c-.45-.19-.64-.54-.49-1.65l.66-5,3.31,6.75H48l3.34-6.77L52,72.85c.13,1.08,0,1.4-.44,1.59v.19H54.3v-.19c-.37-.2-.53-.51-.68-1.54l-1.16-8.53h-.74l-3.78,7.81-3.78-7.81h-.74l-1.2,8.48c-.14,1.05-.36,1.37-.78,1.59v.19h2.49Zm-6.24,0c-.44-.25-.64-.54-.64-1.68V65.59h1.23c1.58,0,1.88.23,2.3.75l.19-.06-.3-1.92a20.24,20.24,0,0,1-2.36.13H34.38A20.1,20.1,0,0,1,32,64.36l-.3,1.92.18.06c.42-.52.73-.75,2.31-.75h1.23v7.17c0,1.14-.2,1.43-.64,1.68v.19h2.89ZM25,74.44c-.32-.16-.57-.51-.57-1.61V65.54h1.32c1.61,0,2.42.63,2.42,2s-.77,2-2.23,2H25v.15l.45.91h.44c.47,0,.62.16,1.33,1.12L29,74.12a1,1,0,0,0,.87.51h1.78v-.19c-.37-.15-.66-.36-1.36-1.26l-1.25-1.59c-.66-.85-1-1.27-1.46-1.44a2.75,2.75,0,0,0,2.26-2.72c0-1.87-1.25-2.94-3.94-2.94H22.27v.18c.32.16.56.51.56,1.61v6.55c0,1.1-.24,1.45-.56,1.61v.19H25Zm-5.35-1.38-3.93-8.69h-.59l-3.93,8.69c-.39.86-.59,1.18-1,1.38v.19h2.6v-.19c-.52-.2-.69-.52-.23-1.58l.54-1.23h4.17l.54,1.23c.46,1.06.3,1.38-.16,1.58v.19h3v-.19c-.38-.2-.57-.52-1-1.38m-6.1-2.47,1.62-3.71,1.63,3.71Zm-9.17-6.1H0v.18c.39.24.57.51.57,1.61v6.55c0,1.1-.18,1.38-.57,1.61v.19H4.11c3.83,0,5.8-2.26,5.8-5.35,0-2.78-1.91-4.79-5.52-4.79m-.39,9H2.16V65.59h2c2.64,0,4.09,1.33,4.09,4.08,0,2.39-1.32,3.86-4.22,3.86"/></g></svg>