<svg id="background" xmlns="http://www.w3.org/2000/svg" viewBox="0 0 564.48 100"><defs><style>.cls-1{fill:#232526;}</style></defs><path class="cls-1" d="M0,99.36V82.94l16.42,0V99.34Zm41,0V82.91H24.55V99.34Zm24.55,0,0-16.42H49.09l0,16.42Zm24.54,0V82.87H73.64V99.3Zm24.55,0V82.85H98.19V99.28Zm24.55,0,0-16.42H122.73l0,16.42Zm24.54,0V82.81H147.28V99.24Zm24.55,0V82.79H171.83V99.22Zm24.54,0V82.77l-16.42,0,0,16.41Zm24.55,0V82.75l-16.42,0V99.19ZM41,75V58.54l-16.42,0V75Zm24.55,0,0-16.42-16.42,0,0,16.42Zm49.09,0V58.49H98.17V74.92Zm24.55,0,0-16.42H122.71l0,16.42Zm24.54,0V58.45H147.26V74.88Zm24.55,0V58.43H171.81V74.86Zm49.09,0V58.39H220.9V74.82ZM65.49,51.39V35L49.06,35V51.41Zm73.64,0V34.92H122.7V51.35Zm24.54,0V34.9H147.24l0,16.42ZM65.47,27.84V11.42L49,11.44V27.86Zm73.64-.05V11.37H122.68V27.8Zm24.55,0,0-16.42H147.22l0,16.42Zm73.65,23.49V34.84H220.88V51.27ZM354.77,92.69V99.2H337.65a3.93,3.93,0,0,1-3.83-3l-.88-6.7c-6.27,7-13.5,10.48-22.07,10.48-8.16,0-14.41-3-19.1-9s-7-14.89-7-25.88c0-10.31,2.68-18.84,8-25.35,5.48-6.85,12.84-10.33,21.87-10.33a24.32,24.32,0,0,1,17.62,6.94V11.06l-8.32-1.49a2.9,2.9,0,0,1-2.55-3.06V0h23.9V88.15c4.38.82,6.49,1.26,7.22,1.51A2.74,2.74,0,0,1,354.77,92.69ZM332.2,79.47V47.58a17.92,17.92,0,0,0-14.83-7.5c-6.27,0-10.9,2.08-14.18,6.36s-4.89,10.42-4.89,18.67c0,12.5,3.07,19.93,9.4,22.71a17.54,17.54,0,0,0,7,1.27H315l.13.13C321.64,89.13,327.38,85.85,332.2,79.47Zm102,13.22V99.2H417.06a3.91,3.91,0,0,1-3.83-3l-.89-6.7c-6.26,7-13.49,10.48-22.06,10.48-8.17,0-14.42-3-19.1-9s-7-14.89-7-25.88c0-10.31,2.68-18.84,8-25.35C377.6,32.91,385,29.43,394,29.43a24.28,24.28,0,0,1,17.61,6.94V11.06l-8.32-1.49a2.9,2.9,0,0,1-2.55-3.06V0h23.9V88.15c4.44.83,6.49,1.26,7.23,1.51A2.74,2.74,0,0,1,434.18,92.69ZM411.6,79.47V47.58a17.9,17.9,0,0,0-14.83-7.5c-6.26,0-10.9,2.08-14.17,6.36s-4.9,10.42-4.9,18.67c0,12.5,3.08,19.93,9.4,22.71a17.61,17.61,0,0,0,7,1.27h.29l.12.13C401.05,89.13,406.79,85.85,411.6,79.47ZM519.08,89.79c-.79-.26-3.11-.76-7.09-1.51V55.83c0-7.83-2.07-14.4-6-19s-9.85-7.13-17.22-7.13c-7.66,0-14.48,3-20.79,9.1V.27H443.81V6.51a3.1,3.1,0,0,0,2.59,3.17c.8.27,3.51.77,8.28,1.53V88.42l-6.87,1.35A3.13,3.13,0,0,0,445.14,93V99.2h32.38V93a3.13,3.13,0,0,0-2.64-3.19c-.62-.15-2.68-.58-5.88-1.2l-1-.17V49.47c5.47-6.06,11.14-9,17.35-9,9,0,13.5,5.17,13.5,15.36V99.2h22.71V93A3,3,0,0,0,519.08,89.79Zm23-73.11a10.11,10.11,0,0,0,2.83,2,8.68,8.68,0,0,0,7,0,10.32,10.32,0,0,0,2.83-2,10.11,10.11,0,0,0,2-2.83,7.73,7.73,0,0,0,.87-3.49,8.24,8.24,0,0,0-.87-3.62,10.65,10.65,0,0,0-2-3,10.11,10.11,0,0,0-2.83-2,8.58,8.58,0,0,0-7,0,10.11,10.11,0,0,0-2.83,2,10.89,10.89,0,0,0-2,3,8,8,0,0,0-.73,3.62,7.58,7.58,0,0,0,.73,3.49A10.13,10.13,0,0,0,542.11,16.68Zm19.83,72.95-7-1.35V30.76H532.23V37a3.25,3.25,0,0,0,2.54,3.19l7.14,1.35V88.28l-7.16,1.36a3.23,3.23,0,0,0-2.52,3.18V99.2h32.25V92.82A3.24,3.24,0,0,0,561.94,89.63Z"/></svg>