<svg id="Layer_1" data-name="Layer 1" xmlns="http://www.w3.org/2000/svg" viewBox="0 0 640 552.78"><defs><style>.cls-1{fill:#232526;}</style></defs><path class="cls-1" d="M53.82,200.36l.23-37.57,37.56.23-.23,37.57Zm93.72.57.23-37.56-37.56-.23L110,200.7Zm56.15.35.24-37.56-37.57-.23-.23,37.56Zm56.16.35.23-37.56-37.56-.23-.24,37.56ZM316,202l.24-37.56-37.57-.24-.23,37.57Zm56.16.35.23-37.57-37.56-.23-.23,37.57Zm56.16.35.23-37.57L391,164.88l-.24,37.57Zm56.15.35.24-37.57-37.57-.23-.23,37.56Zm56.16.34.23-37.56-37.56-.23-.24,37.56Zm56.15.35.24-37.56-37.57-.23-.23,37.56ZM147.88,145.2l.24-37.56-37.57-.23L110.32,145Zm56.16.35.23-37.57-37.56-.23-.24,37.57Zm112.31.7.23-37.57L279,108.45,278.79,146Zm56.16.34.23-37.56-37.57-.23-.23,37.56Zm56.15.35.24-37.56-37.57-.23-.23,37.56Zm56.16.35.23-37.56-37.56-.23-.24,37.56Zm112.31.7.23-37.57-37.56-.23-.23,37.56ZM204.37,91.67l.24-37.56L167,53.88l-.23,37.56Zm168.47,1,.23-37.57-37.56-.23-.23,37.57Zm56.16.35.23-37.57-37.56-.23-.24,37.56ZM204.71,37.8,204.94.23,167.38,0l-.24,37.56Zm168.46,1,.24-37.56L335.84,1l-.23,37.57Zm56.16.35.23-37.57L392,1.39,391.77,39ZM597.46,94.11l.24-37.56-37.57-.23-.23,37.56ZM160.23,536.05V551H121.06c-4.18,0-7.29-2.43-8.76-6.83l-2-15.33c-14.32,16.13-30.87,24-50.48,24-18.68,0-33-6.75-43.69-20.62C5.41,518,0,498.1,0,473c0-23.59,6.14-43.11,18.24-58,12.55-15.68,29.38-23.63,50.05-23.63,16,0,29.53,5.34,40.29,15.88v-57.9l-19-3.41c-3.78-.76-5.84-3.24-5.84-7V324h54.68V525.66c10,1.89,14.86,2.9,16.53,3.45C158.38,529.8,160.23,532.15,160.23,536.05Zm-51.65-30.24v-73c-8.7-11.39-20.12-17.17-33.92-17.17-14.34,0-24.95,4.76-32.43,14.56S31,454.07,31,473c0,28.59,7,45.58,21.52,51.95a40.17,40.17,0,0,0,16.05,2.9h.65l.3.3C84.43,527.91,97.57,520.41,108.58,505.81Zm233.31,30.24V551H302.72c-4.18,0-7.29-2.43-8.75-6.83l-2-15.33c-14.32,16.13-30.86,24-50.47,24-18.69,0-33-6.75-43.7-20.62C187.07,518,181.66,498.1,181.66,473c0-23.59,6.14-43.11,18.25-58,12.54-15.68,29.38-23.63,50-23.63,16,0,29.52,5.34,40.3,15.88v-57.9l-19-3.41c-3.77-.76-5.84-3.24-5.84-7V324h54.68V525.66c10.16,1.91,14.84,2.89,16.53,3.45C340,529.8,341.89,532.15,341.89,536.05Zm-51.64-30.24v-73c-8.71-11.39-20.13-17.17-33.93-17.17-14.33,0-24.94,4.76-32.43,14.56s-11.2,23.83-11.2,42.73c0,28.59,7,45.58,21.51,51.95a40.21,40.21,0,0,0,16.05,2.9h.65l.3.3C266.1,527.91,279.23,520.41,290.25,505.81Zm245.89,23.61c-1.82-.61-7.13-1.74-16.23-3.46V451.73c0-17.92-4.74-33-13.72-43.47-9.28-10.83-22.53-16.32-39.4-16.32-17.53,0-33.12,6.82-47.58,20.83V324.61H363.93V338.9a7.1,7.1,0,0,0,5.92,7.25c1.83.61,8,1.75,18.95,3.49V526.28l-15.73,3.09a7.17,7.17,0,0,0-6.11,7.29V551h74.09v-14.3a7.16,7.16,0,0,0-6-7.28c-1.43-.35-6.14-1.34-13.47-2.75l-2.34-.39V437.17c12.52-13.85,25.51-20.58,39.69-20.58,20.5,0,30.9,11.83,30.9,35.14V551h51.95v-14.3C541.75,532.76,539.64,530.11,536.14,529.42Zm52.67-167.27a23.31,23.31,0,0,0,6.47,4.54,19.77,19.77,0,0,0,16,0,22.78,22.78,0,0,0,11-11,17.77,17.77,0,0,0,2-8,18.89,18.89,0,0,0-2-8.28,24.45,24.45,0,0,0-4.53-6.77,23,23,0,0,0-6.48-4.54,19.77,19.77,0,0,0-16,0,23,23,0,0,0-6.47,4.54,24.7,24.7,0,0,0-4.54,6.77,18.23,18.23,0,0,0-1.68,8.28,17.09,17.09,0,0,0,1.68,8A23.16,23.16,0,0,0,588.81,362.15Zm45.38,166.91-16-3.09V394.37H566.21v14.3A7.4,7.4,0,0,0,572,416l16.32,3.1V526L572,529.07a7.39,7.39,0,0,0-5.77,7.29V551H640v-14.6A7.4,7.4,0,0,0,634.19,529.06Z"/><path class="cls-1" d="M53.82,200.36l.23-37.57,37.56.23-.23,37.57Zm93.72.57.23-37.56-37.56-.23L110,200.7Zm56.15.35.24-37.56-37.57-.23-.23,37.56Zm56.16.35.23-37.56-37.56-.23-.24,37.56ZM316,202l.24-37.56-37.57-.24-.23,37.57Zm56.16.35.23-37.57-37.56-.23-.23,37.57Zm56.16.35.23-37.57L391,164.88l-.24,37.57Zm56.15.35.24-37.57-37.57-.23-.23,37.56Zm56.16.34.23-37.56-37.56-.23-.24,37.56Zm56.15.35.24-37.56-37.57-.23-.23,37.56ZM147.88,145.2l.24-37.56-37.57-.23L110.32,145Zm56.16.35.23-37.57-37.56-.23-.24,37.57Zm112.31.7.23-37.57L279,108.45,278.79,146Zm56.16.34.23-37.56-37.57-.23-.23,37.56Zm56.15.35.24-37.56-37.57-.23-.23,37.56Zm56.16.35.23-37.56-37.56-.23-.24,37.56Zm112.31.7.23-37.57-37.56-.23-.23,37.56ZM204.37,91.67l.24-37.56L167,53.88l-.23,37.56Zm168.47,1,.23-37.57-37.56-.23-.23,37.57Zm56.16.35.23-37.57-37.56-.23-.24,37.56ZM204.71,37.8,204.94.23,167.38,0l-.24,37.56Zm168.46,1,.24-37.56L335.84,1l-.23,37.57Zm56.16.35.23-37.57L392,1.39,391.77,39ZM597.46,94.11l.24-37.56-37.57-.23-.23,37.56ZM160.23,536.05V551H121.06c-4.18,0-7.29-2.43-8.76-6.83l-2-15.33c-14.32,16.13-30.87,24-50.48,24-18.68,0-33-6.75-43.69-20.62C5.41,518,0,498.1,0,473c0-23.59,6.14-43.11,18.24-58,12.55-15.68,29.38-23.63,50.05-23.63,16,0,29.53,5.34,40.29,15.88v-57.9l-19-3.41c-3.78-.76-5.84-3.24-5.84-7V324h54.68V525.66c10,1.89,14.86,2.9,16.53,3.45C158.38,529.8,160.23,532.15,160.23,536.05Zm-51.65-30.24v-73c-8.7-11.39-20.12-17.17-33.92-17.17-14.34,0-24.95,4.76-32.43,14.56S31,454.07,31,473c0,28.59,7,45.58,21.52,51.95a40.17,40.17,0,0,0,16.05,2.9h.65l.3.3C84.43,527.91,97.57,520.41,108.58,505.81Zm233.31,30.24V551H302.72c-4.18,0-7.29-2.43-8.75-6.83l-2-15.33c-14.32,16.13-30.86,24-50.47,24-18.69,0-33-6.75-43.7-20.62C187.07,518,181.66,498.1,181.66,473c0-23.59,6.14-43.11,18.25-58,12.54-15.68,29.38-23.63,50-23.63,16,0,29.52,5.34,40.3,15.88v-57.9l-19-3.41c-3.77-.76-5.84-3.24-5.84-7V324h54.68V525.66c10.16,1.91,14.84,2.89,16.53,3.45C340,529.8,341.89,532.15,341.89,536.05Zm-51.64-30.24v-73c-8.71-11.39-20.13-17.17-33.93-17.17-14.33,0-24.94,4.76-32.43,14.56s-11.2,23.83-11.2,42.73c0,28.59,7,45.58,21.51,51.95a40.21,40.21,0,0,0,16.05,2.9h.65l.3.3C266.1,527.91,279.23,520.41,290.25,505.81Zm245.89,23.61c-1.82-.61-7.13-1.74-16.23-3.46V451.73c0-17.92-4.74-33-13.72-43.47-9.28-10.83-22.53-16.32-39.4-16.32-17.53,0-33.12,6.82-47.58,20.83V324.61H363.93V338.9a7.1,7.1,0,0,0,5.92,7.25c1.83.61,8,1.75,18.95,3.49V526.28l-15.73,3.09a7.17,7.17,0,0,0-6.11,7.29V551h74.09v-14.3a7.16,7.16,0,0,0-6-7.28c-1.43-.35-6.14-1.34-13.47-2.75l-2.34-.39V437.17c12.52-13.85,25.51-20.58,39.69-20.58,20.5,0,30.9,11.83,30.9,35.14V551h51.95v-14.3C541.75,532.76,539.64,530.11,536.14,529.42Zm52.67-167.27a23.31,23.31,0,0,0,6.47,4.54,19.77,19.77,0,0,0,16,0,22.78,22.78,0,0,0,11-11,17.77,17.77,0,0,0,2-8,18.89,18.89,0,0,0-2-8.28,24.45,24.45,0,0,0-4.53-6.77,23,23,0,0,0-6.48-4.54,19.77,19.77,0,0,0-16,0,23,23,0,0,0-6.47,4.54,24.7,24.7,0,0,0-4.54,6.77,18.23,18.23,0,0,0-1.68,8.28,17.09,17.09,0,0,0,1.68,8A23.16,23.16,0,0,0,588.81,362.15Zm45.38,166.91-16-3.09V394.37H566.21v14.3A7.4,7.4,0,0,0,572,416l16.32,3.1V526L572,529.07a7.39,7.39,0,0,0-5.77,7.29V551H640v-14.6A7.4,7.4,0,0,0,634.19,529.06Z"/></svg>